<?xml version="1.0" standalone="no"?>
<!DOCTYPE svg PUBLIC "-//W3C//DTD SVG 1.1//EN" "http://www.w3.org/Graphics/SVG/1.1/DTD/svg11.dtd" >
<svg xmlns="http://www.w3.org/2000/svg">
<metadata>
Created by FontPrep 20130207 at Sun May 22 19:32:12 2016
 By Blaine O'Neill
Copyright (c) 2014, Cooper Hewitt Smithsonian Design Museum (cooperhewitt.org)
</metadata>
<defs>
<font id="0ebcea87d7a3234bbf81e32498705b49" horiz-adv-x='1024' >
  <font-face 
    font-family="CooperHewitt-Light"
    font-weight="703"
    font-stretch="normal"
    units-per-em="2048"
    panose-1="0 0 0 0 0 0 0 0 0 0"
    ascent="1536"
    descent="-512"
    x-height="1085"
    cap-height="1597"
    bbox="-430 -430 2818.01 1966"
    underline-thickness="102"
    underline-position="-102"
    unicode-range="U+0020-F222"
  />
<missing-glyph horiz-adv-x="1986" 
d="M1085 799l564 -563v1126zM901 799l-563 563v-1126zM422 1462l571 -571l572 571h-1143zM993 707l-571 -572h1143zM195 0v1597h1597v-1597h-1597z" />
    <glyph glyph-name=".notdef" horiz-adv-x="1986" 
d="M1085 799l564 -563v1126zM901 799l-563 563v-1126zM422 1462l571 -571l572 571h-1143zM993 707l-571 -572h1143zM195 0v1597h1597v-1597h-1597z" />
    <glyph glyph-name=".null" horiz-adv-x="0" 
 />
    <glyph glyph-name="nonmarkingreturn" horiz-adv-x="681" 
 />
    <glyph glyph-name="space" unicode=" " horiz-adv-x="409" 
 />
    <glyph glyph-name="exclam" unicode="!" horiz-adv-x="409" 
d="M266 123v-123h-123v123h123zM158 1597h94l-23 -1239h-49z" />
    <glyph glyph-name="quotedbl" unicode="&#x22;" 
d="M362 1597h95l-23 -512h-49zM158 1597h94l-23 -512h-49z" />
    <glyph glyph-name="numbersign" unicode="#" horiz-adv-x="1228" 
d="M485 1004l-98 -410h354l99 410h-355zM205 1004v81h219l123 512h82l-123 -512h354l123 512h82l-123 -512h211v-81h-231l-99 -410h201v-82h-219l-123 -512h-82l123 512h-354l-123 -512h-82l123 512h-211v82h229l98 410h-198z" />
    <glyph glyph-name="dollar" unicode="$" horiz-adv-x="1228" 
d="M246 1133q0 -113 77 -180t255 -93l131 543q-43 6 -91 6h-6q-158 0 -262 -72t-104 -194v-10zM639 188q166 0 263 77t97 212v10q0 131 -87 197t-271 92l-137 -573q55 -14 129 -15h6zM1071 1055v-35h-82q0 291 -205 362l-127 -532q221 -27 325 -114t103 -240v-15
q1 -170 -121 -270t-329 -100q-78 0 -150 16l-59 -250h-82l66 273q-129 51 -198 155t-69 236v14h82q0 -233 203 -326l133 557q-401 55 -401 336v13q0 158 127 255t327 97q43 0 113 -8l57 241h82l-63 -260q268 -84 268 -405z" />
    <glyph glyph-name="percent" unicode="%" horiz-adv-x="1843" 
d="M664 1288q0 119 -70 186t-174 66h-12q-104 0 -175 -66q-70 -67 -69 -186v-37q0 -119 70 -185t174 -67h12q104 0 174 67t70 185v37zM1180 309q0 -119 70 -185t173 -67h13q104 0 174 67t69 185v37q1 120 -69 186t-174 66h-13q-104 0 -174 -67t-69 -185v-37zM1102 338
q0 162 93 250t235 88t234 -88q93 -88 93 -250v-21q0 -161 -93 -249t-234 -88t-235 88q-93 88 -93 249v21zM919 1454q-129 0 -229 23q51 -80 51 -197v-20q0 -162 -93 -250t-234 -88t-235 88q-93 88 -93 250v20q0 162 93 250t235 88q70 0 125 -21q190 -66 362 -65q90 0 205 22
t158 43v-75l-631 -1522h-86l618 1491q-117 -37 -246 -37z" />
    <glyph glyph-name="ampersand" unicode="&#x26;" horiz-adv-x="1331" 
d="M229 1300v-20q0 -70 33 -136t70 -111q37 -44 114 -122q180 121 230 170q96 96 98 199v20q0 98 -69 167q-70 69 -195 69h-16q-125 0 -195 -69t-70 -167zM547 61h12q258 0 397 191l-526 555q-118 -86 -182 -174t-64 -203v-20q0 -160 92 -254t271 -95zM553 -20
q-209 0 -330 112t-121 318v20q0 140 73 240t202 192q-127 133 -180 220t-54 198v20q1 142 97 230t262 88t262 -88t96 -230v-20q0 -129 -105 -230q-86 -82 -166 -135q-80 -52 -89 -61l501 -528q94 182 95 473v10h82q0 -338 -117 -545l250 -264h-115l-182 193
q-162 -213 -461 -213z" />
    <glyph glyph-name="quotesingle" unicode="'" horiz-adv-x="409" 
d="M158 1597h94l-23 -512h-49z" />
    <glyph glyph-name="parenleft" unicode="(" 
d="M113 717v41q0 340 101 571q52 119 99 199t127 192h92q-170 -236 -254 -446t-83 -516v-41q0 -307 84 -517t253 -446h-92q-80 113 -127 193q-136 231 -176 459q-24 141 -24 311z" />
    <glyph glyph-name="parenright" unicode=")" 
d="M502 758v-41q0 -337 -102 -572q-52 -119 -99 -199t-127 -192h-92q170 236 254 446t84 517v41q0 307 -84 517t-254 445h92q80 -112 127 -192t99 -199q102 -233 102 -571z" />
    <glyph glyph-name="asterisk" unicode="*" horiz-adv-x="778" 
d="M639 997l-66 -47l-172 254l50 35zM727 1423l27 -77l-297 -84l-19 57zM205 950l-66 47l189 242l49 -35zM25 1346l26 77l289 -104l-18 -57zM348 1638h82l-10 -307h-62z" />
    <glyph glyph-name="plus" unicode="+" horiz-adv-x="1228" 
d="M573 1311h82v-471h471v-82h-471v-471h-82v471h-471v82h471v471z" />
    <glyph glyph-name="comma" unicode="," horiz-adv-x="409" 
d="M266 123v-98q0 -250 -184 -250v61q61 0 91 36t32 128h-62v123h123z" />
    <glyph glyph-name="hyphen" unicode="-" horiz-adv-x="655" 
d="M82 678v78h491v-78h-491z" />
    <glyph glyph-name="period" unicode="." horiz-adv-x="409" 
d="M266 123v-123h-123v123h123z" />
    <glyph glyph-name="slash" unicode="/" 
d="M584 1720l-471 -1966h-82l471 1966h82z" />
    <glyph glyph-name="zero" unicode="0" horiz-adv-x="1228" 
d="M1004 1116q0 205 -88 315t-295 109h-13q-207 0 -295 -110t-88 -314v-635q0 -205 88 -315t295 -109h13q207 0 295 110t88 314v635zM1090 461q0 -223 -114 -352t-362 -129t-362 129t-113 352v676q0 223 114 352q113 129 361 129t362 -129t114 -352v-676z" />
    <glyph glyph-name="one" unicode="1" horiz-adv-x="1228" 
d="M1116 0h-962v82h440v1399l-418 -283l-43 70l502 340h41v-1526h440v-82z" />
    <glyph glyph-name="two" unicode="2" horiz-adv-x="1228" 
d="M1106 82v-82h-983v51l717 754q102 106 141 186t39 176v21q0 160 -110 256t-289 96h-13q-207 0 -305 -113t-98 -362h-82v51q0 502 491 502q228 0 360 -111t132 -309v-20q0 -121 -39 -208t-149 -202l-656 -688l158 2h686z" />
    <glyph glyph-name="three" unicode="3" horiz-adv-x="1228" 
d="M195 512q0 -227 106 -341t303 -114h21q169 0 287 88t118 254v31q0 168 -107 257q-108 89 -274 89h-239v78h229q168 0 274 80t107 240v14q0 162 -108 257t-287 95h-21q-207 0 -303 -113t-96 -362h-82v51q0 502 491 502q228 0 360 -111t132 -309v-29q0 -279 -287 -354
q139 -39 218 -135t79 -246v-31q0 -197 -144 -311t-358 -112q-252 0 -376 135t-125 377v20h82z" />
    <glyph glyph-name="four" unicode="4" horiz-adv-x="1228" 
d="M778 532v676l2 242l-592 -920l201 2h389zM860 0h-82v451h-706v51l706 1095h82v-1065h297v-81h-297v-451z" />
    <glyph glyph-name="five" unicode="5" horiz-adv-x="1228" 
d="M113 512h82q0 -227 106 -341t303 -114h21q173 1 289 105t116 309v41q0 205 -117 309t-288 105h-21q-135 0 -249 -65t-162 -185l-68 18l39 903h932v-81h-854l-29 -687q135 174 401 175q214 0 358 -132t144 -370v-21q0 -241 -143 -371t-377 -130t-358 135t-125 377v20z" />
    <glyph glyph-name="six" unicode="6" horiz-adv-x="1228" 
d="M629 922q-141 0 -252 -71t-168 -189q-4 -37 -4 -109v-21q0 -215 118 -343t295 -128h13q193 0 301 109t108 305v33q0 198 -108 306t-291 108h-12zM1055 1618v-82q-172 0 -346 -76t-299 -242t-179 -409q147 195 404 195q219 0 355 -127t136 -375v-21q0 -248 -137 -375
q-137 -126 -359 -126t-365 145q-142 145 -142 407v21q0 428 225 729q126 166 320 251t387 85z" />
    <glyph glyph-name="seven" unicode="7" horiz-adv-x="1228" 
d="M133 1024v573h983v-51l-629 -1546h-88l617 1518l-240 -2h-561v-492h-82z" />
    <glyph glyph-name="eight" unicode="8" horiz-adv-x="1228" 
d="M625 1540h-21q-180 0 -288 -93t-107 -253v-14q0 -160 106 -243t275 -83h49q168 0 274 83t107 243v14q0 160 -108 253t-287 93zM580 776q-166 0 -274 -92t-107 -260v-31q1 -166 117 -251t288 -85h21q173 0 289 85t116 251v31q0 168 -107 260q-108 92 -274 92h-69zM614 -20
q-215 0 -358 110t-143 307v31q0 152 80 250t217 137q-133 35 -210 126t-77 235v28q0 198 131 306t360 108q228 0 360 -109t132 -305v-28q0 -142 -77 -234t-212 -127q139 -39 219 -137t80 -250v-31q0 -197 -144 -307t-358 -110z" />
    <glyph glyph-name="nine" unicode="9" horiz-adv-x="1228" 
d="M600 676q139 0 250 70t168 188q6 57 6 110v21q0 215 -118 343t-296 128h-12q-194 0 -302 -109t-108 -305v-32q0 -197 108 -306t292 -108h12zM174 -20v81q172 0 346 76t300 244t175 405q-145 -193 -401 -192q-219 0 -355 127t-137 375v20q0 248 138 375t359 127
q223 0 365 -145t142 -408v-21q0 -428 -225 -729q-125 -167 -319 -251t-388 -84z" />
    <glyph glyph-name="colon" unicode=":" horiz-adv-x="409" 
d="M266 860v-123h-123v123h123zM266 123v-123h-123v123h123z" />
    <glyph glyph-name="semicolon" unicode=";" horiz-adv-x="409" 
d="M266 860v-123h-123v123h123zM266 123v-98q0 -250 -184 -250v61q61 0 91 36t32 128h-62v123h123z" />
    <glyph glyph-name="less" unicode="&#x3c;" horiz-adv-x="1228" 
d="M102 840l1024 503v-86l-942 -458l942 -459v-86l-1024 504v82z" />
    <glyph glyph-name="equal" unicode="=" horiz-adv-x="1228" 
d="M102 553v82h1024v-82h-1024zM102 963v81h1024v-81h-1024z" />
    <glyph glyph-name="greater" unicode="&#x3e;" horiz-adv-x="1228" 
d="M1126 840v-82l-1024 -504v86l940 459l-940 458v86z" />
    <glyph glyph-name="question" unicode="?" horiz-adv-x="901" 
d="M512 123v-123h-123v123h123zM450 1540q-171 0 -241 -132t-70 -384h-82v20q0 422 201 530q82 44 199 44q379 0 379 -430q0 -206 -124 -349q-52 -59 -104 -121q-129 -151 -133 -360h-49q-4 218 110 379q48 68 96 131q118 155 118 322q0 168 -64 259t-236 91z" />
    <glyph glyph-name="at" unicode="@" horiz-adv-x="1945" 
d="M953 1028q-177 0 -261 -112t-84 -291v-41q0 -180 84 -292t261 -112t296 189v471q-119 188 -296 188zM1018 -352h12q393 0 674 209l45 -62q-289 -225 -721 -225t-694 264t-262 719v82q0 457 257 720t685 263q364 0 606 -207q118 -100 186 -261t68 -362v-61
q0 -356 -154 -486q-76 -65 -169 -91t-220 -27h-51l-20 156q-106 -177 -320 -177t-316 140q-101 140 -102 342v41q0 203 102 342t316 139q215 0 320 -178l20 157h61l-10 -307v-579q111 2 183 20q72 17 141 71q133 105 133 437v61q0 188 -62 336q-115 271 -415 371
q-135 45 -291 45h-12q-386 0 -620 -244t-234 -661v-82q0 -428 237 -667q238 -238 627 -238z" />
    <glyph glyph-name="A" unicode="A" horiz-adv-x="1228" 
d="M614 1536l-305 -1026h609zM553 1618h123l483 -1618h-90l-129 432h-653l-127 -432h-90z" />
    <glyph glyph-name="B" unicode="B" horiz-adv-x="1167" 
d="M537 1520h-291v-660h291q170 0 275 77t106 237v32q0 160 -106 237t-275 77zM578 782h-332v-704h332q168 0 274 85t106 251v32q0 166 -106 251t-274 85zM164 1597h362q213 0 345 -99t133 -288v-41q0 -268 -267 -344q143 -33 225 -127t82 -247v-41q0 -198 -132 -304
t-345 -106h-403v1597z" />
    <glyph glyph-name="C" unicode="C" horiz-adv-x="1243" 
d="M215 758q1 -369 107 -535t327 -166h13q198 0 290 114t92 341h86v-20q0 -244 -120 -378t-372 -134q-253 0 -381 185t-128 593v82q0 408 128 593t394 185q479 0 479 -543v-51h-86q0 274 -91 395t-291 121h-13q-219 0 -327 -166t-107 -534v-82z" />
    <glyph glyph-name="D" unicode="D" horiz-adv-x="1290" 
d="M246 78h307q252 0 387 160t135 520v82q0 360 -135 520t-387 160h-307v-1442zM1161 758q0 -758 -598 -758h-399v1597h399q598 0 598 -757v-82z" />
    <glyph glyph-name="E" unicode="E" horiz-adv-x="1105" 
d="M164 1597h860v-77h-778v-666h676v-78h-676v-698h778v-78h-860v1597z" />
    <glyph glyph-name="F" unicode="F" horiz-adv-x="1024" 
d="M164 1597h819v-77h-737v-666h635v-78h-635v-776h-82v1597z" />
    <glyph glyph-name="G" unicode="G" horiz-adv-x="1306" 
d="M703 -20q-294 0 -434 185t-140 593v82q0 406 137 592t406 186q481 0 481 -543v-51h-86q0 274 -92 395t-293 121h-12q-223 0 -339 -168t-116 -532v-82q0 -369 117 -535t358 -166h12q126 0 222 42t147 104v479h-297v78h379v-598q-156 -182 -450 -182z" />
    <glyph glyph-name="H" unicode="H" horiz-adv-x="1290" 
d="M1044 1597h82v-1597h-82v776h-798v-776h-82v1597h82v-743h798v743z" />
    <glyph glyph-name="I" unicode="I" horiz-adv-x="430" 
d="M256 1597v-1597h-82v1597h82z" />
    <glyph glyph-name="J" unicode="J" horiz-adv-x="983" 
d="M748 1597h81v-1105q0 -250 -89 -381t-296 -131q-208 0 -294 128t-87 384v20h78q0 -240 72 -348q71 -108 231 -107q160 0 232 108t72 347v1085z" />
    <glyph glyph-name="K" unicode="K" horiz-adv-x="1105" 
d="M246 1597v-968l678 968h100l-487 -684l487 -913h-96l-443 840l-239 -338v-502h-82v1597h82z" />
    <glyph glyph-name="L" unicode="L" horiz-adv-x="983" 
d="M952 0h-788v1597h82v-1519h706v-78z" />
    <glyph glyph-name="M" unicode="M" horiz-adv-x="1597" 
d="M246 0h-82v1597h106l529 -1458l528 1458h107v-1597h-82v1085l6 369l-529 -1454h-61l-528 1454l6 -369v-1085z" />
    <glyph glyph-name="N" unicode="N" horiz-adv-x="1331" 
d="M1167 1597v-1597h-92l-839 1475l6 -390v-1085h-78v1597h92l840 -1474l-6 389v1085h77z" />
    <glyph glyph-name="O" unicode="O" horiz-adv-x="1310" 
d="M649 57h13q221 0 327 165t107 536v82q0 372 -106 536t-328 164h-13q-221 0 -327 -165t-107 -535v-82q1 -371 107 -536t327 -165zM655 -20q-266 0 -396 185t-130 593v82q0 408 130 593t396 185q267 0 397 -185t130 -593v-82q0 -408 -130 -593t-397 -185z" />
    <glyph glyph-name="P" unicode="P" horiz-adv-x="1146" 
d="M246 754h332q274 0 355 211q26 68 25 155v33q0 241 -180 326q-82 39 -200 41h-332v-766zM246 676v-676h-82v1597h414q237 0 365 -134q103 -107 101 -306v-41q0 -280 -209 -385q-110 -55 -257 -55h-332z" />
    <glyph glyph-name="Q" unicode="Q" horiz-adv-x="1310" 
d="M1096 840q0 372 -106 536t-328 164h-13q-221 0 -327 -165t-107 -535v-82q1 -371 107 -536t327 -165h13q47 0 88 6l-136 373h82l133 -350q266 106 267 672v82zM655 -20q-266 0 -396 185t-130 593v82q0 408 130 593t396 185q267 0 397 -185t130 -593v-82q0 -623 -324 -746
l84 -217h-92l-72 197q-57 -12 -123 -12z" />
    <glyph glyph-name="R" unicode="R" horiz-adv-x="1167" 
d="M246 754h332q274 0 355 211q26 68 25 155v33q0 241 -180 326q-82 39 -200 41h-332v-766zM246 676v-676h-82v1597h414q237 0 365 -134q103 -107 101 -306v-41q0 -328 -284 -416l284 -700h-92l-270 684q-47 -8 -104 -8h-332z" />
    <glyph glyph-name="S" unicode="S" horiz-adv-x="1208" 
d="M123 1208q0 188 133 299t348 111q481 0 481 -502v-51h-81q0 251 -94 363t-300 112h-12q-168 0 -279 -85t-110 -226v-21q0 -147 95 -231t335 -117q467 -64 467 -422v-20q0 -203 -137 -321q-137 -117 -371 -117t-365 137t-131 375v20h82q0 -223 114 -339t300 -116h12
q184 1 297 93t113 258v20q0 160 -104 244t-338 117q-234 32 -345 140t-110 259v20z" />
    <glyph glyph-name="T" unicode="T" horiz-adv-x="1024" 
d="M553 1520v-1520h-82v1520h-420v77h922v-77h-420z" />
    <glyph glyph-name="U" unicode="U" horiz-adv-x="1290" 
d="M645 -20q-246 0 -369 114t-122 398v1105h82v-1095q0 -252 99 -348t310 -96t310 96t100 348v1095h82v-1105q0 -284 -123 -398t-369 -114z" />
    <glyph glyph-name="V" unicode="V" horiz-adv-x="1228" 
d="M676 -20h-123l-483 1617h90l454 -1536l455 1536h90z" />
    <glyph glyph-name="W" unicode="W" horiz-adv-x="1802" 
d="M1270 -20l-369 1536l-369 -1536h-122l-310 1617h88l283 -1531l369 1531h123l368 -1531l283 1531h88l-309 -1617h-123z" />
    <glyph glyph-name="X" unicode="X" horiz-adv-x="1228" 
d="M72 0l495 805l-495 792h98l444 -723l445 723h98l-495 -792l495 -805h-98l-445 727l-444 -727h-98z" />
    <glyph glyph-name="Y" unicode="Y" horiz-adv-x="1146" 
d="M614 0h-82v481l-481 1116h88l434 -1013l435 1013h88l-482 -1116v-481z" />
    <glyph glyph-name="Z" unicode="Z" horiz-adv-x="1126" 
d="M102 1520v77h922v-57l-840 -1466l246 4h614v-78h-962v57l840 1467l-246 -4h-574z" />
    <glyph glyph-name="bracketleft" unicode="[" 
d="M143 1720h379v-82h-297v-1802h297v-82h-379v1966z" />
    <glyph glyph-name="backslash" unicode="\" 
d="M502 -246l-471 1966h82l471 -1966h-82z" />
    <glyph glyph-name="bracketright" unicode="]" 
d="M471 -246h-379v82h297v1802h-297v82h379v-1966z" />
    <glyph glyph-name="asciicircum" unicode="^" horiz-adv-x="1228" 
d="M655 1597l504 -1024h-86l-459 940l-458 -940h-86l503 1024h82z" />
    <glyph glyph-name="underscore" unicode="_" horiz-adv-x="655" 
d="M102 -242v78h451v-78h-451z" />
    <glyph glyph-name="grave" unicode="`" horiz-adv-x="1024" 
d="M285 1597h86l184 -327h-86z" />
    <glyph glyph-name="a" unicode="a" horiz-adv-x="1024" 
d="M420 57q264 0 379 205v328l-359 -60q-256 -45 -256 -243v-21q0 -88 60 -148t176 -61zM410 -20q-139 0 -224 77q-84 78 -84 209v21q0 167 114 241q97 63 230 82l353 56v41q0 165 -65 243q-66 78 -226 78t-221 -80t-62 -221h-82v18q0 133 69 238q82 123 300 123
q369 0 369 -399v-400l10 -307h-62l-20 164q-137 -184 -399 -184z" />
    <glyph glyph-name="b" unicode="b" horiz-adv-x="1075" 
d="M877 522v41q0 217 -87 341q-86 124 -266 124t-299 -188v-594q119 -188 298 -188t267 123q87 124 87 341zM225 1638v-688q101 156 315 156t318 -152t105 -391v-41q-1 -240 -105 -392t-322 -150q-218 0 -323 174l-18 -154h-62l10 307v1331h82z" />
    <glyph glyph-name="c" unicode="c" horiz-adv-x="1064" 
d="M199 522q0 -215 89 -340t260 -125t247 88t75 224h82v-29q0 -139 -99 -250q-99 -110 -310 -110t-321 152t-109 390v41q-1 239 109 391t321 152t310 -116t99 -255v-39h-82q0 150 -76 241q-77 91 -247 91t-259 -125t-89 -340v-41z" />
    <glyph glyph-name="d" unicode="d" horiz-adv-x="1075" 
d="M553 1028q-180 0 -267 -124t-87 -341v-41q0 -217 87 -341q87 -123 267 -123t297 188v594q-117 188 -297 188zM532 1106q211 0 318 -156v688h82v-1331l10 -307h-61l-21 154q-100 -174 -320 -174t-323 152q-104 152 -104 390v41q0 239 104 391t315 152z" />
    <glyph glyph-name="e" unicode="e" horiz-adv-x="1105" 
d="M552 1028q-173 0 -261 -120t-92 -326h708q-4 206 -93 326t-262 120zM993 504h-794q4 -209 93 -328t267 -119t265 88t87 203h82v-8q-1 -135 -111 -248q-110 -112 -327 -112t-330 152t-112 390v41q-1 239 109 391t331 152t331 -152t109 -391v-59z" />
    <glyph glyph-name="f" unicode="f" horiz-adv-x="757" 
d="M328 1352v-267h327v-77h-327v-1008h-82v1008h-174v77h174v277q0 154 78 226t191 71q113 0 161 -21v-75q-42 18 -142 18t-153 -48t-53 -181z" />
    <glyph glyph-name="g" unicode="g" horiz-adv-x="1075" 
d="M554 1028q-179 0 -267 -115t-88 -309v-41q0 -195 88 -309t267 -115q179 0 296 189v512q-117 188 -296 188zM850 -10v225q-104 -154 -316 -154q-212 1 -317 143q-104 142 -104 359v41q0 218 104 360t323 142t320 -174l21 153h61l-10 -307v-798q0 -184 -95 -297t-305 -113
t-304 113q-95 113 -95 297v20h82q0 -182 75 -267q76 -85 244 -85t242 86t74 256z" />
    <glyph glyph-name="h" unicode="h" horiz-adv-x="1044" 
d="M225 1638v-696q115 164 359 164q152 0 240 -91t87 -247v-768h-82v758q0 139 -71 205q-72 66 -195 65q-219 0 -338 -188v-840h-82v1638h82z" />
    <glyph glyph-name="i" unicode="i" horiz-adv-x="409" 
d="M266 1505v-123h-123v123h123zM164 0v1085h82v-1085h-82z" />
    <glyph glyph-name="j" unicode="j" horiz-adv-x="409" 
d="M266 1505v-123h-123v123h123zM164 -123v1208h82v-1218q0 -153 -78 -225t-192 -72t-160 20v76q42 -18 142 -18t153 48t53 181z" />
    <glyph glyph-name="k" unicode="k" horiz-adv-x="983" 
d="M143 0v1638h82v-1194l590 641h107l-379 -409l379 -676h-93l-344 614l-260 -282v-332h-82z" />
    <glyph glyph-name="l" unicode="l" horiz-adv-x="409" 
d="M164 0v1638h82v-1638h-82z" />
    <glyph glyph-name="m" unicode="m" horiz-adv-x="1607" 
d="M1475 0h-82v788q1 136 -61 188t-175 52q-190 0 -307 -188v-840h-82v788q0 136 -61 188t-177 52t-184 -53q-70 -53 -121 -135v-840h-82v778l-10 307h62l18 -153q109 174 336 174t282 -182q106 182 347 182q141 0 219 -78t78 -229v-799z" />
    <glyph glyph-name="n" unicode="n" horiz-adv-x="1044" 
d="M911 0h-82v758q0 139 -71 205q-72 66 -195 65q-219 0 -338 -188v-840h-82v778l-10 307h62l18 -159q113 180 371 180q152 0 240 -91t87 -247v-768z" />
    <glyph glyph-name="o" unicode="o" horiz-adv-x="1105" 
d="M553 57q176 0 265 125t89 340v41q0 215 -89 340t-265 125t-265 -125t-89 -340v-41q0 -215 89 -340t265 -125zM553 -20q-221 0 -331 152t-109 390v41q-1 239 109 391t331 152t331 -152t109 -391v-41q1 -240 -109 -391t-331 -151z" />
    <glyph glyph-name="p" unicode="p" horiz-adv-x="1075" 
d="M877 522v41q0 217 -87 341q-86 124 -266 124t-299 -188v-594q119 -188 298 -188t267 123q87 124 87 341zM963 522q-1 -240 -105 -391t-318 -151t-315 153v-543h-82v1188l-10 307h62l18 -153q105 174 323 174t322 -152t105 -391v-41z" />
    <glyph glyph-name="q" unicode="q" horiz-adv-x="1075" 
d="M553 1028q-180 0 -267 -124t-87 -341v-41q0 -217 87 -341t267 -124t297 189v594q-117 188 -297 188zM850 -410v543q-104 -153 -316 -153t-317 152q-104 152 -104 390v41q0 239 104 391t323 152t320 -174l21 153h61l-10 -307v-1188h-82z" />
    <glyph glyph-name="r" unicode="r" horiz-adv-x="645" 
d="M553 1028h-21q-116 0 -186 -53t-121 -135v-840h-82v778l-10 307h62l18 -153q104 174 309 174l31 -2v-76z" />
    <glyph glyph-name="s" unicode="s" horiz-adv-x="1064" 
d="M215 328q-1 -119 71 -195t234 -76q162 -1 244 61t82 178t-76 161t-272 62t-275 89q-78 72 -78 195v10q-1 129 101 211t286 82q389 0 390 -361v-8h-82q0 143 -69 217t-225 74t-236 -57q-79 -57 -79 -161t69 -156q70 -52 268 -67t281 -84t83 -212v-8q0 -133 -106 -218
t-294 -85q-300 0 -378 222q-20 56 -21 117v9h82z" />
    <glyph glyph-name="t" unicode="t" horiz-adv-x="798" 
d="M328 1085h368v-77h-368v-721q0 -133 53 -181t153 -49q100 0 142 19v-76q-47 -20 -161 -20q-113 0 -191 72t-78 224v732h-174v77h174v308h82v-308z" />
    <glyph glyph-name="u" unicode="u" horiz-adv-x="1044" 
d="M133 1085h82v-757q0 -139 72 -205t194 -66q219 0 338 189v839h82v-778l10 -307h-61l-21 158q-113 -178 -368 -178q-152 0 -240 91t-88 246v768z" />
    <glyph glyph-name="v" unicode="v" horiz-adv-x="1024" 
d="M463 0l-402 1085h93l358 -993l358 993h93l-402 -1085h-98z" />
    <glyph glyph-name="w" unicode="w" horiz-adv-x="1433" 
d="M717 985l-281 -985h-114l-250 1085h84l225 -1003l285 1003h102l285 -1003l225 1003h84l-250 -1085h-115z" />
    <glyph glyph-name="x" unicode="x" horiz-adv-x="942" 
d="M51 1085h101l319 -471l320 471h100l-369 -542l369 -543h-105l-315 463l-315 -463h-105l369 543z" />
    <glyph glyph-name="y" unicode="y" horiz-adv-x="946" 
d="M492 133l346 952h86l-392 -1048l-159 -447h-90l168 447l-392 1048h86z" />
    <glyph glyph-name="z" unicode="z" horiz-adv-x="913" 
d="M98 1008v77h717v-57l-637 -952l248 2h410v-78h-758v57l637 953l-248 -2h-369z" />
    <glyph glyph-name="braceleft" unicode="{" 
d="M522 1720v-82q-104 0 -154 -47t-51 -178v-475q0 -150 -108 -201q109 -53 108 -200v-476q1 -131 51 -178t154 -47v-82h-30q-104 0 -180 58t-76 198v502q0 112 -42 148t-143 36v82q100 0 143 36q42 36 42 149v501q0 139 75 198q76 58 181 58h30z" />
    <glyph glyph-name="bar" unicode="|" horiz-adv-x="368" 
d="M143 -246v1966h82v-1966h-82z" />
    <glyph glyph-name="braceright" unicode="}" 
d="M92 -246v82q104 0 155 47q50 47 50 178v476q0 147 109 200q-109 49 -109 201v475q0 131 -50 178t-155 47v82h31q104 0 180 -58t76 -198v-501q0 -113 42 -149t142 -36v-82q-100 0 -142 -36t-42 -148v-502q0 -139 -76 -197t-180 -59h-31z" />
    <glyph glyph-name="asciitilde" unicode="~" horiz-adv-x="1228" 
d="M356 901q115 0 273 -75q157 -74 261 -74t200 120l57 -57q-115 -141 -275 -141q-114 0 -272 75t-262 75t-199 -122l-57 58q114 141 274 141z" />
    <glyph glyph-name="nbspace" unicode="&#xa0;" horiz-adv-x="409" 
 />
    <glyph glyph-name="exclamdown" unicode="&#xa1;" horiz-adv-x="409" 
d="M143 963v122h123v-122h-123zM252 -410h-94l22 1137h49z" />
    <glyph glyph-name="cent" unicode="&#xa2;" horiz-adv-x="1228" 
d="M229 774q0 -403 203 -524l277 1151q-37 4 -60 4h-6q-201 0 -307 -145t-107 -435v-51zM1085 985h-84q0 334 -215 401l-280 -1171q61 -18 137 -18h6q352 0 352 372h84v-24q0 -190 -109 -311q-110 -120 -331 -119q-90 0 -158 20l-61 -258h-82l68 287q-268 137 -269 610v51
q0 322 128 492t374 170q45 0 82 -6l57 239h82l-61 -256q141 -42 211 -158t69 -276v-45z" />
    <glyph glyph-name="sterling" unicode="&#xa3;" horiz-adv-x="1228" 
d="M683 1540q-175 0 -258 -99t-83 -252t49 -349h428v-82h-407q7 -32 36 -141t61 -246t32 -289h565v-82h-983v82h346q-11 163 -43 286q-32 124 -64 230q-31 106 -45 160h-194v82h174q-41 180 -41 338q0 204 113 322t307 118q228 0 334 -159t106 -415v-20h-82q0 242 -88 379
t-263 137z" />
    <glyph glyph-name="yen" unicode="&#xa5;" horiz-adv-x="1228" 
d="M92 901v82h250l-301 614h92l481 -985l482 985h92l-303 -614h252v-82h-291l-162 -328h453v-81h-482v-492h-82v492h-481v81h451l-160 328h-291z" />
    <glyph glyph-name="brokenbar" unicode="&#xa6;" horiz-adv-x="368" 
d="M143 -246v901h82v-901h-82zM143 819v901h82v-901h-82z" />
    <glyph glyph-name="section" unicode="&#xa7;" horiz-adv-x="1024" 
d="M846 806q0 114 -72 160t-250 62h-32q-150 0 -232 -61t-82 -175t72 -160t248 -63h34q150 0 232 62q82 61 82 175zM932 795q0 -205 -215 -271q162 -63 162 -241v-11q1 -129 -101 -211t-286 -81q-389 0 -390 360v8h82q0 -143 69 -217t225 -74q156 -1 236 57q79 58 79 162
t-69 156q-70 52 -268 66q-198 16 -281 85t-83 212v8q0 96 55 166t158 102q-160 66 -160 244v10q-1 129 101 211t286 82q389 0 390 -361v-8h-82q0 143 -69 217t-225 74t-236 -57q-79 -57 -79 -161t69 -156q70 -52 268 -67t281 -84t83 -212v-8z" />
    <glyph glyph-name="dieresis" unicode="&#xa8;" horiz-adv-x="1024" 
d="M727 1505v-123h-123v123h123zM420 1505v-123h-123v123h123z" />
    <glyph glyph-name="copyright" unicode="&#xa9;" horiz-adv-x="1884" 
d="M608 778q0 -162 83 -280t247 -119q164 0 232 76t69 170h82v-21q0 -98 -78 -191q-41 -50 -119 -83t-186 -33t-192 45q-148 78 -201 271q-23 81 -23 165v41q0 173 92 319q47 74 132 118q84 44 192 44t187 -34q128 -56 178 -190q18 -50 18 -93v-31h-82q0 109 -70 188
q-71 79 -233 79t-245 -119t-83 -281v-41zM201 799q0 -307 217 -525t524 -217q307 0 524 217q217 216 217 524t-217 525t-524 217t-524 -217t-217 -524zM123 799q-1 339 239 579t580 240t580 -240t240 -580t-240 -579t-580 -239t-580 239q-239 240 -239 580z" />
    <glyph glyph-name="ordfeminine" unicode="&#xaa;" horiz-adv-x="772" 
d="M102 457v71h584v-71h-584zM332 848q180 0 268 141v240l-254 -41q-182 -33 -182 -176v-15q0 -63 42 -106t126 -43zM317 778q-107 0 -169 60t-62 155v17q0 119 72 172t188 71l254 39v29q0 117 -45 172t-160 55t-159 -56t-43 -157h-76v15q0 112 62 190t218 78
q281 0 281 -297v-299l8 -227h-59l-17 116q-102 -133 -293 -133z" />
    <glyph glyph-name="guillemotleft" unicode="&#xab;" horiz-adv-x="1024" 
d="M922 1044v-92l-334 -256l334 -256v-92l-410 318v61zM512 1044v-92l-334 -256l334 -256v-92l-410 318v61z" />
    <glyph glyph-name="logicalnot" unicode="&#xac;" horiz-adv-x="1228" 
d="M102 1044v82h1024v-675h-82v593h-942z" />
    <glyph glyph-name="uni00AD" unicode="&#xad;" horiz-adv-x="655" 
d="M82 678v78h491v-78h-491z" />
    <glyph glyph-name="registered" unicode="&#xae;" horiz-adv-x="675" 
d="M403 1434q0 51 -63 51h-68v-111h68q63 0 63 51v9zM461 1421q0 -72 -64 -94l64 -141h-60l-57 135h-72v-135h-57v352h135q49 0 80 -27t31 -73v-17zM90 1362q0 -102 73 -175t175 -73t175 73t73 175t-73 175t-175 73t-175 -73t-73 -175zM41 1362q0 123 87 210t210 87t210 -87
t87 -210t-87 -210t-210 -87t-210 87t-87 210z" />
    <glyph glyph-name="macron" unicode="&#xaf;" horiz-adv-x="1024" 
d="M297 1393v82h430v-82h-430z" />
    <glyph glyph-name="degree" unicode="&#xb0;" horiz-adv-x="819" 
d="M717 1315v-8q0 -139 -87 -221t-220 -82t-221 81q-87 82 -87 222v8q0 139 87 221t221 82t220 -82q87 -82 87 -221zM639 1303v16q0 101 -65 161t-158 60h-13q-95 0 -159 -60t-64 -161v-16q0 -101 65 -161t158 -61h13q94 0 158 61t65 161z" />
    <glyph glyph-name="plusminus" unicode="&#xb1;" horiz-adv-x="1228" 
d="M102 348v82h1024v-82h-1024zM573 1311h82v-307h471v-82h-471v-308h-82v308h-471v82h471v307z" />
    <glyph glyph-name="twosuperior" unicode="&#xb2;" 
d="M557 864v-65h-500v45l344 366q82 84 82 164v10q0 74 -47 116t-127 42h-6q-174 0 -174 -211h-72v25q0 252 250 252q119 0 185 -58t65 -155v-13q0 -61 -20 -104t-74 -100l-295 -314h389z" />
    <glyph glyph-name="threesuperior" unicode="&#xb3;" 
d="M125 1055q0 -203 176 -203h10q74 0 126 40t52 114v14q0 74 -47 114t-120 40h-117v65h112q74 0 120 36t46 105v9q0 69 -47 111t-125 42h-10q-88 0 -130 -50t-42 -161h-72v25q0 252 250 252q119 0 185 -58t65 -153v-15q0 -133 -125 -178q129 -45 129 -184v-16
q0 -96 -71 -156q-70 -60 -190 -62q-120 0 -184 68t-65 188v13h74z" />
    <glyph glyph-name="acute" unicode="&#xb4;" horiz-adv-x="1024" 
d="M653 1597h86l-184 -327h-86z" />
    <glyph glyph-name="paragraph" unicode="&#xb6;" horiz-adv-x="1024" 
d="M168 1120q0 -243 180 -325q87 -41 201 -41h24v766h-24q-109 0 -181 -33q-73 -33 -111 -72q-89 -91 -89 -262v-33zM799 0v1520h-144v-1520h-82v676h-24q-235 0 -366 134q-101 105 -101 306v41q0 282 210 385q110 55 257 55h332v-1597h-82z" />
    <glyph glyph-name="periodcentered" unicode="&#xb7;" horiz-adv-x="409" 
d="M266 778v-123h-123v123h123z" />
    <glyph glyph-name="cedilla" unicode="&#xb8;" horiz-adv-x="1232" 
d="M637 -279q0 80 -133 80l-53 -4l-35 33l63 170h74l-49 -131h10q78 0 134 -34t57 -111q0 -154 -199 -154q-117 0 -180 45l26 61q58 -38 138 -38t114 18t33 65z" />
    <glyph glyph-name="onesuperior" unicode="&#xb9;" 
d="M561 799h-489v65h209v637l-189 -127l-37 58l252 170h47v-738h207v-65z" />
    <glyph glyph-name="ordmasculine" unicode="&#xba;" horiz-adv-x="839" 
d="M102 457v71h635v-71h-635zM168 1182q0 -156 62 -244t190 -88t189 88q62 88 63 244v32q0 156 -62 244t-190 88t-190 -88t-62 -244v-32zM752 1182q0 -178 -83 -291t-249 -113t-249 113t-83 291v32q0 178 83 291t249 113t249 -113t83 -291v-32z" />
    <glyph glyph-name="guillemotright" unicode="&#xbb;" horiz-adv-x="1024" 
d="M102 952v92l410 -317v-61l-410 -318v92l334 256zM512 952v92l410 -317v-61l-410 -318v92l334 256z" />
    <glyph glyph-name="onequarter" unicode="&#xbc;" horiz-adv-x="1638" 
d="M1399 279v290l2 105l-254 -398l88 3h164zM561 799h-489v65h209v637l-189 -127l-37 58l252 170h47v-738h207v-65zM274 0h-90l1180 1597h90zM1473 0h-74v211h-342v49l344 539h72v-520h131v-68h-131v-211z" />
    <glyph glyph-name="onehalf" unicode="&#xbd;" horiz-adv-x="1638" 
d="M561 799h-489v65h209v637l-189 -127l-37 58l252 170h47v-738h207v-65zM1581 66v-66h-500v45l344 367q82 84 82 163v11q0 74 -47 116t-127 41h-6q-174 0 -174 -211h-72v25q0 252 250 252q119 0 185 -58t65 -155v-12q0 -60 -20 -104t-74 -101l-295 -313h389zM274 0h-90
l1180 1597h90z" />
    <glyph glyph-name="threequarters" unicode="&#xbe;" horiz-adv-x="1638" 
d="M1399 279v290l2 105l-254 -398l88 3h164zM125 1055q0 -203 176 -203h10q74 0 126 40t52 114v14q0 74 -47 114t-120 40h-117v65h112q74 0 120 36t46 105v9q0 69 -47 111t-125 42h-10q-88 0 -130 -50t-42 -161h-72v25q0 252 250 252q119 0 185 -58t65 -153v-15
q0 -133 -125 -178q129 -45 129 -184v-16q0 -96 -71 -156q-70 -60 -190 -62q-120 0 -184 68t-65 188v13h74zM274 0h-90l1180 1597h90zM1473 0h-74v211h-342v49l344 539h72v-520h131v-68h-131v-211z" />
    <glyph glyph-name="questiondown" unicode="&#xbf;" horiz-adv-x="901" 
d="M389 963v122h123v-122h-123zM444 -352q178 0 248 121t70 354h82v-21q0 -390 -201 -491q-82 -41 -199 -41q-180 0 -279 97t-99 288t123 331q52 58 105 115q128 141 132 326h49q4 -193 -109 -346q-48 -63 -96 -125q-119 -151 -118 -307q-1 -301 292 -301z" />
    <glyph glyph-name="Agrave" unicode="&#xc0;" horiz-adv-x="1228" 
d="M444 1946h86l127 -226h-86zM614 1536l-305 -1026h609zM553 1618h123l483 -1618h-90l-129 432h-653l-127 -432h-90z" />
    <glyph glyph-name="Aacute" unicode="&#xc1;" horiz-adv-x="1228" 
d="M698 1946h86l-127 -226h-86zM614 1536l-305 -1026h609zM553 1618h123l483 -1618h-90l-129 432h-653l-127 -432h-90z" />
    <glyph glyph-name="Acircumflex" unicode="&#xc2;" horiz-adv-x="1228" 
d="M471 1720h-92l205 226h61l205 -226h-92l-144 158zM614 1536l-305 -1026h609zM553 1618h123l483 -1618h-90l-129 432h-653l-127 -432h-90z" />
    <glyph glyph-name="Atilde" unicode="&#xc3;" horiz-adv-x="1228" 
d="M827 1909h74q0 -86 -40 -129t-105 -43q-66 0 -152 62t-123 63q-80 0 -80 -105h-73q0 86 40 129t105 43t151 -62t124 -63q79 1 79 105zM614 1536l-305 -1026h609zM553 1618h123l483 -1618h-90l-129 432h-653l-127 -432h-90z" />
    <glyph glyph-name="Adieresis" unicode="&#xc4;" horiz-adv-x="1228" 
d="M829 1894v-122h-122v122h122zM522 1894v-122h-123v122h123zM614 1536l-305 -1026h609zM553 1618h123l483 -1618h-90l-129 432h-653l-127 -432h-90z" />
    <glyph glyph-name="Aring" unicode="&#xc5;" horiz-adv-x="1228" 
d="M496 1782q0 -49 34 -84t84 -35q49 0 84 35t35 84t-35 84t-84 35q-50 0 -84 -35t-34 -84zM614 1536l-305 -1026h609zM430 1792q0 68 53 121t131 53t131 -53t53 -121t-32 -116q-33 -48 -88 -68l481 -1608h-90l-129 432h-653l-127 -432h-90l479 1608q-53 20 -86 68t-33 116z
" />
    <glyph glyph-name="AE" unicode="&#xc6;" horiz-adv-x="1679" 
d="M702 1520l-368 -990h514zM1597 1597v-77h-815l101 -666h612v-78h-602l104 -698h600v-78h-671l-68 453h-553l-168 -453h-88l604 1597h944z" />
    <glyph glyph-name="Ccedilla" unicode="&#xc7;" horiz-adv-x="1243" 
d="M129 758v82q0 408 128 593t394 185q479 0 479 -543v-51h-86q0 274 -91 395t-291 121h-13q-219 0 -327 -166t-107 -534v-82q1 -369 107 -535t327 -166h13q198 0 290 114t92 341h86v-20q0 -233 -108 -366q-109 -132 -326 -144l-41 -113h11q78 0 134 -34t56 -111
q0 -154 -199 -154q-117 0 -180 45l27 61q59 -38 138 -38t113 18t33 65q0 80 -133 80l-53 -4l-35 33l56 150q-252 10 -373 195t-121 583z" />
    <glyph glyph-name="Egrave" unicode="&#xc8;" horiz-adv-x="1105" 
d="M444 1946h86l127 -226h-86zM164 1597h860v-77h-778v-666h676v-78h-676v-698h778v-78h-860v1597z" />
    <glyph glyph-name="Eacute" unicode="&#xc9;" horiz-adv-x="1105" 
d="M698 1946h86l-127 -226h-86zM164 1597h860v-77h-778v-666h676v-78h-676v-698h778v-78h-860v1597z" />
    <glyph glyph-name="Ecircumflex" unicode="&#xca;" horiz-adv-x="1105" 
d="M471 1720h-92l205 226h61l205 -226h-92l-144 158zM164 1597h860v-77h-778v-666h676v-78h-676v-698h778v-78h-860v1597z" />
    <glyph glyph-name="Edieresis" unicode="&#xcb;" horiz-adv-x="1105" 
d="M522 1894v-122h-123v122h123zM829 1894v-122h-122v122h122zM164 1597h860v-77h-778v-666h676v-78h-676v-698h778v-78h-860v1597z" />
    <glyph glyph-name="Igrave" unicode="&#xcc;" horiz-adv-x="430" 
d="M45 1946h86l127 -226h-86zM256 1597v-1597h-82v1597h82z" />
    <glyph glyph-name="Iacute" unicode="&#xcd;" horiz-adv-x="430" 
d="M299 1946h86l-127 -226h-86zM256 1597v-1597h-82v1597h82z" />
    <glyph glyph-name="Icircumflex" unicode="&#xce;" horiz-adv-x="430" 
d="M72 1720h-92l204 226h62l205 -226h-93l-143 158zM256 1597v-1597h-82v1597h82z" />
    <glyph glyph-name="Idieresis" unicode="&#xcf;" horiz-adv-x="430" 
d="M123 1894v-122h-123v122h123zM430 1894v-122h-123v122h123zM256 1597v-1597h-82v1597h82z" />
    <glyph glyph-name="Eth" unicode="&#xd0;" horiz-adv-x="1413" 
d="M369 1520v-666h471v-78h-471v-698h307q252 0 387 160t135 520v82q0 360 -135 520t-387 160h-307zM41 776v78h246v743h399q598 0 598 -757v-82q0 -758 -598 -758h-399v776h-246z" />
    <glyph glyph-name="Ntilde" unicode="&#xd1;" horiz-adv-x="1331" 
d="M879 1909h73q0 -86 -40 -129t-105 -43t-151 62t-124 63q-80 0 -79 -105h-74q0 86 40 129t105 43q66 0 152 -62t123 -63q80 1 80 105zM1167 1597v-1597h-92l-839 1475l6 -390v-1085h-78v1597h92l840 -1474l-6 389v1085h77z" />
    <glyph glyph-name="Ograve" unicode="&#xd2;" horiz-adv-x="1310" 
d="M485 1946h86l127 -226h-86zM649 57h13q221 0 327 165t107 536v82q0 372 -106 536t-328 164h-13q-221 0 -327 -165t-107 -535v-82q1 -371 107 -536t327 -165zM655 -20q-266 0 -396 185t-130 593v82q0 408 130 593t396 185q267 0 397 -185t130 -593v-82q0 -408 -130 -593
t-397 -185z" />
    <glyph glyph-name="Oacute" unicode="&#xd3;" horiz-adv-x="1310" 
d="M739 1946h86l-127 -226h-86zM649 57h13q221 0 327 165t107 536v82q0 372 -106 536t-328 164h-13q-221 0 -327 -165t-107 -535v-82q1 -371 107 -536t327 -165zM655 -20q-266 0 -396 185t-130 593v82q0 408 130 593t396 185q267 0 397 -185t130 -593v-82q0 -408 -130 -593
t-397 -185z" />
    <glyph glyph-name="Ocircumflex" unicode="&#xd4;" horiz-adv-x="1310" 
d="M512 1720h-92l205 226h61l205 -226h-92l-144 158zM649 57h13q221 0 327 165t107 536v82q0 372 -106 536t-328 164h-13q-221 0 -327 -165t-107 -535v-82q1 -371 107 -536t327 -165zM655 -20q-266 0 -396 185t-130 593v82q0 408 130 593t396 185q267 0 397 -185t130 -593
v-82q0 -408 -130 -593t-397 -185z" />
    <glyph glyph-name="Otilde" unicode="&#xd5;" horiz-adv-x="1310" 
d="M868 1909h74q0 -86 -40 -129t-105 -43t-151 62t-124 63q-80 0 -80 -105h-73q0 86 40 129t105 43q66 0 152 -62t122 -63q80 1 80 105zM649 57h13q221 0 327 165t107 536v82q0 372 -106 536t-328 164h-13q-221 0 -327 -165t-107 -535v-82q1 -371 107 -536t327 -165z
M655 -20q-266 0 -396 185t-130 593v82q0 408 130 593t396 185q267 0 397 -185t130 -593v-82q0 -408 -130 -593t-397 -185z" />
    <glyph glyph-name="Odieresis" unicode="&#xd6;" horiz-adv-x="1310" 
d="M870 1894v-122h-122v122h122zM563 1894v-122h-123v122h123zM649 57h13q221 0 327 165t107 536v82q0 372 -106 536t-328 164h-13q-221 0 -327 -165t-107 -535v-82q1 -371 107 -536t327 -165zM655 -20q-266 0 -396 185t-130 593v82q0 408 130 593t396 185q267 0 397 -185
t130 -593v-82q0 -408 -130 -593t-397 -185z" />
    <glyph glyph-name="multiply" unicode="&#xd7;" horiz-adv-x="1228" 
d="M137 262l-59 60l477 477l-477 477l59 59l477 -477l478 477l59 -59l-477 -477l477 -477l-59 -60l-478 477z" />
    <glyph glyph-name="Oslash" unicode="&#xd8;" horiz-adv-x="1282" 
d="M215 758q0 -311 74 -477l676 1128q-104 131 -303 131h-13q-221 0 -327 -165t-107 -535v-82zM1096 840q0 324 -84 495l-678 -1132q104 -145 315 -146h13q221 0 327 165t107 536v82zM129 840q0 408 130 593t396 185q227 0 355 -133l67 112h90l-106 -178q121 -193 121 -579
v-82q0 -408 -130 -593t-386 -185t-377 147l-76 -127h-90l117 195q-111 190 -111 563v82z" />
    <glyph glyph-name="Ugrave" unicode="&#xd9;" horiz-adv-x="1290" 
d="M475 1946h86l127 -226h-86zM645 -20q-246 0 -369 114t-122 398v1105h82v-1095q0 -252 99 -348t310 -96t310 96t100 348v1095h82v-1105q0 -284 -123 -398t-369 -114z" />
    <glyph glyph-name="Uacute" unicode="&#xda;" horiz-adv-x="1290" 
d="M729 1946h86l-127 -226h-86zM645 -20q-246 0 -369 114t-122 398v1105h82v-1095q0 -252 99 -348t310 -96t310 96t100 348v1095h82v-1105q0 -284 -123 -398t-369 -114z" />
    <glyph glyph-name="Ucircumflex" unicode="&#xdb;" horiz-adv-x="1290" 
d="M502 1720h-92l204 226h62l205 -226h-93l-143 158zM645 -20q-246 0 -369 114t-122 398v1105h82v-1095q0 -252 99 -348t310 -96t310 96t100 348v1095h82v-1105q0 -284 -123 -398t-369 -114z" />
    <glyph glyph-name="Udieresis" unicode="&#xdc;" horiz-adv-x="1290" 
d="M553 1894v-122h-123v122h123zM860 1894v-122h-123v122h123zM645 -20q-246 0 -369 114t-122 398v1105h82v-1095q0 -252 99 -348t310 -96t310 96t100 348v1095h82v-1105q0 -284 -123 -398t-369 -114z" />
    <glyph glyph-name="Yacute" unicode="&#xdd;" horiz-adv-x="1146" 
d="M657 1946h86l-127 -226h-86zM614 0h-82v481l-481 1116h88l434 -1013l435 1013h88l-482 -1116v-481z" />
    <glyph glyph-name="Thorn" unicode="&#xde;" horiz-adv-x="1146" 
d="M246 416h332q274 0 355 211q26 68 25 155v33q0 241 -180 326q-87 41 -200 41h-332v-766zM246 1597v-337h332q236 0 365 -135q103 -107 101 -306v-41q0 -280 -209 -385q-110 -55 -257 -55h-332v-338h-82v1597h82z" />
    <glyph glyph-name="germandbls" unicode="&#xdf;" horiz-adv-x="1126" 
d="M840 1260q0 142 -76 230q-76 87 -232 87t-232 -87t-75 -241v-1249h-82v1257q-1 189 97 295t292 106t292 -106q97 -106 98 -295v-12q0 -131 -68 -233t-225 -201l119 -78q170 -111 244 -197t73 -206v-8q0 -130 -67 -228q-79 -116 -284 -115t-280 115q-65 98 -65 225v9h82
q0 -270 266 -271q266 0 266 271q0 100 -71 174t-244 186l-146 94v58q174 96 246 187t72 233z" />
    <glyph glyph-name="agrave" unicode="&#xe0;" horiz-adv-x="1024" 
d="M285 1597h86l184 -327h-86zM420 57q264 0 379 205v328l-359 -60q-256 -45 -256 -243v-21q0 -88 60 -148t176 -61zM410 -20q-139 0 -224 77q-84 78 -84 209v21q0 167 114 241q97 63 230 82l353 56v41q0 165 -65 243q-66 78 -226 78t-221 -80t-62 -221h-82v18q0 133 69 238
q82 123 300 123q369 0 369 -399v-400l10 -307h-62l-20 164q-137 -184 -399 -184z" />
    <glyph glyph-name="aacute" unicode="&#xe1;" horiz-adv-x="1024" 
d="M653 1597h86l-184 -327h-86zM420 57q264 0 379 205v328l-359 -60q-256 -45 -256 -243v-21q0 -88 60 -148t176 -61zM410 -20q-139 0 -224 77q-84 78 -84 209v21q0 167 114 241q97 63 230 82l353 56v41q0 165 -65 243q-66 78 -226 78t-221 -80t-62 -221h-82v18
q0 133 69 238q82 123 300 123q369 0 369 -399v-400l10 -307h-62l-20 164q-137 -184 -399 -184z" />
    <glyph glyph-name="acircumflex" unicode="&#xe2;" horiz-adv-x="1024" 
d="M307 1270h-92l266 327h62l266 -327h-92l-205 254zM420 57q264 0 379 205v328l-359 -60q-256 -45 -256 -243v-21q0 -88 60 -148t176 -61zM410 -20q-139 0 -224 77q-84 78 -84 209v21q0 167 114 241q97 63 230 82l353 56v41q0 165 -65 243q-66 78 -226 78t-221 -80
t-62 -221h-82v18q0 133 69 238q82 123 300 123q369 0 369 -399v-400l10 -307h-62l-20 164q-137 -184 -399 -184z" />
    <glyph glyph-name="atilde" unicode="&#xe3;" horiz-adv-x="1024" 
d="M727 1509h72q0 -172 -144 -172q-63 -1 -153 61t-129 62q-76 0 -76 -102h-72q0 172 144 172q63 0 153 -62t129 -61q76 0 76 102zM420 57q264 0 379 205v328l-359 -60q-256 -45 -256 -243v-21q0 -88 60 -148t176 -61zM410 -20q-139 0 -224 77q-84 78 -84 209v21
q0 167 114 241q97 63 230 82l353 56v41q0 165 -65 243q-66 78 -226 78t-221 -80t-62 -221h-82v18q0 133 69 238q82 123 300 123q369 0 369 -399v-400l10 -307h-62l-20 164q-137 -184 -399 -184z" />
    <glyph glyph-name="adieresis" unicode="&#xe4;" horiz-adv-x="1024" 
d="M727 1505v-123h-123v123h123zM420 1505v-123h-123v123h123zM420 57q264 0 379 205v328l-359 -60q-256 -45 -256 -243v-21q0 -88 60 -148t176 -61zM410 -20q-139 0 -224 77q-84 78 -84 209v21q0 167 114 241q97 63 230 82l353 56v41q0 165 -65 243q-66 78 -226 78
t-221 -80t-62 -221h-82v18q0 133 69 238q82 123 300 123q369 0 369 -399v-400l10 -307h-62l-20 164q-137 -184 -399 -184z" />
    <glyph glyph-name="aring" unicode="&#xe5;" horiz-adv-x="1024" 
d="M383 1434q0 -49 35 -84t84 -35t84 35t35 84t-35 84q-35 34 -84 34t-84 -34t-35 -84zM317 1434q1 78 55 131t130 53t130 -53t54 -131t-54 -131t-130 -53t-130 52q-54 54 -55 132zM420 57q264 0 379 205v328l-359 -60q-256 -45 -256 -243v-21q0 -88 60 -148t176 -61z
M102 266v21q0 167 114 241q97 63 230 82l353 56v41q0 165 -65 243q-66 78 -226 78t-221 -80t-62 -221h-82v18q0 133 69 238q82 123 300 123q369 0 369 -399v-400l10 -307h-62l-20 164q-137 -184 -399 -184q-139 0 -224 77q-84 78 -84 209z" />
    <glyph glyph-name="ae" unicode="&#xe6;" horiz-adv-x="1792" 
d="M1238 1028q-173 0 -261 -120t-92 -326h708q-4 206 -93 326t-262 120zM184 287v-21q0 -88 60 -148t176 -61q266 0 381 209l22 47q-25 96 -24 209v68l-359 -60q-256 -45 -256 -243zM1679 504h-794q4 -209 93 -328t267 -119t265 88t87 203h82v-8q-1 -135 -111 -248
t-319 -112q-283 0 -395 245q-49 -98 -162 -172q-113 -73 -267 -73t-239 77q-84 78 -84 209v21q0 167 114 241q97 63 230 82l353 56v41q0 165 -65 243q-66 78 -226 78t-221 -80t-62 -221h-82v18q0 133 69 238q82 123 300 123q293 0 344 -256q102 256 383 256q221 0 331 -152
t109 -391v-59z" />
    <glyph glyph-name="ccedilla" unicode="&#xe7;" horiz-adv-x="1064" 
d="M692 -279q0 80 -133 80l-53 -4l-35 33l55 150q-207 10 -310 160t-103 382v41q-1 239 109 391t321 152t310 -116t99 -255v-39h-82q0 150 -76 241q-77 91 -247 91t-259 -125t-89 -340v-41q0 -215 89 -340t260 -125t247 88t75 224h82v-29q0 -129 -87 -237t-265 -121
l-41 -113h10q78 0 134 -34t57 -111q0 -154 -199 -154q-117 0 -180 45l27 61q59 -38 138 -38q78 0 112 18t34 65z" />
    <glyph glyph-name="egrave" unicode="&#xe8;" horiz-adv-x="1105" 
d="M326 1597h86l184 -327h-86zM552 1028q-173 0 -261 -120t-92 -326h708q-4 206 -93 326t-262 120zM993 504h-794q4 -209 93 -328t267 -119t265 88t87 203h82v-8q-1 -135 -111 -248q-110 -112 -327 -112t-330 152t-112 390v41q-1 239 109 391t331 152t331 -152t109 -391v-59
z" />
    <glyph glyph-name="eacute" unicode="&#xe9;" horiz-adv-x="1105" 
d="M694 1597h86l-184 -327h-86zM552 1028q-173 0 -261 -120t-92 -326h708q-4 206 -93 326t-262 120zM993 504h-794q4 -209 93 -328t267 -119t265 88t87 203h82v-8q-1 -135 -111 -248q-110 -112 -327 -112t-330 152t-112 390v41q-1 239 109 391t331 152t331 -152t109 -391
v-59z" />
    <glyph glyph-name="ecircumflex" unicode="&#xea;" horiz-adv-x="1105" 
d="M348 1270h-92l266 327h62l266 -327h-92l-205 254zM552 1028q-173 0 -261 -120t-92 -326h708q-4 206 -93 326t-262 120zM993 504h-794q4 -209 93 -328t267 -119t265 88t87 203h82v-8q-1 -135 -111 -248q-110 -112 -327 -112t-330 152t-112 390v41q-1 239 109 391t331 152
t331 -152t109 -391v-59z" />
    <glyph glyph-name="edieresis" unicode="&#xeb;" horiz-adv-x="1105" 
d="M768 1505v-123h-123v123h123zM461 1505v-123h-123v123h123zM552 1028q-173 0 -261 -120t-92 -326h708q-4 206 -93 326t-262 120zM993 504h-794q4 -209 93 -328t267 -119t265 88t87 203h82v-8q-1 -135 -111 -248q-110 -112 -327 -112t-330 152t-112 390v41q-1 239 109 391
t331 152t331 -152t109 -391v-59z" />
    <glyph glyph-name="igrave" unicode="&#xec;" horiz-adv-x="409" 
d="M-23 1597h86l185 -327h-86zM164 0v1085h82v-1085h-82z" />
    <glyph glyph-name="iacute" unicode="&#xed;" horiz-adv-x="409" 
d="M346 1597h86l-184 -327h-86zM164 0v1085h82v-1085h-82z" />
    <glyph glyph-name="icircumflex" unicode="&#xee;" horiz-adv-x="409" 
d="M0 1270h-92l266 327h62l266 -327h-92l-205 254zM164 0v1085h82v-1085h-82z" />
    <glyph glyph-name="idieresis" unicode="&#xef;" horiz-adv-x="409" 
d="M113 1505v-123h-123v123h123zM420 1505v-123h-123v123h123zM164 0v1085h82v-1085h-82z" />
    <glyph glyph-name="eth" unicode="&#xf0;" horiz-adv-x="1105" 
d="M553 57q176 0 265 125t89 340v41q0 215 -89 340t-265 125t-265 -125t-89 -340v-41q0 -215 89 -340t265 -125zM993 563v-41q1 -240 -109 -392t-331 -150q-221 0 -331 152t-109 390v41q-1 239 109 391t328 152t320 -156q-63 229 -186 357q-72 72 -139 118l-346 -202v88
l272 159q-151 84 -358 111v78q258 -23 442 -139l238 139v-88l-168 -98q63 -49 125 -113q131 -140 187 -360t56 -437z" />
    <glyph glyph-name="ntilde" unicode="&#xf1;" horiz-adv-x="1044" 
d="M743 1509h72q0 -172 -143 -172q-64 -1 -154 61t-129 62q-76 0 -76 -102h-71q0 172 143 172q63 0 153 -62t130 -61q75 0 75 102zM911 0h-82v758q0 139 -71 205q-72 66 -195 65q-219 0 -338 -188v-840h-82v778l-10 307h62l18 -159q113 180 371 180q152 0 240 -91t87 -247
v-768z" />
    <glyph glyph-name="ograve" unicode="&#xf2;" horiz-adv-x="1105" 
d="M326 1597h86l184 -327h-86zM553 57q176 0 265 125t89 340v41q0 215 -89 340t-265 125t-265 -125t-89 -340v-41q0 -215 89 -340t265 -125zM553 -20q-221 0 -331 152t-109 390v41q-1 239 109 391t331 152t331 -152t109 -391v-41q1 -240 -109 -391t-331 -151z" />
    <glyph glyph-name="oacute" unicode="&#xf3;" horiz-adv-x="1105" 
d="M694 1597h86l-184 -327h-86zM553 57q176 0 265 125t89 340v41q0 215 -89 340t-265 125t-265 -125t-89 -340v-41q0 -215 89 -340t265 -125zM553 -20q-221 0 -331 152t-109 390v41q-1 239 109 391t331 152t331 -152t109 -391v-41q1 -240 -109 -391t-331 -151z" />
    <glyph glyph-name="ocircumflex" unicode="&#xf4;" horiz-adv-x="1105" 
d="M348 1270h-92l266 327h62l266 -327h-92l-205 254zM553 57q176 0 265 125t89 340v41q0 215 -89 340t-265 125t-265 -125t-89 -340v-41q0 -215 89 -340t265 -125zM553 -20q-221 0 -331 152t-109 390v41q-1 239 109 391t331 152t331 -152t109 -391v-41q1 -240 -109 -391
t-331 -151z" />
    <glyph glyph-name="otilde" unicode="&#xf5;" horiz-adv-x="1105" 
d="M768 1509h72q0 -172 -144 -172q-63 -1 -153 61t-129 62q-76 0 -76 -102h-72q0 172 144 172q63 0 153 -62t129 -61q76 0 76 102zM553 57q176 0 265 125t89 340v41q0 215 -89 340t-265 125t-265 -125t-89 -340v-41q0 -215 89 -340t265 -125zM553 -20q-221 0 -331 152
t-109 390v41q-1 239 109 391t331 152t331 -152t109 -391v-41q1 -240 -109 -391t-331 -151z" />
    <glyph glyph-name="odieresis" unicode="&#xf6;" horiz-adv-x="1105" 
d="M768 1505v-123h-123v123h123zM461 1505v-123h-123v123h123zM553 57q176 0 265 125t89 340v41q0 215 -89 340t-265 125t-265 -125t-89 -340v-41q0 -215 89 -340t265 -125zM553 -20q-221 0 -331 152t-109 390v41q-1 239 109 391t331 152t331 -152t109 -391v-41
q1 -240 -109 -391t-331 -151z" />
    <glyph glyph-name="divide" unicode="&#xf7;" horiz-adv-x="1228" 
d="M676 1311v-123h-123v123h123zM676 410v-123h-123v123h123zM102 758v82h1024v-82h-1024z" />
    <glyph glyph-name="oslash" unicode="&#xf8;" horiz-adv-x="1105" 
d="M907 563q0 190 -69 309l-527 -720q88 -94 253 -94t254 124q89 125 89 340v41zM199 522q0 -197 67 -311l527 723q-90 94 -253 94t-252 -125t-89 -340v-41zM993 563v-41q1 -240 -109 -392t-331 -150q-178 0 -289 104l-61 -84h-90l102 141q-102 145 -102 381v41
q-1 239 109 391t331 152q178 0 289 -107l61 86h90l-104 -141q104 -143 104 -381z" />
    <glyph glyph-name="ugrave" unicode="&#xf9;" horiz-adv-x="1044" 
d="M289 1597h86l184 -327h-86zM133 1085h82v-757q0 -139 72 -205t194 -66q219 0 338 189v839h82v-778l10 -307h-61l-21 158q-113 -178 -368 -178q-152 0 -240 91t-88 246v768z" />
    <glyph glyph-name="uacute" unicode="&#xfa;" horiz-adv-x="1044" 
d="M657 1597h86l-184 -327h-86zM133 1085h82v-757q0 -139 72 -205t194 -66q219 0 338 189v839h82v-778l10 -307h-61l-21 158q-113 -178 -368 -178q-152 0 -240 91t-88 246v768z" />
    <glyph glyph-name="ucircumflex" unicode="&#xfb;" horiz-adv-x="1044" 
d="M311 1270h-92l266 327h62l266 -327h-92l-205 254zM133 1085h82v-757q0 -139 72 -205t194 -66q219 0 338 189v839h82v-778l10 -307h-61l-21 158q-113 -178 -368 -178q-152 0 -240 91t-88 246v768z" />
    <glyph glyph-name="udieresis" unicode="&#xfc;" horiz-adv-x="1044" 
d="M731 1505v-123h-123v123h123zM424 1505v-123h-123v123h123zM133 1085h82v-757q0 -139 72 -205t194 -66q219 0 338 189v839h82v-778l10 -307h-61l-21 158q-113 -178 -368 -178q-152 0 -240 91t-88 246v768z" />
    <glyph glyph-name="yacute" unicode="&#xfd;" horiz-adv-x="946" 
d="M633 1597h86l-184 -327h-86zM492 133l346 952h86l-392 -1048l-159 -447h-90l168 447l-392 1048h86z" />
    <glyph glyph-name="thorn" unicode="&#xfe;" horiz-adv-x="1075" 
d="M877 522v41q0 217 -87 341q-86 124 -266 124t-299 -188v-594q119 -188 298 -188t267 123q87 124 87 341zM143 1638h82v-688q101 156 315 156t318 -152t105 -391v-41q-1 -240 -105 -392t-318 -150q-214 0 -315 153v-543h-82v2048z" />
    <glyph glyph-name="ydieresis" unicode="&#xff;" horiz-adv-x="946" 
d="M399 1505v-123h-123v123h123zM707 1505v-123h-123v123h123zM492 133l346 952h86l-392 -1048l-159 -447h-90l168 447l-392 1048h86z" />
    <glyph glyph-name="Amacron" unicode="&#x100;" horiz-adv-x="1228" 
d="M410 1792v82h409v-82h-409zM614 1536l-305 -1026h609zM553 1618h123l483 -1618h-90l-129 432h-653l-127 -432h-90z" />
    <glyph glyph-name="amacron" unicode="&#x101;" horiz-adv-x="1024" 
d="M297 1393v82h430v-82h-430zM420 57q264 0 379 205v328l-359 -60q-256 -45 -256 -243v-21q0 -88 60 -148t176 -61zM410 -20q-139 0 -224 77q-84 78 -84 209v21q0 167 114 241q97 63 230 82l353 56v41q0 165 -65 243q-66 78 -226 78t-221 -80t-62 -221h-82v18q0 133 69 238
q82 123 300 123q369 0 369 -399v-400l10 -307h-62l-20 164q-137 -184 -399 -184z" />
    <glyph glyph-name="Abreve" unicode="&#x102;" horiz-adv-x="1228" 
d="M614 1700q-126 0 -198 68t-72 178h74q0 -80 50 -129t146 -49t146 48q50 50 51 130h74q0 -110 -72 -178t-199 -68zM614 1536l-305 -1026h609zM553 1618h123l483 -1618h-90l-129 432h-653l-127 -432h-90z" />
    <glyph glyph-name="abreve" unicode="&#x103;" horiz-adv-x="1024" 
d="M512 1249q-156 0 -234 94t-77 254h73q0 -281 238 -280q238 0 238 280h73q1 -160 -77 -254t-234 -94zM420 57q264 0 379 205v328l-359 -60q-256 -45 -256 -243v-21q0 -88 60 -148t176 -61zM410 -20q-139 0 -224 77q-84 78 -84 209v21q0 167 114 241q97 63 230 82l353 56
v41q0 165 -65 243q-66 78 -226 78t-221 -80t-62 -221h-82v18q0 133 69 238q82 123 300 123q369 0 369 -399v-400l10 -307h-62l-20 164q-137 -184 -399 -184z" />
    <glyph glyph-name="Aogonek" unicode="&#x104;" horiz-adv-x="1228" 
d="M614 1536l-305 -1026h609zM1112 -430q-213 0 -213 190q0 162 164 258l-123 414h-653l-127 -432h-90l483 1618h123l483 -1618q-192 -88 -192 -240q0 -57 41 -90q42 -32 112 -32t123 28l25 -57q-63 -39 -156 -39z" />
    <glyph glyph-name="aogonek" unicode="&#x105;" horiz-adv-x="1024" 
d="M420 57q264 0 379 205v328l-359 -60q-256 -45 -256 -243v-21q0 -88 60 -148t176 -61zM836 -430q-213 0 -213 190q0 178 200 279l-14 125q-137 -184 -399 -184q-139 0 -224 77q-84 78 -84 209v21q0 167 114 241q97 63 230 82l353 56v41q0 165 -65 243q-66 78 -226 78
t-221 -80t-62 -221h-82v18q0 133 69 238q82 123 300 123q369 0 369 -399v-400l10 -307h-8q-193 -88 -193 -240q0 -57 41 -90q41 -32 112 -32t124 28l24 -57q-63 -39 -155 -39z" />
    <glyph glyph-name="Cacute" unicode="&#x106;" horiz-adv-x="1243" 
d="M735 1946h86l-127 -226h-86zM215 758q1 -369 107 -535t327 -166h13q198 0 290 114t92 341h86v-20q0 -244 -120 -378t-372 -134q-253 0 -381 185t-128 593v82q0 408 128 593t394 185q479 0 479 -543v-51h-86q0 274 -91 395t-291 121h-13q-219 0 -327 -166t-107 -534v-82z
" />
    <glyph glyph-name="cacute" unicode="&#x107;" horiz-adv-x="1064" 
d="M694 1597h86l-184 -327h-86zM199 522q0 -215 89 -340t260 -125t247 88t75 224h82v-29q0 -139 -99 -250q-99 -110 -310 -110t-321 152t-109 390v41q-1 239 109 391t321 152t310 -116t99 -255v-39h-82q0 150 -76 241q-77 91 -247 91t-259 -125t-89 -340v-41z" />
    <glyph glyph-name="Ccircumflex" unicode="&#x108;" horiz-adv-x="1243" 
d="M508 1720h-92l205 226h61l205 -226h-92l-144 158zM215 758q1 -369 107 -535t327 -166h13q198 0 290 114t92 341h86v-20q0 -244 -120 -378t-372 -134q-253 0 -381 185t-128 593v82q0 408 128 593t394 185q479 0 479 -543v-51h-86q0 274 -91 395t-291 121h-13
q-219 0 -327 -166t-107 -534v-82z" />
    <glyph glyph-name="ccircumflex" unicode="&#x109;" horiz-adv-x="1064" 
d="M348 1270h-92l266 327h62l266 -327h-92l-205 254zM199 522q0 -215 89 -340t260 -125t247 88t75 224h82v-29q0 -139 -99 -250q-99 -110 -310 -110t-321 152t-109 390v41q-1 239 109 391t321 152t310 -116t99 -255v-39h-82q0 150 -76 241q-77 91 -247 91t-259 -125
t-89 -340v-41z" />
    <glyph glyph-name="Cdotaccent" unicode="&#x10a;" horiz-adv-x="1243" 
d="M713 1894v-122h-123v122h123zM215 758q1 -369 107 -535t327 -166h13q198 0 290 114t92 341h86v-20q0 -244 -120 -378t-372 -134q-253 0 -381 185t-128 593v82q0 408 128 593t394 185q479 0 479 -543v-51h-86q0 274 -91 395t-291 121h-13q-219 0 -327 -166t-107 -534v-82z
" />
    <glyph glyph-name="cdotaccent" unicode="&#x10b;" horiz-adv-x="1064" 
d="M614 1505v-123h-122v123h122zM199 522q0 -215 89 -340t260 -125t247 88t75 224h82v-29q0 -139 -99 -250q-99 -110 -310 -110t-321 152t-109 390v41q-1 239 109 391t321 152t310 -116t99 -255v-39h-82q0 150 -76 241q-77 91 -247 91t-259 -125t-89 -340v-41z" />
    <glyph glyph-name="Ccaron" unicode="&#x10c;" horiz-adv-x="1243" 
d="M416 1946h92l143 -158l144 158h92l-205 -226h-61zM215 758q1 -369 107 -535t327 -166h13q198 0 290 114t92 341h86v-20q0 -244 -120 -378t-372 -134q-253 0 -381 185t-128 593v82q0 408 128 593t394 185q479 0 479 -543v-51h-86q0 274 -91 395t-291 121h-13
q-219 0 -327 -166t-107 -534v-82z" />
    <glyph glyph-name="ccaron" unicode="&#x10d;" horiz-adv-x="1064" 
d="M256 1597h92l205 -254l205 254h92l-266 -327h-62zM199 522q0 -215 89 -340t260 -125t247 88t75 224h82v-29q0 -139 -99 -250q-99 -110 -310 -110t-321 152t-109 390v41q-1 239 109 391t321 152t310 -116t99 -255v-39h-82q0 150 -76 241q-77 91 -247 91t-259 -125
t-89 -340v-41z" />
    <glyph glyph-name="Dcaron" unicode="&#x10e;" horiz-adv-x="1290" 
d="M348 1946h92l144 -158l143 158h92l-205 -226h-61zM246 78h307q252 0 387 160t135 520v82q0 360 -135 520t-387 160h-307v-1442zM1161 758q0 -758 -598 -758h-399v1597h399q598 0 598 -757v-82z" />
    <glyph glyph-name="dcaron" unicode="&#x10f;" horiz-adv-x="1075" 
d="M1096 1638h92l-31 -368h-61v368zM553 1028q-180 0 -267 -124t-87 -341v-41q0 -217 87 -341q87 -123 267 -123t297 188v594q-117 188 -297 188zM532 1106q211 0 318 -156v688h82v-1331l10 -307h-61l-21 154q-100 -174 -320 -174t-323 152q-104 152 -104 390v41
q0 239 104 391t315 152z" />
    <glyph glyph-name="Dcroat" unicode="&#x110;" horiz-adv-x="1413" 
d="M369 1520v-666h471v-78h-471v-698h307q252 0 387 160t135 520v82q0 360 -135 520t-387 160h-307zM41 776v78h246v743h399q598 0 598 -757v-82q0 -758 -598 -758h-399v776h-246z" />
    <glyph glyph-name="dcroat" unicode="&#x111;" horiz-adv-x="1075" 
d="M553 1028q-180 0 -267 -124t-87 -341v-41q0 -217 87 -341t267 -124t297 189v594q-117 188 -297 188zM1137 1401v-78h-205v-1016l10 -307h-61l-21 154q-100 -174 -320 -174t-323 152q-104 152 -104 390v41q0 239 104 391t315 152t318 -156v373h-287v78h287v237h82v-237
h205z" />
    <glyph glyph-name="Emacron" unicode="&#x112;" horiz-adv-x="1105" 
d="M410 1792v82h409v-82h-409zM164 1597h860v-77h-778v-666h676v-78h-676v-698h778v-78h-860v1597z" />
    <glyph glyph-name="emacron" unicode="&#x113;" horiz-adv-x="1105" 
d="M338 1393v82h430v-82h-430zM552 1028q-173 0 -261 -120t-92 -326h708q-4 206 -93 326t-262 120zM993 504h-794q4 -209 93 -328t267 -119t265 88t87 203h82v-8q-1 -135 -111 -248q-110 -112 -327 -112t-330 152t-112 390v41q-1 239 109 391t331 152t331 -152t109 -391v-59
z" />
    <glyph glyph-name="Ebreve" unicode="&#x114;" horiz-adv-x="1105" 
d="M614 1700q-126 0 -198 68t-72 178h74q0 -80 50 -129t146 -49t146 48q50 50 51 130h74q0 -110 -72 -178t-199 -68zM164 1597h860v-77h-778v-666h676v-78h-676v-698h778v-78h-860v1597z" />
    <glyph glyph-name="ebreve" unicode="&#x115;" horiz-adv-x="1105" 
d="M553 1249q-156 0 -234 94t-77 254h73q0 -281 238 -280q238 0 238 280h73q0 -160 -78 -254t-233 -94zM552 1028q-173 0 -261 -120t-92 -326h708q-4 206 -93 326t-262 120zM993 504h-794q4 -209 93 -328t267 -119t265 88t87 203h82v-8q-1 -135 -111 -248
q-110 -112 -327 -112t-330 152t-112 390v41q-1 239 109 391t331 152t331 -152t109 -391v-59z" />
    <glyph glyph-name="Edotaccent" unicode="&#x116;" horiz-adv-x="1105" 
d="M676 1894v-122h-123v122h123zM164 1597h860v-77h-778v-666h676v-78h-676v-698h778v-78h-860v1597z" />
    <glyph glyph-name="edotaccent" unicode="&#x117;" horiz-adv-x="1105" 
d="M614 1505v-123h-122v123h122zM552 1028q-173 0 -261 -120t-92 -326h708q-4 206 -93 326t-262 120zM993 504h-794q4 -209 93 -328t267 -119t265 88t87 203h82v-8q-1 -135 -111 -248q-110 -112 -327 -112t-330 152t-112 390v41q-1 239 109 391t331 152t331 -152t109 -391
v-59z" />
    <glyph glyph-name="Eogonek" unicode="&#x118;" horiz-adv-x="1105" 
d="M977 -430q-213 0 -213 190q0 147 135 240h-735v1597h860v-77h-778v-666h676v-78h-676v-698h778v-78q-193 -88 -193 -240q0 -57 41 -90q41 -32 112 -32t124 28l25 -57q-63 -39 -156 -39z" />
    <glyph glyph-name="eogonek" unicode="&#x119;" horiz-adv-x="1105" 
d="M552 1028q-173 0 -261 -120t-92 -326h708q-4 206 -93 326t-262 120zM670 -430q-213 0 -213 190q0 129 108 220h-2q-225 0 -338 152t-112 390v41q-1 239 109 391t331 152t331 -152t109 -391v-59h-794q4 -209 93 -328t267 -119t265 88t87 203h82v-8q0 -106 -69 -203
q-70 -96 -207 -137q-73 -20 -133 -86t-60 -138q0 -140 152 -138q72 0 125 28l24 -57q-63 -39 -155 -39z" />
    <glyph glyph-name="Ecaron" unicode="&#x11a;" horiz-adv-x="1105" 
d="M379 1946h92l143 -158l144 158h92l-205 -226h-61zM164 1597h860v-77h-778v-666h676v-78h-676v-698h778v-78h-860v1597z" />
    <glyph glyph-name="ecaron" unicode="&#x11b;" horiz-adv-x="1105" 
d="M256 1597h92l205 -254l205 254h92l-266 -327h-62zM552 1028q-173 0 -261 -120t-92 -326h708q-4 206 -93 326t-262 120zM993 504h-794q4 -209 93 -328t267 -119t265 88t87 203h82v-8q-1 -135 -111 -248q-110 -112 -327 -112t-330 152t-112 390v41q-1 239 109 391t331 152
t331 -152t109 -391v-59z" />
    <glyph glyph-name="Gcircumflex" unicode="&#x11c;" horiz-adv-x="1306" 
d="M528 1720h-92l205 226h61l205 -226h-92l-143 158zM703 -20q-294 0 -434 185t-140 593v82q0 406 137 592t406 186q481 0 481 -543v-51h-86q0 274 -92 395t-293 121h-12q-223 0 -339 -168t-116 -532v-82q0 -369 117 -535t358 -166h12q126 0 222 42t147 104v479h-297v78h379
v-598q-156 -182 -450 -182z" />
    <glyph glyph-name="gcircumflex" unicode="&#x11d;" horiz-adv-x="1075" 
d="M328 1270h-92l266 327h61l266 -327h-92l-205 254zM554 1028q-179 0 -267 -115t-88 -309v-41q0 -195 88 -309t267 -115q179 0 296 189v512q-117 188 -296 188zM850 -10v225q-104 -154 -316 -154q-212 1 -317 143q-104 142 -104 359v41q0 218 104 360t323 142t320 -174
l21 153h61l-10 -307v-798q0 -184 -95 -297t-305 -113t-304 113q-95 113 -95 297v20h82q0 -182 75 -267q76 -85 244 -85t242 86t74 256z" />
    <glyph glyph-name="Gbreve" unicode="&#x11e;" horiz-adv-x="1306" 
d="M672 1700q-127 0 -199 68t-72 178h74q0 -80 50 -129q51 -49 147 -49t146 48q50 50 50 130h74q0 -110 -72 -178t-198 -68zM703 -20q-294 0 -434 185t-140 593v82q0 406 137 592t406 186q481 0 481 -543v-51h-86q0 274 -92 395t-293 121h-12q-223 0 -339 -168t-116 -532
v-82q0 -369 117 -535t358 -166h12q126 0 222 42t147 104v479h-297v78h379v-598q-156 -182 -450 -182z" />
    <glyph glyph-name="gbreve" unicode="&#x11f;" horiz-adv-x="1075" 
d="M532 1249q-156 0 -234 94t-77 254h74q0 -281 237 -280q238 0 238 280h74q0 -160 -78 -254t-234 -94zM554 1028q-179 0 -267 -115t-88 -309v-41q0 -195 88 -309t267 -115q179 0 296 189v512q-117 188 -296 188zM850 -10v225q-104 -154 -316 -154q-212 1 -317 143
q-104 142 -104 359v41q0 218 104 360t323 142t320 -174l21 153h61l-10 -307v-798q0 -184 -95 -297t-305 -113t-304 113q-95 113 -95 297v20h82q0 -182 75 -267q76 -85 244 -85t242 86t74 256z" />
    <glyph glyph-name="Gdotaccent" unicode="&#x120;" horiz-adv-x="1306" 
d="M733 1894v-122h-123v122h123zM703 -20q-294 0 -434 185t-140 593v82q0 406 137 592t406 186q481 0 481 -543v-51h-86q0 274 -92 395t-293 121h-12q-223 0 -339 -168t-116 -532v-82q0 -369 117 -535t358 -166h12q126 0 222 42t147 104v479h-297v78h379v-598
q-156 -182 -450 -182z" />
    <glyph glyph-name="gdotaccent" unicode="&#x121;" horiz-adv-x="1075" 
d="M594 1505v-123h-123v123h123zM199 563q0 -195 88 -309t267 -115q179 0 296 189v512q-117 188 -296 188t-267 -115t-88 -309v-41zM850 -10v225q-104 -154 -316 -154q-212 1 -317 143q-104 142 -104 359v41q0 218 104 360t323 142t320 -174l21 153h61l-10 -307v-798
q0 -184 -95 -297t-305 -113t-304 113q-95 113 -95 297v20h82q0 -182 75 -267q76 -85 244 -85t242 86t74 256z" />
    <glyph glyph-name="Gcommaaccent" unicode="&#x122;" horiz-adv-x="1306" 
d="M754 -123v-98q0 -97 -50 -153t-135 -56v61q51 0 85 31t38 92h-61v123h123zM703 -20q-294 0 -434 185t-140 593v82q0 406 137 592t406 186q481 0 481 -543v-51h-86q0 274 -92 395t-293 121h-12q-223 0 -339 -168t-116 -532v-82q0 -369 117 -535t358 -166h12q126 0 222 42
t147 104v479h-297v78h379v-598q-156 -182 -450 -182z" />
    <glyph glyph-name="gcommaaccent" unicode="&#x123;" horiz-adv-x="1075" 
d="M471 1270v98q0 250 184 250v-62q-61 0 -91 -36t-32 -127h62v-123h-123zM554 1028q-179 0 -267 -115t-88 -309v-41q0 -195 88 -309t267 -114t296 188v512q-117 188 -296 188zM850 -10v225q-104 -154 -316 -154q-212 1 -317 143q-104 142 -104 359v41q0 218 104 360
t323 142t320 -174l21 153h61l-10 -307v-798q0 -184 -95 -297t-305 -113t-304 113q-95 113 -95 297v20h82q0 -182 75 -267q76 -85 244 -85t242 86t74 256z" />
    <glyph glyph-name="Hcircumflex" unicode="&#x124;" horiz-adv-x="1290" 
d="M502 1720h-92l204 226h62l205 -226h-93l-143 158zM1044 1597h82v-1597h-82v776h-798v-776h-82v1597h82v-743h798v743z" />
    <glyph glyph-name="hcircumflex" unicode="&#x125;" horiz-adv-x="1044" 
d="M41 1720h-92l205 226h61l205 -226h-92l-144 158zM225 1638v-696q115 164 359 164q152 0 240 -91t87 -247v-768h-82v758q0 139 -71 205q-72 66 -195 65q-219 0 -338 -188v-840h-82v1638h82z" />
    <glyph glyph-name="Hbar" unicode="&#x126;" horiz-adv-x="1290" 
d="M246 854h798v336h-798v-336zM1044 1597h82v-1597h-82v776h-798v-776h-82v1597h82v-329h798v329z" />
    <glyph glyph-name="hbar" unicode="&#x127;" horiz-adv-x="1044" 
d="M225 1638v-237h287v-78h-287v-381q115 164 359 164q152 0 240 -91t87 -247v-768h-82v758q0 139 -71 205q-72 66 -195 65q-219 0 -338 -188v-840h-82v1323h-204v78h204v237h82z" />
    <glyph glyph-name="Itilde" unicode="&#x128;" horiz-adv-x="430" 
d="M428 1909h74q0 -86 -40 -129t-106 -43t-151 62q-86 62 -123 63q-80 0 -80 -105h-74q0 86 40 129t106 43t151 -62q86 -62 123 -63q80 1 80 105zM256 1597v-1597h-82v1597h82z" />
    <glyph glyph-name="itilde" unicode="&#x129;" horiz-adv-x="409" 
d="M420 1509h72q0 -172 -144 -172q-63 -1 -153 61t-129 62q-76 0 -76 -102h-72q0 172 143 172q63 0 153 -62t130 -61q76 0 76 102zM164 0v1085h82v-1085h-82z" />
    <glyph glyph-name="Imacron" unicode="&#x12a;" horiz-adv-x="430" 
d="M10 1792v82h410v-82h-410zM256 1597v-1597h-82v1597h82z" />
    <glyph glyph-name="imacron" unicode="&#x12b;" horiz-adv-x="409" 
d="M-10 1393v82h430v-82h-430zM164 0v1085h82v-1085h-82z" />
    <glyph glyph-name="Ibreve" unicode="&#x12c;" horiz-adv-x="430" 
d="M215 1700q-127 0 -199 68t-71 178h73q0 -80 50 -129t147 -49q96 0 146 48q50 50 51 130h73q0 -111 -71 -179q-72 -67 -199 -67zM256 1597v-1597h-82v1597h82z" />
    <glyph glyph-name="ibreve" unicode="&#x12d;" horiz-adv-x="409" 
d="M205 1249q-156 0 -234 94t-77 254h73q0 -281 238 -280q238 0 237 280h74q0 -160 -78 -254t-233 -94zM164 0v1085h82v-1085h-82z" />
    <glyph glyph-name="Iogonek" unicode="&#x12e;" horiz-adv-x="430" 
d="M209 -430q-213 0 -213 190q0 170 178 267v1570h82v-1597q-193 -88 -193 -240q0 -57 41 -90q41 -32 112 -32t124 28l25 -57q-63 -39 -156 -39z" />
    <glyph glyph-name="iogonek" unicode="&#x12f;" horiz-adv-x="409" 
d="M266 1505v-123h-123v123h123zM199 -430q-213 0 -213 190q0 170 178 267v1058h82v-1085q-193 -88 -193 -240q0 -57 41 -90q41 -32 112 -32t124 28l24 -57q-63 -39 -155 -39z" />
    <glyph glyph-name="Idotaccent" unicode="&#x130;" horiz-adv-x="430" 
d="M276 1894v-122h-122v122h122zM256 1597v-1597h-82v1597h82z" />
    <glyph glyph-name="dotlessi" unicode="&#x131;" horiz-adv-x="409" 
d="M164 0v1085h82v-1085h-82z" />
    <glyph glyph-name="IJ" unicode="&#x132;" horiz-adv-x="942" 
d="M256 1597v-1597h-82v1597h82zM707 307v1290h81v-1300q0 -162 -72 -240q-72 -77 -182 -77q-112 0 -155 24v76q49 -23 141 -23q92 1 139 57q48 56 48 193z" />
    <glyph glyph-name="ij" unicode="&#x133;" horiz-adv-x="716" 
d="M573 1505v-123h-122v123h122zM266 1505v-123h-123v123h123zM164 0v1085h82v-1085h-82zM471 -123v1208h82v-1218q0 -153 -78 -225q-77 -72 -191 -72t-161 20v76q41 -18 141 -18t154 48q53 48 53 181z" />
    <glyph glyph-name="Jcircumflex" unicode="&#x134;" horiz-adv-x="983" 
d="M645 1720h-92l205 226h61l205 -226h-92l-144 158zM748 1597h81v-1105q0 -250 -89 -381t-296 -131q-208 0 -294 128t-87 384v20h78q0 -240 72 -348q71 -108 231 -107q160 0 232 108t72 347v1085z" />
    <glyph glyph-name="jcircumflex" unicode="&#x135;" horiz-adv-x="409" 
d="M0 1270h-92l266 327h62l266 -327h-92l-205 254zM164 -123v1208h82v-1218q0 -153 -78 -225t-192 -72t-160 20v76q42 -18 142 -18t153 48t53 181z" />
    <glyph glyph-name="Kcommaaccent" unicode="&#x136;" horiz-adv-x="1105" 
d="M604 -123v-98q0 -97 -50 -153t-134 -56v61q51 0 85 31t38 92h-62v123h123zM246 1597v-968l678 968h100l-487 -684l487 -913h-96l-443 840l-239 -338v-502h-82v1597h82z" />
    <glyph glyph-name="kcommaaccent" unicode="&#x137;" horiz-adv-x="983" 
d="M563 -123v-98q0 -97 -50 -153t-134 -56v61q51 0 85 31t38 92h-62v123h123zM143 0v1638h82v-1194l590 641h107l-379 -409l379 -676h-93l-344 614l-260 -282v-332h-82z" />
    <glyph glyph-name="kgreenlandic" unicode="&#x138;" horiz-adv-x="983" 
d="M143 0v1085h82v-641l590 641h107l-379 -409l379 -676h-93l-344 614l-260 -282v-332h-82z" />
    <glyph glyph-name="Lacute" unicode="&#x139;" horiz-adv-x="983" 
d="M289 1946h86l-127 -226h-86zM952 0h-788v1597h82v-1519h706v-78z" />
    <glyph glyph-name="lacute" unicode="&#x13a;" horiz-adv-x="409" 
d="M289 1946h86l-127 -226h-86zM164 0v1638h82v-1638h-82z" />
    <glyph glyph-name="Lcommaaccent" unicode="&#x13b;" horiz-adv-x="983" 
d="M625 -123v-98q-1 -97 -51 -153t-134 -56v61q51 0 85 31t38 92h-61v123h123zM952 0h-788v1597h82v-1519h706v-78z" />
    <glyph glyph-name="lcommaaccent" unicode="&#x13c;" horiz-adv-x="409" 
d="M266 -123v-98q0 -97 -50 -153t-134 -56v61q51 0 85 31t38 92h-62v123h123zM164 0v1638h82v-1638h-82z" />
    <glyph glyph-name="Lcaron" unicode="&#x13d;" horiz-adv-x="983" 
d="M569 1638h93l-31 -368h-62v368zM952 0h-788v1597h82v-1519h706v-78z" />
    <glyph glyph-name="lcaron" unicode="&#x13e;" horiz-adv-x="409" 
d="M410 1638h92l-31 -368h-61v368zM164 0v1638h82v-1638h-82z" />
    <glyph glyph-name="Ldot" unicode="&#x13f;" horiz-adv-x="983" 
d="M741 877v-123h-123v123h123zM952 0h-788v1597h82v-1519h706v-78z" />
    <glyph glyph-name="ldot" unicode="&#x140;" 
d="M573 778v-123h-122v123h122zM164 0v1638h82v-1638h-82z" />
    <glyph glyph-name="Lslash" unicode="&#x141;" horiz-adv-x="1105" 
d="M287 1597h82v-739l471 248v-86l-471 -248v-694h706v-78h-788v729l-246 -129v86l246 129v782z" />
    <glyph glyph-name="lslash" unicode="&#x142;" horiz-adv-x="634" 
d="M266 1638h82v-725l236 193v-98l-236 -193v-815h-82v748l-194 -160v98l194 160v792z" />
    <glyph glyph-name="Nacute" unicode="&#x143;" horiz-adv-x="1331" 
d="M750 1946h86l-127 -226h-86zM1167 1597v-1597h-92l-839 1475l6 -390v-1085h-78v1597h92l840 -1474l-6 389v1085h77z" />
    <glyph glyph-name="nacute" unicode="&#x144;" horiz-adv-x="1044" 
d="M670 1597h86l-185 -327h-86zM911 0h-82v758q0 139 -71 205q-72 66 -195 65q-219 0 -338 -188v-840h-82v778l-10 307h62l18 -159q113 180 371 180q152 0 240 -91t87 -247v-768z" />
    <glyph glyph-name="Ncommaaccent" unicode="&#x145;" horiz-adv-x="1331" 
d="M727 -123v-98q0 -97 -50 -153t-134 -56v61q51 0 85 31t38 92h-62v123h123zM1167 1597v-1597h-92l-839 1475l6 -390v-1085h-78v1597h92l840 -1474l-6 389v1085h77z" />
    <glyph glyph-name="ncommaaccent" unicode="&#x146;" horiz-adv-x="1044" 
d="M590 -123v-98q0 -97 -50 -153t-134 -56v61q50 0 84 31t38 92h-61v123h123zM911 0h-82v758q0 139 -71 205q-72 66 -195 65q-219 0 -338 -188v-840h-82v778l-10 307h62l18 -159q113 180 371 180q152 0 240 -91t87 -247v-768z" />
    <glyph glyph-name="Ncaron" unicode="&#x147;" horiz-adv-x="1331" 
d="M430 1946h92l144 -158l143 158h92l-205 -226h-61zM1167 1597v-1597h-92l-839 1475l6 -390v-1085h-78v1597h92l840 -1474l-6 389v1085h77z" />
    <glyph glyph-name="ncaron" unicode="&#x148;" horiz-adv-x="1044" 
d="M231 1597h93l204 -254l205 254h92l-266 -327h-61zM911 0h-82v758q0 139 -71 205q-72 66 -195 65q-219 0 -338 -188v-840h-82v778l-10 307h62l18 -159q113 180 371 180q152 0 240 -91t87 -247v-768z" />
    <glyph glyph-name="Eng" unicode="&#x14a;" horiz-adv-x="1331" 
d="M1085 -123v105l-849 1493l6 -390v-1085h-78v1597h92l840 -1474l-6 389v1085h77v-1730q1 -153 -77 -225t-192 -72t-161 20v76q41 -18 141 -18t154 48q53 48 53 181z" />
    <glyph glyph-name="eng" unicode="&#x14b;" horiz-adv-x="1044" 
d="M829 -123v881q0 139 -71 205q-72 66 -195 65q-219 0 -338 -188v-840h-82v778l-10 307h62l18 -159q113 180 371 180q152 0 240 -91t87 -247v-901q1 -153 -77 -225t-192 -72t-161 20v76q41 -18 141 -18t154 48q53 48 53 181z" />
    <glyph glyph-name="Omacron" unicode="&#x14c;" horiz-adv-x="1310" 
d="M451 1792v82h409v-82h-409zM649 57h13q221 0 327 165t107 536v82q0 372 -106 536t-328 164h-13q-221 0 -327 -165t-107 -535v-82q1 -371 107 -536t327 -165zM655 -20q-266 0 -396 185t-130 593v82q0 408 130 593t396 185q267 0 397 -185t130 -593v-82q0 -408 -130 -593
t-397 -185z" />
    <glyph glyph-name="omacron" unicode="&#x14d;" horiz-adv-x="1105" 
d="M338 1393v82h430v-82h-430zM553 57q176 0 265 125t89 340v41q0 215 -89 340t-265 125t-265 -125t-89 -340v-41q0 -215 89 -340t265 -125zM553 -20q-221 0 -331 152t-109 390v41q-1 239 109 391t331 152t331 -152t109 -391v-41q1 -240 -109 -391t-331 -151z" />
    <glyph glyph-name="Obreve" unicode="&#x14e;" horiz-adv-x="1310" 
d="M655 1700q-127 0 -199 68t-71 178h74q0 -80 50 -129t146 -49q97 0 147 48q50 50 50 130h74q0 -110 -72 -178t-199 -68zM649 57h13q221 0 327 165t107 536v82q0 372 -106 536t-328 164h-13q-221 0 -327 -165t-107 -535v-82q1 -371 107 -536t327 -165zM655 -20
q-266 0 -396 185t-130 593v82q0 408 130 593t396 185q267 0 397 -185t130 -593v-82q0 -408 -130 -593t-397 -185z" />
    <glyph glyph-name="obreve" unicode="&#x14f;" horiz-adv-x="1105" 
d="M553 1249q-156 0 -234 94t-77 254h73q0 -281 238 -280q238 0 238 280h73q0 -160 -78 -254t-233 -94zM553 57q176 0 265 125t89 340v41q0 215 -89 340t-265 125t-265 -125t-89 -340v-41q0 -215 89 -340t265 -125zM553 -20q-221 0 -331 152t-109 390v41q-1 239 109 391
t331 152t331 -152t109 -391v-41q1 -240 -109 -391t-331 -151z" />
    <glyph glyph-name="Ohungarumlaut" unicode="&#x150;" horiz-adv-x="1310" 
d="M852 1946h86l-127 -226h-86zM627 1946h86l-127 -226h-86zM649 57h13q221 0 327 165t107 536v82q0 372 -106 536t-328 164h-13q-221 0 -327 -165t-107 -535v-82q1 -371 107 -536t327 -165zM655 -20q-266 0 -396 185t-130 593v82q0 408 130 593t396 185q267 0 397 -185
t130 -593v-82q0 -408 -130 -593t-397 -185z" />
    <glyph glyph-name="ohungarumlaut" unicode="&#x151;" horiz-adv-x="1105" 
d="M582 1597h86l-185 -327h-86zM807 1597h86l-184 -327h-86zM553 57q176 0 265 125t89 340v41q0 215 -89 340t-265 125t-265 -125t-89 -340v-41q0 -215 89 -340t265 -125zM553 -20q-221 0 -331 152t-109 390v41q-1 239 109 391t331 152t331 -152t109 -391v-41
q1 -240 -109 -391t-331 -151z" />
    <glyph glyph-name="OE" unicode="&#x152;" horiz-adv-x="1925" 
d="M983 78v1442h-246q-252 0 -387 -160t-135 -520v-82q0 -360 135 -520t387 -160h246zM129 840q0 758 598 757h1116v-77h-778v-666h676v-78h-676v-698h778v-78h-1116q-598 0 -598 758v82z" />
    <glyph glyph-name="oe" unicode="&#x153;" horiz-adv-x="1900" 
d="M1347 1028q-173 0 -261 -120t-93 -326h709q-4 206 -93 326t-262 120zM199 522q0 -215 89 -340t265 -125t265 125t89 340v41q0 215 -89 340t-265 125t-265 -125t-89 -340v-41zM1788 504h-795q4 -209 93 -328q90 -119 268 -119t265 88t87 203h82v-8q0 -135 -111 -248
t-319 -112q-313 0 -408 301q-94 -301 -397 -301q-221 0 -331 152t-109 390v41q-1 239 109 391t331 152q303 0 397 -301q44 139 142 220t256 81q220 0 330 -152t110 -391v-59z" />
    <glyph glyph-name="Racute" unicode="&#x154;" horiz-adv-x="1167" 
d="M627 1946h86l-127 -226h-86zM246 754h332q274 0 355 211q26 68 25 155v33q0 241 -180 326q-82 39 -200 41h-332v-766zM246 676v-676h-82v1597h414q237 0 365 -134q103 -107 101 -306v-41q0 -328 -284 -416l284 -700h-92l-270 684q-47 -8 -104 -8h-332z" />
    <glyph glyph-name="racute" unicode="&#x155;" horiz-adv-x="645" 
d="M489 1597h86l-184 -327h-86zM553 1028h-21q-116 0 -186 -53t-121 -135v-840h-82v778l-10 307h62l18 -153q104 174 309 174l31 -2v-76z" />
    <glyph glyph-name="Rcommaaccent" unicode="&#x156;" horiz-adv-x="1167" 
d="M625 -123v-98q-1 -97 -51 -153t-134 -56v61q51 0 85 31t38 92h-61v123h123zM246 754h332q274 0 355 211q26 68 25 155v33q0 241 -180 326q-82 39 -200 41h-332v-766zM246 676v-676h-82v1597h414q237 0 365 -134q103 -107 101 -306v-41q0 -328 -284 -416l284 -700h-92
l-270 684q-47 -8 -104 -8h-332z" />
    <glyph glyph-name="rcommaaccent" unicode="&#x157;" horiz-adv-x="645" 
d="M246 -123v-98q0 -97 -50 -153t-135 -56v61q51 0 85 31t38 92h-61v123h123zM553 1028h-21q-116 0 -186 -53t-121 -135v-840h-82v778l-10 307h62l18 -153q104 174 309 174l31 -2v-76z" />
    <glyph glyph-name="Rcaron" unicode="&#x158;" horiz-adv-x="1167" 
d="M307 1946h92l144 -158l143 158h92l-205 -226h-61zM246 754h332q274 0 355 211q26 68 25 155v33q0 241 -180 326q-82 39 -200 41h-332v-766zM246 676v-676h-82v1597h414q237 0 365 -134q103 -107 101 -306v-41q0 -328 -284 -416l284 -700h-92l-270 684q-47 -8 -104 -8
h-332z" />
    <glyph glyph-name="rcaron" unicode="&#x159;" horiz-adv-x="645" 
d="M51 1597h92l205 -254l205 254h92l-266 -327h-62zM553 1028h-21q-116 0 -186 -53t-121 -135v-840h-82v778l-10 307h62l18 -153q104 174 309 174l31 -2v-76z" />
    <glyph glyph-name="Sacute" unicode="&#x15a;" horiz-adv-x="1208" 
d="M688 1946h86l-127 -226h-86zM123 1208q0 188 133 299t348 111q481 0 481 -502v-51h-81q0 251 -94 363t-300 112h-12q-168 0 -279 -85t-110 -226v-21q0 -147 95 -231t335 -117q467 -64 467 -422v-20q0 -203 -137 -321q-137 -117 -371 -117t-365 137t-131 375v20h82
q0 -223 114 -339t300 -116h12q184 1 297 93t113 258v20q0 160 -104 244t-338 117q-234 32 -345 140t-110 259v20z" />
    <glyph glyph-name="sacute" unicode="&#x15b;" horiz-adv-x="1064" 
d="M674 1597h86l-185 -327h-86zM215 328q-1 -119 71 -195t234 -76q162 -1 244 61t82 178t-76 161t-272 62t-275 89q-78 72 -78 195v10q-1 129 101 211t286 82q389 0 390 -361v-8h-82q0 143 -69 217t-225 74t-236 -57q-79 -57 -79 -161t69 -156q70 -52 268 -67t281 -84
t83 -212v-8q0 -133 -106 -218t-294 -85q-300 0 -378 222q-20 56 -21 117v9h82z" />
    <glyph glyph-name="Scircumflex" unicode="&#x15c;" horiz-adv-x="1208" 
d="M461 1720h-92l204 226h62l205 -226h-92l-144 158zM123 1208q0 188 133 299t348 111q481 0 481 -502v-51h-81q0 251 -94 363t-300 112h-12q-168 0 -279 -85t-110 -226v-21q0 -147 95 -231t335 -117q467 -64 467 -422v-20q0 -203 -137 -321q-137 -117 -371 -117t-365 137
t-131 375v20h82q0 -223 114 -339t300 -116h12q184 1 297 93t113 258v20q0 160 -104 244t-338 117q-234 32 -345 140t-110 259v20z" />
    <glyph glyph-name="scircumflex" unicode="&#x15d;" horiz-adv-x="1064" 
d="M328 1270h-92l266 327h61l266 -327h-92l-205 254zM215 328q-1 -119 71 -195t234 -76q162 -1 244 61t82 178t-76 161t-272 62t-275 89q-78 72 -78 195v10q-1 129 101 211t286 82q389 0 390 -361v-8h-82q0 143 -69 217t-225 74t-236 -57q-79 -57 -79 -161t69 -156
q70 -52 268 -67t281 -84t83 -212v-8q0 -133 -106 -218t-294 -85q-300 0 -378 222q-20 56 -21 117v9h82z" />
    <glyph glyph-name="Scedilla" unicode="&#x15e;" horiz-adv-x="1208" 
d="M729 -279q0 80 -133 80l-53 -4l-35 33l55 152q-221 10 -341 146t-120 364v20h82q0 -223 114 -339t300 -116h12q184 1 297 93t113 258v20q0 160 -104 245t-338 117t-345 139q-111 108 -110 259v20q0 188 133 299t348 111q481 0 481 -502v-51h-81q0 251 -94 363t-300 112
h-12q-168 0 -279 -85t-110 -226v-21q0 -147 95 -231t335 -117q467 -64 467 -422v-20q0 -194 -128 -310t-341 -126l-41 -113h10q78 0 134 -34t57 -111q0 -154 -199 -154q-117 0 -180 45l26 61q58 -38 138 -38t114 18t33 65z" />
    <glyph glyph-name="scedilla" unicode="&#x15f;" horiz-adv-x="1064" 
d="M133 328h82q0 -119 72 -195q71 -76 233 -76q162 -1 244 61t82 178t-76 161t-272 62t-275 89q-78 72 -78 195v10q-1 129 101 211t286 82q389 0 390 -361v-8h-82q0 143 -69 217t-225 74t-236 -57q-79 -57 -79 -161t69 -156q70 -52 268 -67t281 -84t83 -212v-8
q0 -127 -97 -210t-270 -91l-41 -113h11q78 0 134 -34t56 -111q0 -154 -199 -154q-117 0 -180 45l27 61q59 -38 138 -38t113 18t33 65q0 80 -133 80l-53 -4l-35 33l56 152q-271 17 -340 226q-18 54 -19 111v9z" />
    <glyph glyph-name="Scaron" unicode="&#x160;" horiz-adv-x="1208" 
d="M369 1946h92l143 -158l144 158h92l-205 -226h-62zM123 1208q0 188 133 299t348 111q481 0 481 -502v-51h-81q0 251 -94 363t-300 112h-12q-168 0 -279 -85t-110 -226v-21q0 -147 95 -231t335 -117q467 -64 467 -422v-20q0 -203 -137 -321q-137 -117 -371 -117t-365 137
t-131 375v20h82q0 -223 114 -339t300 -116h12q184 1 297 93t113 258v20q0 160 -104 244t-338 117q-234 32 -345 140t-110 259v20z" />
    <glyph glyph-name="scaron" unicode="&#x161;" horiz-adv-x="1064" 
d="M236 1597h92l204 -254l205 254h92l-266 -327h-61zM215 328q-1 -119 71 -195t234 -76q162 -1 244 61t82 178t-76 161t-272 62t-275 89q-78 72 -78 195v10q-1 129 101 211t286 82q389 0 390 -361v-8h-82q0 143 -69 217t-225 74t-236 -57q-79 -57 -79 -161t69 -156
q70 -52 268 -67t281 -84t83 -212v-8q0 -133 -106 -218t-294 -85q-300 0 -378 222q-20 56 -21 117v9h82z" />
    <glyph glyph-name="Tcommaaccent" unicode="&#x162;" horiz-adv-x="1024" 
d="M573 -123v-98q0 -97 -50 -153t-134 -56v61q51 0 85 31t38 92h-61v123h122zM553 1520v-1520h-82v1520h-420v77h922v-77h-420z" />
    <glyph glyph-name="tcommaaccent" unicode="&#x163;" horiz-adv-x="798" 
d="M532 -123v-98q0 -97 -50 -153t-134 -56v61q51 0 85 31t38 92h-61v123h122zM328 1085h368v-77h-368v-721q0 -133 53 -181t153 -49q100 0 142 19v-76q-47 -20 -161 -20q-113 0 -191 72t-78 224v732h-174v77h174v308h82v-308z" />
    <glyph glyph-name="Tcaron" unicode="&#x164;" horiz-adv-x="1024" 
d="M276 1946h93l143 -158l143 158h93l-205 -226h-62zM553 1520v-1520h-82v1520h-420v77h922v-77h-420z" />
    <glyph glyph-name="tcaron" unicode="&#x165;" horiz-adv-x="798" 
d="M492 1638h92l-31 -368h-61v368zM328 1085h368v-77h-368v-721q0 -133 53 -181t153 -49q100 0 142 19v-76q-47 -20 -161 -20q-113 0 -191 72t-78 224v732h-174v77h174v308h82v-308z" />
    <glyph glyph-name="Tbar" unicode="&#x166;" horiz-adv-x="1024" 
d="M553 1520v-666h266v-78h-266v-776h-82v776h-266v78h266v666h-420v77h922v-77h-420z" />
    <glyph glyph-name="tbar" unicode="&#x167;" horiz-adv-x="798" 
d="M328 1085h368v-77h-368v-426h286v-78h-286v-217q0 -133 53 -181t153 -49q100 0 142 19v-76q-47 -20 -161 -20q-113 0 -191 72t-78 224v228h-174v78h174v426h-174v77h174v308h82v-308z" />
    <glyph glyph-name="Utilde" unicode="&#x168;" horiz-adv-x="1290" 
d="M858 1909h74q0 -86 -40 -129t-106 -43t-151 62q-86 62 -123 63q-80 0 -80 -105h-74q0 86 40 129t106 43t151 -62q86 -62 123 -63q80 1 80 105zM645 -20q-246 0 -369 114t-122 398v1105h82v-1095q0 -252 99 -348t310 -96t310 96t100 348v1095h82v-1105q0 -284 -123 -398
t-369 -114z" />
    <glyph glyph-name="utilde" unicode="&#x169;" horiz-adv-x="1044" 
d="M731 1509h72q0 -172 -144 -172q-63 -1 -153 61t-129 62q-76 0 -76 -102h-72q0 172 144 172q63 0 153 -62t129 -61q76 0 76 102zM133 1085h82v-757q0 -139 72 -205t194 -66q219 0 338 189v839h82v-778l10 -307h-61l-21 158q-113 -178 -368 -178q-152 0 -240 91t-88 246
v768z" />
    <glyph glyph-name="Umacron" unicode="&#x16a;" horiz-adv-x="1290" 
d="M440 1792v82h410v-82h-410zM645 -20q-246 0 -369 114t-122 398v1105h82v-1095q0 -252 99 -348t310 -96t310 96t100 348v1095h82v-1105q0 -284 -123 -398t-369 -114z" />
    <glyph glyph-name="umacron" unicode="&#x16b;" horiz-adv-x="1044" 
d="M301 1393v82h430v-82h-430zM133 1085h82v-757q0 -139 72 -205t194 -66q219 0 338 189v839h82v-778l10 -307h-61l-21 158q-113 -178 -368 -178q-152 0 -240 91t-88 246v768z" />
    <glyph glyph-name="Ubreve" unicode="&#x16c;" horiz-adv-x="1290" 
d="M645 1700q-127 0 -199 68t-71 178h74q0 -80 50 -129t146 -49q97 0 147 48q50 50 50 130h73q0 -111 -71 -179q-72 -67 -199 -67zM645 -20q-246 0 -369 114t-122 398v1105h82v-1095q0 -252 99 -348t310 -96t310 96t100 348v1095h82v-1105q0 -284 -123 -398t-369 -114z" />
    <glyph glyph-name="ubreve" unicode="&#x16d;" horiz-adv-x="1044" 
d="M516 1249q-156 0 -234 94t-77 254h74q0 -281 237 -280q238 0 238 280h73q1 -160 -77 -254t-234 -94zM133 1085h82v-757q0 -139 72 -205t194 -66q219 0 338 189v839h82v-778l10 -307h-61l-21 158q-113 -178 -368 -178q-152 0 -240 91t-88 246v768z" />
    <glyph glyph-name="Uring" unicode="&#x16e;" horiz-adv-x="1290" 
d="M526 1782q0 -49 35 -84t84 -35t84 35t35 84t-35 84t-84 35t-84 -35t-35 -84zM461 1782q0 78 54 131t130 53t130 -53t54 -131t-54 -131t-130 -53t-130 52q-54 54 -54 132zM645 -20q-246 0 -369 114t-122 398v1105h82v-1095q0 -252 99 -348t310 -96t310 96t100 348v1095h82
v-1105q0 -284 -123 -398t-369 -114z" />
    <glyph glyph-name="uring" unicode="&#x16f;" horiz-adv-x="1044" 
d="M397 1434q0 -49 35 -84t84 -35t84 35t35 84t-35 84q-35 34 -84 34t-84 -34t-35 -84zM332 1434q0 78 53 131t131 53t131 -53t53 -131t-53 -131t-131 -53t-131 52q-53 54 -53 132zM133 1085h82v-757q0 -139 72 -205t194 -66q219 0 338 189v839h82v-778l10 -307h-61l-21 158
q-113 -178 -368 -178q-152 0 -240 91t-88 246v768z" />
    <glyph glyph-name="Uhungarumlaut" unicode="&#x170;" horiz-adv-x="1290" 
d="M616 1946h86l-127 -226h-86zM842 1946h86l-127 -226h-86zM645 -20q-246 0 -369 114t-122 398v1105h82v-1095q0 -252 99 -348t310 -96t310 96t100 348v1095h82v-1105q0 -284 -123 -398t-369 -114z" />
    <glyph glyph-name="uhungarumlaut" unicode="&#x171;" horiz-adv-x="1044" 
d="M770 1597h86l-184 -327h-86zM545 1597h86l-185 -327h-86zM133 1085h82v-757q0 -139 72 -205t194 -66q219 0 338 189v839h82v-778l10 -307h-61l-21 158q-113 -178 -368 -178q-152 0 -240 91t-88 246v768z" />
    <glyph glyph-name="Uogonek" unicode="&#x172;" horiz-adv-x="1290" 
d="M791 -430q-213 0 -213 190q0 131 108 222q-12 -2 -41 -2q-246 0 -369 114t-122 398v1105h82v-1095q0 -252 99 -348t310 -96t310 96t100 348v1095h82v-1105q0 -223 -75 -337t-224 -155q-76 -20 -134 -85t-59 -139q0 -141 152 -138q72 0 125 28l24 -57q-63 -39 -155 -39z
" />
    <glyph glyph-name="uogonek" unicode="&#x173;" horiz-adv-x="1044" 
d="M864 -430q-211 0 -213 190q0 176 195 275l-17 123q-113 -178 -368 -178q-152 0 -240 91t-88 246v768h82v-757q0 -139 72 -205t194 -66q219 0 338 189v839h82v-778l10 -307q-192 -88 -192 -240q0 -57 41 -90q42 -32 112 -32t123 28l25 -57q-63 -39 -156 -39z" />
    <glyph glyph-name="Wcircumflex" unicode="&#x174;" horiz-adv-x="1802" 
d="M758 1720h-92l204 226h62l205 -226h-93l-143 158zM1270 -20l-369 1536l-369 -1536h-122l-310 1617h88l283 -1531l369 1531h123l368 -1531l283 1531h88l-309 -1617h-123z" />
    <glyph glyph-name="wcircumflex" unicode="&#x175;" horiz-adv-x="1433" 
d="M512 1270h-92l266 327h62l266 -327h-92l-205 254zM717 985l-281 -985h-114l-250 1085h84l225 -1003l285 1003h102l285 -1003l225 1003h84l-250 -1085h-115z" />
    <glyph glyph-name="Ycircumflex" unicode="&#x176;" horiz-adv-x="1146" 
d="M430 1720h-92l205 226h61l205 -226h-92l-144 158zM614 0h-82v481l-481 1116h88l434 -1013l435 1013h88l-482 -1116v-481z" />
    <glyph glyph-name="ycircumflex" unicode="&#x177;" horiz-adv-x="946" 
d="M287 1270h-92l266 327h61l266 -327h-92l-204 254zM492 133l346 952h86l-392 -1048l-159 -447h-90l168 447l-392 1048h86z" />
    <glyph glyph-name="Ydieresis" unicode="&#x178;" horiz-adv-x="1146" 
d="M481 1894v-122h-123v122h123zM788 1894v-122h-122v122h122zM614 0h-82v481l-481 1116h88l434 -1013l435 1013h88l-482 -1116v-481z" />
    <glyph glyph-name="Zacute" unicode="&#x179;" horiz-adv-x="1126" 
d="M102 1520v77h922v-57l-840 -1466l246 4h614v-78h-962v57l840 1467l-246 -4h-574zM641 1946h86l-127 -226h-86z" />
    <glyph glyph-name="zacute" unicode="&#x17a;" horiz-adv-x="913" 
d="M98 1008v77h717v-57l-637 -952l248 2h410v-78h-758v57l637 953l-248 -2h-369zM594 1597h86l-184 -327h-86z" />
    <glyph glyph-name="Zdotaccent" unicode="&#x17b;" horiz-adv-x="1126" 
d="M102 1520v77h922v-57l-840 -1466l246 4h614v-78h-962v57l840 1467l-246 -4h-574zM618 1894v-122h-122v122h122z" />
    <glyph glyph-name="zdotaccent" unicode="&#x17c;" horiz-adv-x="913" 
d="M98 1008v77h717v-57l-637 -952l248 2h410v-78h-758v57l637 953l-248 -2h-369zM514 1505v-123h-123v123h123z" />
    <glyph glyph-name="Zcaron" unicode="&#x17d;" horiz-adv-x="1126" 
d="M102 1520v77h922v-57l-840 -1466l246 4h614v-78h-962v57l840 1467l-246 -4h-574zM322 1946h92l143 -158l143 158h93l-205 -226h-62z" />
    <glyph glyph-name="zcaron" unicode="&#x17e;" horiz-adv-x="913" 
d="M98 1008v77h717v-57l-637 -952l248 2h410v-78h-758v57l637 953l-248 -2h-369zM156 1597h92l205 -254l204 254h93l-267 -327h-61z" />
    <glyph glyph-name="Scommaaccent" unicode="&#x218;" horiz-adv-x="1208" 
d="M666 -123v-98q0 -97 -50 -153t-135 -56v61q51 0 85 31t38 92h-61v123h123zM123 1208q0 188 133 299t348 111q481 0 481 -502v-51h-81q0 251 -94 363t-300 112h-12q-168 0 -279 -85t-110 -226v-21q0 -147 95 -231t335 -117q467 -64 467 -422v-20q0 -203 -137 -321
q-137 -117 -371 -117t-365 137t-131 375v20h82q0 -223 114 -339t300 -116h12q184 1 297 93t113 258v20q0 160 -104 244t-338 117q-234 32 -345 140t-110 259v20z" />
    <glyph glyph-name="scommaaccent" unicode="&#x219;" horiz-adv-x="1064" 
d="M594 -123v-98q0 -97 -50 -153t-134 -56v61q51 0 85 31t37 92h-61v123h123zM215 328q-1 -119 71 -195t234 -76q162 -1 244 61t82 178t-76 161t-272 62t-275 89q-78 72 -78 195v10q-1 129 101 211t286 82q389 0 390 -361v-8h-82q0 143 -69 217t-225 74t-236 -57
q-79 -57 -79 -161t69 -156q70 -52 268 -67t281 -84t83 -212v-8q0 -133 -106 -218t-294 -85q-300 0 -378 222q-20 56 -21 117v9h82z" />
    <glyph glyph-name="Ymacron" unicode="&#x232;" horiz-adv-x="1146" 
d="M369 1792v82h409v-82h-409zM614 0h-82v481l-481 1116h88l434 -1013l435 1013h88l-482 -1116v-481z" />
    <glyph glyph-name="ymacron" unicode="&#x233;" horiz-adv-x="946" 
d="M276 1393v82h431v-82h-431zM492 133l346 952h86l-392 -1048l-159 -447h-90l168 447l-392 1048h86z" />
    <glyph glyph-name="dotlessj" unicode="&#x237;" horiz-adv-x="409" 
d="M164 -123v1208h82v-1218q0 -153 -78 -225t-192 -72t-160 20v76q42 -18 142 -18t153 48t53 181z" />
    <glyph glyph-name="circumflex" unicode="&#x2c6;" horiz-adv-x="1024" 
d="M307 1270h-92l266 327h62l266 -327h-92l-205 254z" />
    <glyph glyph-name="caron" unicode="&#x2c7;" horiz-adv-x="1024" 
d="M215 1597h92l205 -254l205 254h92l-266 -327h-62z" />
    <glyph glyph-name="breve" unicode="&#x2d8;" horiz-adv-x="1024" 
d="M512 1249q-156 0 -234 94t-77 254h73q0 -281 238 -280q238 0 238 280h73q1 -160 -77 -254t-234 -94z" />
    <glyph glyph-name="dotaccent" unicode="&#x2d9;" horiz-adv-x="1024" 
d="M573 1505v-123h-122v123h122z" />
    <glyph glyph-name="ring" unicode="&#x2da;" horiz-adv-x="1024" 
d="M393 1434q0 -49 35 -84t84 -35t84 35t35 84t-35 84q-35 34 -84 34t-84 -34t-35 -84zM328 1434q0 78 53 131t131 53t131 -53t53 -131t-53 -131t-131 -53t-131 52q-53 54 -53 132z" />
    <glyph glyph-name="ogonek" unicode="&#x2db;" horiz-adv-x="1232" 
d="M526 -430q-211 0 -213 190q0 190 234 295l26 -55q-192 -88 -192 -240q0 -57 41 -90q42 -32 112 -32t123 28l25 -57q-63 -39 -156 -39z" />
    <glyph glyph-name="tilde" unicode="&#x2dc;" horiz-adv-x="1024" 
d="M727 1509h72q0 -172 -144 -172q-63 -1 -153 61t-129 62q-76 0 -76 -102h-72q0 172 144 172q63 0 153 -62t129 -61q76 0 76 102z" />
    <glyph glyph-name="hungarumlaut" unicode="&#x2dd;" horiz-adv-x="1024" 
d="M541 1597h86l-185 -327h-86zM766 1597h86l-184 -327h-86z" />
    <glyph glyph-name="Bdotaccent" unicode="&#x1e02;" horiz-adv-x="1167" 
d="M604 1894v-122h-123v122h123zM537 1520h-291v-660h291q170 0 275 77t106 237v32q0 160 -106 237t-275 77zM578 782h-332v-704h332q168 0 274 85t106 251v32q0 166 -106 251t-274 85zM164 1597h362q213 0 345 -99t133 -288v-41q0 -268 -267 -344q143 -33 225 -127t82 -247
v-41q0 -198 -132 -304t-345 -106h-403v1597z" />
    <glyph glyph-name="bdotaccent" unicode="&#x1e03;" horiz-adv-x="1075" 
d="M246 1894v-122h-123v122h123zM877 522v41q0 217 -87 341q-86 124 -266 124t-299 -188v-594q119 -188 298 -188t267 123q87 124 87 341zM225 1638v-688q101 156 315 156t318 -152t105 -391v-41q-1 -240 -105 -392t-322 -150q-218 0 -323 174l-18 -154h-62l10 307v1331h82z
" />
    <glyph glyph-name="Ddotaccent" unicode="&#x1e0a;" horiz-adv-x="1290" 
d="M645 1894v-122h-123v122h123zM246 78h307q252 0 387 160t135 520v82q0 360 -135 520t-387 160h-307v-1442zM1161 758q0 -758 -598 -758h-399v1597h399q598 0 598 -757v-82z" />
    <glyph glyph-name="ddotaccent" unicode="&#x1e0b;" horiz-adv-x="1075" 
d="M952 1894v-122h-123v122h123zM553 1028q-180 0 -267 -124t-87 -341v-41q0 -217 87 -341t267 -124t297 189v594q-117 188 -297 188zM532 1106q211 0 318 -156v688h82v-1331l10 -307h-61l-21 154q-100 -174 -320 -174t-323 152q-104 152 -104 390v41q0 239 104 391t315 152
z" />
    <glyph glyph-name="Fdotaccent" unicode="&#x1e1e;" horiz-adv-x="1024" 
d="M676 1894v-122h-123v122h123zM164 1597h819v-77h-737v-666h635v-78h-635v-776h-82v1597z" />
    <glyph glyph-name="fdotaccent" unicode="&#x1e1f;" horiz-adv-x="757" 
d="M553 1894v-122h-123v122h123zM328 1352v-267h327v-77h-327v-1008h-82v1008h-174v77h174v277q0 154 78 226t191 71q113 0 161 -21v-75q-42 18 -142 18t-153 -48t-53 -181z" />
    <glyph glyph-name="Mdotaccent" unicode="&#x1e40;" horiz-adv-x="1597" 
d="M860 1894v-122h-123v122h123zM246 0h-82v1597h106l529 -1458l528 1458h107v-1597h-82v1085l6 369l-529 -1454h-61l-528 1454l6 -369v-1085z" />
    <glyph glyph-name="mdotaccent" unicode="&#x1e41;" horiz-adv-x="1607" 
d="M870 1505v-123h-122v123h122zM1475 0h-82v788q1 136 -61 188t-175 52q-190 0 -307 -188v-840h-82v788q0 136 -61 188t-177 52t-184 -53q-70 -53 -121 -135v-840h-82v778l-10 307h62l18 -153q109 174 336 174t282 -182q106 182 347 182q141 0 219 -78t78 -229v-799z" />
    <glyph glyph-name="Pdotaccent" unicode="&#x1e56;" horiz-adv-x="1146" 
d="M645 1894v-122h-123v122h123zM246 754h332q274 0 355 211q26 68 25 155v33q0 241 -180 326q-82 39 -200 41h-332v-766zM246 676v-676h-82v1597h414q237 0 365 -134q103 -107 101 -306v-41q0 -280 -209 -385q-110 -55 -257 -55h-332z" />
    <glyph glyph-name="pdotaccent" unicode="&#x1e57;" horiz-adv-x="1075" 
d="M604 1505v-123h-123v123h123zM877 522v41q0 217 -87 341q-86 124 -266 124t-299 -188v-594q119 -188 298 -188t267 123q87 124 87 341zM963 522q-1 -240 -105 -391t-318 -151t-315 153v-543h-82v1188l-10 307h62l18 -153q105 174 323 174t322 -152t105 -391v-41z" />
    <glyph glyph-name="Tdotaccent" unicode="&#x1e6a;" horiz-adv-x="1024" 
d="M573 1894v-122h-122v122h122zM553 1520v-1520h-82v1520h-420v77h922v-77h-420z" />
    <glyph glyph-name="tdotaccent" unicode="&#x1e6b;" horiz-adv-x="798" 
d="M348 1649v-123h-123v123h123zM328 1085h368v-77h-368v-721q0 -133 53 -181t153 -49q100 0 142 19v-76q-47 -20 -161 -20q-113 0 -191 72t-78 224v732h-174v77h174v308h82v-308z" />
    <glyph glyph-name="Wgrave" unicode="&#x1e80;" horiz-adv-x="1802" 
d="M731 1946h86l127 -226h-86zM1270 -20l-369 1536l-369 -1536h-122l-310 1617h88l283 -1531l369 1531h123l368 -1531l283 1531h88l-309 -1617h-123z" />
    <glyph glyph-name="wgrave" unicode="&#x1e81;" horiz-adv-x="1433" 
d="M489 1597h86l185 -327h-86zM717 985l-281 -985h-114l-250 1085h84l225 -1003l285 1003h102l285 -1003l225 1003h84l-250 -1085h-115z" />
    <glyph glyph-name="Wacute" unicode="&#x1e82;" horiz-adv-x="1802" 
d="M985 1946h86l-127 -226h-86zM1270 -20l-369 1536l-369 -1536h-122l-310 1617h88l283 -1531l369 1531h123l368 -1531l283 1531h88l-309 -1617h-123z" />
    <glyph glyph-name="wacute" unicode="&#x1e83;" horiz-adv-x="1433" 
d="M858 1597h86l-184 -327h-86zM717 985l-281 -985h-114l-250 1085h84l225 -1003l285 1003h102l285 -1003l225 1003h84l-250 -1085h-115z" />
    <glyph glyph-name="Wdieresis" unicode="&#x1e84;" horiz-adv-x="1802" 
d="M809 1894v-122h-123v122h123zM1116 1894v-122h-123v122h123zM1270 -20l-369 1536l-369 -1536h-122l-310 1617h88l283 -1531l369 1531h123l368 -1531l283 1531h88l-309 -1617h-123z" />
    <glyph glyph-name="wdieresis" unicode="&#x1e85;" horiz-adv-x="1433" 
d="M625 1505v-123h-123v123h123zM932 1505v-123h-123v123h123zM717 985l-281 -985h-114l-250 1085h84l225 -1003l285 1003h102l285 -1003l225 1003h84l-250 -1085h-115z" />
    <glyph glyph-name="Eszett" unicode="&#x1e9e;" horiz-adv-x="1515" 
d="M707 1540q-221 0 -347 -99t-124 -345v-1096h-82v1106q0 512 553 512q221 0 354 -82v-59l-334 -582l227 -29q240 -30 360 -142t120 -286v-20q0 -205 -125 -322q-125 -116 -344 -116t-336 131t-117 381v20h82q0 -236 99 -346t274 -109h12q168 1 268 93t101 258v20
q0 309 -433 365l-286 36v60l344 602q-104 49 -266 49z" />
    <glyph glyph-name="Ygrave" unicode="&#x1ef2;" horiz-adv-x="1146" 
d="M403 1946h86l127 -226h-86zM614 0h-82v481l-481 1116h88l434 -1013l435 1013h88l-482 -1116v-481z" />
    <glyph glyph-name="ygrave" unicode="&#x1ef3;" horiz-adv-x="946" 
d="M264 1597h86l185 -327h-86zM492 133l346 952h86l-392 -1048l-159 -447h-90l168 447l-392 1048h86z" />
    <glyph glyph-name="enspace" unicode="&#x2002;" horiz-adv-x="1024" 
 />
    <glyph glyph-name="emspace" unicode="&#x2003;" horiz-adv-x="2048" 
 />
    <glyph glyph-name="threeperemspace" unicode="&#x2004;" horiz-adv-x="681" 
 />
    <glyph glyph-name="fourperemspace" unicode="&#x2005;" horiz-adv-x="512" 
 />
    <glyph glyph-name="sixperemspace" unicode="&#x2006;" horiz-adv-x="342" 
 />
    <glyph glyph-name="figurespace" unicode="&#x2007;" horiz-adv-x="1228" 
 />
    <glyph glyph-name="punctuationspace" unicode="&#x2008;" horiz-adv-x="368" 
 />
    <glyph glyph-name="thinspace" unicode="&#x2009;" horiz-adv-x="307" 
 />
    <glyph glyph-name="hairspace" unicode="&#x200a;" horiz-adv-x="102" 
 />
    <glyph glyph-name="zerowidthspace" unicode="&#x200b;" horiz-adv-x="0" 
 />
    <glyph glyph-name="figuredash" unicode="&#x2012;" horiz-adv-x="1228" 
d="M82 678v78h1065v-78h-1065z" />
    <glyph glyph-name="endash" unicode="&#x2013;" horiz-adv-x="1024" 
d="M82 678v78h860v-78h-860z" />
    <glyph glyph-name="emdash" unicode="&#x2014;" horiz-adv-x="2048" 
d="M82 678v78h1884v-78h-1884z" />
    <glyph glyph-name="uni2015" unicode="&#x2015;" horiz-adv-x="2457" 
d="M82 678v78h2294v-78h-2294z" />
    <glyph glyph-name="doublebar" unicode="&#x2016;" horiz-adv-x="573" 
d="M348 -246v1966h82v-1966h-82zM143 -246v1966h82v-1966h-82z" />
    <glyph glyph-name="quoteleft" unicode="&#x2018;" horiz-adv-x="409" 
d="M82 1270v98q0 250 184 250v-62q-61 0 -91 -36t-32 -127h62v-123h-123z" />
    <glyph glyph-name="quoteright" unicode="&#x2019;" horiz-adv-x="409" 
d="M266 1597v-98q0 -250 -184 -250v62q61 0 91 36t32 128h-62v122h123z" />
    <glyph glyph-name="quotesinglbase" unicode="&#x201a;" horiz-adv-x="409" 
d="M266 123v-98q0 -250 -184 -250v61q61 0 91 36t32 128h-62v123h123z" />
    <glyph glyph-name="reversequoteleft" unicode="&#x201b;" horiz-adv-x="409" 
d="M82 1597h123v-122h-62q2 -92 32 -128t91 -36v-62q-184 0 -184 250v98z" />
    <glyph glyph-name="quotedblleft" unicode="&#x201c;" horiz-adv-x="655" 
d="M328 1270v98q0 250 184 250v-62q-61 0 -91 -36t-32 -127h62v-123h-123zM82 1270v98q0 250 184 250v-62q-61 0 -91 -36t-32 -127h62v-123h-123z" />
    <glyph glyph-name="quotedblright" unicode="&#x201d;" horiz-adv-x="655" 
d="M266 1597v-98q0 -250 -184 -250v62q61 0 91 36t32 128h-62v122h123zM512 1597v-98q0 -250 -184 -250v62q61 0 91 36t32 128h-62v122h123z" />
    <glyph glyph-name="quotedblbase" unicode="&#x201e;" horiz-adv-x="655" 
d="M266 123v-98q0 -250 -184 -250v61q61 0 91 36t32 128h-62v123h123zM512 123v-98q0 -250 -184 -250v61q61 0 91 36t32 128h-62v123h123z" />
    <glyph glyph-name="reversequotedblleft" unicode="&#x201f;" horiz-adv-x="655" 
d="M82 1597h123v-122h-62q2 -92 32 -128t91 -36v-62q-184 0 -184 250v98zM328 1597h123v-122h-62q2 -92 32 -128t91 -36v-62q-184 0 -184 250v98z" />
    <glyph glyph-name="dagger" unicode="&#x2020;" horiz-adv-x="778" 
d="M41 1229v82l287 -11v-61zM737 1311v-82l-286 10v61zM348 1638h82l-10 -307h-62zM348 952l10 256h62l10 -256l-10 -256h-62z" />
    <glyph glyph-name="daggerdbl" unicode="&#x2021;" horiz-adv-x="778" 
d="M41 799v82l287 -11v-61zM737 881v-82l-286 10v61zM41 1229v82l287 -11v-61zM737 1311v-82l-286 10v61zM348 1638h82l-10 -307h-62zM348 522l10 256h62l10 -256l-10 -256h-62zM348 1055l10 153h62l10 -153l-10 -154h-62z" />
    <glyph glyph-name="bullet" unicode="&#x2022;" horiz-adv-x="778" 
d="M635 963v-492h-492v492h492z" />
    <glyph glyph-name="ellipsis" unicode="&#x2026;" horiz-adv-x="2048" 
d="M1085 123v-123h-122v123h122zM1741 123v-123h-123v123h123zM430 123v-123h-123v123h123z" />
    <glyph glyph-name="perthousand" unicode="&#x2030;" horiz-adv-x="2621" 
d="M919 1454q-129 0 -229 23q51 -80 51 -197v-20q0 -162 -93 -250t-234 -88t-235 88q-93 88 -93 250v20q0 162 93 250t235 88q70 0 125 -21q190 -66 362 -65q90 0 205 22t158 43v-75l-631 -1522h-86l618 1491q-117 -37 -246 -37zM664 1288q0 119 -70 186t-174 66h-12
q-104 0 -175 -66q-70 -67 -69 -186v-37q0 -119 70 -185t174 -67h12q104 0 174 67t70 185v37zM1958 309q0 -119 70 -185t174 -67h12q104 0 174 67t70 185v37q0 120 -70 186t-174 66h-12q-104 0 -174 -67t-70 -185v-37zM1180 309q0 -119 70 -185t173 -67h13q104 0 174 67
t69 185v37q1 120 -69 186t-174 66h-13q-104 0 -174 -67t-69 -185v-37zM1880 338q0 162 93 250t235 88t234 -88q93 -88 93 -250v-21q0 -161 -93 -249t-234 -88t-235 88q-93 88 -93 249v21zM1102 338q0 162 93 250t235 88t234 -88q93 -88 93 -250v-21q0 -161 -93 -249
t-234 -88t-235 88q-93 88 -93 249v21z" />
    <glyph glyph-name="tripleprime" unicode="&#x2034;" horiz-adv-x="819" 
d="M362 1597h95l-23 -512h-49zM567 1597h95l-23 -512h-49zM158 1597h94l-23 -512h-49z" />
    <glyph glyph-name="guilsinglleft" unicode="&#x2039;" 
d="M512 1044v-92l-334 -256l334 -256v-92l-410 318v61z" />
    <glyph glyph-name="guilsinglright" unicode="&#x203a;" 
d="M102 952v92l410 -317v-61l-410 -318v92l334 256z" />
    <glyph glyph-name="interrobang" unicode="&#x203d;" horiz-adv-x="901" 
d="M512 123v-123h-123v123h123zM750 1178q0 170 -58 260t-196 100l-17 -920q43 108 169 269q40 51 71 129t31 162zM836 1188q0 -206 -124 -349q-52 -59 -104 -121q-129 -151 -133 -360h-49l-23 1178q-147 -18 -205 -148t-59 -364h-82v20q0 422 201 530q82 44 199 44
q379 0 379 -430z" />
    <glyph glyph-name="fraction" unicode="&#x2044;" horiz-adv-x="409" 
d="M-340 0h-90l1180 1597h90z" />
    <glyph glyph-name="uni2070" unicode="&#x2070;" 
d="M477 1360q0 182 -168 182h-6q-168 0 -168 -182v-324q0 -184 168 -184h6q168 0 168 184v324zM63 1368q-1 108 59 174t185 66t185 -66t59 -174v-340q0 -110 -59 -176q-58 -66 -184 -66t-185 66t-60 176v340z" />
    <glyph glyph-name="uni2074" unicode="&#x2074;" 
d="M375 1077v291l2 105l-254 -398l88 2h164zM449 799h-74v211h-342v49l344 538h72v-520h131v-67h-131v-211z" />
    <glyph glyph-name="uni2075" unicode="&#x2075;" 
d="M51 1055h74q0 -203 176 -203h10q76 0 127 47t51 137v19q0 92 -52 138t-128 46h-8q-57 0 -108 -29t-74 -80l-62 19l21 448h473v-67h-404l-12 -285q69 59 177 59t178 -66q70 -67 71 -185v-13q0 -122 -71 -188q-70 -66 -190 -66t-184 68t-65 188v13z" />
    <glyph glyph-name="uni2076" unicode="&#x2076;" 
d="M313 1235q-127 0 -184 -113v-57q0 -97 51 -155t127 -58h6q82 0 131 49t50 135v17q0 86 -48 134t-127 48h-6zM528 1608v-66q-195 0 -301 -141q-59 -78 -82 -174q74 73 182 73q107 0 173 -64t65 -187v-11q-1 -124 -69 -188t-183 -64t-187 75t-71 206v12q1 213 117 371
t356 158z" />
    <glyph glyph-name="uni2077" unicode="&#x2077;" 
d="M59 1311v286h504v-45l-307 -753h-78l299 733l-112 -2h-240v-219h-66z" />
    <glyph glyph-name="uni2078" unicode="&#x2078;" 
d="M311 1542h-10q-78 0 -125 -41t-47 -110v-9q0 -70 47 -106t121 -37h20q74 0 120 37t46 106v9q0 71 -47 111t-125 40zM293 1174q-74 0 -121 -41t-47 -115v-14q0 -74 51 -113t125 -39h10q76 0 127 39t51 113v14q0 74 -47 115t-120 41h-29zM307 786q-113 0 -185 60t-71 155
v17q0 141 129 186q-123 45 -123 180v15q0 96 66 152q67 57 185 57t184 -56t65 -153v-15q0 -135 -125 -180q129 -45 129 -186v-17q-1 -95 -71 -155t-183 -60z" />
    <glyph glyph-name="uni2079" unicode="&#x2079;" 
d="M301 1161q123 0 182 111q2 16 2 49v10q0 95 -51 153t-129 58h-6q-82 0 -130 -48t-48 -134v-19q0 -86 47 -133t127 -47h6zM84 786v66q193 0 303 141q55 72 80 176q-70 -73 -178 -73t-175 64t-67 186v10q0 124 69 188q68 64 184 64t186 -74t71 -207v-10q1 -217 -117 -374
t-356 -157z" />
    <glyph glyph-name="uni207A" unicode="&#x207a;" 
d="M272 1456h68v-225h225v-68h-225v-223h-68v223h-223v68h223v225z" />
    <glyph glyph-name="uni207B" unicode="&#x207b;" 
d="M49 1163v68h516v-68h-516z" />
    <glyph glyph-name="uni207C" unicode="&#x207c;" 
d="M49 1059v67h516v-67h-516zM49 1268v67h516v-67h-516z" />
    <glyph glyph-name="uni207D" unicode="&#x207d;" horiz-adv-x="323" 
d="M61 1188v20q0 215 125 389h76q-129 -193 -129 -389v-20q0 -201 129 -389h-76q-125 172 -125 389z" />
    <glyph glyph-name="uni207E" unicode="&#x207e;" horiz-adv-x="323" 
d="M262 1208v-20q0 -217 -125 -389h-76q129 188 129 389v20q0 197 -129 389h76q125 -174 125 -389z" />
    <glyph glyph-name="uni2080" unicode="&#x2080;" 
d="M477 561q0 182 -168 182h-6q-168 0 -168 -182v-323q0 -184 168 -185h6q168 0 168 185v323zM63 569q-1 109 59 175t185 65q125 0 185 -66t59 -174v-340q0 -111 -59 -177q-58 -66 -184 -64q-126 0 -185 66t-60 175v340z" />
    <glyph glyph-name="uni2081" unicode="&#x2081;" 
d="M561 0h-489v66h209v636l-189 -127l-37 58l252 170h47v-737h207v-66z" />
    <glyph glyph-name="uni2082" unicode="&#x2082;" 
d="M557 66v-66h-500v45l344 367q82 84 82 163v11q0 74 -47 116t-127 41h-6q-174 0 -174 -211h-72v25q0 252 250 252q119 0 185 -58t65 -155v-12q0 -60 -20 -104t-74 -101l-295 -313h389z" />
    <glyph glyph-name="uni2083" unicode="&#x2083;" 
d="M125 256q0 -203 176 -203h10q74 0 126 40t52 114v14q0 74 -47 114t-120 40h-117v65h112q74 0 120 36t46 106v8q0 70 -47 112t-125 41h-10q-88 0 -130 -50t-42 -161h-72v25q0 252 250 252q119 0 185 -57t65 -154v-14q0 -133 -125 -178q129 -45 129 -185v-16
q0 -97 -71 -157q-70 -60 -190 -60t-184 68t-65 188v12h74z" />
    <glyph glyph-name="uni2084" unicode="&#x2084;" 
d="M375 279v290l2 105l-254 -398l88 3h164zM449 0h-74v211h-342v49l344 539h72v-520h131v-68h-131v-211z" />
    <glyph glyph-name="uni2085" unicode="&#x2085;" 
d="M51 256h74q0 -203 176 -203h10q76 0 127 47t51 138v18q0 92 -52 138t-128 46h-8q-57 0 -108 -28t-74 -80l-62 18l21 449h473v-68h-404l-12 -285q69 60 177 60t178 -67t71 -185v-12q0 -121 -71 -188q-70 -66 -190 -66t-184 68t-65 188v12z" />
    <glyph glyph-name="uni2086" unicode="&#x2086;" 
d="M313 436q-127 0 -184 -112v-58q0 -96 51 -154t127 -59h6q82 0 131 49t50 136v16q0 86 -48 134t-127 48h-6zM528 809v-66q-195 0 -301 -141q-59 -78 -82 -174q74 74 182 74q107 0 173 -65t65 -187v-10q-1 -123 -69 -188q-68 -64 -183 -64t-187 74t-71 206v13
q0 213 113 364q120 164 360 164z" />
    <glyph glyph-name="uni2087" unicode="&#x2087;" 
d="M59 512v287h504v-45l-307 -754h-78l299 733l-112 -2h-240v-219h-66z" />
    <glyph glyph-name="uni2088" unicode="&#x2088;" 
d="M311 743h-10q-78 0 -125 -41t-47 -110v-8q0 -70 47 -107t121 -37h20q74 0 120 37t46 107v8q0 70 -47 110t-125 41zM293 375q-74 0 -121 -41t-47 -115v-14q0 -74 51 -113t125 -39h10q76 0 127 39t51 113v14q0 74 -47 115t-120 41h-29zM307 -12q-113 0 -185 59t-71 156v16
q0 141 129 187q-123 45 -123 180v14q0 96 66 152q67 56 185 57q118 0 184 -56t65 -153v-14q0 -135 -125 -180q129 -45 129 -187v-16q-1 -95 -71 -155t-183 -60z" />
    <glyph glyph-name="uni2089" unicode="&#x2089;" 
d="M301 362q123 0 182 111q2 16 2 49v10q0 96 -51 154t-129 57h-6q-82 0 -130 -48t-48 -134v-18q0 -86 47 -133t127 -48h6zM84 -12v65q193 0 303 142q55 72 80 176q-70 -74 -178 -74q-108 1 -175 65t-67 185v10q0 123 69 187q68 64 184 65q116 0 186 -74t71 -207v-10
q0 -217 -113 -366q-122 -164 -360 -164z" />
    <glyph glyph-name="uni208A" unicode="&#x208a;" 
d="M272 657h68v-225h225v-67h-225v-224h-68v224h-223v67h223v225z" />
    <glyph glyph-name="uni208B" unicode="&#x208b;" 
d="M49 365v67h516v-67h-516z" />
    <glyph glyph-name="uni208C" unicode="&#x208c;" 
d="M49 260v68h516v-68h-516zM49 469v68h516v-68h-516z" />
    <glyph glyph-name="uni208D" unicode="&#x208d;" horiz-adv-x="323" 
d="M61 389v21q0 215 125 389h76q-129 -193 -129 -389v-21q0 -201 129 -389h-76q-125 172 -125 389z" />
    <glyph glyph-name="uni208E" unicode="&#x208e;" horiz-adv-x="323" 
d="M262 410v-21q0 -217 -125 -389h-76q129 188 129 389v21q0 197 -129 389h76q125 -174 125 -389z" />
    <glyph glyph-name="Euro" unicode="&#x20ac;" horiz-adv-x="1228" 
d="M72 901v82h157q21 331 139 483t340 152t320 -136t98 -407v-51h-82q0 276 -75 396q-76 120 -252 120h-12q-354 0 -392 -557h588l-39 -82h-553v-205h490l-39 -82h-447q37 -557 392 -557h12q162 0 245 116t82 339h82v-20q0 -512 -419 -512q-221 0 -339 152t-139 482h-157v82
h153v205h-153z" />
    <glyph glyph-name="ruble" unicode="&#x20bd;" horiz-adv-x="1228" 
d="M328 754h331q275 0 356 211q26 68 25 155v33q0 241 -180 326q-82 39 -201 41h-331v-766zM328 676v-209h440v-78h-440v-389h-82v389h-195v78h195v209h-195v78h195v843h413q235 0 366 -134q103 -107 101 -306v-41q0 -282 -210 -385q-110 -55 -257 -55h-331z" />
    <glyph glyph-name="numero" unicode="&#x2116;" horiz-adv-x="2170" 
d="M1434 457v71h634v-71h-634zM1499 1182q1 -156 63 -244t189 -88t189 88t63 244v32q-1 156 -63 244t-189 88t-189 -88t-63 -244v-32zM1167 1597v-1597h-92l-839 1475l6 -390v-1085h-78v1597h92l840 -1474l-6 389v1085h77zM2083 1182q0 -178 -83 -291t-249 -113t-249 113
t-83 291v32q0 178 83 291t249 113t249 -113t83 -291v-32z" />
    <glyph glyph-name="published" unicode="&#x2117;" horiz-adv-x="1884" 
d="M719 801h246q209 0 209 194v17q0 195 -209 194h-246v-405zM719 727v-410h-82v963h328q123 0 207 -59t83 -205v-25q0 -145 -84 -205t-206 -59h-246zM201 799q0 -307 217 -525t524 -217q307 0 524 217q217 216 217 524t-217 525t-524 217t-524 -217t-217 -524zM123 799
q-1 339 239 579t580 240t580 -240t240 -580t-240 -579t-580 -239t-580 239q-239 240 -239 580z" />
    <glyph glyph-name="servicemark" unicode="&#x2120;" horiz-adv-x="1044" 
d="M543 1085h-70v553h107l122 -446l123 446h107v-553h-70v308l4 143l-123 -451h-81l-123 451l4 -143v-308zM47 1485v8q0 72 46 113t134 41t126 -44t38 -139v-16h-69q0 72 -22 102t-77 31h-4q-102 0 -102 -82v-6q1 -43 25 -65t102 -32q154 -19 153 -151v-8q0 -78 -45 -123
t-131 -45q-180 0 -180 193v8h70q0 -135 108 -135h4q104 0 105 96v4q0 45 -28 69t-104 35q-149 19 -149 146z" />
    <glyph glyph-name="trademark" unicode="&#x2122;" horiz-adv-x="1044" 
d="M543 1085h-70v553h107l122 -446l123 446h107v-553h-70v308l4 143l-123 -451h-81l-123 451l4 -143v-308zM256 1573v-488h-70v488h-145v65h360v-65h-145z" />
    <glyph glyph-name="uni2153" unicode="&#x2153;" horiz-adv-x="1638" 
d="M561 799h-489v65h209v637l-189 -127l-37 58l252 170h47v-738h207v-65zM1149 256q0 -203 176 -203h10q74 0 126 40t52 114v14q0 74 -47 114t-120 40h-117v65h112q74 0 120 36t46 106v8q0 70 -47 112t-125 41h-10q-88 0 -130 -50t-42 -161h-72v25q0 252 250 252
q119 0 185 -57t65 -154v-14q0 -133 -125 -178q129 -45 129 -185v-16q0 -97 -71 -157q-70 -60 -190 -60t-184 68t-65 188v12h74zM274 0h-90l1180 1597h90z" />
    <glyph glyph-name="uni2154" unicode="&#x2154;" horiz-adv-x="1638" 
d="M557 864v-65h-500v45l344 366q82 84 82 164v10q0 74 -47 116t-127 42h-6q-174 0 -174 -211h-72v25q0 252 250 252q119 0 185 -58t65 -155v-13q0 -61 -20 -104t-74 -100l-295 -314h389zM1149 256q0 -203 176 -203h10q74 0 126 40t52 114v14q0 74 -47 114t-120 40h-117v65
h112q74 0 120 36t46 106v8q0 70 -47 112t-125 41h-10q-88 0 -130 -50t-42 -161h-72v25q0 252 250 252q119 0 185 -57t65 -154v-14q0 -133 -125 -178q129 -45 129 -185v-16q0 -97 -71 -157q-70 -60 -190 -60t-184 68t-65 188v12h74zM274 0h-90l1180 1597h90z" />
    <glyph glyph-name="uni2155" unicode="&#x2155;" horiz-adv-x="1638" 
d="M561 799h-489v65h209v637l-189 -127l-37 58l252 170h47v-738h207v-65zM274 0h-90l1180 1597h90zM1075 256h74q0 -203 176 -203h10q76 0 127 47t51 138v18q0 92 -52 138t-128 46h-8q-57 0 -108 -28t-74 -80l-62 18l21 449h473v-68h-404l-12 -285q69 60 177 60t178 -67
t71 -185v-12q0 -121 -71 -188q-70 -66 -190 -66t-184 68t-65 188v12z" />
    <glyph glyph-name="uni2156" unicode="&#x2156;" horiz-adv-x="1638" 
d="M557 864v-65h-500v45l344 366q82 84 82 164v10q0 74 -47 116t-127 42h-6q-174 0 -174 -211h-72v25q0 252 250 252q119 0 185 -58t65 -155v-13q0 -61 -20 -104t-74 -100l-295 -314h389zM274 0h-90l1180 1597h90zM1075 256h74q0 -203 176 -203h10q76 0 127 47t51 138v18
q0 92 -52 138t-128 46h-8q-57 0 -108 -28t-74 -80l-62 18l21 449h473v-68h-404l-12 -285q69 60 177 60t178 -67t71 -185v-12q0 -121 -71 -188q-70 -66 -190 -66t-184 68t-65 188v12z" />
    <glyph glyph-name="uni2157" unicode="&#x2157;" horiz-adv-x="1638" 
d="M125 1055q0 -203 176 -203h10q74 0 126 40t52 114v14q0 74 -47 114t-120 40h-117v65h112q74 0 120 36t46 105v9q0 69 -47 111t-125 42h-10q-88 0 -130 -50t-42 -161h-72v25q0 252 250 252q119 0 185 -58t65 -153v-15q0 -133 -125 -178q129 -45 129 -184v-16
q0 -96 -71 -156q-70 -60 -190 -62q-120 0 -184 68t-65 188v13h74zM274 0h-90l1180 1597h90zM1075 256h74q0 -203 176 -203h10q76 0 127 47t51 138v18q0 92 -52 138t-128 46h-8q-57 0 -108 -28t-74 -80l-62 18l21 449h473v-68h-404l-12 -285q69 60 177 60t178 -67t71 -185
v-12q0 -121 -71 -188q-70 -66 -190 -66t-184 68t-65 188v12z" />
    <glyph glyph-name="uni2158" unicode="&#x2158;" horiz-adv-x="1638" 
d="M375 1077v291l2 105l-254 -398l88 2h164zM274 0h-90l1180 1597h90zM1075 256h74q0 -203 176 -203h10q76 0 127 47t51 138v18q0 92 -52 138t-128 46h-8q-57 0 -108 -28t-74 -80l-62 18l21 449h473v-68h-404l-12 -285q69 60 177 60t178 -67t71 -185v-12q0 -121 -71 -188
q-70 -66 -190 -66t-184 68t-65 188v12zM449 799h-74v211h-342v49l344 538h72v-520h131v-67h-131v-211z" />
    <glyph glyph-name="uni2159" unicode="&#x2159;" horiz-adv-x="1638" 
d="M561 799h-489v65h209v637l-189 -127l-37 58l252 170h47v-738h207v-65zM1337 436q-127 0 -184 -112v-58q0 -96 51 -154t127 -59h6q82 0 131 49t50 136v16q0 86 -48 134t-127 48h-6zM274 0h-90l1180 1597h90zM1552 809v-66q-195 0 -301 -141q-59 -78 -82 -174q74 74 182 74
q107 0 173 -65t65 -187v-10q-1 -123 -69 -188q-68 -64 -183 -64t-187 74t-71 206v13q0 213 113 364q120 164 360 164z" />
    <glyph glyph-name="uni215A" unicode="&#x215a;" horiz-adv-x="1638" 
d="M1337 436q-127 0 -184 -112v-58q0 -96 51 -154t127 -59h6q82 0 131 49t50 136v16q0 86 -48 134t-127 48h-6zM274 0h-90l1180 1597h90zM51 1055h74q0 -203 176 -203h10q76 0 127 47t51 137v19q0 92 -52 138t-128 46h-8q-57 0 -108 -29t-74 -80l-62 19l21 448h473v-67h-404
l-12 -285q69 59 177 59t178 -66q70 -67 71 -185v-13q0 -122 -71 -188q-70 -66 -190 -66t-184 68t-65 188v13zM1552 809v-66q-195 0 -301 -141q-59 -78 -82 -174q74 74 182 74q107 0 173 -65t65 -187v-10q-1 -123 -69 -188q-68 -64 -183 -64t-187 74t-71 206v13
q0 213 113 364q120 164 360 164z" />
    <glyph glyph-name="uni215B" unicode="&#x215b;" horiz-adv-x="1638" 
d="M1335 743h-10q-78 0 -125 -41t-47 -110v-8q0 -70 47 -107t121 -37h20q74 0 120 37t46 107v8q0 70 -47 110t-125 41zM1317 375q-74 0 -121 -41t-47 -115v-14q0 -74 51 -113t125 -39h10q76 0 127 39t51 113v14q0 74 -47 115t-120 41h-29zM561 799h-489v65h209v637
l-189 -127l-37 58l252 170h47v-738h207v-65zM274 0h-90l1180 1597h90zM1331 -12q-113 0 -185 59t-71 156v16q0 141 129 187q-123 45 -123 180v14q0 96 66 152q67 56 185 57q118 0 184 -56t65 -153v-14q0 -135 -125 -180q129 -45 129 -187v-16q-1 -95 -71 -155t-183 -60z" />
    <glyph glyph-name="uni215C" unicode="&#x215c;" horiz-adv-x="1638" 
d="M1335 743h-10q-78 0 -125 -41t-47 -110v-8q0 -70 47 -107t121 -37h20q74 0 120 37t46 107v8q0 70 -47 110t-125 41zM1317 375q-74 0 -121 -41t-47 -115v-14q0 -74 51 -113t125 -39h10q76 0 127 39t51 113v14q0 74 -47 115t-120 41h-29zM125 1055q0 -203 176 -203h10
q74 0 126 40t52 114v14q0 74 -47 114t-120 40h-117v65h112q74 0 120 36t46 105v9q0 69 -47 111t-125 42h-10q-88 0 -130 -50t-42 -161h-72v25q0 252 250 252q119 0 185 -58t65 -153v-15q0 -133 -125 -178q129 -45 129 -184v-16q0 -96 -71 -156q-70 -60 -190 -62
q-120 0 -184 68t-65 188v13h74zM274 0h-90l1180 1597h90zM1331 -12q-113 0 -185 59t-71 156v16q0 141 129 187q-123 45 -123 180v14q0 96 66 152q67 56 185 57q118 0 184 -56t65 -153v-14q0 -135 -125 -180q129 -45 129 -187v-16q-1 -95 -71 -155t-183 -60z" />
    <glyph glyph-name="uni215D" unicode="&#x215d;" horiz-adv-x="1638" 
d="M1335 743h-10q-78 0 -125 -41t-47 -110v-8q0 -70 47 -107t121 -37h20q74 0 120 37t46 107v8q0 70 -47 110t-125 41zM1317 375q-74 0 -121 -41t-47 -115v-14q0 -74 51 -113t125 -39h10q76 0 127 39t51 113v14q0 74 -47 115t-120 41h-29zM274 0h-90l1180 1597h90zM51 1055
h74q0 -203 176 -203h10q76 0 127 47t51 137v19q0 92 -52 138t-128 46h-8q-57 0 -108 -29t-74 -80l-62 19l21 448h473v-67h-404l-12 -285q69 59 177 59t178 -66q70 -67 71 -185v-13q0 -122 -71 -188q-70 -66 -190 -66t-184 68t-65 188v13zM1331 -12q-113 0 -185 59t-71 156
v16q0 141 129 187q-123 45 -123 180v14q0 96 66 152q67 56 185 57q118 0 184 -56t65 -153v-14q0 -135 -125 -180q129 -45 129 -187v-16q-1 -95 -71 -155t-183 -60z" />
    <glyph glyph-name="uni215E" unicode="&#x215e;" horiz-adv-x="1638" 
d="M1335 743h-10q-78 0 -125 -41t-47 -110v-8q0 -70 47 -107t121 -37h20q74 0 120 37t46 107v8q0 70 -47 110t-125 41zM1317 375q-74 0 -121 -41t-47 -115v-14q0 -74 51 -113t125 -39h10q76 0 127 39t51 113v14q0 74 -47 115t-120 41h-29zM59 1311v286h504v-45l-307 -753
h-78l299 733l-112 -2h-240v-219h-66zM274 0h-90l1180 1597h90zM1331 -12q-113 0 -185 59t-71 156v16q0 141 129 187q-123 45 -123 180v14q0 96 66 152q67 56 185 57q118 0 184 -56t65 -153v-14q0 -135 -125 -180q129 -45 129 -187v-16q-1 -95 -71 -155t-183 -60z" />
    <glyph glyph-name="uni215F" unicode="&#x215f;" horiz-adv-x="1024" 
d="M561 799h-489v65h209v637l-189 -127l-37 58l252 170h47v-738h207v-65zM274 0h-90l1180 1597h90z" />
    <glyph glyph-name="arrowleft" unicode="&#x2190;" horiz-adv-x="1884" 
d="M1741 840v-82h-1462l757 -758h-114l-799 799l799 798h114l-757 -757h1462z" />
    <glyph glyph-name="arrowup" unicode="&#x2191;" horiz-adv-x="1884" 
d="M983 0h-82v1462l-758 -757v114l799 799l799 -799v-114l-758 757v-1462z" />
    <glyph glyph-name="arrowright" unicode="&#x2192;" horiz-adv-x="1884" 
d="M143 758v82h1463l-758 757h115l798 -798l-798 -799h-115l758 758h-1463z" />
    <glyph glyph-name="arrowdown" unicode="&#x2193;" horiz-adv-x="1884" 
d="M901 1597h82v-1462l758 758v-115l-799 -798l-799 798v115l758 -758v1462z" />
    <glyph glyph-name="uni2196" unicode="&#x2196;" horiz-adv-x="1884" 
d="M225 0h-82v1597h1598v-81h-1458l1478 -1479l-57 -57l-1479 1478v-1458z" />
    <glyph glyph-name="uni2197" unicode="&#x2197;" horiz-adv-x="1884" 
d="M1741 0h-82v1458l-1479 -1478l-57 57l1479 1479h-1459v81h1598v-1597z" />
    <glyph glyph-name="uni2198" unicode="&#x2198;" horiz-adv-x="1884" 
d="M143 0v82h1459l-1479 1479l57 57l1479 -1479v1458h82v-1597h-1598z" />
    <glyph glyph-name="uni2199" unicode="&#x2199;" horiz-adv-x="1884" 
d="M1741 82v-82h-1598v1597h82v-1458l1479 1479l57 -57l-1478 -1479h1458z" />
    <glyph glyph-name="minus" unicode="&#x2212;" horiz-adv-x="1228" 
d="M102 758v82h1024v-82h-1024z" />
    <glyph glyph-name="approxequal" unicode="&#x2248;" horiz-adv-x="1228" 
d="M356 1106q115 0 273 -75q157 -75 261 -75t200 121l57 -57q-115 -141 -275 -141q-114 1 -272 75t-262 74t-199 -121l-57 58q114 141 274 141zM356 696q115 0 273 -74q157 -74 261 -75q104 0 200 121l57 -58q-115 -141 -275 -141q-114 0 -272 75q-158 74 -262 74t-199 -120
l-57 57q114 141 274 141z" />
    <glyph glyph-name="notequal" unicode="&#x2260;" horiz-adv-x="1228" 
d="M102 963v81h609l155 267h88l-153 -267h325v-81h-372l-191 -328h563v-82h-610l-154 -266h-88l154 266h-326v82h373l189 328h-562z" />
    <glyph glyph-name="equivalence" unicode="&#x2261;" horiz-adv-x="1228" 
d="M102 758v82h1024v-82h-1024zM102 348v82h1024v-82h-1024zM102 1167v82h1024v-82h-1024z" />
    <glyph glyph-name="lessequal" unicode="&#x2264;" horiz-adv-x="1228" 
d="M1126 340v-86l-1024 367v86zM1126 1257l-911 -321l911 -322v-86l-1024 367v82l1024 366v-86z" />
    <glyph glyph-name="greaterequal" unicode="&#x2265;" horiz-adv-x="1228" 
d="M102 254v86l1024 367v-86zM102 614l910 322l-910 321v86l1024 -366v-82l-1024 -367v86z" />
    <glyph glyph-name="squaremultiply" unicode="&#x22a0;" horiz-adv-x="1884" 
d="M465 262l-59 60l477 477l-477 477l59 59l477 -477l477 477l60 -59l-478 -477l478 -477l-60 -60l-477 477zM1663 1520h-1442v-1442h1442v1442zM1741 0h-1598v1597h1598v-1597z" />
    <glyph glyph-name="house" unicode="&#x2302;" horiz-adv-x="1740" 
d="M1597 0h-1454v922l727 696l727 -696v-922z" />
    <glyph glyph-name="blacksquare" unicode="&#x25a0;" horiz-adv-x="1884" 
d="M1741 0h-1598v1597h1598v-1597z" />
    <glyph glyph-name="blacksquare" unicode="&#xe740;" horiz-adv-x="1884" 
d="M1741 0h-1598v1597h1598v-1597z" />
    <glyph glyph-name="whitesquare" unicode="&#x25a1;" horiz-adv-x="1884" 
d="M1663 1520h-1442v-1442h1442v1442zM1741 0h-1598v1597h1598v-1597z" />
    <glyph glyph-name="blacksmallsquare" unicode="&#x25aa;" horiz-adv-x="1392" 
d="M1229 0h-1086v1085h1086v-1085z" />
    <glyph glyph-name="whitesmallsquare" unicode="&#x25ab;" horiz-adv-x="1392" 
d="M1151 1008h-930v-930h930v930zM143 1085h1086v-1085h-1086v1085z" />
    <glyph glyph-name="triagup" unicode="&#x25b2;" horiz-adv-x="1904" 
d="M993 1618l779 -1618h-86l-734 1528l-733 -1528h-86l778 1618h82z" />
    <glyph glyph-name="triagrt" unicode="&#x25ba;" horiz-adv-x="1904" 
d="M1782 840v-82l-1618 -778v86l1528 733l-1528 733v86z" />
    <glyph glyph-name="triagdn" unicode="&#x25bc;" horiz-adv-x="1904" 
d="M911 -20l-778 1617h86l733 -1527l734 1527h86l-779 -1617h-82z" />
    <glyph glyph-name="triaglf" unicode="&#x25c4;" horiz-adv-x="1904" 
d="M123 840l1618 778v-86l-1528 -733l1528 -733v-86l-1618 778v82z" />
    <glyph glyph-name="whitecircle" unicode="&#x25cb;" horiz-adv-x="1884" 
d="M201 799q0 -307 217 -525t524 -217q307 0 524 217q217 216 217 524t-217 525t-524 217t-524 -217t-217 -524zM123 799q-1 339 239 579t580 240t580 -240t240 -580t-240 -579t-580 -239t-580 239q-239 240 -239 580z" />
    <glyph glyph-name="whitecircle" unicode="&#x25ef;" horiz-adv-x="1884" 
d="M201 799q0 -307 217 -525t524 -217q307 0 524 217q217 216 217 524t-217 525t-524 217t-524 -217t-217 -524zM123 799q-1 339 239 579t580 240t580 -240t240 -580t-240 -579t-580 -239t-580 239q-239 240 -239 580z" />
    <glyph glyph-name="blackcircle" unicode="&#x25cf;" horiz-adv-x="1884" 
d="M123 799q-1 339 239 579t580 240t580 -240t240 -580t-240 -579t-580 -239t-580 239q-239 240 -239 580z" />
    <glyph glyph-name="uni25E2" unicode="&#x25e2;" horiz-adv-x="1904" 
d="M1769 29l-57 -58l-1694 592l62 62l1597 -564l-561 1600l62 61z" />
    <glyph glyph-name="uni25E3" unicode="&#x25e3;" horiz-adv-x="1904" 
d="M135 29l592 1693l61 -61l-563 -1600l1600 564l61 -62l-1693 -592z" />
    <glyph glyph-name="uni25E4" unicode="&#x25e4;" horiz-adv-x="1904" 
d="M135 1569l58 57l1693 -592l-61 -61l-1600 561l563 -1597l-61 -62z" />
    <glyph glyph-name="uni25E5" unicode="&#x25e5;" horiz-adv-x="1904" 
d="M1769 1569l-591 -1694l-62 62l561 1597l-1597 -561l-62 61l1694 592z" />
    <glyph glyph-name="uni2605" unicode="&#x2605;" horiz-adv-x="1802" 
d="M901 369l-532 -389l202 628l-532 387h659l203 627l203 -627h659l-532 -387l203 -628z" />
    <glyph glyph-name="ballotboxwithx" unicode="&#x2612;" horiz-adv-x="1392" 
d="M414 211l-60 59l273 273l-273 272l60 59l272 -272l272 272l60 -59l-273 -272l273 -273l-60 -59l-272 272zM1151 1008h-930v-930h930v930zM1229 0h-1086v1085h1086v-1085z" />
    <glyph glyph-name="uni263C" unicode="&#x263c;" horiz-adv-x="1966" 
d="M209 1059q25 94 136 94q52 0 95 -43q84 -84 195 -84l-232 352l353 -231q-53 53 -54 135l17 127q0 49 -25 80t-49 35l-24 6q29 16 73 16t84 -42q41 -42 41 -103t31 -123t47 -74l86 414l86 -414q0 80 59 135q18 16 62 46t66 63q23 33 6 88q-6 17 -19 35q45 -12 70 -48
t25 -88t-44 -96q-84 -84 -84 -194l353 231l-232 -352q53 53 135 53l127 -16q49 1 80 25t35 49l6 24q16 -29 16 -73t-41 -84q-41 -42 -103 -42t-124 -30q-62 -31 -73 -47l413 -86l-413 -86q80 0 135 -60q16 -18 46 -61t53 -61q24 -17 64 -17t68 25q-12 -45 -48 -70t-88 -25
t-95 43q-84 84 -195 84l232 -352l-353 232q53 -53 54 -136l-17 -127q0 -48 25 -78t49 -36l24 -6q-29 -16 -73 -16t-84 41q-41 41 -41 103t-31 124t-47 73l-86 -414l-86 414q0 -80 -59 -135q-18 -16 -62 -46t-66 -62q-23 -32 -6 -89q5 -16 19 -34q-45 12 -70 48t-25 88t44 95
q84 84 84 195l-353 -232l232 352q-53 -53 -135 -53l-127 17q-49 0 -79 -25t-36 -49l-6 -25q-16 29 -16 73t41 85t103 41t124 31t73 47l-413 86l413 86q-80 0 -135 59q-16 18 -46 62t-53 60q-24 17 -62 17t-70 -24z" />
    <glyph glyph-name="uni263E" unicode="&#x263e;" horiz-adv-x="1966" 
d="M1278 1491q-274 0 -469 -203q-195 -204 -195 -490t195 -489t469 -203q102 0 197 31q-219 -158 -492 -157q-340 0 -580 240t-239 579q0 339 240 579t579 240q268 0 492 -158q-107 31 -197 31z" />
    <glyph glyph-name="spade" unicode="&#x2660;" horiz-adv-x="1843" 
d="M1737 682q-1 -148 -105 -251t-250 -103t-253 94q-105 94 -162 235l-6 -2q16 -209 54 -356t113 -299h-413q76 152 113 299q38 147 55 356l-6 2q-57 -141 -163 -235t-252 -94q-147 0 -251 103q-105 103 -105 251t88 254t241 206q152 100 286 238q133 139 199 238h4
q66 -98 198 -238q133 -139 286 -238q153 -100 241 -206t88 -254z" />
    <glyph glyph-name="club" unicode="&#x2663;" horiz-adv-x="1843" 
d="M462 328q-147 0 -251 103q-105 103 -105 259t100 259t257 104q82 0 172 -47l4 4q-78 117 -78 255q-1 137 103 245t258 108t257 -108t103 -246t-78 -254l4 -4q90 47 172 47q158 1 257 -103t99 -260t-104 -259t-250 -103t-253 94q-105 94 -162 235l-6 -2q16 -209 54 -356
t113 -299h-413q76 152 113 299q38 147 55 356l-6 2q-57 -141 -163 -235t-252 -94z" />
    <glyph glyph-name="heart" unicode="&#x2665;" horiz-adv-x="1843" 
d="M106 1196q0 184 106 303t284 119q176 0 273 -87t149 -235h8q51 146 148 234q98 88 274 88t282 -119t107 -303q0 -238 -336 -616q-150 -170 -285 -341t-192 -259h-4q-57 88 -193 259q-135 171 -285 341q-336 379 -336 616z" />
    <glyph glyph-name="diamond" unicode="&#x2666;" horiz-adv-x="1843" 
d="M1673 799q-217 -170 -415 -386t-334 -433h-4q-137 217 -335 433t-415 386q217 170 415 386t335 433h4q136 -217 334 -433t415 -386z" />
    <glyph glyph-name="uni267B" unicode="&#x267b;" horiz-adv-x="1966" 
d="M1651 1079l141 -239q20 -37 20 -90q2 -98 -77 -179q-80 -80 -152 -79l-237 411zM913 84h-276q-45 0 -90 27q-88 51 -118 163t9 164h475v-354zM410 1225l137 243q20 35 69 64q94 49 198 20t140 -92l-237 -411zM827 1597h396q49 -2 73 -5q24 -4 58 -26q33 -22 57 -65
l57 -100l88 49l-124 -340l-355 64l84 49l-147 256q-27 47 -74 77t-80 33l-33 6v2zM381 250h-4l-197 344q-22 44 -30 66q-24 72 22 145l57 100l-86 49l357 64l121 -340l-84 49q-143 -247 -159 -275t-18 -83t9 -86zM1393 84h-117v-100l-232 278l232 277v-101h297q53 0 102 27
t70 53l22 27l2 -4l-196 -342q-31 -45 -44 -61t-49 -36q-36 -18 -87 -18z" />
    <glyph glyph-name="uni267C" unicode="&#x267c;" horiz-adv-x="1966" 
d="M131 799q0 335 238 573q237 238 573 238t574 -238t238 -574t-238 -573t-574 -237t-574 238t-237 573zM1393 522h-230v78l-180 -215l180 -215v78h90q57 0 85 22t55 66l153 266l-2 2q-25 -33 -67 -57q-43 -25 -84 -25zM1563 834l-109 186l-237 -137l184 -320q57 -1 119 61
t59 140q0 41 -16 70zM467 377h2q-41 90 6 172l115 199l65 -39l-94 264l-276 -49l67 -39l-45 -78q-20 -33 -22 -65t4 -48t24 -51zM659 248h215v274h-368q-31 -41 -7 -128t91 -126q34 -20 69 -20zM807 1421v-2q98 -10 145 -90l115 -199l-66 -38l275 -50l96 265l-67 -39l-45 78
q-29 49 -61 62t-85 13h-307zM598 1321l-106 -188l237 -138l184 320q-27 49 -107 71t-155 -16q-37 -22 -53 -49z" />
    <glyph glyph-name="uni267D" unicode="&#x267d;" horiz-adv-x="1966" 
d="M201 799q0 -307 217 -525t524 -217q307 0 524 217q217 216 217 524t-217 525t-524 217t-524 -217t-217 -524zM123 799q-1 339 239 579t580 240t580 -240t240 -580t-240 -579t-580 -239t-580 239q-239 240 -239 580zM1253 248h-90v-78l-180 215l180 215v-78h230
q41 0 79 20t56 42l16 20l2 -2l-153 -266q-19 -31 -31 -46q-36 -42 -109 -42zM1454 1020l109 -186q16 -29 16 -70q2 -78 -59 -139t-119 -62l-184 320zM469 377h-2l-154 266q-18 35 -24 51t-4 48t22 65l45 78l-67 39l276 49l94 -264l-65 39l-115 -199q-20 -37 -22 -80t6 -68z
M874 248h-215q-35 0 -69 20q-68 39 -91 126q-24 87 7 128h368v-274zM807 1421h307q53 0 85 -13t61 -62l45 -78l67 39l-96 -265l-275 50l66 38l-115 199q-20 35 -57 57t-64 27l-24 6v2zM492 1133l106 188q16 27 53 49q74 37 155 15t107 -70l-184 -320z" />
    <glyph glyph-name="mediumwhitecircle" unicode="&#x26aa;" horiz-adv-x="1372" 
d="M201 543q0 -201 142 -343t343 -142t343 142t142 343t-142 343t-343 142t-343 -142t-142 -343zM123 543q0 233 165 398t398 165t398 -165t165 -398t-165 -399t-398 -164q-233 0 -398 165t-165 398z" />
    <glyph glyph-name="mediumblackcircle" unicode="&#x26ab;" horiz-adv-x="1372" 
d="M123 543q0 233 165 398t398 165t398 -165t165 -398t-165 -399t-398 -164q-233 0 -398 165t-165 398z" />
    <glyph glyph-name="anglebracketleft" unicode="&#x3008;" 
d="M528 1720l-331 -983l331 -983h-84l-331 983l331 983h84z" />
    <glyph glyph-name="anglebracketright" unicode="&#x3009;" 
d="M86 -246l332 983l-332 983h84l332 -983l-332 -983h-84z" />
    <glyph glyph-name="fi" unicode="&#xe38c;" horiz-adv-x="1167" 
d="M1024 1505v-123h-123v123h123zM922 0v1085h82v-1085h-82zM328 1352v-267h327v-77h-327v-1008h-82v1008h-174v77h174v277q0 154 78 226t191 71q113 0 161 -21v-75q-42 18 -142 18t-153 -48t-53 -181z" />
    <glyph glyph-name="fi" unicode="&#xfb01;" horiz-adv-x="1167" 
d="M1024 1505v-123h-123v123h123zM922 0v1085h82v-1085h-82zM328 1352v-267h327v-77h-327v-1008h-82v1008h-174v77h174v277q0 154 78 226t191 71q113 0 161 -21v-75q-42 18 -142 18t-153 -48t-53 -181z" />
    <glyph glyph-name="fl" unicode="&#xe38d;" horiz-adv-x="1167" 
d="M922 0v1638h82v-1638h-82zM328 1352v-267h327v-77h-327v-1008h-82v1008h-174v77h174v277q0 154 78 226t191 71q113 0 161 -21v-75q-42 18 -142 18t-153 -48t-53 -181z" />
    <glyph glyph-name="fl" unicode="&#xfb02;" horiz-adv-x="1167" 
d="M922 0v1638h82v-1638h-82zM328 1352v-267h327v-77h-327v-1008h-82v1008h-174v77h174v277q0 154 78 226t191 71q113 0 161 -21v-75q-42 18 -142 18t-153 -48t-53 -181z" />
    <glyph glyph-name="invertedbreve" unicode="&#xe411;" horiz-adv-x="1024" 
d="M512 1618q156 0 234 -94t77 -254h-73q0 281 -238 280q-238 0 -238 -280h-73q-1 160 77 254t234 94z" />
    <glyph glyph-name="doublegrave" unicode="&#xe412;" horiz-adv-x="1024" 
d="M397 1597h86l185 -327h-86zM172 1597h86l184 -327h-86z" />
    <glyph glyph-name="caronSlovak" unicode="&#xe413;" horiz-adv-x="1024" 
d="M676 1638h92l-31 -368h-61v368z" />
    <glyph glyph-name="commaaccent" unicode="&#xe414;" horiz-adv-x="1232" 
d="M573 -123v-98q0 -97 -50 -153t-134 -56v61q51 0 85 31t38 92h-61v123h122z" />
    <glyph glyph-name="commaaccent" unicode="&#xf6c3;" horiz-adv-x="1232" 
d="M573 -123v-98q0 -97 -50 -153t-134 -56v61q51 0 85 31t38 92h-61v123h122z" />
    <glyph glyph-name="dotbelow" unicode="&#xe415;" horiz-adv-x="1232" 
d="M573 -205v-123h-122v123h122z" />
    <glyph glyph-name="altcedilla" unicode="&#xe416;" horiz-adv-x="1232" 
d="M637 -279q0 80 -133 80q-68 0 -121 -20v63q57 25 133 25t132 -35t57 -110q0 -154 -199 -154q-117 0 -180 45l26 61q58 -38 138 -38t114 18t33 65z" />
    <glyph glyph-name="grave.cap" unicode="&#xe421;" horiz-adv-x="1024" 
d="M342 1946h86l127 -226h-86z" />
    <glyph glyph-name="acute.cap" unicode="&#xe422;" horiz-adv-x="1024" 
d="M596 1946h86l-127 -226h-86z" />
    <glyph glyph-name="circumflex.cap" unicode="&#xe423;" horiz-adv-x="1024" 
d="M369 1720h-93l205 226h62l205 -226h-93l-143 158z" />
    <glyph glyph-name="tilde.cap" unicode="&#xe424;" horiz-adv-x="1024" 
d="M725 1909h74q0 -86 -40 -129q-39 -43 -105 -43t-152 62t-123 63q-80 0 -80 -105h-74q0 86 40 129q39 43 105 43t152 -62t123 -63q80 1 80 105z" />
    <glyph glyph-name="macron.cap" unicode="&#xe425;" horiz-adv-x="1024" 
d="M307 1792v82h410v-82h-410z" />
    <glyph glyph-name="breve.cap" unicode="&#xe426;" horiz-adv-x="1024" 
d="M512 1700q-127 0 -199 68t-71 178h73q1 -80 51 -129t146 -49t146 48q50 50 51 130h73q0 -111 -71 -179q-72 -67 -199 -67z" />
    <glyph glyph-name="invertedbreve.cap" unicode="&#xe427;" horiz-adv-x="1024" 
d="M512 1966q127 0 199 -68t71 -178h-73q-1 80 -51 129t-146 49t-146 -49t-51 -129h-73q0 110 72 178t198 68z" />
    <glyph glyph-name="dotaccent.cap" unicode="&#xe428;" horiz-adv-x="1024" 
d="M573 1894v-122h-122v122h122z" />
    <glyph glyph-name="dieresis.cap" unicode="&#xe429;" horiz-adv-x="1024" 
d="M727 1894v-122h-123v122h123zM420 1894v-122h-123v122h123z" />
    <glyph glyph-name="ring.cap" unicode="&#xe42a;" horiz-adv-x="1024" 
d="M393 1782q0 -49 35 -84t84 -35t84 35t35 84t-35 84t-84 35t-84 -35t-35 -84zM328 1782q0 78 53 131t131 53t131 -53t53 -131t-53 -131t-131 -53t-131 52q-53 54 -53 132z" />
    <glyph glyph-name="hungarumlaut.cap" unicode="&#xe42b;" horiz-adv-x="1024" 
d="M709 1946h86l-127 -226h-86zM483 1946h86l-127 -226h-86z" />
    <glyph glyph-name="doublegrave.cap" unicode="&#xe42c;" horiz-adv-x="1024" 
d="M229 1946h86l127 -226h-86zM455 1946h86l127 -226h-86z" />
    <glyph glyph-name="caron.cap" unicode="&#xe42d;" horiz-adv-x="1024" 
d="M276 1946h93l143 -158l143 158h93l-205 -226h-62z" />
    <glyph glyph-name="commaaccent.cap" unicode="&#xe42e;" horiz-adv-x="1024" 
d="M451 1720v99q0 63 37 105q38 42 116 42v-61q-47 1 -67 -13t-25 -49h61v-123h-122z" />
    <glyph glyph-name="exclamdown.cap" unicode="&#xe441;" horiz-adv-x="409" 
d="M143 1475v122h123v-122h-123zM252 0h-94l22 1239h49z" />
    <glyph glyph-name="questiondown.cap" unicode="&#xe444;" horiz-adv-x="901" 
d="M389 1475v122h123v-122h-123zM451 57q171 0 241 132t70 384h82v-20q0 -421 -201 -529q-82 -44 -199 -44q-379 0 -378 430q0 205 123 349q53 59 105 121q129 151 132 359h49q4 -216 -109 -379q-48 -68 -96 -131q-119 -155 -119 -322q1 -167 65 -259t235 -91z" />
    <glyph glyph-name="guilsinglleft.cap" unicode="&#xe451;" 
d="M512 1147v-92l-334 -256l334 -256v-92l-410 317v61z" />
    <glyph glyph-name="guilsinglright.cap" unicode="&#xe452;" 
d="M102 1055v92l410 -318v-61l-410 -317v92l334 256z" />
    <glyph glyph-name="guillemotleft.cap" unicode="&#xe453;" horiz-adv-x="1024" 
d="M922 1147v-92l-334 -256l334 -256v-92l-410 317v61zM512 1147v-92l-334 -256l334 -256v-92l-410 317v61z" />
    <glyph glyph-name="guillemotright.cap" unicode="&#xe454;" horiz-adv-x="1024" 
d="M102 1055v92l410 -318v-61l-410 -317v92l334 256zM512 1055v92l410 -318v-61l-410 -317v92l334 256z" />
    <glyph glyph-name="slash.cap" unicode="&#xe461;" 
d="M152 0h-82l393 1597h82z" />
    <glyph glyph-name="backslash.cap" unicode="&#xe462;" 
d="M70 1597h82l393 -1597h-82z" />
    <glyph glyph-name="bar.cap" unicode="&#xe463;" horiz-adv-x="368" 
d="M143 0v1597h82v-1597h-82z" />
    <glyph glyph-name="doublebar.cap" unicode="&#xe464;" horiz-adv-x="573" 
d="M348 0v1597h82v-1597h-82zM143 0v1597h82v-1597h-82z" />
    <glyph glyph-name="brokenbar.cap" unicode="&#xe465;" horiz-adv-x="368" 
d="M143 0v717h82v-717h-82zM143 881v716h82v-716h-82z" />
    <glyph glyph-name="bullet.cap" unicode="&#xe466;" horiz-adv-x="778" 
d="M635 1044v-491h-492v491h492z" />
    <glyph glyph-name="onethirdemdash" unicode="&#xe471;" horiz-adv-x="681" 
d="M600 678h-518v78h518v-78z" />
    <glyph glyph-name="threequarteremdash" unicode="&#xe472;" horiz-adv-x="1536" 
d="M82 678v78h1372v-78h-1372z" />
    <glyph glyph-name="periodcentered.cap" unicode="&#xe481;" horiz-adv-x="409" 
d="M266 860v-123h-123v123h123z" />
    <glyph glyph-name="hyphen.cap" unicode="&#xe482;" horiz-adv-x="655" 
d="M82 760v78h491v-78h-491z" />
    <glyph glyph-name="onethirdemdash.cap" unicode="&#xe483;" horiz-adv-x="681" 
d="M600 760h-500v78h500v-78z" />
    <glyph glyph-name="endash.cap" unicode="&#xe484;" horiz-adv-x="1024" 
d="M82 760v78h860v-78h-860z" />
    <glyph glyph-name="threequarteremdash.cap" unicode="&#xe485;" horiz-adv-x="1536" 
d="M82 760v78h1372v-78h-1372z" />
    <glyph glyph-name="emdash.cap" unicode="&#xe486;" horiz-adv-x="2048" 
d="M82 760v78h1884v-78h-1884z" />
    <glyph glyph-name="figuredash.cap" unicode="&#xe487;" horiz-adv-x="1228" 
d="M82 760v78h1065v-78h-1065z" />
    <glyph glyph-name="uni2015.cap" unicode="&#xe488;" horiz-adv-x="2457" 
d="M82 760v78h2294v-78h-2294z" />
    <glyph glyph-name="parenleft.cap" unicode="&#xe491;" 
d="M133 778v41q0 408 252 778h90q-260 -373 -260 -778v-41q0 -406 260 -778h-90q-252 370 -252 778z" />
    <glyph glyph-name="parenright.cap" unicode="&#xe492;" 
d="M481 819v-41q0 -408 -252 -778h-90q260 373 260 778v41q0 406 -260 778h90q252 -370 252 -778z" />
    <glyph glyph-name="bracketleft.cap" unicode="&#xe493;" 
d="M143 1597h379v-81h-297v-1434h297v-82h-379v1597z" />
    <glyph glyph-name="bracketright.cap" unicode="&#xe494;" 
d="M471 0h-379v82h297v1434h-297v81h379v-1597z" />
    <glyph glyph-name="braceleft.cap" unicode="&#xe495;" 
d="M522 1597v-81q-104 0 -154 -48t-51 -178v-291q0 -150 -108 -200q109 -53 108 -201v-291q1 -131 51 -178t154 -47v-82h-30q-104 0 -181 58q-76 58 -75 198v317q0 113 -42 149t-143 36v82q100 0 143 36q42 36 42 148v317q0 139 75 198q76 58 181 58h30z" />
    <glyph glyph-name="braceright.cap" unicode="&#xe496;" 
d="M92 1516v81h31q104 0 180 -58t76 -198v-317q0 -112 42 -148t142 -36v-82q-100 0 -142 -36t-42 -149v-317q0 -140 -76 -198t-180 -58h-31v82q104 0 155 47q50 47 50 178v291q0 147 109 201q-109 49 -109 200v291q-1 130 -51 178t-154 48z" />
    <glyph glyph-name="anglebracketleft.cap" unicode="&#xe497;" 
d="M471 1597l-274 -798l274 -799h-84l-274 799l274 798h84z" />
    <glyph glyph-name="anglebracketright.cap" unicode="&#xe498;" 
d="M418 799l-275 798h84l275 -798l-275 -799h-84z" />
    <glyph glyph-name="lowline" unicode="&#xe511;" horiz-adv-x="655" 
d="M102 0v78h451v-78h-451z" />
    <glyph glyph-name="underscoremonospace" unicode="&#xe512;" horiz-adv-x="1228" 
d="M102 -242v78h1024v-78h-1024z" />
    <glyph glyph-name="underscoremonospace" unicode="&#xff3f;" horiz-adv-x="1228" 
d="M102 -242v78h1024v-78h-1024z" />
    <glyph glyph-name="at.cap" unicode="&#xe513;" horiz-adv-x="1945" 
d="M608 829v-41q0 -180 84 -292t261 -111q177 0 296 188v471q-119 188 -296 188t-261 -111q-84 -112 -84 -292zM1018 -147h12q393 0 674 208l45 -61q-289 -225 -721 -225t-694 264t-262 719v82q0 457 257 720t685 263q362 0 606 -207q118 -100 186 -261t68 -362v-61
q0 -355 -154 -487q-76 -65 -169 -91t-220 -26h-51l-20 155q-106 -176 -320 -176t-316 139q-101 139 -102 342v41q0 203 102 342t316 139q215 0 320 -177l20 157h61l-10 -307v-580q111 3 183 21t141 72q133 105 133 436v61q0 187 -62 335q-115 271 -415 372q-135 45 -291 45
h-12q-386 0 -620 -244t-234 -661v-82q0 -428 237 -667q238 -238 627 -238z" />
    <glyph glyph-name="zero.inf" unicode="&#xe571;" 
d="M477 152q0 182 -168 182h-6q-168 0 -168 -182v-324q0 -184 168 -184h6q168 0 168 184v324zM63 160q-1 108 59 174t185 66t185 -66q59 -66 59 -174v-340q0 -110 -59 -176q-58 -66 -184 -66t-185 66t-60 176v340z" />
    <glyph glyph-name="one.inf" unicode="&#xe572;" 
d="M561 -410h-489v66h209v637l-189 -127l-37 57l252 170h47v-737h207v-66z" />
    <glyph glyph-name="two.inf" unicode="&#xe573;" 
d="M557 -344v-66h-500v45l344 367q82 84 82 164v10q0 74 -47 116t-127 42h-6q-174 0 -174 -211h-72v24q0 252 250 252q119 0 185 -58t65 -155v-12q0 -61 -20 -104t-74 -101l-295 -313h389z" />
    <glyph glyph-name="three.inf" unicode="&#xe574;" 
d="M125 -154q0 -203 176 -202h10q74 0 126 40t52 113v15q0 74 -47 114t-120 39h-117v66h112q74 0 120 36t46 105v8q0 70 -47 112t-125 42h-10q-88 0 -130 -50t-42 -161h-72v24q0 252 250 252q119 0 185 -57t65 -154v-14q0 -135 -125 -176q129 -49 129 -186v-17
q0 -96 -71 -156q-70 -61 -190 -61t-184 68t-65 188v12h74z" />
    <glyph glyph-name="four.inf" unicode="&#xe575;" 
d="M375 -131v291l2 104l-254 -397l88 2h164zM449 -410h-74v211h-342v49l344 539h72v-520h131v-68h-131v-211z" />
    <glyph glyph-name="five.inf" unicode="&#xe576;" 
d="M51 -154h74q0 -203 176 -202h10q76 0 127 47t51 137v18q0 92 -52 138t-128 47h-8q-57 0 -108 -29t-74 -80l-62 19l21 448h473v-67h-404l-12 -285q69 59 177 59t178 -66t71 -186v-12q0 -122 -71 -188q-70 -66 -190 -66t-184 68t-65 188v12z" />
    <glyph glyph-name="six.inf" unicode="&#xe577;" 
d="M313 27q-127 0 -184 -113v-57q0 -97 51 -155t127 -58h6q82 0 131 49t50 135v16q0 86 -48 134t-127 49h-6zM528 399v-65q-195 0 -301 -141q-59 -78 -82 -175q74 74 182 74q107 0 173 -64t65 -188v-10q-1 -124 -69 -188t-183 -64t-187 75t-71 206v12q1 213 117 371t356 157
z" />
    <glyph glyph-name="seven.inf" unicode="&#xe578;" 
d="M59 102v287h504v-45l-307 -754h-78l299 734l-112 -2h-240v-220h-66z" />
    <glyph glyph-name="eight.inf" unicode="&#xe579;" 
d="M311 334h-10q-78 0 -125 -41t-47 -111v-8q0 -70 47 -106t121 -37h20q74 0 120 37t46 106v8q0 70 -47 111t-125 41zM293 -35q-74 0 -121 -41t-47 -114v-15q0 -75 51 -113t125 -38h10q76 0 127 39t51 112v15q0 74 -47 114t-120 41h-29zM307 -422q-113 0 -185 60t-71 155v17
q0 139 129 188q-123 41 -123 178v14q0 96 66 152q67 56 185 57q118 0 184 -56t65 -153v-14q0 -137 -125 -178q129 -49 129 -188v-17q-1 -95 -71 -155t-183 -60z" />
    <glyph glyph-name="nine.inf" unicode="&#xe57a;" 
d="M301 -47q123 0 182 110q2 16 2 50v10q0 96 -51 153t-129 58h-6q-82 0 -130 -48t-48 -134v-19q0 -86 47 -133t127 -47h6zM84 -422v66q193 0 303 141q57 76 80 176q-74 -74 -180 -74t-173 65t-67 185v10q0 123 69 188q68 65 184 65t186 -74t71 -207v-10q1 -217 -117 -374
t-356 -157z" />
    <glyph glyph-name="plus.inf" unicode="&#xe57b;" 
d="M272 248h68v-225h225v-68h-225v-223h-68v223h-223v68h223v225z" />
    <glyph glyph-name="minus.inf" unicode="&#xe57c;" 
d="M49 -45v68h516v-68h-516z" />
    <glyph glyph-name="equal.inf" unicode="&#xe57d;" 
d="M49 -150v68h516v-68h-516zM49 59v68h516v-68h-516z" />
    <glyph glyph-name="parenleft.inf" unicode="&#xe57e;" horiz-adv-x="323" 
d="M61 -20v20q0 215 125 389h76q-129 -193 -129 -389v-20q0 -201 129 -390h-76q-125 173 -125 390z" />
    <glyph glyph-name="parenright.inf" unicode="&#xe57f;" horiz-adv-x="323" 
d="M262 0v-20q0 -217 -125 -390h-76q129 188 129 390v20q0 197 -129 389h76q125 -174 125 -389z" />
    <glyph glyph-name="Anocross" unicode="&#xe731;" horiz-adv-x="1228" 
d="M553 1618h123l483 -1618h-90l-455 1536l-454 -1536h-90z" />
    <glyph glyph-name="idotaccent" unicode="&#xe785;" horiz-adv-x="409" 
d="M266 1505v-123h-123v123h123zM164 0v1085h82v-1085h-82z" />
    <glyph glyph-name="interrobangdown" unicode="&#xe935;" horiz-adv-x="901" 
d="M389 963v122h123v-122h-123zM152 -51q0 -279 251 -299l17 839q-49 -113 -165 -253q-39 -49 -71 -125t-32 -162zM844 123v-21q0 -390 -201 -491q-82 -41 -199 -41q-180 0 -279 98t-99 288q0 191 123 330q52 58 105 115q128 141 132 326h49l21 -1075q147 16 206 136t60 335
h82z" />
    <glyph glyph-name="interrobangdown.cap" unicode="&#xe99b;" horiz-adv-x="901" 
d="M389 1475v122h123v-122h-123zM152 388q0 -138 56 -228t195 -103l17 922q-31 -80 -103 -177q-73 -96 -119 -186t-46 -228zM66 410q0 205 123 349q53 59 105 121q129 151 132 359h49l21 -1180q147 21 206 151t60 363h82v-20q0 -421 -201 -529q-82 -44 -199 -44
q-378 0 -378 430z" />
    <glyph glyph-name="registered.cap" unicode="&#xe99c;" horiz-adv-x="1884" 
d="M719 801h246q209 0 209 194v17q0 195 -209 194h-246v-405zM719 727v-410h-82v963h328q123 0 207 -59t83 -205v-25q0 -195 -165 -248l165 -426h-88l-159 412q-14 -2 -43 -2h-246zM201 799q0 -307 217 -525t524 -217q307 0 524 217q217 216 217 524t-217 525t-524 217
t-524 -217t-217 -524zM123 799q-1 339 239 579t580 240t580 -240t240 -580t-240 -579t-580 -239t-580 239q-239 240 -239 580z" />
    <glyph glyph-name="period.T" unicode="&#xf182;" 
d="M369 123v-123h-123v123h123z" />
    <glyph glyph-name="comma.T" unicode="&#xf183;" 
d="M369 123v-98q0 -250 -185 -250v61q61 0 91 36t32 128h-61v123h123z" />
    <glyph glyph-name="colon.T" unicode="&#xf184;" 
d="M369 860v-123h-123v123h123zM369 123v-123h-123v123h123z" />
    <glyph glyph-name="semicolon.T" unicode="&#xf185;" 
d="M369 860v-123h-123v123h123zM369 123v-98q0 -250 -185 -250v61q61 0 91 36t32 128h-61v123h123z" />
    <glyph glyph-name="onesixteenth" unicode="&#xf215;" horiz-adv-x="2252" 
d="M561 799h-489v65h209v637l-189 -127l-37 58l252 170h47v-738h207v-65zM1585 0h-489v66h209v636l-189 -127l-37 58l252 170h47v-737h207v-66zM1952 436q-127 0 -185 -112v-58q-1 -96 51 -154t128 -59h6q82 0 131 49t49 136v16q0 86 -47 134t-127 48h-6zM274 0h-90
l1180 1597h90zM2167 809v-66q-195 0 -301 -141q-59 -78 -82 -174q74 74 182 74t172 -65q66 -65 66 -187v-10q0 -123 -69 -188q-69 -64 -183 -64t-187 74q-72 74 -71 206v13q0 213 116 371t357 157z" />
    <glyph glyph-name="threesixteenths" unicode="&#xf216;" horiz-adv-x="2252" 
d="M1585 0h-489v66h209v636l-189 -127l-37 58l252 170h47v-737h207v-66zM1952 436q-127 0 -185 -112v-58q-1 -96 51 -154t128 -59h6q82 0 131 49t49 136v16q0 86 -47 134t-127 48h-6zM125 1055q0 -203 176 -203h10q74 0 126 40t52 114v14q0 74 -47 114t-120 40h-117v65h112
q74 0 120 36t46 105v9q0 69 -47 111t-125 42h-10q-88 0 -130 -50t-42 -161h-72v25q0 252 250 252q119 0 185 -58t65 -153v-15q0 -133 -125 -178q129 -45 129 -184v-16q0 -96 -71 -156q-70 -60 -190 -62q-120 0 -184 68t-65 188v13h74zM274 0h-90l1180 1597h90zM2167 809v-66
q-195 0 -301 -141q-59 -78 -82 -174q74 74 182 74t172 -65q66 -65 66 -187v-10q0 -123 -69 -188q-69 -64 -183 -64t-187 74q-72 74 -71 206v13q0 213 116 371t357 157z" />
    <glyph glyph-name="fivesixteenths" unicode="&#xf217;" horiz-adv-x="2252" 
d="M1585 0h-489v66h209v636l-189 -127l-37 58l252 170h47v-737h207v-66zM1952 436q-127 0 -185 -112v-58q-1 -96 51 -154t128 -59h6q82 0 131 49t49 136v16q0 86 -47 134t-127 48h-6zM274 0h-90l1180 1597h90zM51 1055h74q0 -203 176 -203h10q76 0 127 47t51 137v19
q0 92 -52 138t-128 46h-8q-57 0 -108 -29t-74 -80l-62 19l21 448h473v-67h-404l-12 -285q69 59 177 59t178 -66q70 -67 71 -185v-13q0 -122 -71 -188q-70 -66 -190 -66t-184 68t-65 188v13zM2167 809v-66q-195 0 -301 -141q-59 -78 -82 -174q74 74 182 74t172 -65
q66 -65 66 -187v-10q0 -123 -69 -188q-69 -64 -183 -64t-187 74q-72 74 -71 206v13q0 213 116 371t357 157z" />
    <glyph glyph-name="sevensixteenths" unicode="&#xf218;" horiz-adv-x="2252" 
d="M1585 0h-489v66h209v636l-189 -127l-37 58l252 170h47v-737h207v-66zM59 1311v286h504v-45l-307 -753h-78l299 733l-112 -2h-240v-219h-66zM1952 436q-127 0 -185 -112v-58q-1 -96 51 -154t128 -59h6q82 0 131 49t49 136v16q0 86 -47 134t-127 48h-6zM274 0h-90
l1180 1597h90zM2167 809v-66q-195 0 -301 -141q-59 -78 -82 -174q74 74 182 74t172 -65q66 -65 66 -187v-10q0 -123 -69 -188q-69 -64 -183 -64t-187 74q-72 74 -71 206v13q0 213 116 371t357 157z" />
    <glyph glyph-name="ninesixteenths" unicode="&#xf219;" horiz-adv-x="2252" 
d="M1585 0h-489v66h209v636l-189 -127l-37 58l252 170h47v-737h207v-66zM301 1161q123 0 182 111q2 16 2 49v10q0 95 -51 153t-129 58h-6q-82 0 -130 -48t-48 -134v-19q0 -86 47 -133t127 -47h6zM1952 436q-127 0 -185 -112v-58q-1 -96 51 -154t128 -59h6q82 0 131 49
t49 136v16q0 86 -47 134t-127 48h-6zM274 0h-90l1180 1597h90zM84 786v66q193 0 303 141q55 72 80 176q-70 -73 -178 -73t-175 64t-67 186v10q0 124 69 188q68 64 184 64t186 -74t71 -207v-10q1 -217 -117 -374t-356 -157zM2167 809v-66q-195 0 -301 -141q-59 -78 -82 -174
q74 74 182 74t172 -65q66 -65 66 -187v-10q0 -123 -69 -188q-69 -64 -183 -64t-187 74q-72 74 -71 206v13q0 213 116 371t357 157z" />
    <glyph glyph-name="elevensixteenths" unicode="&#xf220;" horiz-adv-x="2867" 
d="M2200 0h-490v66h209v636l-188 -127l-37 58l252 170h47v-737h207v-66zM1176 799h-490v65h209v637l-188 -127l-37 58l252 170h47v-738h207v-65zM561 799h-489v65h209v637l-189 -127l-37 58l252 170h47v-738h207v-65zM2566 436q-127 0 -184 -112v-58q0 -96 51 -154t127 -59
h6q82 0 131 49t49 136v16q0 86 -47 134t-127 48h-6zM889 0h-90l1179 1597h90zM2781 809v-66q-195 0 -301 -141q-59 -78 -82 -174q74 74 182 74t173 -65q66 -65 65 -187v-10q0 -123 -69 -188q-69 -64 -183 -64t-186 74t-72 206v13q0 213 113 364q120 164 360 164z" />
    <glyph glyph-name="thirteensixteenths" unicode="&#xf221;" horiz-adv-x="2867" 
d="M2200 0h-490v66h209v636l-188 -127l-37 58l252 170h47v-737h207v-66zM561 799h-489v65h209v637l-189 -127l-37 58l252 170h47v-738h207v-65zM2566 436q-127 0 -184 -112v-58q0 -96 51 -154t127 -59h6q82 0 131 49t49 136v16q0 86 -47 134t-127 48h-6zM739 1055
q0 -203 176 -203h11q74 0 126 40t52 114v14q0 74 -47 114t-121 40h-117v65h113q74 0 120 36t46 105v9q0 69 -47 111t-125 42h-11q-88 0 -130 -50t-42 -161h-71v25q0 252 250 252q118 0 184 -58t65 -153v-15q0 -133 -124 -178q129 -45 129 -184v-16q0 -96 -71 -156t-191 -62
q-120 0 -184 68q-65 68 -64 188v13h73zM889 0h-90l1179 1597h90zM2781 809v-66q-195 0 -301 -141q-59 -78 -82 -174q74 74 182 74t173 -65q66 -65 65 -187v-10q0 -123 -69 -188q-69 -64 -183 -64t-186 74t-72 206v13q0 213 113 364q120 164 360 164z" />
    <glyph glyph-name="fifteensixteenths" unicode="&#xf222;" horiz-adv-x="2867" 
d="M2200 0h-490v66h209v636l-188 -127l-37 58l252 170h47v-737h207v-66zM561 799h-489v65h209v637l-189 -127l-37 58l252 170h47v-738h207v-65zM2566 436q-127 0 -184 -112v-58q0 -96 51 -154t127 -59h6q82 0 131 49t49 136v16q0 86 -47 134t-127 48h-6zM889 0h-90
l1179 1597h90zM666 1055h73q0 -203 176 -203h11q76 0 127 47t51 137v19q0 92 -52 138t-128 46h-9q-57 0 -108 -29t-74 -80l-61 19l20 448h473v-67h-403l-12 -285q70 59 178 59t178 -66q70 -67 70 -185v-13q0 -122 -71 -188t-191 -66t-184 68q-65 68 -64 188v13zM2781 809
v-66q-195 0 -301 -141q-59 -78 -82 -174q74 74 182 74t173 -65q66 -65 65 -187v-10q0 -123 -69 -188q-69 -64 -183 -64t-186 74t-72 206v13q0 213 113 364q120 164 360 164z" />
    </font>
</defs>
</svg>
