<?xml version="1.0" standalone="no"?>
<!DOCTYPE svg PUBLIC "-//W3C//DTD SVG 1.1//EN" "http://www.w3.org/Graphics/SVG/1.1/DTD/svg11.dtd" >
<svg xmlns="http://www.w3.org/2000/svg">
<metadata>
Created by FontPrep 20130207 at Sun May 22 19:32:13 2016
 By Blaine O'Neill
Copyright (c) 2014, Cooper Hewitt Smithsonian Design Museum (cooperhewitt.org)
</metadata>
<defs>
<font id="6db8cec7b2b48c5700c47cbdb30b21f2" horiz-adv-x='1024' >
  <font-face 
    font-family="CooperHewitt-LightItalic"
    font-weight="704"
    font-style="italic"
    font-stretch="normal"
    units-per-em="2048"
    panose-1="0 0 0 0 0 0 0 0 0 0"
    ascent="1536"
    descent="-512"
    x-height="1085"
    cap-height="1597"
    bbox="-532 -430 2787 1966"
    underline-thickness="102"
    underline-position="-102"
    unicode-range="U+0020-F222"
  />
<missing-glyph horiz-adv-x="1986" 
d="M1085 799l564 -563v1126zM901 799l-563 563v-1126zM422 1462l571 -571l572 571h-1143zM993 707l-571 -572h1143zM195 0v1597h1597v-1597h-1597z" />
    <glyph glyph-name=".notdef" horiz-adv-x="1986" 
d="M1085 799l564 -563v1126zM901 799l-563 563v-1126zM422 1462l571 -571l572 571h-1143zM993 707l-571 -572h1143zM195 0v1597h1597v-1597h-1597z" />
    <glyph glyph-name=".null" horiz-adv-x="0" 
 />
    <glyph glyph-name="nonmarkingreturn" horiz-adv-x="681" 
 />
    <glyph glyph-name="space" unicode=" " horiz-adv-x="409" 
 />
    <glyph glyph-name="exclam" unicode="!" horiz-adv-x="409" 
d="M180 123l-14 -123h-123l14 123h123zM266 1597h94l-184 -1239h-49z" />
    <glyph glyph-name="quotedbl" unicode="&#x22;" 
d="M471 1597h94l-90 -512h-49zM266 1597h94l-90 -512h-49z" />
    <glyph glyph-name="numbersign" unicode="#" horiz-adv-x="1228" 
d="M528 1004l-151 -410h330l151 410h-330zM1079 1597h88l-190 -512h217l-10 -81h-238l-151 -410h206l-10 -82h-227l-189 -512h-88l189 512h-330l-188 -512h-88l188 512h-215l10 82h236l151 410h-204l10 81h225l191 512h88l-191 -512h330z" />
    <glyph glyph-name="dollar" unicode="$" horiz-adv-x="1228" 
d="M690 1409h-20q-160 0 -260 -67t-115 -199q-15 -133 55 -197t240 -86l201 541q-61 8 -101 8zM580 188q166 0 265 74t117 214q17 140 -63 208t-258 92l-213 -575q61 -12 139 -13h13zM573 111q-104 0 -172 16l-92 -250h-82l101 270q-254 92 -217 377l4 31h82
q-35 -258 157 -334l209 565q-391 53 -356 342q21 183 150 271q128 88 323 88q74 0 137 -12l92 245h82l-98 -266q256 -94 215 -403l-4 -31h-82q43 281 -158 360l-196 -530q217 -29 308 -120t70 -260q-22 -169 -145 -264t-328 -95z" />
    <glyph glyph-name="percent" unicode="%" horiz-adv-x="1843" 
d="M1341 -20q-141 0 -234 93t-60 265q20 166 118 252q97 86 239 86t230 -88t67 -262t-120 -260t-240 -86zM1341 57h13q102 0 178 69t92 202q16 134 -45 202t-174 68h-12q-102 0 -178 -69t-93 -202q-16 -133 46 -201t173 -69zM512 1540h-12q-102 0 -178 -68t-92 -202
q-17 -133 45 -202t174 -69h12q102 0 177 68t92 202q17 135 -44 203t-174 68zM1016 1454q-122 0 -238 27q46 -87 27 -237t-117 -236t-239 -86t-229 88t-67 262t119 260t238 86q74 0 137 -25q168 -61 354 -61q90 0 209 22t164 43l-10 -75l-829 -1522h-91l813 1491
q-119 -37 -241 -37z" />
    <glyph glyph-name="ampersand" unicode="&#x26;" horiz-adv-x="1331" 
d="M602 1536h-12q-133 0 -206 -68t-86 -174t29 -188t138 -195q203 125 260 179q105 92 118 200t-50 177t-191 69zM475 61h17q231 0 397 191l-455 555q-90 -61 -140 -102t-96 -110t-57 -149l-4 -32q-18 -158 69 -256t269 -97zM483 -20q-217 0 -336 116t-92 318l4 32
q17 136 101 230t229 186q-102 127 -146 223t-28 227q17 130 113 218t267 88t262 -91t73 -232q-17 -141 -139 -245q-107 -91 -281 -196l432 -528q123 185 160 483h82q-47 -342 -191 -545l217 -264h-114l-158 193q-193 -213 -455 -213z" />
    <glyph glyph-name="quotesingle" unicode="'" horiz-adv-x="409" 
d="M266 1597h94l-90 -512h-49z" />
    <glyph glyph-name="parenleft" unicode="(" 
d="M104 717l7 49q70 563 452 954h94q-182 -195 -304 -421t-158 -533l-7 -49q-31 -273 18 -474q33 -144 77 -249t110 -240h-92q-171 353 -198 599q-20 182 1 364z" />
    <glyph glyph-name="parenright" unicode=")" 
d="M502 758l-6 -49q-70 -563 -453 -955h-94q182 195 304 421t159 534l6 49q31 271 -18 474q-34 149 -75 247q-42 99 -112 241h92q171 -353 194 -566q24 -214 3 -396z" />
    <glyph glyph-name="asterisk" unicode="*" horiz-adv-x="778" 
d="M670 997l-72 -47l-139 254l53 35zM813 1423l16 -77l-307 -84l-12 57zM229 950l-59 47l219 242l45 -35zM100 1346l37 77l275 -104l-25 -57zM463 1638h82l-51 -307h-62z" />
    <glyph glyph-name="plus" unicode="+" horiz-adv-x="1228" 
d="M643 1311h82l-63 -471h471l-11 -82h-471l-61 -471h-82l61 471h-471l11 82h471z" />
    <glyph glyph-name="comma" unicode="," horiz-adv-x="409" 
d="M180 123l-12 -98q-33 -250 -217 -250l8 61q61 0 95 36t50 128h-61l14 123h123z" />
    <glyph glyph-name="hyphen" unicode="-" horiz-adv-x="655" 
d="M70 678l10 78h491l-10 -78h-491z" />
    <glyph glyph-name="period" unicode="." horiz-adv-x="409" 
d="M180 123l-14 -123h-123l14 123h123z" />
    <glyph glyph-name="slash" unicode="/" 
d="M709 1720l-729 -1966h-80l727 1966h82z" />
    <glyph glyph-name="zero" unicode="0" horiz-adv-x="1228" 
d="M696 1540q-215 0 -307 -100t-123 -328l-84 -631q-28 -209 54 -317t292 -107h13q215 1 307 101t123 327l84 631q27 209 -55 317t-291 107h-13zM704 1618q254 0 359 -129t76 -352l-90 -676q-33 -246 -147 -364q-114 -117 -368 -117t-360 129q-104 129 -76 352l90 676
q33 245 147 363q115 118 369 118z" />
    <glyph glyph-name="one" unicode="1" horiz-adv-x="1228" 
d="M1016 0h-963l10 82h441l184 1399l-455 -283l-34 70l546 340h41l-200 -1526h440z" />
    <glyph glyph-name="two" unicode="2" horiz-adv-x="1228" 
d="M707 1540h-13q-205 0 -311 -112t-139 -363h-82l6 47q33 248 159 377t364 129q239 0 367 -116t103 -312q-18 -148 -64 -224q-46 -77 -175 -198l-744 -688l156 2h682l-10 -82h-983l6 51l815 754q125 117 171 188t60 189q20 160 -84 259t-284 99z" />
    <glyph glyph-name="three" unicode="3" horiz-adv-x="1228" 
d="M530 57h13q168 0 293 91t147 269t-70 268q-92 91 -264 91h-239l10 78h229q174 0 289 80t136 248t-82 263t-285 95h-13q-205 0 -311 -112t-139 -363h-82l6 47q33 248 159 377t364 129t366 -114t102 -328q-18 -142 -110 -238t-226 -125q131 -33 198 -132t44 -283
q-23 -185 -173 -302t-349 -116q-266 0 -382 137t-83 395h82q-29 -227 67 -341t303 -114z" />
    <glyph glyph-name="four" unicode="4" horiz-adv-x="1228" 
d="M870 1450l-712 -920l200 2h390l88 676zM760 0h-82l59 451h-708l8 51l850 1095h82l-140 -1065h297l-12 -81h-295z" />
    <glyph glyph-name="five" unicode="5" horiz-adv-x="1228" 
d="M530 57h13q178 1 301 105q123 105 151 319q27 215 -79 330t-285 115h-21q-301 0 -428 -238l-65 19l155 890h932l-10 -81h-854l-117 -668q53 70 161 113t237 43q223 0 356 -135t103 -386q-30 -250 -178 -377t-359 -126q-266 0 -382 137t-83 395h82q-29 -227 67 -341
t303 -114z" />
    <glyph glyph-name="six" unicode="6" horiz-adv-x="1228" 
d="M647 922h-12q-276 0 -440 -260q-14 -59 -21 -130q-20 -246 82 -358t289 -113h12q190 1 305 107t139 307q36 206 -67 327q-103 120 -287 120zM1167 1618l-12 -82q-156 0 -341 -73t-341 -235t-244 -417q61 82 177 137t235 56q227 0 353 -132t96 -378l-3 -17
q-31 -248 -175 -373q-144 -124 -370 -124t-355 149q-128 149 -93 434q53 438 324 725q160 168 362 249t387 81z" />
    <glyph glyph-name="seven" unicode="7" horiz-adv-x="1228" 
d="M166 1024l76 573h983l-6 -51l-832 -1546h-92l817 1518l-242 -2h-557l-65 -492h-82z" />
    <glyph glyph-name="eight" unicode="8" horiz-adv-x="1228" 
d="M707 1540h-13q-180 0 -294 -90t-135 -259t73 -253t262 -84h49q170 0 287 80t138 248t-82 263t-285 95zM635 776h-41q-178 0 -298 -93t-142 -271q-23 -178 85 -266t289 -89h21q168 0 290 91t144 268t-76 268q-98 92 -272 92zM523 -20q-216 0 -348 114q-132 113 -105 328
q39 313 348 395q-115 20 -187 119t-51 260q25 202 160 312t362 110q228 0 356 -115t103 -311q-20 -159 -112 -254q-92 -96 -226 -125q133 -35 199 -133t43 -283q-23 -186 -174 -302q-152 -115 -368 -115z" />
    <glyph glyph-name="nine" unicode="9" horiz-adv-x="1228" 
d="M588 676h12q276 0 440 260q14 59 21 129q20 247 -82 359t-289 112h-12q-190 0 -305 -106t-141 -314t73 -324t283 -116zM594 594q-227 0 -353 131t-95 387q32 256 176 381t372 125q226 0 355 -150t94 -417q-53 -453 -326 -742q-161 -169 -363 -249t-386 -80l12 81
q156 0 341 73q185 74 341 236t244 416q-60 -82 -176 -137t-236 -55z" />
    <glyph glyph-name="colon" unicode=":" horiz-adv-x="409" 
d="M279 860l-17 -123h-123l17 123h123zM180 123l-14 -123h-123l14 123h123z" />
    <glyph glyph-name="semicolon" unicode=";" horiz-adv-x="409" 
d="M279 860l-17 -123h-123l17 123h123zM180 123l-12 -98q-33 -250 -217 -250l8 61q61 0 95 36t50 128h-61l14 123h123z" />
    <glyph glyph-name="less" unicode="&#x3c;" horiz-adv-x="1228" 
d="M109 840l1091 503l-12 -90l-1002 -458l881 -459l-10 -82l-959 504z" />
    <glyph glyph-name="equal" unicode="=" horiz-adv-x="1228" 
d="M72 553l10 82h1024l-10 -82h-1024zM125 963l12 81h1024l-12 -81h-1024z" />
    <glyph glyph-name="greater" unicode="&#x3e;" horiz-adv-x="1228" 
d="M1122 758l-1091 -504l12 90l1001 459l-880 459l10 81l959 -503z" />
    <glyph glyph-name="question" unicode="?" horiz-adv-x="901" 
d="M426 123l-14 -123h-123l14 123h123zM547 1540q-176 0 -258 -130t-117 -386h-82l4 27q23 141 51 236q69 227 209 293q80 38 193 38q176 0 263 -86t87 -234q0 -262 -147 -425q-63 -69 -129 -135q-166 -165 -199 -380h-49q18 222 173 394q62 70 122 140q142 164 143 378
q0 137 -62 204q-63 66 -202 66z" />
    <glyph glyph-name="at" unicode="@" horiz-adv-x="1945" 
d="M977 1028q-166 0 -262 -110t-125 -293l-6 -41q-27 -178 44 -291t236 -113q190 0 332 189l61 471q-37 76 -106 132q-70 56 -174 56zM870 -352h13q401 0 698 213l39 -66q-297 -225 -741 -225t-669 262q-224 262 -167 721l10 82q57 457 342 720t711 263q366 0 589 -207
q111 -100 159 -261t22 -362l-8 -61q-51 -360 -218 -486q-86 -65 -182 -91t-223 -27h-51v156q-129 -177 -342 -177t-299 142t-55 340l6 41q31 205 146 343q116 138 332 138t298 -178l41 157h61l-49 -307l-78 -579q111 2 187 20q76 17 150 71q144 105 190 437l8 61
q25 188 -18 336q-42 148 -140 236q-196 180 -514 180h-12q-385 0 -652 -244t-319 -661l-10 -82q-53 -428 151 -667q205 -238 594 -238z" />
    <glyph glyph-name="A" unicode="A" horiz-adv-x="1228" 
d="M719 1536l-440 -1026h608zM666 1618h122l271 -1618h-86l-74 432h-653l-183 -432h-94z" />
    <glyph glyph-name="B" unicode="B" horiz-adv-x="1167" 
d="M655 1520h-311l-86 -660h315q158 0 267 70t129 225l6 49q20 160 -67 238t-253 78zM610 782h-362l-92 -704h331q385 0 422 305l6 49q20 168 -67 259q-88 91 -238 91zM655 1597q211 0 321 -100t85 -293l-6 -49q-17 -137 -107 -226t-211 -108q131 -18 208 -126t56 -263
l-6 -49q-25 -197 -161 -290t-353 -93h-418l209 1597h383z" />
    <glyph glyph-name="C" unicode="C" horiz-adv-x="1243" 
d="M559 57h12q197 0 302 114t137 341h86q-29 -258 -163 -395t-368 -137q-270 0 -380 187t-56 607l6 49q51 414 202 604q151 191 408 191t362 -144t62 -411l-6 -39h-86q37 276 -38 396t-281 120h-13q-221 0 -349 -171t-175 -546l-6 -49q-49 -381 36 -549t308 -168z" />
    <glyph glyph-name="D" unicode="D" horiz-adv-x="1290" 
d="M453 78q253 0 415 168t207 528l6 49q88 696 -432 697h-305l-188 -1442h297zM453 0h-390l209 1597h383q285 -1 423 -189t89 -585l-6 -49q-49 -398 -236 -586t-472 -188z" />
    <glyph glyph-name="E" unicode="E" horiz-adv-x="1105" 
d="M272 1597h861l-11 -77h-778l-88 -666h676l-10 -78h-676l-90 -698h778l-10 -78h-861z" />
    <glyph glyph-name="F" unicode="F" horiz-adv-x="1024" 
d="M272 1597h820l-11 -77h-737l-88 -666h635l-10 -78h-635l-101 -776h-82z" />
    <glyph glyph-name="G" unicode="G" horiz-adv-x="1306" 
d="M600 -20q-290 0 -407 189t-66 605l6 49q51 412 206 603q155 192 413 192t368 -145t68 -410l-6 -39h-86q37 274 -43 395t-287 121h-12q-224 0 -356 -172t-179 -545l-6 -49q-47 -377 46 -547t319 -170h12q133 0 239 42t166 104l62 479h-297l10 78h379l-78 -598
q-181 -182 -471 -182z" />
    <glyph glyph-name="H" unicode="H" horiz-adv-x="1290" 
d="M1153 1597h82l-209 -1597h-82l100 776h-798l-101 -776h-82l209 1597h82l-98 -743h799z" />
    <glyph glyph-name="I" unicode="I" horiz-adv-x="430" 
d="M365 1597l-209 -1597h-82l209 1597h82z" />
    <glyph glyph-name="J" unicode="J" horiz-adv-x="983" 
d="M348 -20q-397 0 -321 518l2 14h77q-34 -240 24 -348t219 -107q161 0 247 108t117 347l143 1085h82l-145 -1105q-33 -252 -137 -382t-308 -130z" />
    <glyph glyph-name="K" unicode="K" horiz-adv-x="1105" 
d="M354 1597l-125 -952l801 952h103l-578 -686l369 -911h-90l-336 844l-287 -340l-66 -504h-82l209 1597h82z" />
    <glyph glyph-name="L" unicode="L" horiz-adv-x="983" 
d="M852 0h-789l209 1597h82l-198 -1519h706z" />
    <glyph glyph-name="M" unicode="M" horiz-adv-x="1597" 
d="M1448 1454l-719 -1454h-61l-338 1454l-43 -369l-142 -1085h-82l209 1597h105l336 -1458l721 1458h108l-209 -1597h-82l142 1085z" />
    <glyph glyph-name="N" unicode="N" horiz-adv-x="1331" 
d="M1276 1597l-209 -1597h-90l-647 1475l-45 -390l-142 -1085h-80l209 1597h90l646 -1474l45 389l143 1085h80z" />
    <glyph glyph-name="O" unicode="O" horiz-adv-x="1310" 
d="M758 1540h-13q-221 0 -349 -171t-175 -546l-6 -49q-49 -381 36 -549t308 -168h12q221 0 350 171q128 171 175 546l6 49q49 381 -36 549t-308 168zM562 -20q-267 0 -377 187t-56 607l6 49q51 414 202 604q151 191 418 191t377 -187q109 -188 56 -608l-6 -49
q-51 -414 -202 -604t-418 -190z" />
    <glyph glyph-name="P" unicode="P" horiz-adv-x="1146" 
d="M586 754q134 0 249 60q65 34 109 108t57 178l7 49q14 111 -14 187t-84 115q-99 67 -240 69h-326l-100 -766h342zM676 1597q194 0 320 -105t98 -343l-7 -49q-18 -156 -102 -255t-185 -134t-225 -35h-342l-88 -676h-82l209 1597h404z" />
    <glyph glyph-name="Q" unicode="Q" horiz-adv-x="1310" 
d="M758 1540h-13q-221 0 -349 -171t-175 -546l-6 -49q-49 -381 36 -549t308 -168h12q51 0 95 9l-93 370h82l88 -348q279 111 353 686l6 49q49 381 -36 549t-308 168zM565 -20q-270 0 -380 187t-56 607l6 49q51 414 202 604q151 191 418 191t377 -187q109 -188 56 -608
l-6 -49q-80 -645 -420 -764l55 -215h-86l-47 195q-45 -10 -119 -10z" />
    <glyph glyph-name="R" unicode="R" horiz-adv-x="1167" 
d="M586 754q134 0 249 60q65 34 109 108t57 178l7 49q14 111 -14 187t-84 115q-99 67 -240 69h-326l-100 -766h342zM676 1597q194 0 320 -105t98 -343l-7 -49q-41 -324 -335 -402l192 -698h-90l-182 682q-49 -6 -97 -6h-342l-88 -676h-82l209 1597h404z" />
    <glyph glyph-name="S" unicode="S" horiz-adv-x="1208" 
d="M686 1618q258 0 370 -136t74 -378l-6 -39h-82q70 475 -346 475h-20q-168 0 -279 -77t-129 -218l-4 -33q-18 -145 66 -227t320 -128t335 -150q98 -104 76 -279l-4 -33q-27 -203 -171 -309t-382 -106t-358 131t-83 362l7 39h82q-45 -231 56 -343t294 -112h20q186 0 307 84
t142 248l4 33q20 160 -72 243t-313 126q-455 88 -412 415l4 33q23 191 160 285t344 94z" />
    <glyph glyph-name="T" unicode="T" horiz-adv-x="1024" 
d="M651 1520l-198 -1520h-82l198 1520h-419l10 77h921l-10 -77h-420z" />
    <glyph glyph-name="U" unicode="U" horiz-adv-x="1290" 
d="M556 -20q-244 0 -360 116t-79 396l145 1105h82l-143 -1095q-33 -248 57 -346t300 -98t320 98t142 346l143 1095h82l-145 -1105q-37 -280 -168 -396t-376 -116z" />
    <glyph glyph-name="V" unicode="V" horiz-adv-x="1228" 
d="M571 -20h-122l-271 1617h86l254 -1536l656 1536h94z" />
    <glyph glyph-name="W" unicode="W" horiz-adv-x="1802" 
d="M1165 -20l-166 1536l-571 -1536h-123l-96 1617h86l82 -1531l569 1531h123l168 -1531l483 1531h90l-522 -1617h-123z" />
    <glyph glyph-name="X" unicode="X" horiz-adv-x="1228" 
d="M-29 0l600 807l-391 790h92l351 -723l538 723h105l-600 -794l391 -803h-92l-351 727l-538 -727h-105z" />
    <glyph glyph-name="Y" unicode="Y" horiz-adv-x="1146" 
d="M575 481l-61 -481h-82l62 481l-334 1116h84l301 -1013l567 1013h92z" />
    <glyph glyph-name="Z" unicode="Z" horiz-adv-x="1126" 
d="M-12 57l1036 1467l-248 -4h-575l10 77h922l-7 -57l-1036 -1466l248 4h616l-10 -78h-962z" />
    <glyph glyph-name="bracketleft" unicode="[" 
d="M268 1720h379l-10 -82h-297l-238 -1802h297l-10 -82h-379z" />
    <glyph glyph-name="backslash" unicode="\" 
d="M369 -246l-213 1966h82l213 -1966h-82z" />
    <glyph glyph-name="bracketright" unicode="]" 
d="M338 -246h-379l10 82h297l238 1802h-297l10 82h379z" />
    <glyph glyph-name="asciicircum" unicode="^" horiz-adv-x="1228" 
d="M764 1597l369 -1024h-82l-334 940l-584 -940h-90l639 1024h82z" />
    <glyph glyph-name="underscore" unicode="_" horiz-adv-x="655" 
d="M-31 -242l11 78h450l-10 -78h-451z" />
    <glyph glyph-name="grave" unicode="`" horiz-adv-x="1024" 
d="M393 1597h86l142 -327h-86z" />
    <glyph glyph-name="a" unicode="a" horiz-adv-x="1024" 
d="M328 57q266 0 405 207l43 328l-360 -57q-133 -21 -205 -73t-84 -155l-4 -33q-13 -86 43 -152t162 -65zM328 -20q-139 0 -224 79q-84 80 -67 209l4 33q20 164 141 234q92 52 244 75l360 58l7 49q20 167 -35 239t-218 72t-233 -81t-88 -220h-82l4 29q20 133 99 232
q94 118 303 118t283 -102t46 -297l-53 -400l-28 -307h-62l2 164q-160 -184 -403 -184z" />
    <glyph glyph-name="b" unicode="b" horiz-adv-x="1075" 
d="M548 1028q-182 0 -312 -176l-78 -594q36 -82 108 -141t180 -60q170 0 272 121q101 121 128 338l4 33q29 225 -45 352q-75 127 -257 127zM561 1106q221 0 313 -154t62 -397l-4 -33q-31 -252 -152 -397t-334 -145q-116 0 -200 58t-113 128l-39 -166h-61l49 307l176 1331h82
l-88 -675q49 63 131 103t178 40z" />
    <glyph glyph-name="c" unicode="c" horiz-adv-x="1064" 
d="M469 57q170 0 250 87t98 225h82l-4 -29q-20 -132 -103 -237q-46 -56 -126 -90t-187 -33q-227 0 -328 154t-71 396l4 33q31 251 152 397t333 146q117 0 200 -38q140 -64 172 -218q13 -61 5 -123l-4 -31h-80q20 145 -54 239q-75 93 -242 93t-268 -121t-128 -338l-4 -32
q-29 -221 52 -351t251 -129z" />
    <glyph glyph-name="d" unicode="d" horiz-adv-x="1075" 
d="M569 1028q-170 0 -271 -121t-128 -338l-4 -32q-29 -225 45 -353q73 -128 255 -127q182 0 314 176l78 594q-35 82 -107 142q-73 59 -182 59zM455 -20q-221 0 -314 153q-92 154 -61 397l4 33q31 251 152 397t333 146q113 0 191 -52t112 -114l93 698h82l-177 -1331l-28 -307
h-62l-2 141q-49 -73 -136 -117t-187 -44z" />
    <glyph glyph-name="e" unicode="e" horiz-adv-x="1105" 
d="M593 1028q-173 0 -285 -124t-136 -322h713q31 210 -44 328t-248 118zM486 57q184 0 269 85t101 206h82q-23 -160 -134 -264q-112 -104 -304 -104q-252 0 -352 152q-99 153 -68 398l4 33q31 248 161 395q130 148 351 148t311 -150t60 -387l-9 -65h-794q-25 -209 56 -328
q82 -119 266 -119z" />
    <glyph glyph-name="f" unicode="f" horiz-adv-x="757" 
d="M651 1659q86 0 140 -23l-11 -73q-42 18 -140 18t-158 -47t-76 -168l-37 -281h327l-10 -77h-328l-131 -1008h-82l131 1008h-174l11 77h174l41 306q37 268 323 268z" />
    <glyph glyph-name="g" unicode="g" horiz-adv-x="1075" 
d="M569 1028q-342 0 -393 -418l-4 -32q-27 -209 46 -324q74 -115 258 -115t315 176l67 512q-35 82 -107 142q-73 59 -182 59zM465 61q-225 -1 -317 143t-62 367l4 33q29 234 148 368t331 134q115 0 200 -58t114 -128l39 165h61l-49 -307l-107 -798q-51 -410 -434 -410
q-213 0 -301 110t-63 289l4 31h76q-49 -352 284 -352q179 0 257 84t98 258l26 215q-49 -63 -131 -103t-178 -41z" />
    <glyph glyph-name="h" unicode="h" horiz-adv-x="1044" 
d="M594 1106q172 0 255 -90t62 -248l-100 -768h-82l98 758q35 270 -243 270q-215 0 -351 -188l-108 -840h-82l215 1638h82l-92 -696q51 70 143 117t203 47z" />
    <glyph glyph-name="i" unicode="i" horiz-adv-x="409" 
d="M362 1505l-16 -123h-123l17 123h122zM63 0l142 1085h82l-142 -1085h-82z" />
    <glyph glyph-name="j" unicode="j" horiz-adv-x="409" 
d="M-199 -430q-86 0 -139 22l10 74q42 -18 140 -18t158 47t75 168l160 1222h82l-164 -1247q-37 -268 -322 -268zM362 1505l-16 -123h-123l17 123h122z" />
    <glyph glyph-name="k" unicode="k" horiz-adv-x="983" 
d="M43 0l215 1638h82l-158 -1192l670 639h111l-433 -409l291 -676h-88l-264 618l-301 -286l-43 -332h-82z" />
    <glyph glyph-name="l" unicode="l" horiz-adv-x="409" 
d="M63 0l216 1638h81l-215 -1638h-82z" />
    <glyph glyph-name="m" unicode="m" horiz-adv-x="1607" 
d="M1184 1028q-100 0 -186 -57t-140 -131l-108 -840h-82l102 788q34 240 -202 240q-108 0 -195 -57q-86 -57 -140 -131l-108 -840h-82l102 778l29 307h62l-3 -159q53 76 143 128t193 52q240 0 281 -182q137 182 344 182q143 0 223 -80t62 -227l-105 -799h-82l103 788
q33 240 -211 240z" />
    <glyph glyph-name="n" unicode="n" horiz-adv-x="1044" 
d="M584 1028q-215 0 -351 -188l-108 -840h-82l102 778l29 307h62l-3 -159q57 82 153 131t208 49q172 0 255 -90t62 -248l-100 -768h-82l98 758q35 270 -243 270z" />
    <glyph glyph-name="o" unicode="o" horiz-adv-x="1105" 
d="M463 -20q-221 0 -318 153q-96 154 -65 397l4 33q31 250 156 396q125 147 346 147t317 -154t66 -397l-4 -33q-31 -250 -156 -396t-346 -146zM466 57q175 0 280 122t133 337l4 33q29 223 -48 351t-252 128t-281 -122t-132 -337l-4 -32q-29 -223 48 -351t252 -129z" />
    <glyph glyph-name="p" unicode="p" horiz-adv-x="1075" 
d="M446 57q170 0 272 121q101 121 128 338l4 33q29 225 -45 352q-73 127 -255 127t-314 -176l-78 -594q35 -82 107 -142t181 -59zM561 1106q221 0 313 -154t62 -397l-4 -33q-31 -252 -152 -397t-334 -145q-112 0 -190 52t-113 113l-73 -555h-82l157 1188l29 307h62l2 -141
q49 74 136 118t187 44z" />
    <glyph glyph-name="q" unicode="q" horiz-adv-x="1075" 
d="M569 1028q-170 0 -271 -121t-128 -338l-4 -32q-29 -225 45 -353t256 -127q182 0 313 176l78 594q-35 82 -107 142q-73 59 -182 59zM569 1106q115 0 200 -58t114 -128l39 165h61l-49 -307l-158 -1188h-82l70 533q-49 -63 -131 -103t-178 -40q-221 0 -314 153
q-92 154 -61 397l4 33q31 251 152 397t333 146z" />
    <glyph glyph-name="r" unicode="r" horiz-adv-x="645" 
d="M567 1028q-209 0 -334 -188l-108 -840h-82l102 778l29 307h62v-149q114 170 331 170l29 -2l-8 -76h-21z" />
    <glyph glyph-name="s" unicode="s" horiz-adv-x="1064" 
d="M451 57q295 0 327 219q18 119 -47 169q-67 50 -255 79t-264 104t-61 201q16 126 122 202q105 75 300 75t284 -98t58 -271h-79q20 143 -43 217t-240 74q-289 0 -315 -205q-12 -100 52 -154t251 -79q186 -24 264 -98t61 -213t-129 -220q-111 -80 -286 -79q-221 0 -307 93
q-85 93 -66 255h80q-18 -127 48 -199t245 -72z" />
    <glyph glyph-name="t" unicode="t" horiz-adv-x="798" 
d="M434 -20q-135 0 -204 74t-50 222l96 732h-174l11 77h174l41 308h82l-41 -308h368l-10 -77h-369l-94 -721q-31 -229 170 -230q88 0 150 19l-9 -76q-55 -20 -141 -20z" />
    <glyph glyph-name="u" unicode="u" horiz-adv-x="1044" 
d="M391 -20q-172 0 -255 90t-62 247l100 768h82l-98 -757q-35 -270 243 -271q215 0 351 189l108 839h82l-102 -778l-29 -307h-61l2 160q-56 -82 -152 -131t-209 -49z" />
    <glyph glyph-name="v" unicode="v" horiz-adv-x="1024" 
d="M362 0l-260 1085h91l227 -993l489 993h95l-543 -1085h-99z" />
    <glyph glyph-name="w" unicode="w" horiz-adv-x="1433" 
d="M745 985l-409 -985h-115l-108 1085h82l94 -1003l416 1003h102l154 -1003l356 1003h86l-391 -1085h-115z" />
    <glyph glyph-name="x" unicode="x" horiz-adv-x="942" 
d="M92 1085h96l258 -471l381 471h105l-440 -544l299 -541h-101l-256 463l-375 -463h-108l438 545z" />
    <glyph glyph-name="y" unicode="y" horiz-adv-x="946" 
d="M406 133l471 952h88l-529 -1048l-219 -447h-90l227 451l-254 1044h84z" />
    <glyph glyph-name="z" unicode="z" horiz-adv-x="913" 
d="M-16 57l761 953l-247 -2h-369l10 77h717l-6 -57l-762 -952l248 2h409l-10 -78h-758z" />
    <glyph glyph-name="braceleft" unicode="{" 
d="M358 -246q-106 0 -174 58t-49 198l66 502q16 112 -22 148t-138 36l12 82q100 0 147 36q46 36 60 149l68 501q14 98 64 158t104 80q54 18 120 18h31l-10 -82q-115 0 -166 -45t-70 -180l-61 -475q-18 -150 -135 -201q100 -53 82 -200l-64 -476q-18 -141 19 -183t157 -42
l-10 -82h-31z" />
    <glyph glyph-name="bar" unicode="|" horiz-adv-x="368" 
d="M10 -246l258 1966h82l-258 -1966h-82z" />
    <glyph glyph-name="braceright" unicode="}" 
d="M248 1720q106 0 174 -58t49 -198l-65 -501q-16 -111 22 -148t137 -37l-12 -82q-100 0 -146 -36t-61 -148l-67 -502q-15 -98 -65 -158t-104 -78t-120 -20h-31l10 82q115 0 166 45t70 180l61 476q18 150 135 200q-100 53 -82 201l64 475q18 141 -18 183q-37 42 -158 42
l10 82h31z" />
    <glyph glyph-name="asciitilde" unicode="~" horiz-adv-x="1228" 
d="M369 901q115 0 262 -75q147 -74 249 -74t218 120l55 -57q-135 -141 -289 -141q-115 0 -262 75t-251 75t-214 -122l-57 58q135 141 289 141z" />
    <glyph glyph-name="nbspace" unicode="&#xa0;" horiz-adv-x="409" 
 />
    <glyph glyph-name="exclamdown" unicode="&#xa1;" horiz-adv-x="409" 
d="M307 1085l-14 -122h-123l14 122h123zM96 -410h-94l172 1137h49z" />
    <glyph glyph-name="cent" unicode="&#xa2;" horiz-adv-x="1228" 
d="M729 1405h-12q-199 1 -321 -147t-160 -439l-5 -33q-51 -418 134 -536l428 1151q-37 4 -64 4zM573 197h9q344 0 393 372h84l-4 -28q-29 -191 -150 -309t-327 -117q-111 0 -175 20l-94 -258h-82l105 287q-248 135 -187 616l5 33q41 322 190 498q150 176 383 176q61 0 98 -6
l88 239h82l-94 -256q135 -44 189 -162t32 -286l-4 -31h-84q43 334 -162 401l-436 -1171q61 -18 141 -18z" />
    <glyph glyph-name="sterling" unicode="&#xa3;" horiz-adv-x="1228" 
d="M461 214q0 -34 -6 -132h561l-10 -82h-983l10 82h346q21 131 -40 513q-17 112 -24 163h-194l10 82h174q-8 98 -8 190q0 588 461 588q244 0 340 -154t57 -401l-6 -39h-82q39 240 -39 378t-270 138q-371 0 -371 -510q0 -88 12 -190h428l-10 -82h-407q2 -10 9 -62l9 -68
q25 -184 27 -242t4 -98t2 -74z" />
    <glyph glyph-name="yen" unicode="&#xa5;" horiz-adv-x="1228" 
d="M109 901l12 82h250l-221 614h88l352 -985l610 985h96l-383 -614h252l-12 -82h-291l-205 -328h453l-10 -81h-482l-63 -492h-82l64 492h-482l11 81h450l-117 328h-290z" />
    <glyph glyph-name="brokenbar" unicode="&#xa6;" horiz-adv-x="368" 
d="M10 -246l119 901h82l-119 -901h-82zM150 819l118 901h82l-119 -901h-81z" />
    <glyph glyph-name="section" unicode="&#xa7;" horiz-adv-x="1024" 
d="M635 1618q199 0 283 -91t69 -255l-2 -23h-82q37 291 -275 291q-162 0 -244 -68q-83 -68 -83 -176q0 -110 60 -147t248 -51q360 -27 327 -295l-2 -17q-25 -197 -250 -260q156 -49 131 -245q-17 -143 -118 -223q-101 -78 -299 -78t-283 91q-84 91 -70 255l2 22h82
q-37 -291 275 -291q162 0 244 68t83 177q0 109 -60 147q-61 37 -249 51q-359 27 -326 295l2 16q25 197 250 260q-156 49 -131 246q38 301 418 301zM483 571h27q164 0 254 74t90 197q0 184 -305 184h-27q-164 0 -254 -74t-90 -196q0 -185 305 -185z" />
    <glyph glyph-name="dieresis" unicode="&#xa8;" horiz-adv-x="1024" 
d="M823 1505l-16 -123h-123l16 123h123zM516 1505l-16 -123h-123l16 123h123z" />
    <glyph glyph-name="copyright" unicode="&#xa9;" horiz-adv-x="1884" 
d="M205 799q0 -305 216 -521t521 -216t521 216t216 521t-216 521t-521 216t-521 -216t-216 -521zM123 799q-1 339 239 579t580 240t580 -240t240 -580t-240 -579t-580 -239t-580 239q-239 240 -239 580zM608 778q0 -162 83 -280t247 -119q164 0 232 76t69 170h82v-21
q0 -98 -78 -191q-41 -50 -119 -83t-186 -33t-192 45q-148 78 -201 271q-23 81 -23 165v41q0 173 92 319q47 74 132 118q84 44 192 44t187 -34q128 -56 178 -190q18 -50 18 -93v-31h-82q0 109 -70 188q-71 79 -233 79t-245 -119t-83 -281v-41z" />
    <glyph glyph-name="ordfeminine" unicode="&#xaa;" horiz-adv-x="772" 
d="M61 457l9 71h583l-8 -71h-584zM338 848q184 0 291 141l30 240l-258 -41q-188 -31 -204 -168q-10 -79 26 -126q37 -46 115 -46zM338 778q-115 0 -175 63t-45 183t99 167t193 62l258 39l4 29q16 117 -22 172t-158 55q-201 0 -226 -213h-76l3 15q39 268 303 268
q164 0 218 -78t36 -219l-39 -299l-21 -227h-59l-2 116q-117 -133 -291 -133z" />
    <glyph glyph-name="guillemotleft" unicode="&#xab;" horiz-adv-x="1024" 
d="M958 1044l-12 -98l-368 -256l301 -256l-13 -86l-368 318l8 61zM549 1044l-12 -98l-369 -256l301 -256l-12 -86l-369 318l8 61z" />
    <glyph glyph-name="logicalnot" unicode="&#xac;" horiz-adv-x="1228" 
d="M137 1044l10 82h1024l-90 -675h-82l80 593h-942z" />
    <glyph glyph-name="uni00AD" unicode="&#xad;" horiz-adv-x="655" 
d="M70 678l10 78h491l-10 -78h-491z" />
    <glyph glyph-name="registered" unicode="&#xae;" horiz-adv-x="675" 
d="M403 1434q0 51 -63 51h-68v-111h68q63 0 63 51v9zM461 1421q0 -72 -64 -94l64 -141h-60l-57 135h-72v-135h-57v352h135q49 0 80 -27t31 -73v-17zM90 1362q0 -102 73 -175t175 -73t175 73t73 175t-73 175t-175 73t-175 -73t-73 -175zM41 1362q0 123 87 210t210 87t210 -87
t87 -210t-87 -210t-210 -87t-210 87t-87 210z" />
    <glyph glyph-name="macron" unicode="&#xaf;" horiz-adv-x="1024" 
d="M379 1393l10 82h430l-10 -82h-430z" />
    <glyph glyph-name="degree" unicode="&#xb0;" horiz-adv-x="819" 
d="M512 1618q141 0 218 -79t57 -230t-108 -229q-89 -76 -230 -76t-219 78q-77 79 -57 231q21 152 109 228q90 77 230 77zM446 1081h13q100 0 168 57t82 168q14 110 -38 172t-157 62h-12q-100 0 -168 -56t-82 -168q-14 -111 38 -173t156 -62z" />
    <glyph glyph-name="plusminus" unicode="&#xb1;" horiz-adv-x="1228" 
d="M45 348l10 82h1024l-10 -82h-1024zM643 1311h82l-41 -307h471l-10 -82h-471l-41 -308h-82l41 308h-471l10 82h471z" />
    <glyph glyph-name="twosuperior" unicode="&#xb2;" 
d="M412 1542h-9q-88 0 -137 -50t-63 -161h-72l4 31q31 246 273 246q257 0 229 -236q-6 -59 -34 -99t-87 -95l-336 -314h389l-8 -65h-500l7 45l391 366q96 88 104 162q20 170 -151 170z" />
    <glyph glyph-name="threesuperior" unicode="&#xb3;" 
d="M319 852h13q168 0 184 143q11 92 -30 135q-40 43 -111 44h-117l8 65h113q169 0 185 145q9 78 -32 118t-120 40h-9q-88 0 -137 -50t-63 -161h-72l4 31q31 246 273 246q257 0 228 -243q-15 -124 -149 -159q55 -16 84 -69t18 -146q-11 -92 -82 -148q-71 -57 -191 -57
t-183 67t-47 185l2 17h74q-14 -100 28 -152q43 -51 129 -51z" />
    <glyph glyph-name="acute" unicode="&#xb4;" horiz-adv-x="1024" 
d="M762 1597h86l-227 -327h-86z" />
    <glyph glyph-name="paragraph" unicode="&#xb6;" horiz-adv-x="1024" 
d="M547 676q-193 0 -320 105t-98 343l6 50q19 156 103 254t185 134t224 35h342l-209 -1597h-82l199 1520h-143l-199 -1520h-82l88 676h-14zM553 754h18l101 766h-35q-132 0 -249 -61q-66 -33 -110 -107t-57 -178l-6 -50q-37 -292 212 -355q58 -15 126 -15z" />
    <glyph glyph-name="periodcentered" unicode="&#xb7;" horiz-adv-x="409" 
d="M268 778l-16 -123h-123l16 123h123z" />
    <glyph glyph-name="cedilla" unicode="&#xb8;" horiz-adv-x="1232" 
d="M362 -362q137 0 138 88q0 76 -121 75l-57 -4l-29 33l86 170h74l-68 -131h10q72 0 123 -32q51 -31 51 -109t-57 -118q-56 -40 -156 -40t-172 55l31 58q61 -45 147 -45z" />
    <glyph glyph-name="onesuperior" unicode="&#xb9;" 
d="M565 799h-489l8 65h209l84 637l-205 -127l-29 58l273 170h47l-96 -738h206z" />
    <glyph glyph-name="ordmasculine" unicode="&#xba;" horiz-adv-x="839" 
d="M61 457l9 71h635l-9 -71h-635zM433 850q126 0 202 90t94 242l4 32q18 154 -34 243t-178 89t-202 -90t-94 -242l-4 -32q-18 -154 34 -243t178 -89zM425 778q-167 0 -236 112t-46 292l4 32q25 188 120 296t262 108t236 -112t46 -292l-4 -32q-25 -188 -120 -296t-262 -108z
" />
    <glyph glyph-name="guillemotright" unicode="&#xbb;" horiz-adv-x="1024" 
d="M127 958l12 86l367 -317l-8 -61l-451 -318l12 98l367 256zM537 958l12 86l366 -317l-8 -61l-450 -318l12 98l367 256z" />
    <glyph glyph-name="onequarter" unicode="&#xbc;" horiz-adv-x="1638" 
d="M1389 674l-306 -398l88 3h164l37 290zM1372 0h-74l27 211h-342l8 49l414 539h72l-68 -520h131l-10 -68h-131zM176 0h-94l1388 1597h95zM565 799h-489l8 65h209l84 637l-205 -127l-29 58l273 170h47l-96 -738h206z" />
    <glyph glyph-name="onehalf" unicode="&#xbd;" horiz-adv-x="1638" 
d="M1331 743h-8q-88 0 -137 -50t-64 -161h-71l4 31q31 246 272 246q127 0 188 -62t41 -174q-6 -59 -34 -99t-86 -95l-336 -313h389l-8 -66h-500l6 45l391 367q96 88 105 161q20 170 -152 170zM176 0h-94l1388 1597h95zM565 799h-489l8 65h209l84 637l-205 -127l-29 58
l273 170h47l-96 -738h206z" />
    <glyph glyph-name="threequarters" unicode="&#xbe;" horiz-adv-x="1638" 
d="M1389 674l-306 -398l88 3h164l37 290zM1372 0h-74l27 211h-342l8 49l414 539h72l-68 -520h131l-10 -68h-131zM176 0h-94l1388 1597h95zM319 852h13q168 0 184 143q11 92 -30 135q-40 43 -111 44h-117l8 65h113q169 0 185 145q9 78 -32 118t-120 40h-9q-88 0 -137 -50
t-63 -161h-72l4 31q31 246 273 246q257 0 228 -243q-15 -124 -149 -159q55 -16 84 -69t18 -146q-11 -92 -82 -148q-71 -57 -191 -57t-183 67t-47 185l2 17h74q-14 -100 28 -152q43 -51 129 -51z" />
    <glyph glyph-name="questiondown" unicode="&#xbf;" horiz-adv-x="901" 
d="M553 1085l-14 -122h-123l14 122h123zM291 -352q170 0 262 119t123 356h82l-4 -27q-42 -268 -148 -397t-298 -129t-274 82q-83 82 -83 220q0 247 146 384q62 56 127 112t121 146t75 213h49q-10 -123 -59 -219q-48 -96 -110 -158l-122 -121q-141 -141 -141 -331
q0 -123 59 -187q60 -63 195 -63z" />
    <glyph glyph-name="Agrave" unicode="&#xc0;" horiz-adv-x="1228" 
d="M719 1536l-440 -1026h608zM666 1618h122l271 -1618h-86l-74 432h-653l-183 -432h-94zM600 1946h86l96 -226h-86z" />
    <glyph glyph-name="Aacute" unicode="&#xc1;" horiz-adv-x="1228" 
d="M719 1536l-440 -1026h608zM666 1618h122l271 -1618h-86l-74 432h-653l-183 -432h-94zM854 1946h86l-158 -226h-86z" />
    <glyph glyph-name="Acircumflex" unicode="&#xc2;" horiz-adv-x="1228" 
d="M719 1536l-440 -1026h608zM666 1618h122l271 -1618h-86l-74 432h-653l-183 -432h-94zM600 1720h-96l235 226h62l174 -226h-88l-123 158z" />
    <glyph glyph-name="Atilde" unicode="&#xc3;" horiz-adv-x="1228" 
d="M719 1536l-440 -1026h608zM666 1618h122l271 -1618h-86l-74 432h-653l-183 -432h-94zM883 1737q-65 0 -143 62t-115 63q-80 0 -95 -105h-73q12 86 58 129q45 43 111 43t143 -62t114 -63q82 1 94 105h74q-11 -84 -57 -128t-111 -44z" />
    <glyph glyph-name="Adieresis" unicode="&#xc4;" horiz-adv-x="1228" 
d="M719 1536l-440 -1026h608zM666 1618h122l271 -1618h-86l-74 432h-653l-183 -432h-94zM977 1894l-16 -122h-123l16 122h123zM670 1894l-17 -122h-123l17 122h123z" />
    <glyph glyph-name="Aring" unicode="&#xc5;" horiz-adv-x="1228" 
d="M629 1774q-1 -54 29 -82t80 -29q50 0 89 37t39 90t-29 82q-30 29 -80 29t-89 -37q-39 -36 -39 -90zM719 1536l-440 -1026h608zM934 1802q0 -70 -39 -124t-104 -72l268 -1606h-86l-74 432h-653l-183 -432h-94l693 1610q-100 41 -100 139q0 97 56 157t138 60t130 -47
t48 -117z" />
    <glyph glyph-name="AE" unicode="&#xc6;" horiz-adv-x="1679" 
d="M801 1520l-498 -990h514zM758 1597h948l-10 -77h-815l12 -666h612l-10 -78h-602l14 -698h600l-10 -78h-672l-8 453h-553l-227 -453h-88z" />
    <glyph glyph-name="Ccedilla" unicode="&#xc7;" horiz-adv-x="1243" 
d="M518 -362q137 0 137 88q0 76 -120 75l-58 -4l-28 33l75 152q-248 12 -347 200t-48 592l6 49q51 414 202 604q151 191 408 191t362 -144t62 -411l-6 -39h-86q37 276 -38 396t-281 120h-13q-221 0 -349 -171t-175 -546l-6 -49q-49 -381 36 -549t308 -168h12q197 0 302 114
t137 341h86q-27 -247 -153 -385q-126 -137 -345 -147l-57 -111h10q72 0 123 -32q51 -31 51 -109t-57 -118q-56 -40 -156 -40t-172 55l31 58q61 -45 147 -45z" />
    <glyph glyph-name="Egrave" unicode="&#xc8;" horiz-adv-x="1105" 
d="M600 1946h86l96 -226h-86zM272 1597h861l-11 -77h-778l-88 -666h676l-10 -78h-676l-90 -698h778l-10 -78h-861z" />
    <glyph glyph-name="Eacute" unicode="&#xc9;" horiz-adv-x="1105" 
d="M854 1946h86l-158 -226h-86zM272 1597h861l-11 -77h-778l-88 -666h676l-10 -78h-676l-90 -698h778l-10 -78h-861z" />
    <glyph glyph-name="Ecircumflex" unicode="&#xca;" horiz-adv-x="1105" 
d="M600 1720h-96l235 226h62l174 -226h-88l-123 158zM272 1597h861l-11 -77h-778l-88 -666h676l-10 -78h-676l-90 -698h778l-10 -78h-861z" />
    <glyph glyph-name="Edieresis" unicode="&#xcb;" horiz-adv-x="1105" 
d="M670 1894l-17 -122h-123l17 122h123zM977 1894l-16 -122h-123l16 122h123zM272 1597h861l-11 -77h-778l-88 -666h676l-10 -78h-676l-90 -698h778l-10 -78h-861z" />
    <glyph glyph-name="Igrave" unicode="&#xcc;" horiz-adv-x="430" 
d="M201 1946h86l96 -226h-86zM365 1597l-209 -1597h-82l209 1597h82z" />
    <glyph glyph-name="Iacute" unicode="&#xcd;" horiz-adv-x="430" 
d="M455 1946h86l-158 -226h-86zM365 1597l-209 -1597h-82l209 1597h82z" />
    <glyph glyph-name="Icircumflex" unicode="&#xce;" horiz-adv-x="430" 
d="M201 1720h-97l236 226h61l174 -226h-88l-122 158zM365 1597l-209 -1597h-82l209 1597h82z" />
    <glyph glyph-name="Idieresis" unicode="&#xcf;" horiz-adv-x="430" 
d="M270 1894l-16 -122h-123l16 122h123zM578 1894l-17 -122h-123l17 122h123zM365 1597l-209 -1597h-82l209 1597h82z" />
    <glyph glyph-name="Eth" unicode="&#xd0;" horiz-adv-x="1413" 
d="M575 78q252 0 415 168t208 528l6 49q88 696 -432 697h-305l-88 -666h471l-10 -78h-471l-90 -698h296zM575 0h-389l101 776h-246l10 78h246l98 743h383q285 -1 423 -189t89 -585l-6 -49q-49 -398 -236 -586t-473 -188z" />
    <glyph glyph-name="Ntilde" unicode="&#xd1;" horiz-adv-x="1331" 
d="M1276 1597l-209 -1597h-90l-647 1475l-45 -390l-142 -1085h-80l209 1597h90l646 -1474l45 389l143 1085h80zM934 1737q-66 0 -143 62q-78 62 -115 63q-80 0 -94 -105h-74q12 86 58 129t112 43t142 -62q77 -62 114 -63q82 1 94 105h74q-10 -84 -56 -128t-112 -44z" />
    <glyph glyph-name="Ograve" unicode="&#xd2;" horiz-adv-x="1310" 
d="M758 1540h-13q-221 0 -349 -171t-175 -546l-6 -49q-49 -381 36 -549t308 -168h12q221 0 350 171q128 171 175 546l6 49q49 381 -36 549t-308 168zM562 -20q-267 0 -377 187t-56 607l6 49q51 414 202 604q151 191 418 191t377 -187q109 -188 56 -608l-6 -49
q-51 -414 -202 -604t-418 -190zM641 1946h86l96 -226h-86z" />
    <glyph glyph-name="Oacute" unicode="&#xd3;" horiz-adv-x="1310" 
d="M758 1540h-13q-221 0 -349 -171t-175 -546l-6 -49q-49 -381 36 -549t308 -168h12q221 0 350 171q128 171 175 546l6 49q49 381 -36 549t-308 168zM562 -20q-267 0 -377 187t-56 607l6 49q51 414 202 604q151 191 418 191t377 -187q109 -188 56 -608l-6 -49
q-51 -414 -202 -604t-418 -190zM895 1946h86l-158 -226h-86z" />
    <glyph glyph-name="Ocircumflex" unicode="&#xd4;" horiz-adv-x="1310" 
d="M641 1720h-96l235 226h62l174 -226h-88l-123 158zM758 1540h-13q-221 0 -349 -171t-175 -546l-6 -49q-49 -381 36 -549t308 -168h12q221 0 350 171q128 171 175 546l6 49q49 381 -36 549t-308 168zM562 -20q-267 0 -377 187t-56 607l6 49q51 414 202 604q151 191 418 191
t377 -187q109 -188 56 -608l-6 -49q-51 -414 -202 -604t-418 -190z" />
    <glyph glyph-name="Otilde" unicode="&#xd5;" horiz-adv-x="1310" 
d="M758 1540h-13q-221 0 -349 -171t-175 -546l-6 -49q-49 -381 36 -549t308 -168h12q221 0 350 171q128 171 175 546l6 49q49 381 -36 549t-308 168zM562 -20q-267 0 -377 187t-56 607l6 49q51 414 202 604q151 191 418 191t377 -187q109 -188 56 -608l-6 -49
q-51 -414 -202 -604t-418 -190zM924 1737q-66 0 -144 62t-114 63q-80 0 -95 -105h-73q12 86 58 129t112 43t142 -62q77 -62 114 -63q82 1 94 105h74q-10 -84 -56 -128t-112 -44z" />
    <glyph glyph-name="Odieresis" unicode="&#xd6;" horiz-adv-x="1310" 
d="M758 1540h-13q-221 0 -349 -171t-175 -546l-6 -49q-49 -381 36 -549t308 -168h12q221 0 350 171q128 171 175 546l6 49q49 381 -36 549t-308 168zM562 -20q-267 0 -377 187t-56 607l6 49q51 414 202 604q151 191 418 191t377 -187q109 -188 56 -608l-6 -49
q-51 -414 -202 -604t-418 -190zM1018 1894l-17 -122h-122l16 122h123zM711 1894l-17 -122h-123l17 122h123z" />
    <glyph glyph-name="multiply" unicode="&#xd7;" horiz-adv-x="1228" 
d="M68 262l-52 60l541 477l-414 477l66 59l416 -477l538 477l54 -59l-541 -477l414 -477l-68 -60l-414 477z" />
    <glyph glyph-name="Oslash" unicode="&#xd8;" horiz-adv-x="1282" 
d="M571 57q221 0 350 171q128 171 175 546l6 49q39 332 -17 498l-819 -1124q86 -139 293 -140h12zM758 1540h-13q-221 0 -349 -171t-175 -546l-6 -49q-43 -326 16 -500l818 1125q-86 141 -291 141zM576 -20q-253 0 -363 145l-90 -125h-92l141 193q-92 193 -43 581l6 49
q51 414 202 604q151 191 403 191t362 -145l92 124h92l-141 -194q90 -195 43 -580l-6 -49q-51 -414 -202 -604t-404 -190z" />
    <glyph glyph-name="Ugrave" unicode="&#xd9;" horiz-adv-x="1290" 
d="M556 -20q-244 0 -360 116t-79 396l145 1105h82l-143 -1095q-33 -248 57 -346t300 -98t320 98t142 346l143 1095h82l-145 -1105q-37 -280 -168 -396t-376 -116zM631 1946h86l96 -226h-86z" />
    <glyph glyph-name="Uacute" unicode="&#xda;" horiz-adv-x="1290" 
d="M556 -20q-244 0 -360 116t-79 396l145 1105h82l-143 -1095q-33 -248 57 -346t300 -98t320 98t142 346l143 1095h82l-145 -1105q-37 -280 -168 -396t-376 -116zM885 1946h86l-158 -226h-86z" />
    <glyph glyph-name="Ucircumflex" unicode="&#xdb;" horiz-adv-x="1290" 
d="M556 -20q-244 0 -360 116t-79 396l145 1105h82l-143 -1095q-33 -248 57 -346t300 -98t320 98t142 346l143 1095h82l-145 -1105q-37 -280 -168 -396t-376 -116zM631 1720h-96l235 226h61l175 -226h-88l-123 158z" />
    <glyph glyph-name="Udieresis" unicode="&#xdc;" horiz-adv-x="1290" 
d="M556 -20q-244 0 -360 116t-79 396l145 1105h82l-143 -1095q-33 -248 57 -346t300 -98t320 98t142 346l143 1095h82l-145 -1105q-37 -280 -168 -396t-376 -116zM700 1894l-16 -122h-123l17 122h122zM1008 1894l-17 -122h-123l17 122h123z" />
    <glyph glyph-name="Yacute" unicode="&#xdd;" horiz-adv-x="1146" 
d="M575 481l-61 -481h-82l62 481l-334 1116h84l301 -1013l567 1013h92zM813 1946h86l-158 -226h-86z" />
    <glyph glyph-name="Thorn" unicode="&#xde;" horiz-adv-x="1146" 
d="M541 416q134 0 249 60q66 34 110 108t56 178l7 49q14 111 -14 187t-84 115q-99 67 -240 69h-326l-100 -766h342zM631 1260q193 0 319 -106t99 -343l-7 -49q-18 -156 -102 -255t-185 -134t-225 -35h-342l-43 -338h-82l209 1597h82l-45 -337h322z" />
    <glyph glyph-name="germandbls" unicode="&#xdf;" horiz-adv-x="1126" 
d="M633 1577q-301 0 -344 -328l-164 -1249h-82l164 1257q55 401 435 401q190 0 281 -106t66 -292q-17 -147 -100 -252q-82 -104 -250 -203l104 -76q143 -104 210 -201t51 -230q-16 -132 -108 -225t-267 -93q-358 0 -318 331l2 17h80q-35 -270 236 -271q254 0 289 250
q14 105 -44 187t-217 194l-133 94l6 58q186 96 270 187q83 91 101 235t-46 229q-65 86 -222 86z" />
    <glyph glyph-name="agrave" unicode="&#xe0;" horiz-adv-x="1024" 
d="M328 57q266 0 405 207l43 328l-360 -57q-133 -21 -205 -73t-84 -155l-4 -33q-13 -86 43 -152t162 -65zM328 -20q-139 0 -224 79q-84 80 -67 209l4 33q20 164 141 234q92 52 244 75l360 58l7 49q20 167 -35 239t-218 72t-233 -81t-88 -220h-82l4 29q20 133 99 232
q94 118 303 118t283 -102t46 -297l-53 -400l-28 -307h-62l2 164q-160 -184 -403 -184zM393 1597h86l142 -327h-86z" />
    <glyph glyph-name="aacute" unicode="&#xe1;" horiz-adv-x="1024" 
d="M328 57q266 0 405 207l43 328l-360 -57q-133 -21 -205 -73t-84 -155l-4 -33q-13 -86 43 -152t162 -65zM328 -20q-139 0 -224 79q-84 80 -67 209l4 33q20 164 141 234q92 52 244 75l360 58l7 49q20 167 -35 239t-218 72t-233 -81t-88 -220h-82l4 29q20 133 99 232
q94 118 303 118t283 -102t46 -297l-53 -400l-28 -307h-62l2 164q-160 -184 -403 -184zM762 1597h86l-227 -327h-86z" />
    <glyph glyph-name="acircumflex" unicode="&#xe2;" horiz-adv-x="1024" 
d="M328 57q266 0 405 207l43 328l-360 -57q-133 -21 -205 -73t-84 -155l-4 -33q-13 -86 43 -152t162 -65zM328 -20q-139 0 -224 79q-84 80 -67 209l4 33q20 164 141 234q92 52 244 75l360 58l7 49q20 167 -35 239t-218 72t-233 -81t-88 -220h-82l4 29q20 133 99 232
q94 118 303 118t283 -102t46 -297l-53 -400l-28 -307h-62l2 164q-160 -184 -403 -184zM377 1270h-96l309 327h61l223 -327h-88l-172 254z" />
    <glyph glyph-name="atilde" unicode="&#xe3;" horiz-adv-x="1024" 
d="M328 57q266 0 405 207l43 328l-360 -57q-133 -21 -205 -73t-84 -155l-4 -33q-13 -86 43 -152t162 -65zM328 -20q-139 0 -224 79q-84 80 -67 209l4 33q20 164 141 234q92 52 244 75l360 58l7 49q20 167 -35 239t-218 72t-233 -81t-88 -220h-82l4 29q20 133 99 232
q94 118 303 118t283 -102t46 -297l-53 -400l-28 -307h-62l2 164q-160 -184 -403 -184zM729 1337q-63 -1 -145 61t-121 62q-74 0 -88 -102h-72q10 86 54 129q43 43 109 43t148 -62t121 -61q76 0 90 102h72q-25 -172 -168 -172z" />
    <glyph glyph-name="adieresis" unicode="&#xe4;" horiz-adv-x="1024" 
d="M328 57q266 0 405 207l43 328l-360 -57q-133 -21 -205 -73t-84 -155l-4 -33q-13 -86 43 -152t162 -65zM328 -20q-139 0 -224 79q-84 80 -67 209l4 33q20 164 141 234q92 52 244 75l360 58l7 49q20 167 -35 239t-218 72t-233 -81t-88 -220h-82l4 29q20 133 99 232
q94 118 303 118t283 -102t46 -297l-53 -400l-28 -307h-62l2 164q-160 -184 -403 -184zM823 1505l-16 -123h-123l16 123h123zM516 1505l-16 -123h-123l16 123h123z" />
    <glyph glyph-name="aring" unicode="&#xe5;" horiz-adv-x="1024" 
d="M471 1426q0 -54 30 -83q29 -29 79 -29t90 38q39 37 39 90t-30 82q-30 28 -80 28t-89 -36t-39 -90zM776 1446q0 -78 -57 -137t-139 -59t-128 46q-48 47 -48 125q0 77 56 137q58 60 139 60t129 -47t48 -125zM328 57q266 0 405 207l43 328l-360 -57q-133 -21 -205 -73
t-84 -155l-4 -33q-13 -86 43 -152t162 -65zM328 -20q-139 0 -224 79q-84 80 -67 209l4 33q20 164 141 234q92 52 244 75l360 58l7 49q20 167 -35 239t-218 72t-233 -81t-88 -220h-82l4 29q20 133 99 232q94 118 303 118t283 -102t46 -297l-53 -400l-28 -307h-62l2 164
q-160 -184 -403 -184z" />
    <glyph glyph-name="ae" unicode="&#xe6;" horiz-adv-x="1792" 
d="M328 57q283 0 440 258q-16 100 0 215l8 62l-360 -57q-133 -21 -205 -73t-84 -155l-4 -33q-13 -86 43 -152t162 -65zM1281 1028q-173 0 -285 -124t-136 -322h713q31 210 -44 328t-248 118zM1174 57q184 0 269 85t101 206h82q-23 -160 -134 -264q-112 -104 -304 -104
q-313 0 -400 245q-176 -246 -460 -245q-139 0 -224 79q-84 80 -67 209l4 33q20 164 141 234q92 52 244 75l360 58l7 49q20 167 -35 239t-218 72t-233 -81t-88 -220h-82l4 29q20 133 99 232q94 118 282 118t264 -69t80 -199q127 268 412 268q227 0 317 -150t60 -387l-8 -65
h-795q-25 -209 56 -328q82 -119 266 -119z" />
    <glyph glyph-name="ccedilla" unicode="&#xe7;" horiz-adv-x="1064" 
d="M422 -362q137 0 137 88q0 76 -121 75l-57 -4l-29 33l76 152q-201 18 -289 170t-59 378l4 33q31 251 152 397t333 146q117 0 200 -38q140 -64 172 -218q13 -61 5 -123l-4 -31h-80q20 145 -54 239q-75 93 -242 93t-268 -121t-128 -338l-4 -32q-29 -221 52 -351t251 -129
q170 0 250 87t98 225h82l-4 -29q-21 -131 -99 -231q-44 -55 -120 -91t-174 -38l-58 -111h11q72 0 123 -32q51 -31 51 -109q1 -78 -57 -118t-157 -40t-171 55l30 58q61 -45 148 -45z" />
    <glyph glyph-name="egrave" unicode="&#xe8;" horiz-adv-x="1105" 
d="M593 1028q-173 0 -285 -124t-136 -322h713q31 210 -44 328t-248 118zM486 57q184 0 269 85t101 206h82q-23 -160 -134 -264q-112 -104 -304 -104q-252 0 -352 152q-99 153 -68 398l4 33q31 248 161 395q130 148 351 148t311 -150t60 -387l-9 -65h-794q-25 -209 56 -328
q82 -119 266 -119zM434 1597h86l142 -327h-87z" />
    <glyph glyph-name="eacute" unicode="&#xe9;" horiz-adv-x="1105" 
d="M593 1028q-173 0 -285 -124t-136 -322h713q31 210 -44 328t-248 118zM486 57q184 0 269 85t101 206h82q-23 -160 -134 -264q-112 -104 -304 -104q-252 0 -352 152q-99 153 -68 398l4 33q31 248 161 395q130 148 351 148t311 -150t60 -387l-9 -65h-794q-25 -209 56 -328
q82 -119 266 -119zM803 1597h86l-227 -327h-87z" />
    <glyph glyph-name="ecircumflex" unicode="&#xea;" horiz-adv-x="1105" 
d="M593 1028q-173 0 -285 -124t-136 -322h713q31 210 -44 328t-248 118zM486 57q184 0 269 85t101 206h82q-23 -160 -134 -264q-112 -104 -304 -104q-252 0 -352 152q-99 153 -68 398l4 33q31 248 161 395q130 148 351 148t311 -150t60 -387l-9 -65h-794q-25 -209 56 -328
q82 -119 266 -119zM418 1270h-96l309 327h61l223 -327h-88l-172 254z" />
    <glyph glyph-name="edieresis" unicode="&#xeb;" horiz-adv-x="1105" 
d="M593 1028q-173 0 -285 -124t-136 -322h713q31 210 -44 328t-248 118zM486 57q184 0 269 85t101 206h82q-23 -160 -134 -264q-112 -104 -304 -104q-252 0 -352 152q-99 153 -68 398l4 33q31 248 161 395q130 148 351 148t311 -150t60 -387l-9 -65h-794q-25 -209 56 -328
q82 -119 266 -119zM864 1505l-16 -123h-123l16 123h123zM557 1505l-16 -123h-123l16 123h123z" />
    <glyph glyph-name="igrave" unicode="&#xec;" horiz-adv-x="409" 
d="M86 1597h86l141 -327h-86zM63 0l142 1085h82l-142 -1085h-82z" />
    <glyph glyph-name="iacute" unicode="&#xed;" horiz-adv-x="409" 
d="M455 1597h86l-228 -327h-86zM63 0l142 1085h82l-142 -1085h-82z" />
    <glyph glyph-name="icircumflex" unicode="&#xee;" horiz-adv-x="409" 
d="M70 1270h-97l310 327h61l223 -327h-88l-172 254zM63 0l142 1085h82l-142 -1085h-82z" />
    <glyph glyph-name="idieresis" unicode="&#xef;" horiz-adv-x="409" 
d="M209 1505l-16 -123h-123l16 123h123zM516 1505l-16 -123h-123l16 123h123zM63 0l142 1085h82l-142 -1085h-82z" />
    <glyph glyph-name="eth" unicode="&#xf0;" horiz-adv-x="1105" 
d="M466 57q175 0 280 122t133 337l4 33q29 223 -48 351t-252 128t-281 -122t-132 -337l-4 -32q-29 -223 48 -351t252 -129zM463 -20q-221 0 -318 153q-96 154 -65 397l4 33q31 250 156 396q125 147 348 147t305 -154q-35 221 -139 355q-51 63 -123 118l-373 -202l12 88
l293 159q-147 88 -344 111l10 78q256 -25 424 -139l256 139l-12 -88l-180 -98q68 -57 110 -113q209 -268 142 -805l-4 -33q-31 -250 -156 -396t-346 -146z" />
    <glyph glyph-name="ntilde" unicode="&#xf1;" horiz-adv-x="1044" 
d="M584 1028q-215 0 -351 -188l-108 -840h-82l102 778l29 307h62l-3 -159q57 82 153 131t208 49q172 0 255 -90t62 -248l-100 -768h-82l98 758q35 270 -243 270zM745 1337q-63 -1 -145 61t-121 62q-74 0 -88 -102h-72q11 86 55 129t109 43t147 -62t122 -61q76 0 90 102h71
q-25 -172 -168 -172z" />
    <glyph glyph-name="ograve" unicode="&#xf2;" horiz-adv-x="1105" 
d="M463 -20q-221 0 -318 153q-96 154 -65 397l4 33q31 250 156 396q125 147 346 147t317 -154t66 -397l-4 -33q-31 -250 -156 -396t-346 -146zM466 57q175 0 280 122t133 337l4 33q29 223 -48 351t-252 128t-281 -122t-132 -337l-4 -32q-29 -223 48 -351t252 -129zM434 1597
h86l142 -327h-87z" />
    <glyph glyph-name="oacute" unicode="&#xf3;" horiz-adv-x="1105" 
d="M463 -20q-221 0 -318 153q-96 154 -65 397l4 33q31 250 156 396q125 147 346 147t317 -154t66 -397l-4 -33q-31 -250 -156 -396t-346 -146zM466 57q175 0 280 122t133 337l4 33q29 223 -48 351t-252 128t-281 -122t-132 -337l-4 -32q-29 -223 48 -351t252 -129zM803 1597
h86l-227 -327h-87z" />
    <glyph glyph-name="ocircumflex" unicode="&#xf4;" horiz-adv-x="1105" 
d="M463 -20q-221 0 -318 153q-96 154 -65 397l4 33q31 250 156 396q125 147 346 147t317 -154t66 -397l-4 -33q-31 -250 -156 -396t-346 -146zM466 57q175 0 280 122t133 337l4 33q29 223 -48 351t-252 128t-281 -122t-132 -337l-4 -32q-29 -223 48 -351t252 -129zM418 1270
h-96l309 327h61l223 -327h-88l-172 254z" />
    <glyph glyph-name="otilde" unicode="&#xf5;" horiz-adv-x="1105" 
d="M463 -20q-221 0 -318 153q-96 154 -65 397l4 33q31 250 156 396q125 147 346 147t317 -154t66 -397l-4 -33q-31 -250 -156 -396t-346 -146zM466 57q175 0 280 122t133 337l4 33q29 223 -48 351t-252 128t-281 -122t-132 -337l-4 -32q-29 -223 48 -351t252 -129zM770 1337
q-63 -1 -145 61t-121 62q-74 0 -88 -102h-72q10 86 54 129t110 43t147 -62q82 -62 121 -61q76 0 90 102h72q-25 -172 -168 -172z" />
    <glyph glyph-name="odieresis" unicode="&#xf6;" horiz-adv-x="1105" 
d="M463 -20q-221 0 -318 153q-96 154 -65 397l4 33q31 250 156 396q125 147 346 147t317 -154t66 -397l-4 -33q-31 -250 -156 -396t-346 -146zM466 57q175 0 280 122t133 337l4 33q29 223 -48 351t-252 128t-281 -122t-132 -337l-4 -32q-29 -223 48 -351t252 -129zM864 1505
l-16 -123h-123l16 123h123zM557 1505l-16 -123h-123l16 123h123z" />
    <glyph glyph-name="divide" unicode="&#xf7;" horiz-adv-x="1228" 
d="M745 1311l-16 -123h-123l17 123h122zM627 410l-17 -123h-123l17 123h123zM98 758l11 82h1024l-11 -82h-1024z" />
    <glyph glyph-name="oslash" unicode="&#xf8;" horiz-adv-x="1105" 
d="M478 57q163 0 268 122t133 337l4 33q25 195 -31 317l-616 -712q79 -97 242 -97zM570 1028q-162 0 -268 -122t-132 -337l-4 -32q-25 -197 31 -318l614 711q-79 98 -241 98zM482 -20q-202 0 -302 110l-78 -90h-94l127 147q-84 147 -55 383l4 33q31 250 156 396
q124 147 324 147t304 -111l78 90h94l-129 -149q86 -143 58 -381l-4 -33q-31 -250 -156 -396t-327 -146z" />
    <glyph glyph-name="ugrave" unicode="&#xf9;" horiz-adv-x="1044" 
d="M391 -20q-172 0 -255 90t-62 247l100 768h82l-98 -757q-35 -270 243 -271q215 0 351 189l108 839h82l-102 -778l-29 -307h-61l2 160q-56 -82 -152 -131t-209 -49zM397 1597h86l142 -327h-86z" />
    <glyph glyph-name="uacute" unicode="&#xfa;" horiz-adv-x="1044" 
d="M391 -20q-172 0 -255 90t-62 247l100 768h82l-98 -757q-35 -270 243 -271q215 0 351 189l108 839h82l-102 -778l-29 -307h-61l2 160q-56 -82 -152 -131t-209 -49zM766 1597h86l-227 -327h-86z" />
    <glyph glyph-name="ucircumflex" unicode="&#xfb;" horiz-adv-x="1044" 
d="M391 -20q-172 0 -255 90t-62 247l100 768h82l-98 -757q-35 -270 243 -271q215 0 351 189l108 839h82l-102 -778l-29 -307h-61l2 160q-56 -82 -152 -131t-209 -49zM381 1270h-96l309 327h61l224 -327h-88l-173 254z" />
    <glyph glyph-name="udieresis" unicode="&#xfc;" horiz-adv-x="1044" 
d="M391 -20q-172 0 -255 90t-62 247l100 768h82l-98 -757q-35 -270 243 -271q215 0 351 189l108 839h82l-102 -778l-29 -307h-61l2 160q-56 -82 -152 -131t-209 -49zM827 1505l-16 -123h-123l17 123h122zM520 1505l-16 -123h-123l16 123h123z" />
    <glyph glyph-name="yacute" unicode="&#xfd;" horiz-adv-x="946" 
d="M406 133l471 952h88l-529 -1048l-219 -447h-90l227 451l-254 1044h84zM741 1597h86l-227 -327h-86z" />
    <glyph glyph-name="thorn" unicode="&#xfe;" horiz-adv-x="1075" 
d="M548 1028q-182 0 -312 -176l-78 -594q36 -82 108 -141t180 -60q170 0 272 121q101 121 128 338l4 33q29 225 -45 352q-75 127 -257 127zM561 1106q221 0 313 -154t62 -397l-4 -33q-31 -252 -152 -397t-334 -145q-112 0 -190 52t-113 113l-73 -555h-82l270 2048h82
l-88 -675q49 63 131 103t178 40z" />
    <glyph glyph-name="ydieresis" unicode="&#xff;" horiz-adv-x="946" 
d="M406 133l471 952h88l-529 -1048l-219 -447h-90l227 451l-254 1044h84zM496 1505l-17 -123h-123l17 123h123zM803 1505l-17 -123h-122l16 123h123z" />
    <glyph glyph-name="Amacron" unicode="&#x100;" horiz-adv-x="1228" 
d="M719 1536l-440 -1026h608zM666 1618h122l271 -1618h-86l-74 432h-653l-183 -432h-94zM545 1792l10 82h410l-11 -82h-409z" />
    <glyph glyph-name="amacron" unicode="&#x101;" horiz-adv-x="1024" 
d="M328 57q266 0 405 207l43 328l-360 -57q-133 -21 -205 -73t-84 -155l-4 -33q-13 -86 43 -152t162 -65zM328 -20q-139 0 -224 79q-84 80 -67 209l4 33q20 164 141 234q92 52 244 75l360 58l7 49q20 167 -35 239t-218 72t-233 -81t-88 -220h-82l4 29q20 133 99 232
q94 118 303 118t283 -102t46 -297l-53 -400l-28 -307h-62l2 164q-160 -184 -403 -184zM379 1393l10 82h430l-10 -82h-430z" />
    <glyph glyph-name="Abreve" unicode="&#x102;" horiz-adv-x="1228" 
d="M719 1536l-440 -1026h608zM666 1618h122l271 -1618h-86l-74 432h-653l-183 -432h-94zM740 1700q-126 0 -192 68t-48 178h73q-10 -80 33 -129t139 -49q95 0 153 48q58 50 69 130h73q-16 -110 -95 -178t-205 -68z" />
    <glyph glyph-name="abreve" unicode="&#x103;" horiz-adv-x="1024" 
d="M328 57q266 0 405 207l43 328l-360 -57q-133 -21 -205 -73t-84 -155l-4 -33q-13 -86 43 -152t162 -65zM328 -20q-139 0 -224 79q-84 80 -67 209l4 33q20 164 141 234q92 52 244 75l360 58l7 49q20 167 -35 239t-218 72t-233 -81t-88 -220h-82l4 29q20 133 99 232
q94 118 303 118t283 -102t46 -297l-53 -400l-28 -307h-62l2 164q-160 -184 -403 -184zM580 1249q-156 0 -224 94t-47 254h74q-37 -281 201 -280q238 0 274 280h74q-20 -162 -108 -255t-244 -93z" />
    <glyph glyph-name="Aogonek" unicode="&#x104;" horiz-adv-x="1228" 
d="M719 1536l-440 -1026h608zM969 -362q72 0 129 28l16 -57q-66 -39 -158 -39t-142 42t-50 120q0 182 205 291l-70 409h-653l-183 -432h-94l697 1618h122l271 -1618q-92 -40 -159 -106t-66 -154q0 -102 135 -102z" />
    <glyph glyph-name="aogonek" unicode="&#x105;" horiz-adv-x="1024" 
d="M328 57q266 0 405 207l43 328l-360 -57q-133 -21 -205 -73t-84 -155l-4 -33q-13 -86 43 -152t162 -65zM565 -260q0 -102 135 -102q72 0 129 28l17 -57q-66 -39 -158 -39t-142 42t-50 120q0 197 233 305l2 127q-160 -184 -403 -184q-139 0 -224 79q-84 80 -67 209l4 33
q20 164 141 234q92 52 244 75l360 58l7 49q20 167 -35 239t-218 72t-233 -81t-88 -220h-82l4 29q20 133 99 232q94 118 303 118t283 -102t46 -297l-53 -400l-28 -307q-92 -40 -159 -106t-67 -154z" />
    <glyph glyph-name="Cacute" unicode="&#x106;" horiz-adv-x="1243" 
d="M559 57h12q197 0 302 114t137 341h86q-29 -258 -163 -395t-368 -137q-270 0 -380 187t-56 607l6 49q51 414 202 604q151 191 408 191t362 -144t62 -411l-6 -39h-86q37 276 -38 396t-281 120h-13q-221 0 -349 -171t-175 -546l-6 -49q-49 -381 36 -549t308 -168zM891 1946
h86l-158 -226h-86z" />
    <glyph glyph-name="cacute" unicode="&#x107;" horiz-adv-x="1064" 
d="M469 57q170 0 250 87t98 225h82l-4 -29q-20 -132 -103 -237q-46 -56 -126 -90t-187 -33q-227 0 -328 154t-71 396l4 33q31 251 152 397t333 146q117 0 200 -38q140 -64 172 -218q13 -61 5 -123l-4 -31h-80q20 145 -54 239q-75 93 -242 93t-268 -121t-128 -338l-4 -32
q-29 -221 52 -351t251 -129zM803 1597h86l-227 -327h-87z" />
    <glyph glyph-name="Ccircumflex" unicode="&#x108;" horiz-adv-x="1243" 
d="M559 57h12q197 0 302 114t137 341h86q-29 -258 -163 -395t-368 -137q-270 0 -380 187t-56 607l6 49q51 414 202 604q151 191 408 191t362 -144t62 -411l-6 -39h-86q37 276 -38 396t-281 120h-13q-221 0 -349 -171t-175 -546l-6 -49q-49 -381 36 -549t308 -168zM637 1720
h-96l235 226h62l174 -226h-88l-123 158z" />
    <glyph glyph-name="ccircumflex" unicode="&#x109;" horiz-adv-x="1064" 
d="M469 57q170 0 250 87t98 225h82l-4 -29q-20 -132 -103 -237q-46 -56 -126 -90t-187 -33q-227 0 -328 154t-71 396l4 33q31 251 152 397t333 146q117 0 200 -38q140 -64 172 -218q13 -61 5 -123l-4 -31h-80q20 145 -54 239q-75 93 -242 93t-268 -121t-128 -338l-4 -32
q-29 -221 52 -351t251 -129zM418 1270h-96l309 327h61l223 -327h-88l-172 254z" />
    <glyph glyph-name="Cdotaccent" unicode="&#x10a;" horiz-adv-x="1243" 
d="M559 57h12q197 0 302 114t137 341h86q-29 -258 -163 -395t-368 -137q-270 0 -380 187t-56 607l6 49q51 414 202 604q151 191 408 191t362 -144t62 -411l-6 -39h-86q37 276 -38 396t-281 120h-13q-221 0 -349 -171t-175 -546l-6 -49q-49 -381 36 -549t308 -168zM860 1894
l-16 -122h-123l16 122h123z" />
    <glyph glyph-name="cdotaccent" unicode="&#x10b;" horiz-adv-x="1064" 
d="M469 57q170 0 250 87t98 225h82l-4 -29q-20 -132 -103 -237q-46 -56 -126 -90t-187 -33q-227 0 -328 154t-71 396l4 33q31 251 152 397t333 146q117 0 200 -38q140 -64 172 -218q13 -61 5 -123l-4 -31h-80q20 145 -54 239q-75 93 -242 93t-268 -121t-128 -338l-4 -32
q-29 -221 52 -351t251 -129zM711 1505l-17 -123h-123l17 123h123z" />
    <glyph glyph-name="Ccaron" unicode="&#x10c;" horiz-adv-x="1243" 
d="M559 57h12q197 0 302 114t137 341h86q-29 -258 -163 -395t-368 -137q-270 0 -380 187t-56 607l6 49q51 414 202 604q151 191 408 191t362 -144t62 -411l-6 -39h-86q37 276 -38 396t-281 120h-13q-221 0 -349 -171t-175 -546l-6 -49q-49 -381 36 -549t308 -168zM571 1946
h88l121 -158l166 158h96l-235 -226h-62z" />
    <glyph glyph-name="ccaron" unicode="&#x10d;" horiz-adv-x="1064" 
d="M469 57q170 0 250 87t98 225h82l-4 -29q-20 -132 -103 -237q-46 -56 -126 -90t-187 -33q-227 0 -328 154t-71 396l4 33q31 251 152 397t333 146q117 0 200 -38q140 -64 172 -218q13 -61 5 -123l-4 -31h-80q20 145 -54 239q-75 93 -242 93t-268 -121t-128 -338l-4 -32
q-29 -221 52 -351t251 -129zM365 1597h88l172 -254l237 254h96l-309 -327h-61z" />
    <glyph glyph-name="Dcaron" unicode="&#x10e;" horiz-adv-x="1290" 
d="M453 78q253 0 415 168t207 528l6 49q88 696 -432 697h-305l-188 -1442h297zM453 0h-390l209 1597h383q285 -1 423 -189t89 -585l-6 -49q-49 -398 -236 -586t-472 -188zM504 1946h84l121 -158l165 158h101l-236 -226h-61z" />
    <glyph glyph-name="dcaron" unicode="&#x10f;" horiz-adv-x="1075" 
d="M569 1028q-170 0 -271 -121t-128 -338l-4 -32q-29 -225 45 -353q73 -128 255 -127q182 0 314 176l78 594q-35 82 -107 142q-73 59 -182 59zM455 -20q-221 0 -314 153q-92 154 -61 397l4 33q31 251 152 397t333 146q113 0 191 -52t112 -114l93 698h82l-177 -1331l-28 -307
h-62l-2 141q-49 -73 -136 -117t-187 -44zM1210 1638h93l-80 -368h-62z" />
    <glyph glyph-name="Dcroat" unicode="&#x110;" horiz-adv-x="1413" 
d="M575 78q252 0 415 168t208 528l6 49q88 696 -432 697h-305l-88 -666h471l-10 -78h-471l-90 -698h296zM575 0h-389l101 776h-246l10 78h246l98 743h383q285 -1 423 -189t89 -585l-6 -49q-49 -398 -236 -586t-473 -188z" />
    <glyph glyph-name="dcroat" unicode="&#x111;" horiz-adv-x="1075" 
d="M569 1028q-170 0 -271 -121t-128 -338l-4 -32q-29 -225 45 -353q73 -128 255 -127q182 0 314 176l78 594q-35 82 -107 142q-73 59 -182 59zM455 -20q-221 0 -314 153q-92 154 -61 397l4 33q31 251 152 397t333 146q113 0 191 -52t112 -114l50 383h-285l10 78h285l33 237
h82l-33 -237h207l-11 -78h-206l-134 -1016l-28 -307h-62l-2 141q-49 -73 -136 -117t-187 -44z" />
    <glyph glyph-name="Emacron" unicode="&#x112;" horiz-adv-x="1105" 
d="M545 1792l10 82h410l-11 -82h-409zM272 1597h861l-11 -77h-778l-88 -666h676l-10 -78h-676l-90 -698h778l-10 -78h-861z" />
    <glyph glyph-name="emacron" unicode="&#x113;" horiz-adv-x="1105" 
d="M593 1028q-173 0 -285 -124t-136 -322h713q31 210 -44 328t-248 118zM486 57q184 0 269 85t101 206h82q-23 -160 -134 -264q-112 -104 -304 -104q-252 0 -352 152q-99 153 -68 398l4 33q31 248 161 395q130 148 351 148t311 -150t60 -387l-9 -65h-794q-25 -209 56 -328
q82 -119 266 -119zM420 1393l10 82h430l-10 -82h-430z" />
    <glyph glyph-name="Ebreve" unicode="&#x114;" horiz-adv-x="1105" 
d="M740 1700q-126 0 -192 68t-48 178h73q-10 -80 33 -129t139 -49q95 0 153 48q58 50 69 130h73q-16 -110 -95 -178t-205 -68zM272 1597h861l-11 -77h-778l-88 -666h676l-10 -78h-676l-90 -698h778l-10 -78h-861z" />
    <glyph glyph-name="ebreve" unicode="&#x115;" horiz-adv-x="1105" 
d="M593 1028q-173 0 -285 -124t-136 -322h713q31 210 -44 328t-248 118zM486 57q184 0 269 85t101 206h82q-23 -160 -134 -264q-112 -104 -304 -104q-252 0 -352 152q-99 153 -68 398l4 33q31 248 161 395q130 148 351 148t311 -150t60 -387l-9 -65h-794q-25 -209 56 -328
q82 -119 266 -119zM621 1249q-156 0 -224 94t-47 254h74q-37 -281 201 -280q238 0 274 280h74q-20 -162 -108 -255t-244 -93z" />
    <glyph glyph-name="Edotaccent" unicode="&#x116;" horiz-adv-x="1105" 
d="M823 1894l-16 -122h-123l16 122h123zM272 1597h861l-11 -77h-778l-88 -666h676l-10 -78h-676l-90 -698h778l-10 -78h-861z" />
    <glyph glyph-name="edotaccent" unicode="&#x117;" horiz-adv-x="1105" 
d="M593 1028q-173 0 -285 -124t-136 -322h713q31 210 -44 328t-248 118zM486 57q184 0 269 85t101 206h82q-23 -160 -134 -264q-112 -104 -304 -104q-252 0 -352 152q-99 153 -68 398l4 33q31 248 161 395q130 148 351 148t311 -150t60 -387l-9 -65h-794q-25 -209 56 -328
q82 -119 266 -119zM711 1505l-17 -123h-123l17 123h123z" />
    <glyph glyph-name="Eogonek" unicode="&#x118;" horiz-adv-x="1105" 
d="M698 -260q0 -102 136 -102q72 0 129 28l16 -57q-66 -39 -158 -39t-142 42t-50 120q0 162 166 268h-732l209 1597h861l-11 -77h-778l-88 -666h676l-10 -78h-676l-90 -698h778l-10 -78q-92 -40 -159 -106t-67 -154z" />
    <glyph glyph-name="eogonek" unicode="&#x119;" horiz-adv-x="1105" 
d="M593 1028q-173 0 -285 -124t-136 -322h713q31 210 -44 328t-248 118zM486 57q184 0 269 85t101 206h82q-18 -127 -91 -219t-198 -129q-92 -40 -159 -106t-66 -154q0 -102 135 -102q72 0 129 28l17 -57q-66 -39 -158 -39t-143 42q-50 42 -50 120q0 147 138 248
q-126 2 -218 46t-135 120q-95 166 -59 384l4 33q31 248 161 395q130 148 351 148t311 -150t60 -387l-9 -65h-794q-25 -209 56 -328q82 -119 266 -119z" />
    <glyph glyph-name="Ecaron" unicode="&#x11a;" horiz-adv-x="1105" 
d="M535 1946h92l121 -158l165 158h93l-236 -226h-61zM272 1597h861l-11 -77h-778l-88 -666h676l-10 -78h-676l-90 -698h778l-10 -78h-861z" />
    <glyph glyph-name="ecaron" unicode="&#x11b;" horiz-adv-x="1105" 
d="M593 1028q-173 0 -285 -124t-136 -322h713q31 210 -44 328t-248 118zM486 57q184 0 269 85t101 206h82q-23 -160 -134 -264q-112 -104 -304 -104q-252 0 -352 152q-99 153 -68 398l4 33q31 248 161 395q130 148 351 148t311 -150t60 -387l-9 -65h-794q-25 -209 56 -328
q82 -119 266 -119zM365 1597h88l172 -254l237 254h96l-309 -327h-61z" />
    <glyph glyph-name="Gcircumflex" unicode="&#x11c;" horiz-adv-x="1306" 
d="M600 -20q-290 0 -407 189t-66 605l6 49q51 412 206 603q155 192 413 192t368 -145t68 -410l-6 -39h-86q37 274 -43 395t-287 121h-12q-224 0 -356 -172t-179 -545l-6 -49q-47 -377 46 -547t319 -170h12q133 0 239 42t166 104l62 479h-297l10 78h379l-78 -598
q-181 -182 -471 -182zM649 1720h-96l235 226h62l174 -226h-88l-123 158z" />
    <glyph glyph-name="gcircumflex" unicode="&#x11d;" horiz-adv-x="1075" 
d="M569 1028q-342 0 -393 -418l-4 -32q-27 -209 46 -324q74 -115 258 -115t315 176l67 512q-35 82 -107 142q-73 59 -182 59zM465 61q-225 -1 -317 143t-62 367l4 33q29 234 148 368t331 134q115 0 200 -58t114 -128l39 165h61l-49 -307l-107 -798q-51 -410 -434 -410
q-213 0 -301 110t-63 289l4 31h76q-49 -352 284 -352q179 0 257 84t98 258l26 215q-49 -63 -131 -103t-178 -41zM397 1270h-96l309 327h62l223 -327h-88l-172 254z" />
    <glyph glyph-name="Gbreve" unicode="&#x11e;" horiz-adv-x="1306" 
d="M600 -20q-290 0 -407 189t-66 605l6 49q51 412 206 603q155 192 413 192t368 -145t68 -410l-6 -39h-86q37 274 -43 395t-287 121h-12q-224 0 -356 -172t-179 -545l-6 -49q-47 -377 46 -547t319 -170h12q133 0 239 42t166 104l62 479h-297l10 78h379l-78 -598
q-181 -182 -471 -182zM790 1700q-126 0 -192 68t-49 178h74q-9 -80 33 -129t138 -49t154 48q57 50 68 130h74q-16 -110 -95 -178t-205 -68z" />
    <glyph glyph-name="gbreve" unicode="&#x11f;" horiz-adv-x="1075" 
d="M569 1028q-342 0 -393 -418l-4 -32q-27 -209 46 -324q74 -115 258 -115t315 176l67 512q-35 82 -107 142q-73 59 -182 59zM465 61q-225 -1 -317 143t-62 367l4 33q29 234 148 368t331 134q115 0 200 -58t114 -128l39 165h61l-49 -307l-107 -798q-51 -410 -434 -410
q-213 0 -301 110t-63 289l4 31h76q-49 -352 284 -352q179 0 257 84t98 258l26 215q-49 -63 -131 -103t-178 -41zM600 1249q-156 0 -224 94t-46 254h73q-37 -281 201 -280q238 0 275 280h73q-20 -162 -108 -255t-244 -93z" />
    <glyph glyph-name="Gdotaccent" unicode="&#x120;" horiz-adv-x="1306" 
d="M600 -20q-290 0 -407 189t-66 605l6 49q51 412 206 603q155 192 413 192t368 -145t68 -410l-6 -39h-86q37 274 -43 395t-287 121h-12q-224 0 -356 -172t-179 -545l-6 -49q-47 -377 46 -547t319 -170h12q133 0 239 42t166 104l62 479h-297l10 78h379l-78 -598
q-181 -182 -471 -182zM872 1894l-16 -122h-123l17 122h122z" />
    <glyph glyph-name="gdotaccent" unicode="&#x121;" horiz-adv-x="1075" 
d="M569 1028q-342 0 -393 -418l-4 -32q-27 -209 46 -324q74 -115 258 -115t315 176l67 512q-35 82 -107 142q-73 59 -182 59zM465 61q-225 -1 -317 143t-62 367l4 33q29 234 148 368t331 134q115 0 200 -58t114 -128l39 165h61l-49 -307l-107 -798q-51 -410 -434 -410
q-213 0 -301 110t-63 289l4 31h76q-49 -352 284 -352q179 0 257 84t98 258l26 215q-49 -63 -131 -103t-178 -41zM690 1505l-16 -123h-123l16 123h123z" />
    <glyph glyph-name="Gcommaaccent" unicode="&#x122;" horiz-adv-x="1306" 
d="M600 -20q-290 0 -407 189t-66 605l6 49q51 412 206 603q155 192 413 192t368 -145t68 -410l-6 -39h-86q37 274 -43 395t-287 121h-12q-224 0 -356 -172t-179 -545l-6 -49q-47 -377 46 -547t319 -170h12q133 0 239 42t166 104l62 479h-297l10 78h379l-78 -598
q-181 -182 -471 -182zM629 -123l-15 -98q-12 -97 -69 -153t-142 -56l9 61q113 0 139 123h-62l17 123h123z" />
    <glyph glyph-name="gcommaaccent" unicode="&#x123;" horiz-adv-x="1075" 
d="M569 1028q-342 0 -393 -418l-4 -32q-27 -209 46 -324q74 -115 258 -115t315 176l67 512q-35 82 -107 142q-73 59 -182 59zM465 61q-225 -1 -317 143t-62 367l4 33q29 234 148 368t331 134q115 0 200 -58t114 -128l39 165h61l-49 -307l-107 -798q-51 -410 -434 -410
q-213 0 -301 110t-63 289l4 31h76q-49 -352 284 -352q179 0 257 84t98 258l26 215q-49 -63 -131 -103t-178 -41zM537 1270l12 98q33 250 219 250l-8 -62q-61 0 -96 -36t-50 -127h62l-17 -123h-122z" />
    <glyph glyph-name="Hcircumflex" unicode="&#x124;" horiz-adv-x="1290" 
d="M631 1720h-96l235 226h61l175 -226h-88l-123 158zM1153 1597h82l-209 -1597h-82l100 776h-798l-101 -776h-82l209 1597h82l-98 -743h799z" />
    <glyph glyph-name="hcircumflex" unicode="&#x125;" horiz-adv-x="1044" 
d="M594 1106q172 0 255 -90t62 -248l-100 -768h-82l98 758q35 270 -243 270q-215 0 -351 -188l-108 -840h-82l215 1638h82l-92 -696q51 70 143 117t203 47zM170 1720h-96l235 226h62l174 -226h-88l-123 158z" />
    <glyph glyph-name="Hbar" unicode="&#x126;" horiz-adv-x="1290" 
d="M256 854h799l45 336h-799zM1153 1597h82l-209 -1597h-82l100 776h-798l-101 -776h-82l209 1597h82l-43 -329h799z" />
    <glyph glyph-name="hbar" unicode="&#x127;" horiz-adv-x="1044" 
d="M594 1106q172 0 255 -90t62 -248l-100 -768h-82l98 758q35 270 -243 270q-215 0 -351 -188l-108 -840h-82l174 1323h-205l11 78h204l31 237h82l-33 -237h289l-10 -78h-289l-49 -381q51 70 143 117t203 47z" />
    <glyph glyph-name="Itilde" unicode="&#x128;" horiz-adv-x="430" 
d="M484 1737q-66 0 -144 62t-115 63q-80 0 -94 -105h-74q13 86 59 129t111 43t143 -62t113 -63q83 1 95 105h73q-10 -84 -56 -128q-45 -44 -111 -44zM365 1597l-209 -1597h-82l209 1597h82z" />
    <glyph glyph-name="itilde" unicode="&#x129;" horiz-adv-x="409" 
d="M422 1337q-64 -1 -146 61t-120 62q-74 0 -88 -102h-72q10 86 54 129t110 43t147 -62q82 -62 121 -61q76 0 90 102h72q-25 -172 -168 -172zM63 0l142 1085h82l-142 -1085h-82z" />
    <glyph glyph-name="Imacron" unicode="&#x12a;" horiz-adv-x="430" 
d="M145 1792l11 82h409l-10 -82h-410zM365 1597l-209 -1597h-82l209 1597h82z" />
    <glyph glyph-name="imacron" unicode="&#x12b;" horiz-adv-x="409" 
d="M72 1393l10 82h430l-10 -82h-430zM63 0l142 1085h82l-142 -1085h-82z" />
    <glyph glyph-name="Ibreve" unicode="&#x12c;" horiz-adv-x="430" 
d="M341 1700q-125 0 -191 68t-50 178h74q-10 -80 33 -129t139 -49t154 48q58 50 67 130h74q-16 -110 -95 -178t-205 -68zM365 1597l-209 -1597h-82l209 1597h82z" />
    <glyph glyph-name="ibreve" unicode="&#x12d;" horiz-adv-x="409" 
d="M272 1249q-156 0 -224 94t-46 254h74q-37 -281 200 -280q238 0 275 280h74q-21 -162 -109 -255t-244 -93zM63 0l142 1085h82l-142 -1085h-82z" />
    <glyph glyph-name="Iogonek" unicode="&#x12e;" horiz-adv-x="430" 
d="M-70 -260q0 -102 136 -102q72 0 129 28l16 -57q-66 -39 -158 -39t-142 42t-50 120q0 186 217 297l205 1568h82l-209 -1597q-92 -40 -159 -106t-67 -154z" />
    <glyph glyph-name="iogonek" unicode="&#x12f;" horiz-adv-x="409" 
d="M-80 -260q0 -102 135 -102q72 0 129 28l17 -57q-66 -39 -158 -39t-142 42t-51 120q0 186 218 297l137 1056h82l-142 -1085q-93 -40 -159 -106t-66 -154zM362 1505l-16 -123h-123l17 123h122z" />
    <glyph glyph-name="Idotaccent" unicode="&#x130;" horiz-adv-x="430" 
d="M424 1894l-16 -122h-123l16 122h123zM365 1597l-209 -1597h-82l209 1597h82z" />
    <glyph glyph-name="dotlessi" unicode="&#x131;" horiz-adv-x="409" 
d="M63 0l142 1085h82l-142 -1085h-82z" />
    <glyph glyph-name="IJ" unicode="&#x132;" horiz-adv-x="942" 
d="M365 1597l-209 -1597h-82l209 1597h82zM424 57q190 0 217 215l174 1325h82l-174 -1335q-18 -143 -98 -213q-80 -69 -195 -69t-151 24l10 76q45 -23 135 -23z" />
    <glyph glyph-name="ij" unicode="&#x133;" horiz-adv-x="716" 
d="M109 -430q-86 0 -140 22l11 74q42 -18 140 -18t157 47t75 168l160 1222h82l-164 -1247q-37 -268 -321 -268zM670 1505l-17 -123h-123l17 123h123zM362 1505l-16 -123h-123l17 123h122zM63 0l142 1085h82l-142 -1085h-82z" />
    <glyph glyph-name="Jcircumflex" unicode="&#x134;" horiz-adv-x="983" 
d="M774 1720h-96l235 226h62l174 -226h-88l-123 158zM348 -20q-397 0 -321 518l2 14h77q-34 -240 24 -348t219 -107q161 0 247 108t117 347l143 1085h82l-145 -1105q-33 -252 -137 -382t-308 -130z" />
    <glyph glyph-name="jcircumflex" unicode="&#x135;" horiz-adv-x="409" 
d="M-199 -430q-86 0 -139 22l10 74q42 -18 140 -18t158 47t75 168l160 1222h82l-164 -1247q-37 -268 -322 -268zM70 1270h-97l310 327h61l223 -327h-88l-172 254z" />
    <glyph glyph-name="Kcommaaccent" unicode="&#x136;" horiz-adv-x="1105" 
d="M354 1597l-125 -952l801 952h103l-578 -686l369 -911h-90l-336 844l-287 -340l-66 -504h-82l209 1597h82zM487 -123l-14 -98q-11 -97 -69 -153t-142 -56l8 61q113 0 140 123h-62l17 123h122z" />
    <glyph glyph-name="kcommaaccent" unicode="&#x137;" horiz-adv-x="983" 
d="M43 0l215 1638h82l-158 -1192l670 639h111l-433 -409l291 -676h-88l-264 618l-301 -286l-43 -332h-82zM446 -123l-14 -98q-12 -97 -70 -153t-141 -56l8 61q113 0 140 123h-62l17 123h122z" />
    <glyph glyph-name="kgreenlandic" unicode="&#x138;" horiz-adv-x="983" 
d="M43 0l141 1085h82l-84 -639l670 639h111l-433 -409l291 -676h-88l-264 618l-301 -286l-43 -332h-82z" />
    <glyph glyph-name="Lacute" unicode="&#x139;" horiz-adv-x="983" 
d="M444 1946h86l-157 -226h-86zM852 0h-789l209 1597h82l-198 -1519h706z" />
    <glyph glyph-name="lacute" unicode="&#x13a;" horiz-adv-x="409" 
d="M444 1946h86l-157 -226h-86zM63 0l216 1638h81l-215 -1638h-82z" />
    <glyph glyph-name="Lcommaaccent" unicode="&#x13b;" horiz-adv-x="983" 
d="M508 -123l-14 -98q-12 -97 -70 -153t-141 -56l8 61q113 0 139 123h-61l16 123h123zM852 0h-789l209 1597h82l-198 -1519h706z" />
    <glyph glyph-name="lcommaaccent" unicode="&#x13c;" horiz-adv-x="409" 
d="M150 -123l-15 -98q-12 -97 -69 -153t-142 -56l8 61q113 0 140 123h-62l17 123h123zM63 0l216 1638h81l-215 -1638h-82z" />
    <glyph glyph-name="Lcaron" unicode="&#x13d;" horiz-adv-x="983" 
d="M684 1638h92l-80 -368h-61zM852 0h-789l209 1597h82l-198 -1519h706z" />
    <glyph glyph-name="lcaron" unicode="&#x13e;" horiz-adv-x="409" 
d="M524 1638h92l-79 -368h-62zM63 0l216 1638h81l-215 -1638h-82z" />
    <glyph glyph-name="Ldot" unicode="&#x13f;" horiz-adv-x="983" 
d="M756 877l-17 -123h-123l17 123h123zM852 0h-789l209 1597h82l-198 -1519h706z" />
    <glyph glyph-name="ldot" unicode="&#x140;" 
d="M575 778l-16 -123h-123l17 123h122zM63 0l216 1638h81l-215 -1638h-82z" />
    <glyph glyph-name="Lslash" unicode="&#x141;" horiz-adv-x="1105" 
d="M18 600l13 86l262 129l102 782h82l-96 -739l504 248l-13 -86l-503 -248l-90 -694h706l-10 -78h-789l95 729z" />
    <glyph glyph-name="lslash" unicode="&#x142;" horiz-adv-x="634" 
d="M47 588l14 98l215 160l105 792h82l-96 -725l262 193l-15 -98l-260 -193l-106 -815h-82l98 748z" />
    <glyph glyph-name="Nacute" unicode="&#x143;" horiz-adv-x="1331" 
d="M1276 1597l-209 -1597h-90l-647 1475l-45 -390l-142 -1085h-80l209 1597h90l646 -1474l45 389l143 1085h80zM905 1946h86l-157 -226h-86z" />
    <glyph glyph-name="nacute" unicode="&#x144;" horiz-adv-x="1044" 
d="M584 1028q-215 0 -351 -188l-108 -840h-82l102 778l29 307h62l-3 -159q57 82 153 131t208 49q172 0 255 -90t62 -248l-100 -768h-82l98 758q35 270 -243 270zM778 1597h86l-227 -327h-86z" />
    <glyph glyph-name="Ncommaaccent" unicode="&#x145;" horiz-adv-x="1331" 
d="M1276 1597l-209 -1597h-90l-647 1475l-45 -390l-142 -1085h-80l209 1597h90l646 -1474l45 389l143 1085h80zM610 -123l-14 -98q-12 -97 -70 -153t-141 -56l8 61q113 0 139 123h-61l16 123h123z" />
    <glyph glyph-name="ncommaaccent" unicode="&#x146;" horiz-adv-x="1044" 
d="M584 1028q-215 0 -351 -188l-108 -840h-82l102 778l29 307h62l-3 -159q57 82 153 131t208 49q172 0 255 -90t62 -248l-100 -768h-82l98 758q35 270 -243 270zM473 -123l-14 -98q-11 -97 -69 -153t-142 -56l8 61q113 0 139 123h-61l16 123h123z" />
    <glyph glyph-name="Ncaron" unicode="&#x147;" horiz-adv-x="1331" 
d="M1276 1597l-209 -1597h-90l-647 1475l-45 -390l-142 -1085h-80l209 1597h90l646 -1474l45 389l143 1085h80zM586 1946h92l121 -158l166 158h92l-236 -226h-61z" />
    <glyph glyph-name="ncaron" unicode="&#x148;" horiz-adv-x="1044" 
d="M584 1028q-215 0 -351 -188l-108 -840h-82l102 778l29 307h62l-3 -159q57 82 153 131t208 49q172 0 255 -90t62 -248l-100 -768h-82l98 758q35 270 -243 270zM340 1597h88l172 -254l238 254h96l-309 -327h-62z" />
    <glyph glyph-name="Eng" unicode="&#x14a;" horiz-adv-x="1331" 
d="M723 -430q-92 0 -139 20l10 76q40 -18 136 -18t160 50t79 179l14 111l-653 1487l-45 -390l-142 -1085h-80l209 1597h90l646 -1474l45 389l143 1085h80l-227 -1730q-39 -297 -326 -297z" />
    <glyph glyph-name="eng" unicode="&#x14b;" horiz-adv-x="1044" 
d="M467 -430q-86 0 -139 22l10 74q42 -18 140 -18t157 47t76 168l116 895q35 270 -243 270q-215 0 -351 -188l-108 -840h-82l102 778l29 307h62l-3 -159q57 82 153 131t208 49q172 0 254 -90t63 -248l-123 -930q-37 -268 -321 -268z" />
    <glyph glyph-name="Omacron" unicode="&#x14c;" horiz-adv-x="1310" 
d="M758 1540h-13q-221 0 -349 -171t-175 -546l-6 -49q-49 -381 36 -549t308 -168h12q221 0 350 171q128 171 175 546l6 49q49 381 -36 549t-308 168zM562 -20q-267 0 -377 187t-56 607l6 49q51 414 202 604q151 191 418 191t377 -187q109 -188 56 -608l-6 -49
q-51 -414 -202 -604t-418 -190zM586 1792l10 82h410l-11 -82h-409z" />
    <glyph glyph-name="omacron" unicode="&#x14d;" horiz-adv-x="1105" 
d="M463 -20q-221 0 -318 153q-96 154 -65 397l4 33q31 250 156 396q125 147 346 147t317 -154t66 -397l-4 -33q-31 -250 -156 -396t-346 -146zM466 57q175 0 280 122t133 337l4 33q29 223 -48 351t-252 128t-281 -122t-132 -337l-4 -32q-29 -223 48 -351t252 -129zM420 1393
l10 82h430l-10 -82h-430z" />
    <glyph glyph-name="Obreve" unicode="&#x14e;" horiz-adv-x="1310" 
d="M758 1540h-13q-221 0 -349 -171t-175 -546l-6 -49q-49 -381 36 -549t308 -168h12q221 0 350 171q128 171 175 546l6 49q49 381 -36 549t-308 168zM562 -20q-267 0 -377 187t-56 607l6 49q51 414 202 604q151 191 418 191t377 -187q109 -188 56 -608l-6 -49
q-51 -414 -202 -604t-418 -190zM781 1700q-125 0 -191 68t-49 178h73q-10 -80 33 -129t139 -49t154 48q58 50 68 130h73q-16 -110 -95 -178t-205 -68z" />
    <glyph glyph-name="obreve" unicode="&#x14f;" horiz-adv-x="1105" 
d="M463 -20q-221 0 -318 153q-96 154 -65 397l4 33q31 250 156 396q125 147 346 147t317 -154t66 -397l-4 -33q-31 -250 -156 -396t-346 -146zM466 57q175 0 280 122t133 337l4 33q29 223 -48 351t-252 128t-281 -122t-132 -337l-4 -32q-29 -223 48 -351t252 -129zM621 1249
q-156 0 -224 94t-47 254h74q-37 -281 201 -280q238 0 274 280h74q-20 -162 -108 -255t-244 -93z" />
    <glyph glyph-name="Ohungarumlaut" unicode="&#x150;" horiz-adv-x="1310" 
d="M758 1540h-13q-221 0 -349 -171t-175 -546l-6 -49q-49 -381 36 -549t308 -168h12q221 0 350 171q128 171 175 546l6 49q49 381 -36 549t-308 168zM562 -20q-267 0 -377 187t-56 607l6 49q51 414 202 604q151 191 418 191t377 -187q109 -188 56 -608l-6 -49
q-51 -414 -202 -604t-418 -190zM1008 1946h86l-158 -226h-86zM782 1946h86l-157 -226h-86z" />
    <glyph glyph-name="ohungarumlaut" unicode="&#x151;" horiz-adv-x="1105" 
d="M463 -20q-221 0 -318 153q-96 154 -65 397l4 33q31 250 156 396q125 147 346 147t317 -154t66 -397l-4 -33q-31 -250 -156 -396t-346 -146zM466 57q175 0 280 122t133 337l4 33q29 223 -48 351t-252 128t-281 -122t-132 -337l-4 -32q-29 -223 48 -351t252 -129zM690 1597
h86l-227 -327h-86zM915 1597h86l-227 -327h-86z" />
    <glyph glyph-name="OE" unicode="&#x152;" horiz-adv-x="1925" 
d="M844 1520q-252 0 -415 -168t-208 -529l-6 -49q-88 -696 432 -696h246l188 1442h-237zM844 1597h1108l-10 -77h-779l-88 -666h676l-10 -78h-676l-90 -698h778l-10 -78h-1102q-285 0 -423 188t-89 586l6 49q49 397 237 585t472 189z" />
    <glyph glyph-name="oe" unicode="&#x153;" horiz-adv-x="1900" 
d="M1387 1028q-173 0 -283 -124t-135 -322h708q31 210 -43 328t-247 118zM463 57q174 0 279 122t132 337l5 33q29 223 -47 351t-250 128t-280 -122t-132 -337l-4 -32q-29 -223 47 -351t250 -129zM1294 -20q-348 0 -403 305q-117 -305 -424 -305q-227 0 -323 153
q-95 154 -64 397l4 33q31 250 155 396t339 147q317 0 372 -309q125 309 434 309q226 0 316 -150t59 -387l-8 -65h-790q-51 -446 333 -447q170 0 254 85t101 206h82q-23 -160 -134 -264t-303 -104z" />
    <glyph glyph-name="Racute" unicode="&#x154;" horiz-adv-x="1167" 
d="M782 1946h86l-157 -226h-86zM586 754q134 0 249 60q65 34 109 108t57 178l7 49q14 111 -14 187t-84 115q-99 67 -240 69h-326l-100 -766h342zM676 1597q194 0 320 -105t98 -343l-7 -49q-41 -324 -335 -402l192 -698h-90l-182 682q-49 -6 -97 -6h-342l-88 -676h-82
l209 1597h404z" />
    <glyph glyph-name="racute" unicode="&#x155;" horiz-adv-x="645" 
d="M567 1028q-209 0 -334 -188l-108 -840h-82l102 778l29 307h62v-149q114 170 331 170l29 -2l-8 -76h-21zM594 1597h86l-227 -327h-86z" />
    <glyph glyph-name="Rcommaaccent" unicode="&#x156;" horiz-adv-x="1167" 
d="M508 -123l-14 -98q-12 -97 -70 -153t-141 -56l8 61q113 0 139 123h-61l16 123h123zM586 754q134 0 249 60q65 34 109 108t57 178l7 49q14 111 -14 187t-84 115q-99 67 -240 69h-326l-100 -766h342zM676 1597q194 0 320 -105t98 -343l-7 -49q-41 -324 -335 -402l192 -698
h-90l-182 682q-49 -6 -97 -6h-342l-88 -676h-82l209 1597h404z" />
    <glyph glyph-name="rcommaaccent" unicode="&#x157;" horiz-adv-x="645" 
d="M567 1028q-209 0 -334 -188l-108 -840h-82l102 778l29 307h62v-149q114 170 331 170l29 -2l-8 -76h-21zM133 -123l-14 -98q-11 -97 -69 -153t-142 -56l8 61q113 0 139 123h-61l16 123h123z" />
    <glyph glyph-name="Rcaron" unicode="&#x158;" horiz-adv-x="1167" 
d="M463 1946h88l121 -158l166 158h96l-236 -226h-61zM586 754q134 0 249 60q65 34 109 108t57 178l7 49q14 111 -14 187t-84 115q-99 67 -240 69h-326l-100 -766h342zM676 1597q194 0 320 -105t98 -343l-7 -49q-41 -324 -335 -402l192 -698h-90l-182 682q-49 -6 -97 -6h-342
l-88 -676h-82l209 1597h404z" />
    <glyph glyph-name="rcaron" unicode="&#x159;" horiz-adv-x="645" 
d="M567 1028q-209 0 -334 -188l-108 -840h-82l102 778l29 307h62v-149q114 170 331 170l29 -2l-8 -76h-21zM156 1597h88l172 -254l237 254h97l-310 -327h-61z" />
    <glyph glyph-name="Sacute" unicode="&#x15a;" horiz-adv-x="1208" 
d="M686 1618q258 0 370 -136t74 -378l-6 -39h-82q70 475 -346 475h-20q-168 0 -279 -77t-129 -218l-4 -33q-18 -145 66 -227t320 -128t335 -150q98 -104 76 -279l-4 -33q-27 -203 -171 -309t-382 -106t-358 131t-83 362l7 39h82q-45 -231 56 -343t294 -112h20q186 0 307 84
t142 248l4 33q20 160 -72 243t-313 126q-455 88 -412 415l4 33q23 191 160 285t344 94zM844 1946h86l-158 -226h-86z" />
    <glyph glyph-name="sacute" unicode="&#x15b;" horiz-adv-x="1064" 
d="M451 57q295 0 327 219q18 119 -47 169q-67 50 -255 79t-264 104t-61 201q16 126 122 202q105 75 300 75t284 -98t58 -271h-79q20 143 -43 217t-240 74q-289 0 -315 -205q-12 -100 52 -154t251 -79q186 -24 264 -98t61 -213t-129 -220q-111 -80 -286 -79q-221 0 -307 93
q-85 93 -66 255h80q-18 -127 48 -199t245 -72zM782 1597h86l-227 -327h-86z" />
    <glyph glyph-name="Scircumflex" unicode="&#x15c;" horiz-adv-x="1208" 
d="M686 1618q258 0 370 -136t74 -378l-6 -39h-82q70 475 -346 475h-20q-168 0 -279 -77t-129 -218l-4 -33q-18 -145 66 -227t320 -128t335 -150q98 -104 76 -279l-4 -33q-27 -203 -171 -309t-382 -106t-358 131t-83 362l7 39h82q-45 -231 56 -343t294 -112h20q186 0 307 84
t142 248l4 33q20 160 -72 243t-313 126q-455 88 -412 415l4 33q23 191 160 285t344 94zM590 1720h-96l235 226h62l174 -226h-88l-123 158z" />
    <glyph glyph-name="scircumflex" unicode="&#x15d;" horiz-adv-x="1064" 
d="M451 57q295 0 327 219q18 119 -47 169q-67 50 -255 79t-264 104t-61 201q16 126 122 202q105 75 300 75t284 -98t58 -271h-79q20 143 -43 217t-240 74q-289 0 -315 -205q-12 -100 52 -154t251 -79q186 -24 264 -98t61 -213t-129 -220q-111 -80 -286 -79q-221 0 -307 93
q-85 93 -66 255h80q-18 -127 48 -199t245 -72zM397 1270h-96l309 327h62l223 -327h-88l-172 254z" />
    <glyph glyph-name="Scedilla" unicode="&#x15e;" horiz-adv-x="1208" 
d="M463 -362q137 0 137 88q0 76 -121 75l-57 -4l-29 33l76 152q-225 10 -333 140t-73 351l7 39h82q-45 -231 56 -343t294 -112h20q186 0 307 84t142 248l4 33q20 160 -72 243t-313 126q-455 88 -412 415l4 33q23 191 160 285t344 94q258 0 370 -136t74 -378l-6 -39h-82
q70 475 -346 475h-20q-168 0 -279 -77t-129 -218l-4 -33q-18 -145 66 -227t320 -128t335 -150q98 -104 76 -279l-4 -33q-25 -197 -161 -302t-353 -113l-58 -111h11q72 0 122 -32q50 -31 52 -109q0 -78 -58 -118t-156 -40q-99 0 -171 55l30 58q61 -45 148 -45z" />
    <glyph glyph-name="scedilla" unicode="&#x15f;" horiz-adv-x="1064" 
d="M451 57q295 0 327 219q18 119 -47 169q-67 50 -255 79t-264 104t-61 201q16 126 122 202q105 75 300 75t284 -98t58 -271h-79q20 143 -43 217t-240 74q-289 0 -315 -205q-12 -100 52 -154t251 -79q186 -24 264 -98t61 -212t-122 -217q-105 -78 -273 -83l-57 -111h10
q72 0 123 -32q51 -31 51 -109t-57 -118t-157 -40t-171 55l31 58q61 -45 147 -45q137 0 137 88q0 76 -120 75l-58 -4l-28 33l75 152q-190 12 -264 103t-57 226l2 17h80q-18 -127 48 -199t245 -72z" />
    <glyph glyph-name="Scaron" unicode="&#x160;" horiz-adv-x="1208" 
d="M686 1618q258 0 370 -136t74 -378l-6 -39h-82q70 475 -346 475h-20q-168 0 -279 -77t-129 -218l-4 -33q-18 -145 66 -227t320 -128t335 -150q98 -104 76 -279l-4 -33q-27 -203 -171 -309t-382 -106t-358 131t-83 362l7 39h82q-45 -231 56 -343t294 -112h20q186 0 307 84
t142 248l4 33q20 160 -72 243t-313 126q-455 88 -412 415l4 33q23 191 160 285t344 94zM524 1946h88l121 -158l166 158h96l-235 -226h-62z" />
    <glyph glyph-name="scaron" unicode="&#x161;" horiz-adv-x="1064" 
d="M451 57q295 0 327 219q18 119 -47 169q-67 50 -255 79t-264 104t-61 201q16 126 122 202q105 75 300 75t284 -98t58 -271h-79q20 143 -43 217t-240 74q-289 0 -315 -205q-12 -100 52 -154t251 -79q186 -24 264 -98t61 -213t-129 -220q-111 -80 -286 -79q-221 0 -307 93
q-85 93 -66 255h80q-18 -127 48 -199t245 -72zM344 1597h88l172 -254l238 254h96l-309 -327h-62z" />
    <glyph glyph-name="Tcommaaccent" unicode="&#x162;" horiz-adv-x="1024" 
d="M457 -123l-15 -98q-12 -97 -69 -153t-142 -56l9 61q113 0 139 123h-62l17 123h123zM651 1520l-198 -1520h-82l198 1520h-419l10 77h921l-10 -77h-420z" />
    <glyph glyph-name="tcommaaccent" unicode="&#x163;" horiz-adv-x="798" 
d="M434 -20q-135 0 -204 74t-50 222l96 732h-174l11 77h174l41 308h82l-41 -308h368l-10 -77h-369l-94 -721q-31 -229 170 -230q88 0 150 19l-9 -76q-55 -20 -141 -20zM416 -123l-15 -98q-12 -97 -69 -153t-142 -56l9 61q113 0 139 123h-62l17 123h123z" />
    <glyph glyph-name="Tcaron" unicode="&#x164;" horiz-adv-x="1024" 
d="M432 1946h88l121 -158l166 158h96l-235 -226h-62zM651 1520l-198 -1520h-82l198 1520h-419l10 77h921l-10 -77h-420z" />
    <glyph glyph-name="tcaron" unicode="&#x165;" horiz-adv-x="798" 
d="M434 -20q-135 0 -204 74t-50 222l96 732h-174l11 77h174l41 308h82l-41 -308h368l-10 -77h-369l-94 -721q-31 -229 170 -230q88 0 150 19l-9 -76q-55 -20 -141 -20zM606 1638h92l-80 -368h-61z" />
    <glyph glyph-name="Tbar" unicode="&#x166;" horiz-adv-x="1024" 
d="M651 1520l-88 -666h266l-10 -78h-266l-100 -776h-82l100 776h-266l10 78h266l88 666h-419l10 77h921l-10 -77h-420z" />
    <glyph glyph-name="tbar" unicode="&#x167;" horiz-adv-x="798" 
d="M434 -20q-135 0 -204 74t-50 222l29 228h-172l10 78h172l57 426h-174l11 77h174l41 308h82l-41 -308h368l-10 -77h-369l-55 -426h287l-10 -78h-287l-29 -217q-31 -229 170 -230q88 0 150 19l-9 -76q-55 -20 -141 -20z" />
    <glyph glyph-name="Utilde" unicode="&#x168;" horiz-adv-x="1290" 
d="M556 -20q-244 0 -360 116t-79 396l145 1105h82l-143 -1095q-33 -248 57 -346t300 -98t320 98t142 346l143 1095h82l-145 -1105q-37 -280 -168 -396t-376 -116zM914 1737q-66 0 -144 62t-115 63q-80 0 -94 -105h-74q13 86 59 129t111 43t143 -62t113 -63q83 1 95 105h73
q-10 -84 -56 -128q-45 -44 -111 -44z" />
    <glyph glyph-name="utilde" unicode="&#x169;" horiz-adv-x="1044" 
d="M391 -20q-172 0 -255 90t-62 247l100 768h82l-98 -757q-35 -270 243 -271q215 0 351 189l108 839h82l-102 -778l-29 -307h-61l2 160q-56 -82 -152 -131t-209 -49zM733 1337q-63 -1 -145 61t-121 62q-74 0 -88 -102h-72q10 86 54 129q43 43 109 43t148 -62t121 -61
q76 0 90 102h72q-25 -172 -168 -172z" />
    <glyph glyph-name="Umacron" unicode="&#x16a;" horiz-adv-x="1290" 
d="M556 -20q-244 0 -360 116t-79 396l145 1105h82l-143 -1095q-33 -248 57 -346t300 -98t320 98t142 346l143 1095h82l-145 -1105q-37 -280 -168 -396t-376 -116zM575 1792l11 82h409l-10 -82h-410z" />
    <glyph glyph-name="umacron" unicode="&#x16b;" horiz-adv-x="1044" 
d="M391 -20q-172 0 -255 90t-62 247l100 768h82l-98 -757q-35 -270 243 -271q215 0 351 189l108 839h82l-102 -778l-29 -307h-61l2 160q-56 -82 -152 -131t-209 -49zM383 1393l10 82h430l-10 -82h-430z" />
    <glyph glyph-name="Ubreve" unicode="&#x16c;" horiz-adv-x="1290" 
d="M556 -20q-244 0 -360 116t-79 396l145 1105h82l-143 -1095q-33 -248 57 -346t300 -98t320 98t142 346l143 1095h82l-145 -1105q-37 -280 -168 -396t-376 -116zM771 1700q-125 0 -191 68t-50 178h74q-10 -80 33 -129t139 -49t154 48q58 50 67 130h74q-16 -110 -95 -178
t-205 -68z" />
    <glyph glyph-name="ubreve" unicode="&#x16d;" horiz-adv-x="1044" 
d="M391 -20q-172 0 -255 90t-62 247l100 768h82l-98 -757q-35 -270 243 -271q215 0 351 189l108 839h82l-102 -778l-29 -307h-61l2 160q-56 -82 -152 -131t-209 -49zM584 1249q-156 0 -224 94t-47 254h74q-37 -281 201 -280q238 0 274 280h74q-20 -162 -108 -255t-244 -93z
" />
    <glyph glyph-name="Uring" unicode="&#x16e;" horiz-adv-x="1290" 
d="M556 -20q-244 0 -360 116t-79 396l145 1105h82l-143 -1095q-33 -248 57 -346t300 -98t320 98t142 346l143 1095h82l-145 -1105q-37 -280 -168 -396t-376 -116zM788 1901q-50 0 -90 -37q-40 -36 -39 -90q0 -54 30 -82t80 -29q50 0 89 37t39 90t-30 82q-29 29 -79 29z
M965 1794q1 -78 -57 -137t-139 -59t-129 46q-48 48 -48 126t57 136q57 60 139 60t129 -47q48 -47 48 -125z" />
    <glyph glyph-name="uring" unicode="&#x16f;" horiz-adv-x="1044" 
d="M485 1426q0 -54 30 -83t80 -29t89 38q39 37 39 90t-30 82q-30 28 -80 28t-89 -36t-39 -90zM418 1421q0 77 57 137t138 60t129 -47t49 -125t-57 -137t-139 -59t-129 46q-48 47 -48 125zM391 -20q-172 0 -255 90t-62 247l100 768h82l-98 -757q-35 -270 243 -271
q215 0 351 189l108 839h82l-102 -778l-29 -307h-61l2 160q-56 -82 -152 -131t-209 -49z" />
    <glyph glyph-name="Uhungarumlaut" unicode="&#x170;" horiz-adv-x="1290" 
d="M556 -20q-244 0 -360 116t-79 396l145 1105h82l-143 -1095q-33 -248 57 -346t300 -98t320 98t142 346l143 1095h82l-145 -1105q-37 -280 -168 -396t-376 -116zM772 1946h86l-158 -226h-86zM997 1946h86l-157 -226h-86z" />
    <glyph glyph-name="uhungarumlaut" unicode="&#x171;" horiz-adv-x="1044" 
d="M391 -20q-172 0 -255 90t-62 247l100 768h82l-98 -757q-35 -270 243 -271q215 0 351 189l108 839h82l-102 -778l-29 -307h-61l2 160q-56 -82 -152 -131t-209 -49zM879 1597h86l-228 -327h-86zM653 1597h86l-227 -327h-86z" />
    <glyph glyph-name="Uogonek" unicode="&#x172;" horiz-adv-x="1290" 
d="M559 -20q-247 0 -363 116t-79 396l145 1105h82l-143 -1095q-33 -248 57 -346t300 -98t320 98t142 346l143 1095h82l-145 -1105q-31 -221 -117 -337t-235 -155q-86 -24 -156 -96t-70 -164q0 -102 135 -102q72 0 129 28l17 -57q-66 -39 -158 -39t-142 42t-50 120
q0 147 137 248h-31z" />
    <glyph glyph-name="uogonek" unicode="&#x173;" horiz-adv-x="1044" 
d="M721 -362q72 0 129 28l16 -57q-66 -39 -158 -39t-142 42t-50 120q0 197 234 305l2 123q-56 -82 -152 -131t-209 -49q-172 0 -255 90t-62 247l100 768h82l-98 -757q-35 -270 243 -271q215 0 351 189l108 839h82l-102 -778l-29 -307q-92 -40 -159 -106t-66 -154
q0 -102 135 -102z" />
    <glyph glyph-name="Wcircumflex" unicode="&#x174;" horiz-adv-x="1802" 
d="M1165 -20l-166 1536l-571 -1536h-123l-96 1617h86l82 -1531l569 1531h123l168 -1531l483 1531h90l-522 -1617h-123zM887 1720h-96l235 226h61l175 -226h-88l-123 158z" />
    <glyph glyph-name="wcircumflex" unicode="&#x175;" horiz-adv-x="1433" 
d="M745 985l-409 -985h-115l-108 1085h82l94 -1003l416 1003h102l154 -1003l356 1003h86l-391 -1085h-115zM582 1270h-97l310 327h61l223 -327h-88l-172 254z" />
    <glyph glyph-name="Ycircumflex" unicode="&#x176;" horiz-adv-x="1146" 
d="M575 481l-61 -481h-82l62 481l-334 1116h84l301 -1013l567 1013h92zM559 1720h-96l235 226h62l174 -226h-88l-123 158z" />
    <glyph glyph-name="ycircumflex" unicode="&#x177;" horiz-adv-x="946" 
d="M406 133l471 952h88l-529 -1048l-219 -447h-90l227 451l-254 1044h84zM356 1270h-96l309 327h62l223 -327h-88l-172 254z" />
    <glyph glyph-name="Ydieresis" unicode="&#x178;" horiz-adv-x="1146" 
d="M575 481l-61 -481h-82l62 481l-334 1116h84l301 -1013l567 1013h92zM629 1894l-17 -122h-123l17 122h123zM936 1894l-16 -122h-123l16 122h123z" />
    <glyph glyph-name="Zacute" unicode="&#x179;" horiz-adv-x="1126" 
d="M-12 57l1036 1467l-248 -4h-575l10 77h922l-7 -57l-1036 -1466l248 4h616l-10 -78h-962zM797 1946h86l-158 -226h-86z" />
    <glyph glyph-name="zacute" unicode="&#x17a;" horiz-adv-x="913" 
d="M-16 57l761 953l-247 -2h-369l10 77h717l-6 -57l-762 -952l248 2h409l-10 -78h-758zM702 1597h86l-227 -327h-86z" />
    <glyph glyph-name="Zdotaccent" unicode="&#x17b;" horiz-adv-x="1126" 
d="M-12 57l1036 1467l-248 -4h-575l10 77h922l-7 -57l-1036 -1466l248 4h616l-10 -78h-962zM766 1894l-16 -122h-123l16 122h123z" />
    <glyph glyph-name="zdotaccent" unicode="&#x17c;" horiz-adv-x="913" 
d="M-16 57l761 953l-247 -2h-369l10 77h717l-6 -57l-762 -952l248 2h409l-10 -78h-758zM610 1505l-16 -123h-123l16 123h123z" />
    <glyph glyph-name="Zcaron" unicode="&#x17d;" horiz-adv-x="1126" 
d="M-12 57l1036 1467l-248 -4h-575l10 77h922l-7 -57l-1036 -1466l248 4h616l-10 -78h-962zM477 1946h88l121 -158l166 158h96l-235 -226h-62z" />
    <glyph glyph-name="zcaron" unicode="&#x17e;" horiz-adv-x="913" 
d="M-16 57l761 953l-247 -2h-369l10 77h717l-6 -57l-762 -952l248 2h409l-10 -78h-758zM264 1597h88l172 -254l238 254h96l-309 -327h-62z" />
    <glyph glyph-name="Scommaaccent" unicode="&#x218;" horiz-adv-x="1208" 
d="M686 1618q258 0 370 -136t74 -378l-6 -39h-82q70 475 -346 475h-20q-168 0 -279 -77t-129 -218l-4 -33q-18 -145 66 -227t320 -128t335 -150q98 -104 76 -279l-4 -33q-27 -203 -171 -309t-382 -106t-358 131t-83 362l7 39h82q-45 -231 56 -343t294 -112h20q186 0 307 84
t142 248l4 33q20 160 -72 243t-313 126q-455 88 -412 415l4 33q23 191 160 285t344 94zM549 -123l-14 -98q-11 -97 -69 -153t-142 -56l8 61q113 0 139 123h-61l16 123h123z" />
    <glyph glyph-name="scommaaccent" unicode="&#x219;" horiz-adv-x="1064" 
d="M451 57q295 0 327 219q18 119 -47 169q-67 50 -255 79t-264 104t-61 201q16 126 122 202q105 75 300 75t284 -98t58 -271h-79q20 143 -43 217t-240 74q-289 0 -315 -205q-12 -100 52 -154t251 -79q186 -24 264 -98t61 -213t-129 -220q-111 -80 -286 -79q-221 0 -307 93
q-85 93 -66 255h80q-18 -127 48 -199t245 -72zM477 -123l-14 -98q-11 -97 -69 -153t-142 -56l8 61q113 0 139 123h-61l16 123h123z" />
    <glyph glyph-name="Ymacron" unicode="&#x232;" horiz-adv-x="1146" 
d="M575 481l-61 -481h-82l62 481l-334 1116h84l301 -1013l567 1013h92zM504 1792l10 82h410l-11 -82h-409z" />
    <glyph glyph-name="ymacron" unicode="&#x233;" horiz-adv-x="946" 
d="M406 133l471 952h88l-529 -1048l-219 -447h-90l227 451l-254 1044h84zM358 1393l11 82h430l-11 -82h-430z" />
    <glyph glyph-name="dotlessj" unicode="&#x237;" horiz-adv-x="409" 
d="M-199 -430q-86 0 -139 22l10 74q42 -18 140 -18t158 47t75 168l160 1222h82l-164 -1247q-37 -268 -322 -268z" />
    <glyph glyph-name="circumflex" unicode="&#x2c6;" horiz-adv-x="1024" 
d="M377 1270h-96l309 327h61l223 -327h-88l-172 254z" />
    <glyph glyph-name="caron" unicode="&#x2c7;" horiz-adv-x="1024" 
d="M324 1597h88l172 -254l237 254h97l-310 -327h-61z" />
    <glyph glyph-name="breve" unicode="&#x2d8;" horiz-adv-x="1024" 
d="M580 1249q-156 0 -224 94t-47 254h74q-37 -281 201 -280q238 0 274 280h74q-20 -162 -108 -255t-244 -93z" />
    <glyph glyph-name="dotaccent" unicode="&#x2d9;" horiz-adv-x="1024" 
d="M670 1505l-17 -123h-123l17 123h123z" />
    <glyph glyph-name="ring" unicode="&#x2da;" horiz-adv-x="1024" 
d="M481 1426q0 -54 30 -83t80 -29t89 38q39 37 39 90t-30 82q-30 28 -80 28t-89 -36t-39 -90zM786 1446q0 -78 -57 -137t-138 -59t-129 46q-48 47 -48 125q0 77 57 137t138 60t129 -47t48 -125z" />
    <glyph glyph-name="ogonek" unicode="&#x2db;" horiz-adv-x="1232" 
d="M383 -362q72 0 129 28l16 -57q-66 -39 -158 -39t-142 42t-50 120q0 207 275 323l20 -55q-92 -40 -159 -106t-66 -154q0 -102 135 -102z" />
    <glyph glyph-name="tilde" unicode="&#x2dc;" horiz-adv-x="1024" 
d="M729 1337q-63 -1 -145 61t-121 62q-74 0 -88 -102h-72q10 86 54 129q43 43 109 43t148 -62t121 -61q76 0 90 102h72q-25 -172 -168 -172z" />
    <glyph glyph-name="hungarumlaut" unicode="&#x2dd;" horiz-adv-x="1024" 
d="M649 1597h86l-227 -327h-86zM874 1597h87l-228 -327h-86z" />
    <glyph glyph-name="Bdotaccent" unicode="&#x1e02;" horiz-adv-x="1167" 
d="M655 1520h-311l-86 -660h315q158 0 267 70t129 225l6 49q20 160 -67 238t-253 78zM610 782h-362l-92 -704h331q385 0 422 305l6 49q20 168 -67 259q-88 91 -238 91zM655 1597q211 0 321 -100t85 -293l-6 -49q-17 -137 -107 -226t-211 -108q131 -18 208 -126t56 -263
l-6 -49q-25 -197 -161 -290t-353 -93h-418l209 1597h383zM752 1894l-17 -122h-123l17 122h123z" />
    <glyph glyph-name="bdotaccent" unicode="&#x1e03;" horiz-adv-x="1075" 
d="M548 1028q-182 0 -312 -176l-78 -594q36 -82 108 -141t180 -60q170 0 272 121q101 121 128 338l4 33q29 225 -45 352q-75 127 -257 127zM561 1106q221 0 313 -154t62 -397l-4 -33q-31 -252 -152 -397t-334 -145q-116 0 -200 58t-113 128l-39 -166h-61l49 307l176 1331h82
l-88 -675q49 63 131 103t178 40zM393 1894l-16 -122h-123l16 122h123z" />
    <glyph glyph-name="Ddotaccent" unicode="&#x1e0a;" horiz-adv-x="1290" 
d="M453 78q253 0 415 168t207 528l6 49q88 696 -432 697h-305l-188 -1442h297zM453 0h-390l209 1597h383q285 -1 423 -189t89 -585l-6 -49q-49 -398 -236 -586t-472 -188zM793 1894l-17 -122h-123l17 122h123z" />
    <glyph glyph-name="ddotaccent" unicode="&#x1e0b;" horiz-adv-x="1075" 
d="M569 1028q-170 0 -271 -121t-128 -338l-4 -32q-29 -225 45 -353q73 -128 255 -127q182 0 314 176l78 594q-35 82 -107 142q-73 59 -182 59zM455 -20q-221 0 -314 153q-92 154 -61 397l4 33q31 251 152 397t333 146q113 0 191 -52t112 -114l93 698h82l-177 -1331l-28 -307
h-62l-2 141q-49 -73 -136 -117t-187 -44zM1100 1894l-17 -122h-122l16 122h123z" />
    <glyph glyph-name="Fdotaccent" unicode="&#x1e1e;" horiz-adv-x="1024" 
d="M823 1894l-16 -122h-123l16 122h123zM272 1597h820l-11 -77h-737l-88 -666h635l-10 -78h-635l-101 -776h-82z" />
    <glyph glyph-name="fdotaccent" unicode="&#x1e1f;" horiz-adv-x="757" 
d="M651 1659q86 0 140 -23l-11 -73q-42 18 -140 18t-158 -47t-76 -168l-37 -281h327l-10 -77h-328l-131 -1008h-82l131 1008h-174l11 77h174l41 306q37 268 323 268zM680 1894l-16 -122h-123l16 122h123z" />
    <glyph glyph-name="Mdotaccent" unicode="&#x1e40;" horiz-adv-x="1597" 
d="M1448 1454l-719 -1454h-61l-338 1454l-43 -369l-142 -1085h-82l209 1597h105l336 -1458l721 1458h108l-209 -1597h-82l142 1085zM1008 1894l-17 -122h-123l17 122h123z" />
    <glyph glyph-name="mdotaccent" unicode="&#x1e41;" horiz-adv-x="1607" 
d="M1184 1028q-100 0 -186 -57t-140 -131l-108 -840h-82l102 788q34 240 -202 240q-108 0 -195 -57q-86 -57 -140 -131l-108 -840h-82l102 778l29 307h62l-3 -159q53 76 143 128t193 52q240 0 281 -182q137 182 344 182q143 0 223 -80t62 -227l-105 -799h-82l103 788
q33 240 -211 240zM967 1505l-17 -123h-123l17 123h123z" />
    <glyph glyph-name="Pdotaccent" unicode="&#x1e56;" horiz-adv-x="1146" 
d="M586 754q134 0 249 60q65 34 109 108t57 178l7 49q14 111 -14 187t-84 115q-99 67 -240 69h-326l-100 -766h342zM676 1597q194 0 320 -105t98 -343l-7 -49q-18 -156 -102 -255t-185 -134t-225 -35h-342l-88 -676h-82l209 1597h404zM793 1894l-17 -122h-123l17 122h123z
" />
    <glyph glyph-name="pdotaccent" unicode="&#x1e57;" horiz-adv-x="1075" 
d="M446 57q170 0 272 121q101 121 128 338l4 33q29 225 -45 352q-73 127 -255 127t-314 -176l-78 -594q35 -82 107 -142t181 -59zM561 1106q221 0 313 -154t62 -397l-4 -33q-31 -252 -152 -397t-334 -145q-112 0 -190 52t-113 113l-73 -555h-82l157 1188l29 307h62l2 -141
q49 74 136 118t187 44zM700 1505l-16 -123h-123l17 123h122z" />
    <glyph glyph-name="Tdotaccent" unicode="&#x1e6a;" horiz-adv-x="1024" 
d="M721 1894l-16 -122h-123l16 122h123zM651 1520l-198 -1520h-82l198 1520h-419l10 77h921l-10 -77h-420z" />
    <glyph glyph-name="tdotaccent" unicode="&#x1e6b;" horiz-adv-x="798" 
d="M434 -20q-135 0 -204 74t-50 222l96 732h-174l11 77h174l41 308h82l-41 -308h368l-10 -77h-369l-94 -721q-31 -229 170 -230q88 0 150 19l-9 -76q-55 -20 -141 -20zM463 1649l-14 -123h-123l14 123h123z" />
    <glyph glyph-name="Wgrave" unicode="&#x1e80;" horiz-adv-x="1802" 
d="M1165 -20l-166 1536l-571 -1536h-123l-96 1617h86l82 -1531l569 1531h123l168 -1531l483 1531h90l-522 -1617h-123zM887 1946h86l96 -226h-86z" />
    <glyph glyph-name="wgrave" unicode="&#x1e81;" horiz-adv-x="1433" 
d="M745 985l-409 -985h-115l-108 1085h82l94 -1003l416 1003h102l154 -1003l356 1003h86l-391 -1085h-115zM598 1597h86l141 -327h-86z" />
    <glyph glyph-name="Wacute" unicode="&#x1e82;" horiz-adv-x="1802" 
d="M1165 -20l-166 1536l-571 -1536h-123l-96 1617h86l82 -1531l569 1531h123l168 -1531l483 1531h90l-522 -1617h-123zM1141 1946h86l-158 -226h-86z" />
    <glyph glyph-name="wacute" unicode="&#x1e83;" horiz-adv-x="1433" 
d="M745 985l-409 -985h-115l-108 1085h82l94 -1003l416 1003h102l154 -1003l356 1003h86l-391 -1085h-115zM967 1597h86l-228 -327h-86z" />
    <glyph glyph-name="Wdieresis" unicode="&#x1e84;" horiz-adv-x="1802" 
d="M1165 -20l-166 1536l-571 -1536h-123l-96 1617h86l82 -1531l569 1531h123l168 -1531l483 1531h90l-522 -1617h-123zM956 1894l-16 -122h-123l17 122h122zM1264 1894l-17 -122h-123l17 122h123z" />
    <glyph glyph-name="wdieresis" unicode="&#x1e85;" horiz-adv-x="1433" 
d="M745 985l-409 -985h-115l-108 1085h82l94 -1003l416 1003h102l154 -1003l356 1003h86l-391 -1085h-115zM721 1505l-16 -123h-123l16 123h123zM1028 1505l-16 -123h-123l16 123h123z" />
    <glyph glyph-name="Eszett" unicode="&#x1e9e;" horiz-adv-x="1515" 
d="M774 1540q-196 0 -330 -97t-165 -347l-144 -1096h-82l146 1106q36 291 209 408q152 104 391 104q238 0 362 -84l-8 -57l-412 -582l224 -29q240 -32 341 -148t78 -296l-4 -33q-26 -193 -162 -301t-358 -108t-323 124q-102 124 -64 369l6 39h82q-51 -231 36 -343t263 -112
h21q169 0 281 86t132 240l4 33q20 164 -70 256q-91 92 -310 121l-281 36l8 60l424 600q-99 51 -295 51z" />
    <glyph glyph-name="Ygrave" unicode="&#x1ef2;" horiz-adv-x="1146" 
d="M575 481l-61 -481h-82l62 481l-334 1116h84l301 -1013l567 1013h92zM559 1946h86l96 -226h-86z" />
    <glyph glyph-name="ygrave" unicode="&#x1ef3;" horiz-adv-x="946" 
d="M406 133l471 952h88l-529 -1048l-219 -447h-90l227 451l-254 1044h84zM373 1597h86l141 -327h-86z" />
    <glyph glyph-name="enspace" unicode="&#x2002;" horiz-adv-x="1024" 
 />
    <glyph glyph-name="emspace" unicode="&#x2003;" horiz-adv-x="2048" 
 />
    <glyph glyph-name="threeperemspace" unicode="&#x2004;" horiz-adv-x="681" 
 />
    <glyph glyph-name="fourperemspace" unicode="&#x2005;" horiz-adv-x="512" 
 />
    <glyph glyph-name="sixperemspace" unicode="&#x2006;" horiz-adv-x="342" 
 />
    <glyph glyph-name="figurespace" unicode="&#x2007;" horiz-adv-x="1228" 
 />
    <glyph glyph-name="punctuationspace" unicode="&#x2008;" horiz-adv-x="368" 
 />
    <glyph glyph-name="thinspace" unicode="&#x2009;" horiz-adv-x="307" 
 />
    <glyph glyph-name="hairspace" unicode="&#x200a;" horiz-adv-x="102" 
 />
    <glyph glyph-name="zerowidthspace" unicode="&#x200b;" horiz-adv-x="0" 
 />
    <glyph glyph-name="figuredash" unicode="&#x2012;" horiz-adv-x="1228" 
d="M70 678l10 78h1065l-10 -78h-1065z" />
    <glyph glyph-name="endash" unicode="&#x2013;" horiz-adv-x="1024" 
d="M70 678l10 78h860l-10 -78h-860z" />
    <glyph glyph-name="emdash" unicode="&#x2014;" horiz-adv-x="2048" 
d="M70 678l10 78h1884l-10 -78h-1884z" />
    <glyph glyph-name="uni2015" unicode="&#x2015;" horiz-adv-x="2457" 
d="M70 678l10 78h2294l-11 -78h-2293z" />
    <glyph glyph-name="doublebar" unicode="&#x2016;" horiz-adv-x="573" 
d="M215 -246l258 1966h82l-258 -1966h-82zM10 -246l258 1966h82l-258 -1966h-82z" />
    <glyph glyph-name="quoteleft" unicode="&#x2018;" horiz-adv-x="409" 
d="M147 1270l13 98q33 250 219 250l-8 -62q-61 0 -97 -35q-35 -36 -49 -128h62l-17 -123h-123z" />
    <glyph glyph-name="quoteright" unicode="&#x2019;" horiz-adv-x="409" 
d="M375 1597l-13 -98q-33 -250 -217 -250l9 62q61 0 95 36t48 128h-61l16 122h123z" />
    <glyph glyph-name="quotesinglbase" unicode="&#x201a;" horiz-adv-x="409" 
d="M180 123l-12 -98q-33 -250 -217 -250l8 61q61 0 95 36t50 128h-61l14 123h123z" />
    <glyph glyph-name="reversequoteleft" unicode="&#x201b;" horiz-adv-x="409" 
d="M190 1597h123l-16 -122h-61q-8 -92 16 -128t86 -36l-8 -62q-184 0 -152 250z" />
    <glyph glyph-name="quotedblleft" unicode="&#x201c;" horiz-adv-x="655" 
d="M393 1270l13 98q33 250 219 250l-9 -62q-61 0 -96 -36t-49 -127h61l-16 -123h-123zM147 1270l13 98q33 250 219 250l-8 -62q-61 0 -97 -35q-35 -36 -49 -128h62l-17 -123h-123z" />
    <glyph glyph-name="quotedblright" unicode="&#x201d;" horiz-adv-x="655" 
d="M375 1597l-13 -98q-33 -250 -217 -250l9 62q61 0 95 36t48 128h-61l16 122h123zM621 1597l-13 -98q-33 -250 -217 -250l8 62q61 0 96 36q34 36 48 128h-62l17 122h123z" />
    <glyph glyph-name="quotedblbase" unicode="&#x201e;" horiz-adv-x="655" 
d="M180 123l-12 -98q-33 -250 -217 -250l8 61q61 0 95 36t50 128h-61l14 123h123zM426 123l-12 -98q-33 -250 -217 -250l8 61q61 0 95 36t50 128h-61l14 123h123z" />
    <glyph glyph-name="reversequotedblleft" unicode="&#x201f;" horiz-adv-x="655" 
d="M190 1597h123l-16 -122h-61q-8 -92 16 -128t86 -36l-8 -62q-184 0 -152 250zM436 1597h123l-16 -122h-62q-8 -92 17 -128t86 -36l-9 -62q-184 0 -151 250z" />
    <glyph glyph-name="dagger" unicode="&#x2020;" horiz-adv-x="778" 
d="M100 1229l13 82l284 -11l-8 -61zM809 1311l-12 -82l-285 10l8 61zM463 1638h82l-51 -307h-62zM373 952l43 256h61l-22 -256l-45 -256h-62z" />
    <glyph glyph-name="daggerdbl" unicode="&#x2021;" horiz-adv-x="778" 
d="M809 1311l-12 -82l-285 10l8 61zM45 799l10 82l285 -11l-6 -61zM100 1229l13 82l284 -11l-8 -61zM752 881l-11 -82l-284 10l6 61zM467 1055l-31 -154h-61l10 154l31 153h61zM463 1638h82l-51 -307h-62zM315 522l45 256h62l-25 -256l-43 -256h-61z" />
    <glyph glyph-name="bullet" unicode="&#x2022;" horiz-adv-x="778" 
d="M659 963l-63 -492h-492l64 492h491z" />
    <glyph glyph-name="ellipsis" unicode="&#x2026;" horiz-adv-x="2048" 
d="M999 123l-14 -123h-123l15 123h122zM1655 123l-15 -123h-122l14 123h123zM344 123l-14 -123h-123l14 123h123z" />
    <glyph glyph-name="perthousand" unicode="&#x2030;" horiz-adv-x="2621" 
d="M2183 676q141 0 229 -88t68 -262q-21 -174 -120 -260t-240 -86t-230 88q-88 88 -66 262t120 260t239 86zM2120 57h12q102 0 178 69t92 202q16 134 -45 202t-174 68h-12q-102 0 -178 -69t-92 -202t46 -201t173 -69zM1341 -20q-141 0 -234 93t-60 265q20 166 118 252
q97 86 239 86t230 -88t67 -262t-120 -260t-240 -86zM1341 57h13q102 0 178 69t92 202q16 134 -45 202t-174 68h-12q-102 0 -178 -69t-93 -202q-16 -133 46 -201t173 -69zM512 1540h-12q-102 0 -178 -68t-92 -202q-17 -133 45 -202t174 -69h12q102 0 177 68t92 202
q17 135 -44 203t-174 68zM1016 1454q-122 0 -238 27q46 -87 27 -237t-117 -236t-239 -86t-229 88t-67 262t119 260t238 86q74 0 137 -25q168 -61 354 -61q90 0 209 22t164 43l-10 -75l-829 -1522h-91l813 1491q-119 -37 -241 -37z" />
    <glyph glyph-name="tripleprime" unicode="&#x2034;" horiz-adv-x="819" 
d="M471 1597h94l-90 -512h-49zM676 1597h94l-90 -512h-49zM266 1597h94l-90 -512h-49z" />
    <glyph glyph-name="guilsinglleft" unicode="&#x2039;" 
d="M549 1044l-12 -98l-369 -256l301 -256l-12 -86l-369 318l8 61z" />
    <glyph glyph-name="guilsinglright" unicode="&#x203a;" 
d="M127 958l12 86l367 -317l-8 -61l-451 -318l12 98l367 256z" />
    <glyph glyph-name="interrobang" unicode="&#x203d;" horiz-adv-x="901" 
d="M426 123l-14 -123h-123l14 123h123zM811 1270q0 246 -215 266l-135 -915q37 67 105 149t118 139q49 57 88 153t39 208zM547 1618q176 0 263 -86t87 -234q0 -262 -147 -425q-63 -69 -129 -135q-168 -166 -199 -380h-49l131 1180q-154 -16 -226 -144t-106 -370h-82l4 27
q23 141 51 236q69 227 209 293q80 38 193 38z" />
    <glyph glyph-name="fraction" unicode="&#x2044;" horiz-adv-x="409" 
d="M-438 0h-94l1388 1597h94z" />
    <glyph glyph-name="uni2070" unicode="&#x2070;" 
d="M406 1542h-5q-94 0 -135 -43t-53 -141l-43 -324q-25 -182 149 -182h5q94 0 135 43t53 141l43 324q10 90 -24 136t-125 46zM96 1026l45 342q17 125 77 182q60 58 188 58t183 -65q54 -65 40 -175l-45 -342q-16 -125 -76 -182q-60 -58 -190 -58q-128 0 -182 64t-40 176z" />
    <glyph glyph-name="uni2074" unicode="&#x2074;" 
d="M469 1473l-305 -398l88 2h164l37 291zM453 799h-74l27 211h-343l9 49l413 538h72l-68 -520h132l-11 -67h-131z" />
    <glyph glyph-name="uni2075" unicode="&#x2075;" 
d="M319 852h13q74 0 128 46t66 145q12 100 -32 148q-45 48 -121 48h-13q-57 0 -111 -29t-83 -80l-60 19l80 448h473l-8 -67h-403l-51 -289q63 63 177 63t176 -68q62 -69 47 -195q-15 -127 -88 -191t-193 -64t-183 67t-47 185l2 17h74q-14 -100 28 -152q43 -51 129 -51z" />
    <glyph glyph-name="uni2076" unicode="&#x2076;" 
d="M375 1235q-127 0 -201 -115l-6 -51q-12 -97 31 -157t118 -60h9q82 0 137 51t66 146q21 186 -146 186h-8zM639 1608l-8 -66q-193 0 -320 -137q-68 -74 -106 -178q70 73 176 73t171 -62t50 -181q-32 -269 -280 -271q-121 0 -181 81t-43 229q27 208 165 360t376 152z" />
    <glyph glyph-name="uni2077" unicode="&#x2077;" 
d="M131 1311l37 286h504l-6 -45l-406 -753h-78l396 733l-113 -2h-240l-28 -219h-66z" />
    <glyph glyph-name="uni2078" unicode="&#x2078;" 
d="M399 1542q-168 0 -186 -139q-10 -89 31 -126q41 -38 114 -38h21q74 0 125 35t60 114q17 154 -156 154h-9zM375 1174h-29q-74 0 -126 -39t-62 -120t35 -122t120 -41h13q76 0 129 37t62 120t-29 124q-39 41 -113 41zM313 786q-117 0 -179 64t-48 176q8 70 51 118t105 62
q-53 16 -83 67t-20 130q27 205 264 205q262 0 232 -243q-16 -126 -148 -159q55 -16 84 -67t21 -123q-13 -112 -88 -171q-74 -59 -191 -59z" />
    <glyph glyph-name="uni2079" unicode="&#x2079;" 
d="M342 1159h8q127 0 201 115l6 51q12 97 -31 157t-118 60h-9q-82 0 -137 -51t-66 -146q-21 -186 146 -186zM86 786l8 66q193 0 320 137q68 74 106 178q-70 -73 -176 -73t-171 62t-50 181q32 269 280 271q121 0 181 -81t43 -229q-27 -208 -165 -360t-376 -152z" />
    <glyph glyph-name="uni207A" unicode="&#x207a;" 
d="M362 1456h68l-29 -225h226l-11 -68h-225l-29 -223h-67l29 223h-224l11 68h223z" />
    <glyph glyph-name="uni207B" unicode="&#x207b;" 
d="M100 1163l11 68h516l-11 -68h-516z" />
    <glyph glyph-name="uni207C" unicode="&#x207c;" 
d="M88 1059l8 67h516l-8 -67h-516zM115 1268l8 67h516l-8 -67h-516z" />
    <glyph glyph-name="uni207D" unicode="&#x207d;" horiz-adv-x="323" 
d="M190 799q-103 178 -74 408q28 230 177 390h78q-154 -170 -182 -386t75 -412h-74z" />
    <glyph glyph-name="uni207E" unicode="&#x207e;" horiz-adv-x="323" 
d="M244 1597q103 -178 74 -408q-28 -230 -177 -390h-78q154 170 182 386t-75 412h74z" />
    <glyph glyph-name="uni2080" unicode="&#x2080;" 
d="M301 743h-4q-94 0 -135 -43t-53 -141l-43 -323q-25 -182 149 -183h4q93 -1 135 43t54 142l43 323q10 90 -24 136t-126 46zM302 809q128 0 182 -65t40 -175l-45 -342q-17 -125 -77 -182t-188 -57t-182 64t-40 175l45 342q17 125 77 183t188 57z" />
    <glyph glyph-name="uni2081" unicode="&#x2081;" 
d="M461 0h-490l9 66h208l84 636l-204 -127l-29 58l272 170h47l-96 -737h207z" />
    <glyph glyph-name="uni2082" unicode="&#x2082;" 
d="M299 743q-88 0 -137 -50t-64 -161h-71l4 31q31 246 272 246q127 0 188 -62t41 -174q-6 -59 -34 -99t-86 -95l-336 -313h389l-8 -66h-500l6 45l391 367q96 88 105 161q20 170 -152 170h-8z" />
    <glyph glyph-name="uni2083" unicode="&#x2083;" 
d="M215 53h12q168 0 185 144q11 91 -29 134q-41 44 -113 44h-116l8 65h112q170 0 186 145q9 79 -32 119t-121 39h-8q-88 0 -137 -50t-64 -161h-71l4 31q31 246 272 246q125 0 187 -62t42 -174q-16 -131 -149 -165q55 -16 84 -70q29 -53 17 -145q-12 -93 -82 -149t-190 -56
t-183 66t-45 202h73q-14 -100 29 -152t129 -51z" />
    <glyph glyph-name="uni2084" unicode="&#x2084;" 
d="M365 674l-306 -398l88 3h164l37 290zM348 0h-74l27 211h-342l8 49l414 539h72l-68 -520h131l-10 -68h-131z" />
    <glyph glyph-name="uni2085" unicode="&#x2085;" 
d="M215 53h12q74 0 128 46t67 146q12 99 -33 147t-121 48h-12q-58 0 -112 -28t-83 -80l-59 18l80 449h473l-8 -68h-404l-51 -289q63 64 177 64t176 -70t48 -195q-15 -125 -89 -189t-192 -64q-120 0 -183 66t-45 202h73q-14 -100 29 -152t129 -51z" />
    <glyph glyph-name="uni2086" unicode="&#x2086;" 
d="M270 436q-127 0 -200 -114l-7 -52q-12 -98 31 -157t119 -60h8q82 0 137 51t67 147q22 185 -146 185h-9zM276 502q106 0 172 -63q65 -63 48 -193q-16 -130 -89 -194t-192 -64t-179 81t-42 228q27 207 165 359t376 153l-9 -66q-193 0 -319 -137q-68 -74 -107 -178
q70 74 176 74z" />
    <glyph glyph-name="uni2087" unicode="&#x2087;" 
d="M27 512l36 287h504l-6 -45l-405 -754h-78l395 733l-113 -2h-239l-29 -219h-65z" />
    <glyph glyph-name="uni2088" unicode="&#x2088;" 
d="M295 743q-168 0 -186 -139q-16 -84 28 -124q43 -40 117 -40h20q74 0 125 35t61 114q18 154 -157 154h-8zM270 375h-28q-74 0 -126 -39t-63 -120q-10 -81 35 -122t121 -41h12q76 0 129 37t62 120q10 83 -29 124t-113 41zM209 -12q-117 0 -179 63t-48 176q8 70 51 118
t104 63q-53 16 -82 66t-20 130q27 205 264 205q127 0 190 -61t43 -170q-18 -137 -149 -170q55 -16 84 -68t20 -123q-13 -113 -87 -171t-191 -58z" />
    <glyph glyph-name="uni2089" unicode="&#x2089;" 
d="M238 360h8q127 0 200 115l7 51q12 98 -31 158t-119 59h-8q-82 0 -137 -51t-67 -146q-11 -94 28 -140t119 -46zM240 295q-106 0 -171 62t-49 194q16 131 90 194t192 63t178 -80q60 -81 42 -228q-26 -208 -164 -360t-376 -152l8 65q193 0 319 137q68 74 107 179
q-70 -74 -176 -74z" />
    <glyph glyph-name="uni208A" unicode="&#x208a;" 
d="M258 657h68l-29 -225h225l-10 -67h-225l-29 -224h-68l29 224h-223l10 67h223z" />
    <glyph glyph-name="uni208B" unicode="&#x208b;" 
d="M-4 365l10 67h516l-10 -67h-516z" />
    <glyph glyph-name="uni208C" unicode="&#x208c;" 
d="M-16 260l8 68h516l-8 -68h-516zM10 469l8 68h517l-9 -68h-516z" />
    <glyph glyph-name="uni208D" unicode="&#x208d;" horiz-adv-x="323" 
d="M86 0q-102 177 -75 408q28 231 177 391h78q-155 -171 -182 -400q-27 -203 76 -399h-74z" />
    <glyph glyph-name="uni208E" unicode="&#x208e;" horiz-adv-x="323" 
d="M139 799q104 -180 75 -409q-28 -230 -177 -390h-78q153 169 181 386q28 216 -74 413h73z" />
    <glyph glyph-name="Euro" unicode="&#x20ac;" horiz-adv-x="1228" 
d="M809 1618q444 0 356 -555l-6 -39h-82q37 276 -22 396t-236 120h-12q-354 0 -465 -557h588l-51 -82h-553l-27 -205h489l-49 -82h-446q-37 -557 328 -557h12q317 0 377 455h82q-59 -532 -467 -532q-231 0 -336 152q-104 153 -80 482h-158l10 82h154q8 113 27 205h-154
l12 82h158q62 331 200 483t351 152z" />
    <glyph glyph-name="ruble" unicode="&#x20bd;" horiz-adv-x="1228" 
d="M668 754q135 0 248 60q65 34 110 108t57 178l7 49q14 111 -14 187t-84 115q-99 67 -240 69h-326l-100 -766h342zM758 1597q194 0 320 -105t98 -343l-7 -49q-18 -156 -102 -255t-185 -134t-225 -35h-342l-26 -209h440l-10 -78h-440l-52 -389h-82l52 389h-195l10 78h195
l26 209h-194l10 78h195l110 843h404z" />
    <glyph glyph-name="numero" unicode="&#x2116;" horiz-adv-x="2170" 
d="M1393 457l8 71h635l-8 -71h-635zM1764 850q126 0 202 90t94 242l4 32q18 154 -33 243q-53 89 -179 89t-202 -90t-94 -242l-4 -32q-18 -154 34 -243t178 -89zM1756 778q-168 0 -236 112t-45 292l4 32q25 188 119 296q95 108 262 108t236 -112t46 -292l-4 -32
q-25 -188 -120 -296t-262 -108zM1276 1597l-209 -1597h-90l-647 1475l-45 -390l-142 -1085h-80l209 1597h90l646 -1474l45 389l143 1085h80z" />
    <glyph glyph-name="published" unicode="&#x2117;" horiz-adv-x="1884" 
d="M205 799q0 -305 216 -521t521 -216t521 216t216 521t-216 521t-521 216t-521 -216t-216 -521zM123 799q-1 339 239 579t580 240t580 -240t240 -580t-240 -579t-580 -239t-580 239q-239 240 -239 580zM719 801h246q209 0 209 194v17q0 195 -209 194h-246v-405zM719 727
v-410h-82v963h328q123 0 207 -59t83 -205v-25q0 -145 -84 -205t-206 -59h-246z" />
    <glyph glyph-name="servicemark" unicode="&#x2120;" horiz-adv-x="1044" 
d="M543 1085h-70v553h107l122 -446l123 446h107v-553h-70v308l4 143l-123 -451h-81l-123 451l4 -143v-308zM47 1485v8q0 72 46 113t134 41t126 -44t38 -139v-16h-69q0 72 -22 102t-77 31h-4q-102 0 -102 -82v-6q1 -43 25 -65t102 -32q154 -19 153 -151v-8q0 -78 -45 -123
t-131 -45q-180 0 -180 193v8h70q0 -135 108 -135h4q104 0 105 96v4q0 45 -28 69t-104 35q-149 19 -149 146z" />
    <glyph glyph-name="trademark" unicode="&#x2122;" horiz-adv-x="1044" 
d="M543 1085h-70v553h107l122 -446l123 446h107v-553h-70v308l4 143l-123 -451h-81l-123 451l4 -143v-308zM256 1573v-488h-70v488h-145v65h360v-65h-145z" />
    <glyph glyph-name="uni2153" unicode="&#x2153;" horiz-adv-x="1638" 
d="M1239 53h12q168 0 185 144q11 91 -29 134q-41 44 -113 44h-116l8 65h112q170 0 186 145q9 79 -32 119t-121 39h-8q-88 0 -137 -50t-64 -161h-71l4 31q31 246 272 246q125 0 187 -62t42 -174q-16 -131 -149 -165q55 -16 84 -70q29 -53 17 -145q-12 -93 -82 -149t-190 -56
t-183 66t-45 202h73q-14 -100 29 -152t129 -51zM176 0h-94l1388 1597h95zM565 799h-489l8 65h209l84 637l-205 -127l-29 58l273 170h47l-96 -738h206z" />
    <glyph glyph-name="uni2154" unicode="&#x2154;" horiz-adv-x="1638" 
d="M1239 53h12q168 0 185 144q11 91 -29 134q-41 44 -113 44h-116l8 65h112q170 0 186 145q9 79 -32 119t-121 39h-8q-88 0 -137 -50t-64 -161h-71l4 31q31 246 272 246q125 0 187 -62t42 -174q-16 -131 -149 -165q55 -16 84 -70q29 -53 17 -145q-12 -93 -82 -149t-190 -56
t-183 66t-45 202h73q-14 -100 29 -152t129 -51zM176 0h-94l1388 1597h95zM412 1542h-9q-88 0 -137 -50t-63 -161h-72l4 31q31 246 273 246q257 0 229 -236q-6 -59 -34 -99t-87 -95l-336 -314h389l-8 -65h-500l7 45l391 366q96 88 104 162q20 170 -151 170z" />
    <glyph glyph-name="uni2155" unicode="&#x2155;" horiz-adv-x="1638" 
d="M1239 53h12q74 0 128 46t67 146q12 99 -33 147t-121 48h-12q-58 0 -112 -28t-83 -80l-59 18l80 449h473l-8 -68h-404l-51 -289q63 64 177 64t176 -70t48 -195q-15 -125 -89 -189t-192 -64q-120 0 -183 66t-45 202h73q-14 -100 29 -152t129 -51zM176 0h-94l1388 1597h95z
M565 799h-489l8 65h209l84 637l-205 -127l-29 58l273 170h47l-96 -738h206z" />
    <glyph glyph-name="uni2156" unicode="&#x2156;" horiz-adv-x="1638" 
d="M1239 53h12q74 0 128 46t67 146q12 99 -33 147t-121 48h-12q-58 0 -112 -28t-83 -80l-59 18l80 449h473l-8 -68h-404l-51 -289q63 64 177 64t176 -70t48 -195q-15 -125 -89 -189t-192 -64q-120 0 -183 66t-45 202h73q-14 -100 29 -152t129 -51zM176 0h-94l1388 1597h95z
M412 1542h-9q-88 0 -137 -50t-63 -161h-72l4 31q31 246 273 246q257 0 229 -236q-6 -59 -34 -99t-87 -95l-336 -314h389l-8 -65h-500l7 45l391 366q96 88 104 162q20 170 -151 170z" />
    <glyph glyph-name="uni2157" unicode="&#x2157;" horiz-adv-x="1638" 
d="M1239 53h12q74 0 128 46t67 146q12 99 -33 147t-121 48h-12q-58 0 -112 -28t-83 -80l-59 18l80 449h473l-8 -68h-404l-51 -289q63 64 177 64t176 -70t48 -195q-15 -125 -89 -189t-192 -64q-120 0 -183 66t-45 202h73q-14 -100 29 -152t129 -51zM176 0h-94l1388 1597h95z
M319 852h13q168 0 184 143q11 92 -30 135q-40 43 -111 44h-117l8 65h113q169 0 185 145q9 78 -32 118t-120 40h-9q-88 0 -137 -50t-63 -161h-72l4 31q31 246 273 246q257 0 228 -243q-15 -124 -149 -159q55 -16 84 -69t18 -146q-11 -92 -82 -148q-71 -57 -191 -57t-183 67
t-47 185l2 17h74q-14 -100 28 -152q43 -51 129 -51z" />
    <glyph glyph-name="uni2158" unicode="&#x2158;" horiz-adv-x="1638" 
d="M1239 53h12q74 0 128 46t67 146q12 99 -33 147t-121 48h-12q-58 0 -112 -28t-83 -80l-59 18l80 449h473l-8 -68h-404l-51 -289q63 64 177 64t176 -70t48 -195q-15 -125 -89 -189t-192 -64q-120 0 -183 66t-45 202h73q-14 -100 29 -152t129 -51zM176 0h-94l1388 1597h95z
M469 1473l-305 -398l88 2h164l37 291zM453 799h-74l27 211h-343l9 49l413 538h72l-68 -520h132l-11 -67h-131z" />
    <glyph glyph-name="uni2159" unicode="&#x2159;" horiz-adv-x="1638" 
d="M1294 436q-127 0 -200 -114l-7 -52q-12 -98 31 -157t119 -60h8q82 0 137 51t67 147q22 185 -146 185h-9zM1300 502q106 0 172 -63q65 -63 48 -193q-16 -130 -89 -194t-192 -64t-179 81t-42 228q27 207 165 359t376 153l-9 -66q-193 0 -319 -137q-68 -74 -107 -178
q70 74 176 74zM176 0h-94l1388 1597h95zM565 799h-489l8 65h209l84 637l-205 -127l-29 58l273 170h47l-96 -738h206z" />
    <glyph glyph-name="uni215A" unicode="&#x215a;" horiz-adv-x="1638" 
d="M1294 436q-127 0 -200 -114l-7 -52q-12 -98 31 -157t119 -60h8q82 0 137 51t67 147q22 185 -146 185h-9zM1300 502q106 0 172 -63q65 -63 48 -193q-16 -130 -89 -194t-192 -64t-179 81t-42 228q27 207 165 359t376 153l-9 -66q-193 0 -319 -137q-68 -74 -107 -178
q70 74 176 74zM176 0h-94l1388 1597h95zM319 852h13q74 0 128 46t66 145q12 100 -32 148q-45 48 -121 48h-13q-57 0 -111 -29t-83 -80l-60 19l80 448h473l-8 -67h-403l-51 -289q63 63 177 63t176 -68q62 -69 47 -195q-15 -127 -88 -191t-193 -64t-183 67t-47 185l2 17h74
q-14 -100 28 -152q43 -51 129 -51z" />
    <glyph glyph-name="uni215B" unicode="&#x215b;" horiz-adv-x="1638" 
d="M1319 743q-168 0 -186 -139q-16 -84 28 -124q43 -40 117 -40h20q74 0 125 35t61 114q18 154 -157 154h-8zM1294 375h-28q-74 0 -126 -39t-63 -120q-10 -81 35 -122t121 -41h12q76 0 129 37t62 120q10 83 -29 124t-113 41zM1233 -12q-117 0 -179 63t-48 176q8 70 51 118
t104 63q-53 16 -82 66t-20 130q27 205 264 205q127 0 190 -61t43 -170q-18 -137 -149 -170q55 -16 84 -68t20 -123q-13 -113 -87 -171t-191 -58zM176 0h-94l1388 1597h95zM565 799h-489l8 65h209l84 637l-205 -127l-29 58l273 170h47l-96 -738h206z" />
    <glyph glyph-name="uni215C" unicode="&#x215c;" horiz-adv-x="1638" 
d="M1319 743q-168 0 -186 -139q-16 -84 28 -124q43 -40 117 -40h20q74 0 125 35t61 114q18 154 -157 154h-8zM1294 375h-28q-74 0 -126 -39t-63 -120q-10 -81 35 -122t121 -41h12q76 0 129 37t62 120q10 83 -29 124t-113 41zM1233 -12q-117 0 -179 63t-48 176q8 70 51 118
t104 63q-53 16 -82 66t-20 130q27 205 264 205q127 0 190 -61t43 -170q-18 -137 -149 -170q55 -16 84 -68t20 -123q-13 -113 -87 -171t-191 -58zM176 0h-94l1388 1597h95zM319 852h13q168 0 184 143q11 92 -30 135q-40 43 -111 44h-117l8 65h113q169 0 185 145q9 78 -32 118
t-120 40h-9q-88 0 -137 -50t-63 -161h-72l4 31q31 246 273 246q257 0 228 -243q-15 -124 -149 -159q55 -16 84 -69t18 -146q-11 -92 -82 -148q-71 -57 -191 -57t-183 67t-47 185l2 17h74q-14 -100 28 -152q43 -51 129 -51z" />
    <glyph glyph-name="uni215D" unicode="&#x215d;" horiz-adv-x="1638" 
d="M1319 743q-168 0 -186 -139q-16 -84 28 -124q43 -40 117 -40h20q74 0 125 35t61 114q18 154 -157 154h-8zM1294 375h-28q-74 0 -126 -39t-63 -120q-10 -81 35 -122t121 -41h12q76 0 129 37t62 120q10 83 -29 124t-113 41zM1233 -12q-117 0 -179 63t-48 176q8 70 51 118
t104 63q-53 16 -82 66t-20 130q27 205 264 205q127 0 190 -61t43 -170q-18 -137 -149 -170q55 -16 84 -68t20 -123q-13 -113 -87 -171t-191 -58zM176 0h-94l1388 1597h95zM319 852h13q74 0 128 46t66 145q12 100 -32 148q-45 48 -121 48h-13q-57 0 -111 -29t-83 -80l-60 19
l80 448h473l-8 -67h-403l-51 -289q63 63 177 63t176 -68q62 -69 47 -195q-15 -127 -88 -191t-193 -64t-183 67t-47 185l2 17h74q-14 -100 28 -152q43 -51 129 -51z" />
    <glyph glyph-name="uni215E" unicode="&#x215e;" horiz-adv-x="1638" 
d="M1319 743q-168 0 -186 -139q-16 -84 28 -124q43 -40 117 -40h20q74 0 125 35t61 114q18 154 -157 154h-8zM1294 375h-28q-74 0 -126 -39t-63 -120q-10 -81 35 -122t121 -41h12q76 0 129 37t62 120q10 83 -29 124t-113 41zM1233 -12q-117 0 -179 63t-48 176q8 70 51 118
t104 63q-53 16 -82 66t-20 130q27 205 264 205q127 0 190 -61t43 -170q-18 -137 -149 -170q55 -16 84 -68t20 -123q-13 -113 -87 -171t-191 -58zM176 0h-94l1388 1597h95zM131 1311l37 286h504l-6 -45l-406 -753h-78l396 733l-113 -2h-240l-28 -219h-66z" />
    <glyph glyph-name="uni215F" unicode="&#x215f;" horiz-adv-x="1024" 
d="M176 0h-94l1388 1597h95zM565 799h-489l8 65h209l84 637l-205 -127l-29 58l273 170h47l-96 -738h206z" />
    <glyph glyph-name="arrowleft" unicode="&#x2190;" horiz-adv-x="1884" 
d="M1741 840v-82h-1462l757 -758h-114l-799 799l799 798h114l-757 -757h1462z" />
    <glyph glyph-name="arrowup" unicode="&#x2191;" horiz-adv-x="1884" 
d="M983 0h-82v1462l-758 -757v114l799 799l799 -799v-114l-758 757v-1462z" />
    <glyph glyph-name="arrowright" unicode="&#x2192;" horiz-adv-x="1884" 
d="M143 758v82h1463l-758 757h115l798 -798l-798 -799h-115l758 758h-1463z" />
    <glyph glyph-name="arrowdown" unicode="&#x2193;" horiz-adv-x="1884" 
d="M901 1597h82v-1462l758 758v-115l-799 -798l-799 798v115l758 -758v1462z" />
    <glyph glyph-name="uni2196" unicode="&#x2196;" horiz-adv-x="1884" 
d="M225 0h-82v1597h1598v-81h-1458l1478 -1479l-57 -57l-1479 1478v-1458z" />
    <glyph glyph-name="uni2197" unicode="&#x2197;" horiz-adv-x="1884" 
d="M1741 0h-82v1458l-1479 -1478l-57 57l1479 1479h-1459v81h1598v-1597z" />
    <glyph glyph-name="uni2198" unicode="&#x2198;" horiz-adv-x="1884" 
d="M143 0v82h1459l-1479 1479l57 57l1479 -1479v1458h82v-1597h-1598z" />
    <glyph glyph-name="uni2199" unicode="&#x2199;" horiz-adv-x="1884" 
d="M1741 82v-82h-1598v1597h82v-1458l1479 1479l57 -57l-1478 -1479h1458z" />
    <glyph glyph-name="minus" unicode="&#x2212;" horiz-adv-x="1228" 
d="M98 758l11 82h1024l-11 -82h-1024z" />
    <glyph glyph-name="approxequal" unicode="&#x2248;" horiz-adv-x="1228" 
d="M399 1106q115 0 263 -75t252 -75t214 121l50 -57q-131 -141 -293 -141q-115 1 -262 75t-252 74t-215 -121l-50 58q131 141 293 141zM344 696q115 0 263 -74t252 -75q104 0 214 121l51 -58q-135 -141 -293 -141q-115 0 -263 75q-148 74 -250 74t-218 -120l-49 57
q135 141 293 141z" />
    <glyph glyph-name="notequal" unicode="&#x2260;" horiz-adv-x="1228" 
d="M125 963l12 81h608l191 267h88l-188 -267h325l-12 -81h-373l-233 -328h563l-10 -82h-611l-188 -266h-88l188 266h-325l10 82h373l231 328h-561z" />
    <glyph glyph-name="equivalence" unicode="&#x2261;" horiz-adv-x="1228" 
d="M98 758l11 82h1024l-11 -82h-1024zM45 348l10 82h1024l-10 -82h-1024zM154 1167l10 82h1024l-10 -82h-1024z" />
    <glyph glyph-name="lessequal" unicode="&#x2264;" horiz-adv-x="1228" 
d="M1067 338l-10 -84l-977 367l12 84zM1188 1255l-952 -321l868 -322l-12 -84l-975 367l10 82l1073 366z" />
    <glyph glyph-name="greaterequal" unicode="&#x2265;" horiz-adv-x="1228" 
d="M33 254l10 88l1073 367l-12 -88zM80 616l952 322l-868 322l12 83l975 -366l-10 -82l-1073 -367z" />
    <glyph glyph-name="squaremultiply" unicode="&#x22a0;" horiz-adv-x="1884" 
d="M465 262l-59 60l477 477l-477 477l59 59l477 -477l477 477l60 -59l-478 -477l478 -477l-60 -60l-477 477zM1659 1516h-1434v-1434h1434v1434zM1741 0h-1598v1597h1598v-1597z" />
    <glyph glyph-name="house" unicode="&#x2302;" horiz-adv-x="1740" 
d="M1597 0h-1454v922l727 696l727 -696v-922z" />
    <glyph glyph-name="blacksquare" unicode="&#x25a0;" horiz-adv-x="1884" 
d="M1741 0h-1598v1597h1598v-1597z" />
    <glyph glyph-name="blacksquare" unicode="&#xe740;" horiz-adv-x="1884" 
d="M1741 0h-1598v1597h1598v-1597z" />
    <glyph glyph-name="whitesquare" unicode="&#x25a1;" horiz-adv-x="1884" 
d="M1659 1516h-1434v-1434h1434v1434zM1741 0h-1598v1597h1598v-1597z" />
    <glyph glyph-name="blacksmallsquare" unicode="&#x25aa;" horiz-adv-x="1392" 
d="M1229 0h-1086v1085h1086v-1085z" />
    <glyph glyph-name="whitesmallsquare" unicode="&#x25ab;" horiz-adv-x="1392" 
d="M1147 1004h-922v-922h922v922zM143 1085h1086v-1085h-1086v1085z" />
    <glyph glyph-name="triagup" unicode="&#x25b2;" horiz-adv-x="1904" 
d="M993 1618l779 -1618h-86l-734 1528l-733 -1528h-86l778 1618h82z" />
    <glyph glyph-name="triagrt" unicode="&#x25ba;" horiz-adv-x="1904" 
d="M1782 840v-82l-1618 -778v86l1528 733l-1528 733v86z" />
    <glyph glyph-name="triagdn" unicode="&#x25bc;" horiz-adv-x="1904" 
d="M911 -20l-778 1617h86l733 -1527l734 1527h86l-779 -1617h-82z" />
    <glyph glyph-name="triaglf" unicode="&#x25c4;" horiz-adv-x="1904" 
d="M123 840l1618 778v-86l-1528 -733l1528 -733v-86l-1618 778v82z" />
    <glyph glyph-name="whitecircle" unicode="&#x25cb;" horiz-adv-x="1884" 
d="M205 799q0 -305 216 -521t521 -216t521 216t216 521t-216 521t-521 216t-521 -216t-216 -521zM123 799q-1 339 239 579t580 240t580 -240t240 -580t-240 -579t-580 -239t-580 239q-239 240 -239 580z" />
    <glyph glyph-name="whitecircle" unicode="&#x25ef;" horiz-adv-x="1884" 
d="M205 799q0 -305 216 -521t521 -216t521 216t216 521t-216 521t-521 216t-521 -216t-216 -521zM123 799q-1 339 239 579t580 240t580 -240t240 -580t-240 -579t-580 -239t-580 239q-239 240 -239 580z" />
    <glyph glyph-name="blackcircle" unicode="&#x25cf;" horiz-adv-x="1884" 
d="M123 799q-1 339 239 579t580 240t580 -240t240 -580t-240 -579t-580 -239t-580 239q-239 240 -239 580z" />
    <glyph glyph-name="uni25E2" unicode="&#x25e2;" horiz-adv-x="1904" 
d="M1769 29l-57 -58l-1694 592l62 62l1597 -564l-561 1600l62 61z" />
    <glyph glyph-name="uni25E3" unicode="&#x25e3;" horiz-adv-x="1904" 
d="M135 29l592 1693l61 -61l-563 -1600l1600 564l61 -62l-1693 -592z" />
    <glyph glyph-name="uni25E4" unicode="&#x25e4;" horiz-adv-x="1904" 
d="M135 1569l58 57l1693 -592l-61 -61l-1600 561l563 -1597l-61 -62z" />
    <glyph glyph-name="uni25E5" unicode="&#x25e5;" horiz-adv-x="1904" 
d="M1769 1569l-591 -1694l-62 62l561 1597l-1597 -561l-62 61l1694 592z" />
    <glyph glyph-name="uni2605" unicode="&#x2605;" horiz-adv-x="1802" 
d="M901 369l-532 -389l202 628l-532 387h659l203 627l203 -627h659l-532 -387l203 -628z" />
    <glyph glyph-name="ballotboxwithx" unicode="&#x2612;" horiz-adv-x="1392" 
d="M1147 1004h-922v-922h922v922zM143 1085h1086v-1085h-1086v1085zM414 211l-60 59l273 273l-273 272l60 59l272 -272l272 272l60 -59l-273 -272l273 -273l-60 -59l-272 272z" />
    <glyph glyph-name="uni263C" unicode="&#x263c;" horiz-adv-x="1966" 
d="M209 1059q25 94 136 94q52 0 95 -43q84 -84 195 -84l-232 352l353 -231q-53 53 -54 135l17 127q0 49 -25 80t-49 35l-24 6q29 16 73 16t84 -42q41 -42 41 -103t31 -123t47 -74l86 414l86 -414q0 80 59 135q18 16 62 46t66 63q23 33 6 88q-6 17 -19 35q45 -12 70 -48
t25 -88t-44 -96q-84 -84 -84 -194l353 231l-232 -352q53 53 135 53l127 -16q49 1 80 25t35 49l6 24q16 -29 16 -73t-41 -84q-41 -42 -103 -42t-124 -30q-62 -31 -73 -47l413 -86l-413 -86q80 0 135 -60q16 -18 46 -61t53 -61q24 -17 64 -17t68 25q-12 -45 -48 -70t-88 -25
t-95 43q-84 84 -195 84l232 -352l-353 232q53 -53 54 -136l-17 -127q0 -48 25 -78t49 -36l24 -6q-29 -16 -73 -16t-84 41q-41 41 -41 103t-31 124t-47 73l-86 -414l-86 414q0 -80 -59 -135q-18 -16 -62 -46t-66 -62q-23 -32 -6 -89q5 -16 19 -34q-45 12 -70 48t-25 88t44 95
q84 84 84 195l-353 -232l232 352q-53 -53 -135 -53l-127 17q-49 0 -79 -25t-36 -49l-6 -25q-16 29 -16 73t41 85t103 41t124 31t73 47l-413 86l413 86q-80 0 -135 59q-16 18 -46 62t-53 60q-24 17 -62 17t-70 -24z" />
    <glyph glyph-name="uni263E" unicode="&#x263e;" horiz-adv-x="1966" 
d="M1278 1491q-274 0 -469 -203q-195 -204 -195 -490t195 -489t469 -203q102 0 197 31q-219 -158 -492 -157q-340 0 -580 240t-239 579q0 339 240 579t579 240q268 0 492 -158q-107 31 -197 31z" />
    <glyph glyph-name="spade" unicode="&#x2660;" horiz-adv-x="1843" 
d="M1737 682q-1 -148 -105 -251t-250 -103t-253 94q-105 94 -162 235l-6 -2q16 -209 54 -356t113 -299h-413q76 152 113 299q38 147 55 356l-6 2q-57 -141 -163 -235t-252 -94q-147 0 -251 103q-105 103 -105 251t88 254t241 206q152 100 286 238q133 139 199 238h4
q66 -98 198 -238q133 -139 286 -238q153 -100 241 -206t88 -254z" />
    <glyph glyph-name="club" unicode="&#x2663;" horiz-adv-x="1843" 
d="M462 328q-147 0 -251 103q-105 103 -105 259t100 259t257 104q82 0 172 -47l4 4q-78 117 -78 255q-1 137 103 245t258 108t257 -108t103 -246t-78 -254l4 -4q90 47 172 47q158 1 257 -103t99 -260t-104 -259t-250 -103t-253 94q-105 94 -162 235l-6 -2q16 -209 54 -356
t113 -299h-413q76 152 113 299q38 147 55 356l-6 2q-57 -141 -163 -235t-252 -94z" />
    <glyph glyph-name="heart" unicode="&#x2665;" horiz-adv-x="1843" 
d="M106 1196q0 184 106 303t284 119q176 0 273 -87t149 -235h8q51 146 148 234q98 88 274 88t282 -119t107 -303q0 -238 -336 -616q-150 -170 -285 -341t-192 -259h-4q-57 88 -193 259q-135 171 -285 341q-336 379 -336 616z" />
    <glyph glyph-name="diamond" unicode="&#x2666;" horiz-adv-x="1843" 
d="M1673 799q-217 -170 -415 -386t-334 -433h-4q-137 217 -335 433t-415 386q217 170 415 386t335 433h4q136 -217 334 -433t415 -386z" />
    <glyph glyph-name="uni267B" unicode="&#x267b;" horiz-adv-x="1966" 
d="M1651 1079l141 -239q20 -37 20 -90q2 -98 -77 -179q-80 -80 -152 -79l-237 411zM913 84h-276q-45 0 -90 27q-88 51 -118 163t9 164h475v-354zM410 1225l137 243q20 35 69 64q94 49 198 20t140 -92l-237 -411zM827 1597h396q49 -2 73 -5q24 -4 58 -26q33 -22 57 -65
l57 -100l88 49l-124 -340l-355 64l84 49l-147 256q-27 47 -74 77t-80 33l-33 6v2zM381 250h-4l-197 344q-22 44 -30 66q-24 72 22 145l57 100l-86 49l357 64l121 -340l-84 49q-143 -247 -159 -275t-18 -83t9 -86zM1393 84h-117v-100l-232 278l232 277v-101h297q53 0 102 27
t70 53l22 27l2 -4l-196 -342q-31 -45 -44 -61t-49 -36q-36 -18 -87 -18z" />
    <glyph glyph-name="uni267C" unicode="&#x267c;" horiz-adv-x="1966" 
d="M131 799q0 335 238 573q237 238 573 238t574 -238t238 -574t-238 -573t-574 -237t-574 238t-237 573zM1393 522h-230v78l-180 -215l180 -215v78h90q57 0 85 22t55 66l153 266l-2 2q-25 -33 -67 -57q-43 -25 -84 -25zM1563 834l-109 186l-237 -137l184 -320q57 -1 119 61
t59 140q0 41 -16 70zM467 377h2q-41 90 6 172l115 199l65 -39l-94 264l-276 -49l67 -39l-45 -78q-20 -33 -22 -65t4 -48t24 -51zM659 248h215v274h-368q-31 -41 -7 -128t91 -126q34 -20 69 -20zM807 1421v-2q98 -10 145 -90l115 -199l-66 -38l275 -50l96 265l-67 -39l-45 78
q-29 49 -61 62t-85 13h-307zM598 1321l-106 -188l237 -138l184 320q-27 49 -107 71t-155 -16q-37 -22 -53 -49z" />
    <glyph glyph-name="uni267D" unicode="&#x267d;" horiz-adv-x="1966" 
d="M201 799q0 -307 217 -525t524 -217q307 0 524 217q217 216 217 524t-217 525t-524 217t-524 -217t-217 -524zM123 799q-1 339 239 579t580 240t580 -240t240 -580t-240 -579t-580 -239t-580 239q-239 240 -239 580zM1253 248h-90v-78l-180 215l180 215v-78h230
q41 0 79 20t56 42l16 20l2 -2l-153 -266q-19 -31 -31 -46q-36 -42 -109 -42zM1454 1020l109 -186q16 -29 16 -70q2 -78 -59 -139t-119 -62l-184 320zM469 377h-2l-154 266q-18 35 -24 51t-4 48t22 65l45 78l-67 39l276 49l94 -264l-65 39l-115 -199q-20 -37 -22 -80t6 -68z
M874 248h-215q-35 0 -69 20q-68 39 -91 126q-24 87 7 128h368v-274zM807 1421h307q53 0 85 -13t61 -62l45 -78l67 39l-96 -265l-275 50l66 38l-115 199q-20 35 -57 57t-64 27l-24 6v2zM492 1133l106 188q16 27 53 49q74 37 155 15t107 -70l-184 -320z" />
    <glyph glyph-name="mediumwhitecircle" unicode="&#x26aa;" horiz-adv-x="1372" 
d="M205 543q0 -199 141 -340t340 -141t340 140q141 142 141 341t-141 340t-340 141t-340 -141t-141 -340zM123 543q0 233 165 398t398 165t398 -165t165 -398t-165 -399t-398 -164q-233 0 -398 165t-165 398z" />
    <glyph glyph-name="mediumblackcircle" unicode="&#x26ab;" horiz-adv-x="1372" 
d="M123 543q0 233 165 398t398 165t398 -165t165 -398t-165 -399t-398 -164q-233 0 -398 165t-165 398z" />
    <glyph glyph-name="anglebracketleft" unicode="&#x3008;" 
d="M657 1720l-464 -991l200 -975h-82l-202 983l460 983h88z" />
    <glyph glyph-name="anglebracketright" unicode="&#x3009;" 
d="M-51 -246l465 991l-201 975h82l203 -983l-461 -983h-88z" />
    <glyph glyph-name="fi" unicode="&#xe38c;" horiz-adv-x="1167" 
d="M1120 1505l-16 -123h-123l16 123h123zM821 0l142 1085h81l-141 -1085h-82zM651 1659q86 0 140 -23l-11 -73q-42 18 -140 18t-158 -47t-76 -168l-37 -281h327l-10 -77h-328l-131 -1008h-82l131 1008h-174l11 77h174l41 306q37 268 323 268z" />
    <glyph glyph-name="fi" unicode="&#xfb01;" horiz-adv-x="1167" 
d="M1120 1505l-16 -123h-123l16 123h123zM821 0l142 1085h81l-141 -1085h-82zM651 1659q86 0 140 -23l-11 -73q-42 18 -140 18t-158 -47t-76 -168l-37 -281h327l-10 -77h-328l-131 -1008h-82l131 1008h-174l11 77h174l41 306q37 268 323 268z" />
    <glyph glyph-name="fl" unicode="&#xe38d;" horiz-adv-x="1167" 
d="M821 0l215 1638h82l-215 -1638h-82zM651 1659q86 0 140 -23l-11 -73q-42 18 -140 18t-158 -47t-76 -168l-37 -281h327l-10 -77h-328l-131 -1008h-82l131 1008h-174l11 77h174l41 306q37 268 323 268z" />
    <glyph glyph-name="fl" unicode="&#xfb02;" horiz-adv-x="1167" 
d="M821 0l215 1638h82l-215 -1638h-82zM651 1659q86 0 140 -23l-11 -73q-42 18 -140 18t-158 -47t-76 -168l-37 -281h327l-10 -77h-328l-131 -1008h-82l131 1008h-174l11 77h174l41 306q37 268 323 268z" />
    <glyph glyph-name="invertedbreve" unicode="&#xe411;" horiz-adv-x="1024" 
d="M621 1618q157 0 223 -94t45 -254h-74q37 281 -201 280q-238 0 -274 -280h-74q20 162 110 255t245 93z" />
    <glyph glyph-name="doublegrave" unicode="&#xe412;" horiz-adv-x="1024" 
d="M506 1597h86l141 -327h-86zM281 1597h86l141 -327h-86z" />
    <glyph glyph-name="caronSlovak" unicode="&#xe413;" horiz-adv-x="1024" 
d="M791 1638h92l-80 -368h-62z" />
    <glyph glyph-name="commaaccent" unicode="&#xe414;" horiz-adv-x="1232" 
d="M457 -123l-15 -98q-12 -97 -69 -153t-142 -56l9 61q113 0 139 123h-62l17 123h123z" />
    <glyph glyph-name="commaaccent" unicode="&#xf6c3;" horiz-adv-x="1232" 
d="M457 -123l-15 -98q-12 -97 -69 -153t-142 -56l9 61q113 0 139 123h-62l17 123h123z" />
    <glyph glyph-name="dotbelow" unicode="&#xe415;" horiz-adv-x="1232" 
d="M444 -205l-16 -123h-123l17 123h122z" />
    <glyph glyph-name="altcedilla" unicode="&#xe416;" horiz-adv-x="1232" 
d="M377 -199q-68 0 -125 -20l8 63q61 25 137 25t128 -35t42 -110q-23 -154 -219 -154q-117 0 -174 45l35 61q53 -39 137 -38q144 -1 154 83q8 80 -123 80z" />
    <glyph glyph-name="grave.cap" unicode="&#xe421;" horiz-adv-x="1024" 
d="M498 1946h86l96 -226h-86z" />
    <glyph glyph-name="acute.cap" unicode="&#xe422;" horiz-adv-x="1024" 
d="M752 1946h86l-158 -226h-86z" />
    <glyph glyph-name="circumflex.cap" unicode="&#xe423;" horiz-adv-x="1024" 
d="M498 1720h-97l236 226h61l174 -226h-88l-122 158z" />
    <glyph glyph-name="tilde.cap" unicode="&#xe424;" horiz-adv-x="1024" 
d="M780 1737q-66 0 -143 62q-78 62 -115 63q-80 0 -94 -105h-74q12 86 58 129t112 43q64 0 142 -62t114 -63q82 1 94 105h74q-10 -84 -56 -128t-112 -44z" />
    <glyph glyph-name="macron.cap" unicode="&#xe425;" horiz-adv-x="1024" 
d="M442 1792l11 82h409l-10 -82h-410z" />
    <glyph glyph-name="breve.cap" unicode="&#xe426;" horiz-adv-x="1024" 
d="M638 1700q-126 0 -192 68t-49 178h74q-10 -80 33 -129t139 -49q95 0 153 48q58 50 68 130h74q-16 -110 -95 -178t-205 -68z" />
    <glyph glyph-name="invertedbreve.cap" unicode="&#xe427;" horiz-adv-x="1024" 
d="M666 1966q128 0 192 -68t49 -178h-73q10 80 -33 129t-139 49t-154 -49t-68 -129h-73q14 110 93 178t206 68z" />
    <glyph glyph-name="dotaccent.cap" unicode="&#xe428;" horiz-adv-x="1024" 
d="M721 1894l-16 -122h-123l16 122h123z" />
    <glyph glyph-name="dieresis.cap" unicode="&#xe429;" horiz-adv-x="1024" 
d="M874 1894l-16 -122h-123l17 122h122zM567 1894l-16 -122h-123l16 122h123z" />
    <glyph glyph-name="ring.cap" unicode="&#xe42a;" horiz-adv-x="1024" 
d="M629 1663q49 0 89 35t46 84t-24 84t-78 35t-90 -35q-40 -35 -46 -84t24 -84t79 -35zM670 1966q78 0 124 -54t36 -131t-72 -130q-61 -53 -138 -53t-123 54t-36 131t71 130q60 53 138 53z" />
    <glyph glyph-name="hungarumlaut.cap" unicode="&#xe42b;" horiz-adv-x="1024" 
d="M864 1946h86l-157 -226h-86zM639 1946h86l-158 -226h-86z" />
    <glyph glyph-name="doublegrave.cap" unicode="&#xe42c;" horiz-adv-x="1024" 
d="M385 1946h86l96 -226h-86zM610 1946h86l97 -226h-86z" />
    <glyph glyph-name="caron.cap" unicode="&#xe42d;" horiz-adv-x="1024" 
d="M432 1946h88l121 -158l166 158h96l-235 -226h-62z" />
    <glyph glyph-name="commaaccent.cap" unicode="&#xe42e;" horiz-adv-x="1024" 
d="M575 1720l13 99q8 63 51 105t123 42l-8 -61q-47 1 -69 -13t-32 -49h62l-17 -123h-123z" />
    <glyph glyph-name="exclamdown.cap" unicode="&#xe441;" horiz-adv-x="409" 
d="M238 1475l14 122h123l-15 -122h-122zM152 0h-95l185 1239h49z" />
    <glyph glyph-name="questiondown.cap" unicode="&#xe444;" horiz-adv-x="901" 
d="M618 1597l-14 -122h-123l15 122h122zM360 57q176 0 258 130t117 386h82l-4 -26q-23 -141 -51 -237t-79 -175q-98 -157 -323 -155q-176 0 -263 86t-87 233q0 265 148 425q63 68 129 134q166 165 198 381h50q-18 -219 -174 -393q-62 -70 -122 -140q-143 -166 -143 -378
q0 -137 62 -204t202 -67z" />
    <glyph glyph-name="guilsinglleft.cap" unicode="&#xe451;" 
d="M561 1147l-12 -98l-367 -256l299 -256l-12 -86l-367 317l9 61z" />
    <glyph glyph-name="guilsinglright.cap" unicode="&#xe452;" 
d="M139 1061l13 86l368 -318l-8 -61l-453 -317l13 98l368 256z" />
    <glyph glyph-name="guillemotleft.cap" unicode="&#xe453;" horiz-adv-x="1024" 
d="M971 1147l-13 -98l-368 -256l301 -256l-12 -86l-369 317l8 61zM561 1147l-12 -98l-369 -256l301 -256l-12 -86l-369 317l9 61z" />
    <glyph glyph-name="guillemotright.cap" unicode="&#xe454;" horiz-adv-x="1024" 
d="M139 1061l13 86l366 -318l-8 -61l-451 -317l13 98l366 256zM549 1061l12 86l367 -318l-8 -61l-451 -317l12 98l367 256z" />
    <glyph glyph-name="slash.cap" unicode="&#xe461;" 
d="M51 0h-82l602 1597h82z" />
    <glyph glyph-name="backslash.cap" unicode="&#xe462;" 
d="M178 1597h82l184 -1597h-82z" />
    <glyph glyph-name="bar.cap" unicode="&#xe463;" horiz-adv-x="368" 
d="M43 0l209 1597h82l-209 -1597h-82z" />
    <glyph glyph-name="doublebar.cap" unicode="&#xe464;" horiz-adv-x="573" 
d="M248 0l209 1597h82l-209 -1597h-82zM43 0l209 1597h82l-209 -1597h-82z" />
    <glyph glyph-name="brokenbar.cap" unicode="&#xe465;" horiz-adv-x="368" 
d="M43 0l94 717h82l-94 -717h-82zM158 881l94 716h82l-94 -716h-82z" />
    <glyph glyph-name="bullet.cap" unicode="&#xe466;" horiz-adv-x="778" 
d="M672 1044l-66 -491h-491l65 491h492z" />
    <glyph glyph-name="onethirdemdash" unicode="&#xe471;" horiz-adv-x="681" 
d="M588 678h-518l10 78h518z" />
    <glyph glyph-name="threequarteremdash" unicode="&#xe472;" horiz-adv-x="1536" 
d="M70 678l10 78h1372l-10 -78h-1372z" />
    <glyph glyph-name="periodcentered.cap" unicode="&#xe481;" horiz-adv-x="409" 
d="M279 860l-17 -123h-123l17 123h123z" />
    <glyph glyph-name="hyphen.cap" unicode="&#xe482;" horiz-adv-x="655" 
d="M80 760l10 78h492l-11 -78h-491z" />
    <glyph glyph-name="onethirdemdash.cap" unicode="&#xe483;" horiz-adv-x="681" 
d="M598 760h-500l11 78h499z" />
    <glyph glyph-name="endash.cap" unicode="&#xe484;" horiz-adv-x="1024" 
d="M80 760l10 78h860l-10 -78h-860z" />
    <glyph glyph-name="threequarteremdash.cap" unicode="&#xe485;" horiz-adv-x="1536" 
d="M80 760l10 78h1372l-10 -78h-1372z" />
    <glyph glyph-name="emdash.cap" unicode="&#xe486;" horiz-adv-x="2048" 
d="M80 760l10 78h1884l-10 -78h-1884z" />
    <glyph glyph-name="figuredash.cap" unicode="&#xe487;" horiz-adv-x="1228" 
d="M80 760l10 78h1065l-10 -78h-1065z" />
    <glyph glyph-name="uni2015.cap" unicode="&#xe488;" horiz-adv-x="2457" 
d="M80 760l10 78h2294l-10 -78h-2294z" />
    <glyph glyph-name="parenleft.cap" unicode="&#xe491;" 
d="M133 776l6 47q53 410 350 774h95q-311 -381 -361 -774l-6 -49q-53 -416 152 -774h-90q-199 360 -146 776z" />
    <glyph glyph-name="parenright.cap" unicode="&#xe492;" 
d="M485 821l-6 -47q-53 -410 -350 -774h-94q311 381 360 774l6 49q53 416 -151 774h90q198 -360 145 -776z" />
    <glyph glyph-name="bracketleft.cap" unicode="&#xe493;" 
d="M252 1597h379l-10 -81h-297l-189 -1434h297l-10 -82h-379z" />
    <glyph glyph-name="bracketright.cap" unicode="&#xe494;" 
d="M371 0h-379l10 82h297l188 1434h-297l11 81h379z" />
    <glyph glyph-name="braceleft.cap" unicode="&#xe495;" 
d="M391 0q-106 0 -174 58t-49 198l41 317q16 111 -22 148t-138 37l12 82q100 0 147 36q46 36 60 148l43 317q15 99 65 159t104 78t120 19h31l-10 -81q-115 0 -166 -46t-70 -180l-37 -291q-18 -150 -135 -200q100 -53 82 -201l-39 -291q-18 -141 18 -183t158 -42l-10 -82h-31
z" />
    <glyph glyph-name="braceright.cap" unicode="&#xe496;" 
d="M231 1597q107 0 175 -58t49 -198l-41 -317q-16 -112 22 -148t137 -36l-12 -82q-100 0 -146 -36t-61 -149l-43 -317q-14 -98 -64 -158q-51 -60 -105 -80q-54 -18 -119 -18h-31l10 82q115 0 166 45t70 180l36 291q18 150 136 201q-100 53 -82 200l39 291q18 142 -19 184
t-158 42l11 81h30z" />
    <glyph glyph-name="anglebracketleft.cap" unicode="&#xe497;" 
d="M369 0h-82l-170 799l379 798h86l-381 -804z" />
    <glyph glyph-name="anglebracketright.cap" unicode="&#xe498;" 
d="M254 1597h82l170 -798l-379 -799h-86l381 805z" />
    <glyph glyph-name="lowline" unicode="&#xe511;" horiz-adv-x="655" 
d="M2 0l10 78h451l-10 -78h-451z" />
    <glyph glyph-name="underscoremonospace" unicode="&#xe512;" horiz-adv-x="1228" 
d="M-31 -242l11 78h1024l-11 -78h-1024z" />
    <glyph glyph-name="underscoremonospace" unicode="&#xff3f;" horiz-adv-x="1228" 
d="M-31 -242l11 78h1024l-11 -78h-1024z" />
    <glyph glyph-name="at.cap" unicode="&#xe513;" horiz-adv-x="1945" 
d="M1004 1233q-166 0 -262 -111t-126 -293l-6 -41q-27 -178 44 -290t249 -113q178 0 320 188l61 471q-37 76 -106 133q-70 56 -174 56zM897 -147h12q401 0 699 213l39 -66q-297 -225 -741 -225t-669 262q-224 262 -167 721l10 82q57 457 342 720t711 263q362 0 588 -207
q110 -100 159 -261t23 -362l-9 -61q-51 -361 -218 -487q-85 -65 -181 -91t-223 -26h-51v155q-129 -176 -343 -176q-214 -1 -298 141q-86 142 -56 340l6 41q31 205 147 343q115 138 331 138t299 -177l41 157h61l-49 -307l-78 -580q110 3 186 21q189 46 271 233q47 109 69 275
l9 61q25 187 -19 335t-140 238q-195 180 -513 179h-12q-385 0 -653 -244t-318 -661l-10 -82q-53 -428 151 -667q205 -238 594 -238z" />
    <glyph glyph-name="zero.inf" unicode="&#xe571;" 
d="M246 334h-4q-94 0 -136 -43t-53 -141l-43 -324q-25 -182 150 -182h4q94 0 135 43t53 141l43 324q10 90 -23 136q-34 46 -126 46zM246 399q128 -1 183 -65q54 -64 40 -174l-45 -342q-16 -124 -76 -182t-189 -58q-128 0 -182 64t-40 176l45 342q16 125 76 182t188 57z" />
    <glyph glyph-name="one.inf" unicode="&#xe572;" 
d="M406 -410h-490l8 66h209l84 637l-205 -127l-28 57l272 170h47l-96 -737h207z" />
    <glyph glyph-name="two.inf" unicode="&#xe573;" 
d="M252 334h-8q-88 0 -138 -50t-63 -161h-72l4 31q31 246 273 245q258 0 229 -235q-6 -59 -34 -99t-87 -96l-336 -313h390l-9 -66h-499l6 45l391 367q96 88 104 162q16 85 -28 128q-43 42 -123 42z" />
    <glyph glyph-name="three.inf" unicode="&#xe574;" 
d="M160 -356h12q168 0 184 143q11 91 -29 134q-40 44 -112 44h-117l8 66h113q74 1 125 33t59 100q16 85 -28 128q-43 42 -123 42h-8q-88 0 -138 -50t-63 -161h-72l4 31q31 246 273 245q258 0 228 -242q-15 -124 -148 -159q55 -16 84 -70q30 -53 18 -145q-12 -93 -83 -149
t-191 -56t-182 66q-63 66 -46 202h74q-14 -100 29 -151t129 -51z" />
    <glyph glyph-name="four.inf" unicode="&#xe575;" 
d="M309 264l-305 -397l88 2h164l37 291zM293 -410h-74l27 211h-342l8 49l414 539h71l-67 -520h131l-10 -68h-132z" />
    <glyph glyph-name="five.inf" unicode="&#xe576;" 
d="M160 -356h12q74 0 128 46t66 145q13 99 -32 147t-121 49h-12q-57 0 -111 -29t-84 -80l-59 19l80 448h473l-8 -67h-404l-51 -289q63 63 177 63t176 -69t47 -195t-88 -190t-193 -64t-182 66q-63 66 -46 202h74q-14 -100 29 -151t129 -51z" />
    <glyph glyph-name="six.inf" unicode="&#xe577;" 
d="M223 27h-8q-127 0 -201 -115l-6 -51q-12 -97 31 -157t119 -60h8q82 0 137 51t67 146q11 95 -28 141t-119 45zM221 92q106 0 171 -62q64 -62 48 -194q-32 -256 -278 -258q-121 0 -181 81t-42 228q27 207 165 359t375 153l-8 -65q-193 0 -319 -137q-68 -74 -107 -179
q70 74 176 74z" />
    <glyph glyph-name="seven.inf" unicode="&#xe578;" 
d="M-29 102l37 287h504l-6 -45l-406 -754h-77l395 734l-113 -2h-239l-29 -220h-66z" />
    <glyph glyph-name="eight.inf" unicode="&#xe579;" 
d="M248 334h-8q-168 0 -187 -139q-10 -89 31 -126q41 -38 115 -38h20q74 0 125 35t59 102q16 85 -28 126q-45 40 -127 40zM215 -35h-29q-74 0 -126 -39t-62 -120q-10 -82 35 -122t121 -40h12q76 0 129 37t63 119t-30 123q-39 42 -113 42zM154 -422q-118 0 -180 64t-50 159
q19 163 158 197q-53 16 -84 69t-18 128q27 205 264 204q127 0 187 -58t46 -173q-18 -137 -149 -170q55 -16 84 -68t20 -123q-14 -113 -88 -171t-190 -58z" />
    <glyph glyph-name="nine.inf" unicode="&#xe57a;" 
d="M190 -49q127 0 201 115l6 51q12 98 -30 157q-43 59 -119 60h-8q-82 0 -137 -51t-67 -146q-22 -186 146 -186h8zM184 -115q-106 1 -171 63t-48 193q16 131 89 195t192 63q119 0 179 -81t42 -228q-27 -208 -165 -360t-376 -152l8 66q193 0 320 137q68 74 106 178
q-70 -74 -176 -74z" />
    <glyph glyph-name="plus.inf" unicode="&#xe57b;" 
d="M203 248h67l-28 -225h225l-10 -68h-226l-28 -223h-68l29 223h-223l10 68h223z" />
    <glyph glyph-name="minus.inf" unicode="&#xe57c;" 
d="M-59 -45l10 68h516l-10 -68h-516z" />
    <glyph glyph-name="equal.inf" unicode="&#xe57d;" 
d="M-72 -150l9 68h516l-9 -68h-516zM-45 59l8 68h516l-8 -68h-516z" />
    <glyph glyph-name="parenleft.inf" unicode="&#xe57e;" horiz-adv-x="323" 
d="M31 -410q-104 180 -75 409q28 230 177 390h78q-153 -169 -181 -386q-28 -216 74 -413h-73z" />
    <glyph glyph-name="parenright.inf" unicode="&#xe57f;" horiz-adv-x="323" 
d="M84 389q102 -177 75 -408q-28 -231 -177 -391h-78q155 171 182 400q27 203 -76 399h74z" />
    <glyph glyph-name="Anocross" unicode="&#xe731;" horiz-adv-x="1228" 
d="M666 1618h122l271 -1618h-86l-254 1536l-656 -1536h-94z" />
    <glyph glyph-name="idotaccent" unicode="&#xe785;" horiz-adv-x="409" 
d="M362 1505l-16 -123h-123l17 123h122zM63 0l142 1085h82l-142 -1085h-82z" />
    <glyph glyph-name="interrobangdown" unicode="&#xe935;" horiz-adv-x="901" 
d="M553 1085l-14 -122h-123l14 122h123zM37 -108q0 -108 51 -172q51 -62 168 -70l125 819q-49 -79 -221 -256q-48 -49 -85 -131q-38 -82 -38 -190zM308 -430q-192 0 -274 82q-83 82 -83 220q0 247 146 384q62 56 127 112t121 146q57 90 75 213h49l-121 -1075q270 37 328 471
h82l-4 -27q-42 -268 -148 -397t-298 -129z" />
    <glyph glyph-name="interrobangdown.cap" unicode="&#xe99b;" horiz-adv-x="901" 
d="M483 1475l15 122h123l-15 -122h-123zM98 328q0 -246 213 -269l138 916q-39 -68 -108 -150t-117 -138t-87 -151t-39 -208zM12 299q0 265 148 425q63 68 129 134q166 165 198 381h50l-134 -1180q154 17 228 145t106 369h82l-4 -26q-23 -141 -51 -237t-79 -175
q-98 -157 -323 -155q-176 0 -263 86t-87 233z" />
    <glyph glyph-name="registered.cap" unicode="&#xe99c;" horiz-adv-x="1884" 
d="M205 799q0 -305 216 -521t521 -216t521 216t216 521t-216 521t-521 216t-521 -216t-216 -521zM123 799q-1 339 239 579t580 240t580 -240t240 -580t-240 -579t-580 -239t-580 239q-239 240 -239 580zM719 801h246q209 0 209 194v17q0 195 -209 194h-246v-405zM719 727
v-410h-82v963h328q123 0 207 -59t83 -205v-25q0 -195 -165 -248l165 -426h-88l-159 412q-14 -2 -43 -2h-246z" />
    <glyph glyph-name="period.T" unicode="&#xf182;" 
d="M283 123l-15 -123h-123l15 123h123z" />
    <glyph glyph-name="comma.T" unicode="&#xf183;" 
d="M283 123l-13 -98q-33 -250 -217 -250l8 61q61 0 96 36q34 36 50 128h-62l15 123h123z" />
    <glyph glyph-name="colon.T" unicode="&#xf184;" 
d="M381 860l-16 -123h-123l16 123h123zM283 123l-15 -123h-123l15 123h123z" />
    <glyph glyph-name="semicolon.T" unicode="&#xf185;" 
d="M381 860l-16 -123h-123l16 123h123zM283 123l-13 -98q-33 -250 -217 -250l8 61q61 0 96 36q34 36 50 128h-62l15 123h123z" />
    <glyph glyph-name="onesixteenth" unicode="&#xf215;" horiz-adv-x="2252" 
d="M1909 436q-127 0 -201 -114l-6 -52q-12 -98 31 -157t118 -60h9q82 0 137 51t66 146q22 186 -146 186h-8zM1915 502q106 0 171 -62t48 -194q-16 -130 -89 -194t-192 -64t-179 81t-42 228q27 207 165 359t376 153l-8 -66q-193 0 -320 -137q-68 -74 -106 -178q70 74 176 74z
M1485 0h-490l9 66h208l84 636l-204 -127l-29 58l272 170h47l-96 -737h207zM176 0h-94l1388 1597h95zM565 799h-489l8 65h209l84 637l-205 -127l-29 58l273 170h47l-96 -738h206z" />
    <glyph glyph-name="threesixteenths" unicode="&#xf216;" horiz-adv-x="2252" 
d="M1909 436q-127 0 -201 -114l-6 -52q-12 -98 31 -157t118 -60h9q82 0 137 51t66 146q22 186 -146 186h-8zM1915 502q106 0 171 -62t48 -194q-16 -130 -89 -194t-192 -64t-179 81t-42 228q27 207 165 359t376 153l-8 -66q-193 0 -320 -137q-68 -74 -106 -178q70 74 176 74z
M1485 0h-490l9 66h208l84 636l-204 -127l-29 58l272 170h47l-96 -737h207zM176 0h-94l1388 1597h95zM319 852h13q168 0 184 143q11 92 -30 135q-40 43 -111 44h-117l8 65h113q169 0 185 145q9 78 -32 118t-120 40h-9q-88 0 -137 -50t-63 -161h-72l4 31q31 246 273 246
q257 0 228 -243q-15 -124 -149 -159q55 -16 84 -69t18 -146q-11 -92 -82 -148q-71 -57 -191 -57t-183 67t-47 185l2 17h74q-14 -100 28 -152q43 -51 129 -51z" />
    <glyph glyph-name="fivesixteenths" unicode="&#xf217;" horiz-adv-x="2252" 
d="M1909 436q-127 0 -201 -114l-6 -52q-12 -98 31 -157t118 -60h9q82 0 137 51t66 146q22 186 -146 186h-8zM1915 502q106 0 171 -62t48 -194q-16 -130 -89 -194t-192 -64t-179 81t-42 228q27 207 165 359t376 153l-8 -66q-193 0 -320 -137q-68 -74 -106 -178q70 74 176 74z
M1485 0h-490l9 66h208l84 636l-204 -127l-29 58l272 170h47l-96 -737h207zM176 0h-94l1388 1597h95zM319 852h13q74 0 128 46t66 145q12 100 -32 148q-45 48 -121 48h-13q-57 0 -111 -29t-83 -80l-60 19l80 448h473l-8 -67h-403l-51 -289q63 63 177 63t176 -68
q62 -69 47 -195q-15 -127 -88 -191t-193 -64t-183 67t-47 185l2 17h74q-14 -100 28 -152q43 -51 129 -51z" />
    <glyph glyph-name="sevensixteenths" unicode="&#xf218;" horiz-adv-x="2252" 
d="M1909 436q-127 0 -201 -114l-6 -52q-12 -98 31 -157t118 -60h9q82 0 137 51t66 146q22 186 -146 186h-8zM1915 502q106 0 171 -62t48 -194q-16 -130 -89 -194t-192 -64t-179 81t-42 228q27 207 165 359t376 153l-8 -66q-193 0 -320 -137q-68 -74 -106 -178q70 74 176 74z
M1485 0h-490l9 66h208l84 636l-204 -127l-29 58l272 170h47l-96 -737h207zM176 0h-94l1388 1597h95zM131 1311l37 286h504l-6 -45l-406 -753h-78l396 733l-113 -2h-240l-28 -219h-66z" />
    <glyph glyph-name="ninesixteenths" unicode="&#xf219;" horiz-adv-x="2252" 
d="M1909 436q-127 0 -201 -114l-6 -52q-12 -98 31 -157t118 -60h9q82 0 137 51t66 146q22 186 -146 186h-8zM1915 502q106 0 171 -62t48 -194q-16 -130 -89 -194t-192 -64t-179 81t-42 228q27 207 165 359t376 153l-8 -66q-193 0 -320 -137q-68 -74 -106 -178q70 74 176 74z
M1485 0h-490l9 66h208l84 636l-204 -127l-29 58l272 170h47l-96 -737h207zM176 0h-94l1388 1597h95zM342 1159h8q127 0 201 115l6 51q12 97 -31 157t-118 60h-9q-82 0 -137 -51t-66 -146q-21 -186 146 -186zM86 786l8 66q193 0 320 137q68 74 106 178q-70 -73 -176 -73
t-171 62t-50 181q32 269 280 271q121 0 181 -81t43 -229q-27 -208 -165 -360t-376 -152z" />
    <glyph glyph-name="elevensixteenths" unicode="&#xf220;" horiz-adv-x="2867" 
d="M2531 436h-8q-127 0 -201 -114l-6 -52q-12 -98 31 -157t119 -60h8q82 0 137 51t67 147q22 185 -147 185zM2529 502q106 0 171 -62t48 -194q-16 -130 -89 -194t-191 -64t-179 81q-60 81 -42 228q27 207 165 359t375 153l-8 -66q-193 0 -319 -137q-68 -74 -107 -178
q70 74 176 74zM2099 0h-489l8 66h209l84 636l-205 -127l-29 58l273 170h47l-96 -737h206zM791 0h-95l1389 1597h94zM1180 799h-490l8 65h209l84 637l-205 -127l-28 58l272 170h47l-96 -738h207zM565 799h-489l8 65h209l84 637l-205 -127l-29 58l273 170h47l-96 -738h206z
" />
    <glyph glyph-name="thirteensixteenths" unicode="&#xf221;" horiz-adv-x="2867" 
d="M2531 436h-8q-127 0 -201 -114l-6 -52q-12 -98 31 -157t119 -60h8q82 0 137 51t67 147q22 185 -147 185zM2529 502q106 0 171 -62t48 -194q-16 -130 -89 -194t-191 -64t-179 81q-60 81 -42 228q27 207 165 359t375 153l-8 -66q-193 0 -319 -137q-68 -74 -107 -178
q70 74 176 74zM2099 0h-489l8 66h209l84 636l-205 -127l-29 58l273 170h47l-96 -737h206zM791 0h-95l1389 1597h94zM934 852h12q168 0 184 143q16 88 -27 133q-42 45 -114 46h-117l9 65h112q170 0 186 145q9 78 -32 118t-121 40h-8q-88 0 -137 -50t-64 -161h-72l5 31
q31 246 272 246q257 0 228 -243q-15 -124 -148 -159q55 -16 84 -69t17 -145q-11 -93 -82 -149q-71 -57 -191 -57t-182 67q-63 67 -48 185l2 17h74q-14 -99 29 -151t129 -52zM565 799h-489l8 65h209l84 637l-205 -127l-29 58l273 170h47l-96 -738h206z" />
    <glyph glyph-name="fifteensixteenths" unicode="&#xf222;" horiz-adv-x="2867" 
d="M2531 436h-8q-127 0 -201 -114l-6 -52q-12 -98 31 -157t119 -60h8q82 0 137 51t67 147q22 185 -147 185zM2529 502q106 0 171 -62t48 -194q-16 -130 -89 -194t-191 -64t-179 81q-60 81 -42 228q27 207 165 359t375 153l-8 -66q-193 0 -319 -137q-68 -74 -107 -178
q70 74 176 74zM2099 0h-489l8 66h209l84 636l-205 -127l-29 58l273 170h47l-96 -737h206zM791 0h-95l1389 1597h94zM934 852h12q74 0 128 46t67 146q12 99 -33 147t-121 48h-12q-57 0 -111 -29t-84 -80l-59 19l80 448h473l-8 -67h-404l-51 -289q63 63 177 63t176 -68
q62 -69 47 -195q-15 -127 -88 -191t-193 -64t-182 67q-63 67 -48 185l2 17h74q-14 -99 29 -151t129 -52zM565 799h-489l8 65h209l84 637l-205 -127l-29 58l273 170h47l-96 -738h206z" />
    </font>
</defs>
</svg>
