<?xml version="1.0" standalone="no"?>
<!DOCTYPE svg PUBLIC "-//W3C//DTD SVG 1.1//EN" "http://www.w3.org/Graphics/SVG/1.1/DTD/svg11.dtd" >
<svg xmlns="http://www.w3.org/2000/svg">
<metadata>
Created by FontPrep 20130207 at Sun May 22 19:32:16 2016
 By Blaine O'Neill
Copyright (c) 2015 Quote-Unquote Apps.
</metadata>
<defs>
<font id="b372bae52c116bdf9fad7e3502d1812f" horiz-adv-x='1024' >
  <font-face 
    font-family="CourierPrimeSans-Regular"
    font-weight="400"
    font-stretch="normal"
    units-per-em="2048"
    panose-1="0 0 5 9 0 0 0 0 0 0"
    ascent="1638"
    descent="-410"
    x-height="924"
    cap-height="1187"
    bbox="-759 -838 3211 1827"
    underline-thickness="130"
    underline-position="-120"
    unicode-range="U+0020-FB02"
  />
<missing-glyph horiz-adv-x="1032" 
d="M345 -267v-68h144l-144 -97v-69h343v69h-211l145 97h66v68h-343zM619 -152h-206v97h206v-97zM345 13v-233h343v233h-343zM481 370v-115h70v47h69v-97h-207v165h-68v-233h343v233h-207zM620 622v-136h-275v-70h343v206h-68zM345 746v-68h136v-76h-136v-69h206v145h137v68
h-343zM481 872h-68v74h68v-74zM345 1016v-214h343v70h-137v144h-206zM347 1283v-68h134v-77h-136v-68h343v68h-137v77h137v68h-341zM846 -643h-654v2064h654v-2064z" />
    <glyph glyph-name=".notdef" horiz-adv-x="1032" 
d="M345 -267v-68h144l-144 -97v-69h343v69h-211l145 97h66v68h-343zM619 -152h-206v97h206v-97zM345 13v-233h343v233h-343zM481 370v-115h70v47h69v-97h-207v165h-68v-233h343v233h-207zM620 622v-136h-275v-70h343v206h-68zM345 746v-68h136v-76h-136v-69h206v145h137v68
h-343zM481 872h-68v74h68v-74zM345 1016v-214h343v70h-137v144h-206zM347 1283v-68h134v-77h-136v-68h343v68h-137v77h137v68h-341zM846 -643h-654v2064h654v-2064z" />
    <glyph glyph-name=".null" horiz-adv-x="0" 
 />
    <glyph glyph-name="nonmarkingreturn" horiz-adv-x="682" 
 />
    <glyph glyph-name="space" unicode=" " 
 />
    <glyph glyph-name="exclam" unicode="!" 
d="M739 207v-154q0 -34 -29.5 -48.5t-95.5 -14.5t-95.5 14.5t-29.5 48.5v154q0 34 29.5 48.5t95.5 14.5t95.5 -14.5t29.5 -48.5zM679 1269q45 0 41 -50l-49 -707q-4 -48 -58.5 -48t-56.5 48l-48 707q-4 50 41 50h130z" />
    <glyph glyph-name="quotedbl" unicode="&#x22;" 
d="M762 1269h164q42 0 42 -39l-56 -461q-6 -54 -68 -54t-68 54l-55 450q-6 50 41 50zM452 769q-6 -54 -68 -54t-68 54l-55 450q-6 50 41 50h164q42 0 42 -39z" />
    <glyph glyph-name="numbersign" unicode="#" 
d="M778 721h-261l-64 -245h261zM1168 793q0 -39 -14.5 -55.5t-48.5 -16.5h-194l-64 -245h188q34 0 48.5 -16.5t14.5 -55.5t-14.5 -55.5t-48.5 -16.5h-226l-83 -321q-8 -33 -45 -33t-59 15t-22 29t2 23l75 287h-262l-83 -321q-8 -33 -45 -33t-59 15t-22 29t2 23l75 287h-160
q-34 0 -48.5 16.5t-14.5 55.5t14.5 55.5t48.5 16.5h197l64 245h-191q-34 0 -48.5 16.5t-14.5 55.5t14.5 55.5t48.5 16.5h228l81 311q8 33 45 33t59 -14.5t22 -28.5t-2 -24l-72 -277h261l81 311q8 33 45 33t59 -14.5t22 -28.5t-2 -24l-72 -277h157q34 0 48.5 -16.5
t14.5 -55.5z" />
    <glyph glyph-name="dollar" unicode="$" 
d="M894 410q0 60 -52 86t-164 36v-268q107 6 161.5 46t54.5 100zM344 808q0 -55 45 -78t149 -34v244q-92 -5 -143 -41t-51 -91zM608 1312q70 0 70 -65v-167q164 -18 288 -81q40 -21 40 -49t-10 -51q-23 -50 -54 -50q-10 0 -30 9q-110 57 -234 75v-250q129 -13 206 -41
q164 -61 164 -233t-125.5 -229.5t-244.5 -61.5v-178q0 -65 -70 -65t-70 65v184q-180 17 -321 94q-39 22 -39 49t18 63t40 36t39 -9q121 -67 263 -87v276q-128 14 -198 42q-150 58 -150 212q0 176 123.5 229t224.5 57v161q0 65 70 65z" />
    <glyph glyph-name="percent" unicode="%" 
d="M760 252q0 -39 19.5 -72t52.5 -52.5t72 -19.5t72 19.5t52.5 52.5t19.5 72t-19.5 72t-52.5 52.5t-72 19.5t-72 -19.5t-52.5 -52.5t-19.5 -72zM1178 252q0 -74 -37 -137t-100 -100t-137 -37t-137 37t-100 100t-37 137t37 137t100 100t137 37t137 -37t100 -100t37 -137z
M180 935q0 -39 19.5 -72t52.5 -52.5t72 -19.5t72 19.5t52.5 52.5t19.5 72t-19.5 72t-52.5 52.5t-72 19.5t-72 -19.5t-52.5 -52.5t-19.5 -72zM1050 1081q24 0 48 -27q24 -28 25 -50q0 -22 -24 -45l-874 -830q-23 -22 -47 -22t-48 27t-25 50q0 23 24 45l874 830q23 22 47 22z
M598 935q0 -74 -37 -137t-100 -100t-137 -37t-137 37t-100 100t-37 137t37 137t100 100t137 37t137 -37t100 -100t37 -137z" />
    <glyph glyph-name="ampersand" unicode="&#x26;" 
d="M459 530q-138 -92 -138 -211t66 -156t119 -37q123 0 218 116zM1038 593q0 -12 -5 -32q-54 -182 -124 -304l154 -167q19 -22 19 -44t-37 -43t-59 -21t-42 22l-120 131q-136 -157 -318 -157q-105 0 -181.5 45t-117 120.5t-40.5 166.5q0 189 196 325q-99 112 -99 255
q0 89 41 162t117 115t176 42q158 0 297 -87q34 -20 34 -46t-20 -62t-42 -36t-41 12q-107 71 -223 71t-150.5 -61.5t-34.5 -111.5q0 -96 85 -190l301 -327q49 99 84 227q13 48 59 48q91 0 91 -53z" />
    <glyph glyph-name="quotesingle" unicode="'" 
d="M532 1269h164q42 0 42 -39l-56 -461q-6 -54 -68 -54t-68 54l-55 450q-6 50 41 50z" />
    <glyph glyph-name="parenleft" unicode="(" 
d="M771 1375q11 6 32 6q21 -1 41 -35q21 -34 21 -56t-13 -32q-173 -114 -290 -300t-117 -441t116.5 -439t290.5 -298q13 -10 13 -32t-21 -56t-52 -35q-10 0 -21 6q-122 73 -229.5 194.5t-176 290.5t-68.5 369t68.5 370t176.5 292.5t229 195.5z" />
    <glyph glyph-name="parenright" unicode=")" 
d="M931 517q0 -200 -68.5 -369t-176 -290.5t-229.5 -194.5q-11 -6 -32 -6q-21 1 -41 35q-21 34 -21 56t13 32q174 114 290.5 298t116.5 439t-117 441t-290 300q-13 10 -13 32t21 56t52 35q10 0 21 -6q121 -73 229 -195.5t176.5 -292.5t68.5 -370z" />
    <glyph glyph-name="asterisk" unicode="*" 
d="M971 797l-277 -53l195 -208q25 -28 25 -60t-36 -56q-36 -26 -58 -26q-43 0 -71 46l-135 245l-135 -245q-26 -45 -60 -45t-63 20q-42 33 -42 63t25 58l195 208l-277 53q-66 14 -66 70t26.5 79.5t46.5 23.5t44 -10l256 -121l-36 280q-1 5 -1 27t22.5 42.5t64.5 20.5
t64.5 -20.5t22.5 -42.5t-1 -27l-36 -280l256 121q24 10 44 10t46.5 -23.5t26.5 -79.5t-66 -70z" />
    <glyph glyph-name="plus" unicode="+" 
d="M1058 582q0 -39 -14.5 -55.5t-48.5 -16.5h-309v-309q0 -34 -16.5 -48.5t-55.5 -14.5t-55.5 14.5t-16.5 48.5v309h-309q-34 0 -48.5 16.5t-14.5 55.5t14.5 55.5t48.5 16.5h309v309q0 34 16.5 48.5t55.5 14.5t55.5 -14.5t16.5 -48.5v-309h309q34 0 48.5 -16.5t14.5 -55.5z
" />
    <glyph glyph-name="comma" unicode="," 
d="M714 294q35 0 35 -34q0 -14 -7 -29l-212 -484q-18 -41 -88 -41t-70 50q0 4 2 16l94 482q8 40 52 40h194z" />
    <glyph glyph-name="hyphen" unicode="-" 
d="M1058 582q0 -39 -14.5 -55.5t-48.5 -16.5h-762q-34 0 -48.5 16.5t-14.5 55.5t14.5 55.5t48.5 16.5h762q34 0 48.5 -16.5t14.5 -55.5z" />
    <glyph glyph-name="period" unicode="." 
d="M749 237v-184q0 -34 -31.5 -48.5t-103.5 -14.5t-103.5 14.5t-31.5 48.5v184q0 34 31.5 48.5t103.5 14.5t103.5 -14.5t31.5 -48.5z" />
    <glyph glyph-name="slash" unicode="/" 
d="M1030 1348q0 -16 -3 -24l-672 -1643q-16 -36 -60 -36q-45 0 -71 14.5t-26 30.5t3 25l672 1643q16 36 60 36q45 0 71 -15t26 -31z" />
    <glyph glyph-name="zero" unicode="0" 
d="M344 593q0 -146 34.5 -251.5t95.5 -160.5t140 -55t140 55t95.5 160.5t34.5 251.5t-34.5 251.5t-95.5 161t-140 55.5t-140 -55.5t-95.5 -161t-34.5 -251.5zM1038 593q0 -184 -52 -323t-148 -215.5t-224 -76.5t-224 76.5t-148 215.5t-52 323t52 323.5t148 216t224 76.5
t224 -76.5t148 -216t52 -323.5z" />
    <glyph glyph-name="one" unicode="1" 
d="M1037 72q0 -39 -14.5 -55.5t-48.5 -16.5h-674q-34 0 -48.5 16.5t-14.5 55.5t14.5 55.5t48.5 16.5h269v850l-249 -155q-17 -10 -40 -10q-24 1 -42 33t-18 60t31 46l377 232q20 12 41 12t35.5 -14.5t14.5 -40.5v-1013h255q34 0 48.5 -16.5t14.5 -55.5z" />
    <glyph glyph-name="two" unicode="2" 
d="M1017 72q0 -39 -14.5 -55.5t-48.5 -16.5h-694q-34 0 -48.5 15t-14.5 53t15 54l440 446q92 93 129.5 156.5t37.5 145.5t-59.5 136.5t-147.5 54.5q-158 0 -292 -94q-16 -12 -42 -12t-46 35q-21 35 -21 59t30 46q160 114 349 114q240 0 311.5 -120.5t71.5 -226.5t-49.5 -192
t-154.5 -193l-328 -333h513q34 0 48.5 -16.5t14.5 -55.5z" />
    <glyph glyph-name="three" unicode="3" 
d="M961 879q0 -170 -153 -248q90 -37 140 -110t50 -179t-75.5 -235t-334.5 -129q-98 0 -198 34t-179 92q-30 22 -30 46q-1 24 21 60t46 35q24 0 42 -13q143 -106 282 -106q140 0 206 59t66 161t-66.5 155.5t-184.5 53.5h-73q-34 0 -48.5 15.5t-14.5 52.5t14.5 52.5
t48.5 15.5h55q114 0 173 48.5t59 136.5t-59 136.5t-179 48.5t-252 -80q-18 -10 -41 -10t-42 35q-19 36 -19 62t32 45q163 96 333 96q236 0 308.5 -115t72.5 -215z" />
    <glyph glyph-name="four" unicode="4" 
d="M342 446h346l8 546zM210 302q-65 0 -65 74q0 32 12 49l484 723q40 61 119 61q78 0 78 -78v-685h162q34 0 48.5 -16.5t14.5 -55.5t-14.5 -55.5t-48.5 -16.5h-162v-247q0 -35 -16.5 -50t-57.5 -15h-2q-41 0 -57.5 15t-16.5 50v247h-478z" />
    <glyph glyph-name="five" unicode="5" 
d="M1008 386q0 -117 -51.5 -210t-147 -145.5t-206.5 -52.5q-213 0 -384 119q-31 23 -31 49t21 59q21 34 45 34t42 -13q141 -100 300 -100t208.5 91t49.5 167t-47 165t-186 89t-240 -71q-16 -10 -54 -10t-55.5 15t-15.5 50l20 500q2 35 18 50t57 15h534q34 0 48.5 -16.5
t14.5 -55.5t-14.5 -55.5t-48.5 -16.5h-466l-13 -313q100 56 218 56t205 -51t133 -141.5t46 -207.5z" />
    <glyph glyph-name="six" unicode="6" 
d="M372 364q0 -66 31.5 -121t89 -86t133.5 -31t165 43.5t89 184.5t-88 185t-164 44t-133.5 -27.5t-90 -76.5t-32.5 -115zM358 589q109 142 302 142q98 0 186 -47t138 -133t50 -196t-50.5 -195.5t-143.5 -133.5t-208 -48q-238 0 -353 195q-76 131 -76 321t73 344.5t233 257
t408 113.5q58 2 58 -71q0 -74 -37 -76q-266 -14 -409 -137.5t-171 -335.5z" />
    <glyph glyph-name="seven" unicode="7" 
d="M966 1187q63 1 63 -61q0 -30 -6 -47l-426 -1055q-18 -46 -65 -46q-91 0 -91 54q0 9 5 24l404 987h-588q-34 0 -48.5 16.5t-14.5 55.5t14.5 55.5t48.5 16.5h704z" />
    <glyph glyph-name="eight" unicode="8" 
d="M364 341q0 -62 32 -111t88.5 -76.5t129.5 -27.5t129.5 27.5t88.5 76.5t32 111t-32 110.5t-88.5 75.5t-129.5 27t-129.5 -27t-88.5 -75.5t-32 -110.5zM399 878q0 -54 28 -95.5t77.5 -65.5t109.5 -24t109.5 24t77.5 65.5t28 95.5t-28 96t-76.5 64.5t-110.5 22.5
t-110.5 -22.5t-76.5 -64.5t-28 -96zM410 630q-163 88 -163 254q0 86 47.5 162t131.5 119.5t188 43.5t188 -43.5t131.5 -119.5t47.5 -162q0 -166 -164 -254q92 -41 146.5 -116t54.5 -176t-52 -183.5t-144.5 -129.5t-207.5 -47t-207.5 47t-144.5 129.5t-52 183.5t54.5 176
t145.5 116z" />
    <glyph glyph-name="nine" unicode="9" 
d="M348 834q0 -68 48 -149t203 -81t206 76t51 142t-31.5 121.5t-89 86.5t-133.5 31t-133.5 -28t-89 -79.5t-31.5 -119.5zM870 598q-109 -142 -302 -142q-98 0 -186 47t-138 133t-50 196t50.5 195.5t143.5 133.5t208 48q238 0 353 -195q76 -132 76 -322t-73 -344t-233 -256.5
t-408 -113.5q-58 -2 -58 88q0 57 37 59q266 14 409 137.5t171 335.5z" />
    <glyph glyph-name="colon" unicode=":" 
d="M749 237v-184q0 -34 -31.5 -48.5t-103.5 -14.5t-103.5 14.5t-31.5 48.5v184q0 34 31.5 48.5t103.5 14.5t103.5 -14.5t31.5 -48.5zM749 871v-184q0 -34 -31.5 -48.5t-103.5 -14.5t-103.5 14.5t-31.5 48.5v184q0 34 31.5 48.5t103.5 14.5t103.5 -14.5t31.5 -48.5z" />
    <glyph glyph-name="semicolon" unicode=";" 
d="M734 294q35 0 35 -34q0 -14 -7 -29l-212 -484q-18 -41 -88 -41t-70 50q0 4 2 16l94 482q8 40 52 40h194zM749 871v-184q0 -34 -31.5 -48.5t-103.5 -14.5t-103.5 14.5t-31.5 48.5v184q0 34 31.5 48.5t103.5 14.5t103.5 -14.5t31.5 -48.5z" />
    <glyph glyph-name="less" unicode="&#x3c;" 
d="M1053 216q0 -26 -12 -50q-23 -47 -58 -47q-16 0 -34 9l-777 381q-47 24 -47 63.5t11 55.5t36 29l777 381q18 9 34 9q35 0 58 -47q12 -24 12 -50t-41 -45l-672 -322l672 -322q41 -19 41 -45z" />
    <glyph glyph-name="equal" unicode="=" 
d="M1058 382q0 -39 -14.5 -55.5t-48.5 -16.5h-762q-34 0 -48.5 16.5t-14.5 55.5t14.5 55.5t48.5 16.5h762q34 0 48.5 -16.5t14.5 -55.5zM1058 782q0 -39 -14.5 -55.5t-48.5 -16.5h-762q-34 0 -48.5 16.5t-14.5 55.5t14.5 55.5t48.5 16.5h762q34 0 48.5 -16.5t14.5 -55.5z
" />
    <glyph glyph-name="greater" unicode="&#x3e;" 
d="M175 950q0 26 12 50q23 47 58 47q16 0 34 -9l777 -381q47 -24 47 -63.5t-11 -55.5t-36 -29l-777 -381q-18 -9 -34 -9q-35 0 -58 47q-12 24 -12 50t41 45l672 322l-672 322q-41 19 -41 45z" />
    <glyph glyph-name="question" unicode="?" 
d="M689 167v-114q0 -34 -27 -48.5t-88 -14.5t-88 14.5t-27 48.5v114q0 34 27 48.5t88 14.5t88 -14.5t27 -48.5zM966 960q0 -90 -34.5 -151.5t-102 -107t-176.5 -90.5l-13 -144q-5 -48 -67 -48t-65 48l-13 198q-4 37 30 51l69 28q156 65 187 114t31 111t-51 107t-163 45
t-240 -67q-15 -9 -31 -9q-33 0 -53 46q-12 27 -12 53t38 47q144 78 318 78q218 0 283 -109.5t65 -199.5z" />
    <glyph glyph-name="at" unicode="@" 
d="M712 551q0 107 -56 107t-98.5 -44.5t-71 -114t-28.5 -140.5q0 -93 66 -93q49 0 92.5 45.5t69.5 114.5t26 125zM889 137q-134 0 -181 129q-52 -67 -99 -100.5t-103 -33.5t-119.5 42.5t-63.5 182.5q0 91 43 192t115.5 168.5t158.5 67.5t128 -100l31 63q6 11 23 11
q16 0 36 -7q47 -17 39 -46l-77 -302q-7 -26 -7 -60t20 -57.5t55 -23.5q75 0 118 73.5t43 199.5t-74 272.5t-320 146.5q-136 0 -246.5 -74.5t-173 -203.5t-62.5 -273t69.5 -289t317.5 -145q140 0 255 37q8 2 11 2q28 0 41 -45q5 -18 5 -36q0 -38 -114.5 -59.5t-195.5 -21.5
q-159 0 -274 65.5t-176.5 187.5t-61.5 302t79.5 338t218.5 248t302 90t278.5 -69.5t178.5 -193.5t63 -262t-35 -227.5t-99 -139t-147 -49.5z" />
    <glyph glyph-name="A" unicode="A" 
d="M412 474h399l-197 569h-4zM1124 50q0 -33 -57 -52q-26 -8 -43 -8q-36 0 -51 46l-109 294h-504l-109 -294q-15 -46 -54 -46q-14 0 -42 9q-55 18 -55 54q0 13 6 31l394 1060q24 65 112 65t112 -65l394 -1060q6 -18 6 -34z" />
    <glyph glyph-name="B" unicode="B" 
d="M920 336q0 195 -255 195h-310v-387h315q119 0 184.5 48.5t65.5 143.5zM355 1043v-368h267q115 0 173.5 47.5t58.5 135.5q0 185 -232 185h-267zM874 623q200 -75 200 -288t-131 -274t-253 -61h-422q-34 0 -48.5 15.5t-14.5 52.5v1051q0 37 14.5 52.5t48.5 15.5h376
q234 0 299 -115.5t65 -213.5q0 -158 -134 -235z" />
    <glyph glyph-name="C" unicode="C" 
d="M1074 1060q0 -26 -17 -64q-17 -36 -40 -36t-43 11q-151 90 -310 90q-108 0 -189.5 -57t-126 -162.5t-44.5 -247.5t44.5 -248t126 -163t189.5 -57q159 0 310 90q20 11 43 11q23 -1 40 -37t17 -62t-37 -49q-177 -101 -351 -101q-175 0 -291.5 76.5t-180.5 216.5t-64 323
t64 322.5t180.5 216t291.5 76.5t351 -101q37 -22 37 -48z" />
    <glyph glyph-name="D" unicode="D" 
d="M325 1043v-899h230q247 0 319 151.5t72 297.5t-72 298t-319 152h-230zM1100 593q0 -182 -65.5 -316t-184.5 -205.5t-276 -71.5h-336q-34 0 -48.5 15.5t-14.5 52.5v1051q0 37 14.5 52.5t48.5 15.5h336q157 0 276 -71.5t184.5 -206t65.5 -316.5z" />
    <glyph glyph-name="E" unicode="E" 
d="M1040 72q0 -39 -14.5 -55.5t-48.5 -16.5h-689q-34 0 -48.5 15.5t-14.5 52.5v1051q0 37 14.5 52.5t48.5 15.5h669q34 0 48.5 -16.5t14.5 -55.5t-14.5 -55.5t-48.5 -16.5h-582v-359h457q34 0 48.5 -16.5t14.5 -55.5t-14.5 -55.5t-48.5 -16.5h-457v-396h602q34 0 48.5 -16.5
t14.5 -55.5z" />
    <glyph glyph-name="F" unicode="F" 
d="M245 1119q0 68 63 68h669q34 0 48.5 -16.5t14.5 -55.5t-14.5 -55.5t-48.5 -16.5h-582v-399h467q34 0 48.5 -16.5t14.5 -55.5t-14.5 -55.5t-48.5 -16.5h-467v-445q0 -35 -16.5 -50t-57.5 -15h-2q-41 0 -57.5 15t-16.5 50v1064z" />
    <glyph glyph-name="G" unicode="G" 
d="M1083 526v-383q0 -49 -36 -69q-167 -96 -413 -96q-156 0 -275 76.5t-184 217t-65 322.5t68.5 321.5t190 216.5t299.5 77t347 -91q38 -20 38 -48q1 -28 -15 -64t-40 -36t-43 10q-142 81 -311 81q-109 0 -195 -57t-135.5 -162.5t-49.5 -247.5t46 -248t130 -163t194 -57
q175 0 299 57v267h-267q-34 0 -48.5 16.5t-14.5 55.5t14.5 55.5t48.5 16.5h354q34 0 48.5 -15.5t14.5 -52.5z" />
    <glyph glyph-name="H" unicode="H" 
d="M1053 1132v-1077q0 -35 -16.5 -50t-57.5 -15h-2q-41 0 -57.5 15t-16.5 50v485h-578v-485q0 -35 -16.5 -50t-57.5 -15h-2q-41 0 -57.5 15t-16.5 50v1077q0 35 16.5 50t57.5 15h2q41 0 57.5 -15t16.5 -50v-448h578v448q0 35 16.5 50t57.5 15h2q41 0 57.5 -15t16.5 -50z" />
    <glyph glyph-name="I" unicode="I" 
d="M1028 72q0 -39 -14.5 -55.5t-48.5 -16.5h-702q-34 0 -48.5 16.5t-14.5 55.5t14.5 55.5t48.5 16.5h276v899h-256q-34 0 -48.5 16.5t-14.5 55.5t14.5 55.5t48.5 16.5h662q34 0 48.5 -16.5t14.5 -55.5t-14.5 -55.5t-48.5 -16.5h-256v-899h276q34 0 48.5 -16.5t14.5 -55.5z
" />
    <glyph glyph-name="J" unicode="J" 
d="M891 1187q63 0 63 -68v-786q0 -171 -97.5 -263t-292.5 -92t-350 114q-30 23 -30 49q0 27 22 61t46 34t42 -14q127 -96 288 -96q222 0 222 237v680h-361q-34 0 -48.5 16.5t-14.5 55.5t14.5 55.5t48.5 16.5h448z" />
    <glyph glyph-name="K" unicode="K" 
d="M1095 46q0 -22 -38 -44q-37 -22 -61 -21q-24 0 -43 25l-414 544l-174 -184v-311q0 -35 -16.5 -50t-57.5 -15h-2q-41 0 -57.5 15t-16.5 50v1077q0 35 16.5 50t57.5 15h2q41 0 57.5 -15t16.5 -50v-548l571 607q16 17 42 17t62 -23t35 -46q0 -23 -22 -45l-409 -433l434 -569
q17 -24 17 -46z" />
    <glyph glyph-name="L" unicode="L" 
d="M1040 72q0 -39 -14.5 -55.5t-48.5 -16.5h-669q-35 0 -49 15.5t-14 52.5v1064q0 35 16.5 50t57.5 15h2q41 0 57.5 -15t16.5 -50v-988h582q34 0 48.5 -16.5t14.5 -55.5z" />
    <glyph glyph-name="M" unicode="M" 
d="M1010 -10h-2q-41 0 -57 15t-17 50l-21 813l-207 -446q-29 -64 -92 -64t-92 64l-207 446l-21 -813q-1 -35 -17 -50t-57 -15h-2q-41 0 -57.5 15t-15.5 50l30 1077q1 36 20 50.5t56 14.5h2q65 0 96 -65l265 -570l265 570q31 65 97 65h2q37 0 55.5 -14.5t19.5 -50.5l30 -1077
q1 -35 -15.5 -50t-57.5 -15z" />
    <glyph glyph-name="N" unicode="N" 
d="M1053 37q0 -59 -75 -59q-47 0 -84 55l-569 888h-4v-866q0 -35 -16 -50t-56 -15h-2q-40 0 -56 15t-16 50v1077q0 35 17 50t58 15h27q43 0 62 -28l564 -882h4v845q0 35 16 50t56 15h2q40 0 56 -15t16 -50v-1095z" />
    <glyph glyph-name="O" unicode="O" 
d="M244 593q0 -143 45.5 -248.5t129 -162t195.5 -56.5t195.5 56.5t129 162t45.5 248.5t-45.5 249t-129.5 162.5t-195 56.5t-195 -56.5t-129.5 -162.5t-45.5 -249zM1138 593q0 -183 -65 -322.5t-184 -216t-275 -76.5t-275 76.5t-184 216t-65 322.5t65 323t184 216.5t275 76.5
t275 -76.5t184 -216.5t65 -323z" />
    <glyph glyph-name="P" unicode="P" 
d="M918 789q0 121 -76.5 187.5t-222.5 66.5h-234v-506h234q146 0 222.5 65.5t76.5 186.5zM1072 788q0 -118 -50 -207.5t-147.5 -138.5t-234.5 -49h-255v-338q0 -35 -16.5 -50t-57.5 -15h-2q-41 0 -57.5 15t-16.5 50v1064q0 37 14.5 52.5t48.5 15.5h342q137 0 234.5 -50
t147.5 -140.5t50 -208.5z" />
    <glyph glyph-name="Q" unicode="Q" 
d="M984 593q0 143 -45.5 249t-129.5 162.5t-195 56.5t-195 -56.5t-129.5 -162.5t-45.5 -249t45.5 -248.5t129 -162t195.5 -56.5q48 0 88 10l-105 164q-15 24 -15 46t36 46t60 23q24 0 45 -34l114 -178q147 124 147 390zM1017 -100q0 -24 -36 -46t-60 -22t-45 33l-90 140
q-79 -27 -172 -27q-156 0 -275 76.5t-184 216t-65 322.5t65 323t184 216.5t275 76.5t275 -76.5t184 -216.5t65 -318q0 -358 -219 -522l83 -130q15 -23 15 -46z" />
    <glyph glyph-name="R" unicode="R" 
d="M599 617q279 0 279 213t-279 213h-214v-426h214zM1049 50q0 -29 -41 -47t-63 -18t-40 28l-298 460h-222v-418q0 -35 -16.5 -50t-57.5 -15h-2q-41 0 -57.5 15t-16.5 50v1064q0 37 14.5 52.5t48.5 15.5h322q266 0 339 -124.5t73 -244.5t-66.5 -207.5t-194.5 -120.5
l264 -402q14 -22 14 -38z" />
    <glyph glyph-name="S" unicode="S" 
d="M1024 1060q0 -28 -13 -56q-20 -45 -55 -45q-15 0 -33 10q-154 92 -345 92q-119 0 -185.5 -53t-66.5 -145q0 -106 101.5 -130.5t226.5 -46.5t212 -56q196 -78 196 -300q0 -221 -148 -286.5t-277 -65.5q-248 0 -436 116q-34 22 -34 50q1 28 19 64t42 35q24 0 42 -11
q166 -106 352 -106q141 0 213.5 54.5t72.5 146.5q0 145 -125 174t-250 51t-200 57q-161 73 -161 254q0 107 78 226.5t321 119.5q242 0 417 -100q36 -21 36 -49z" />
    <glyph glyph-name="T" unicode="T" 
d="M1106 1115q0 -39 -14.5 -55.5t-48.5 -16.5h-354v-988q0 -35 -16.5 -50t-57.5 -15h-2q-41 0 -57.5 15t-16.5 50v988h-354q-34 0 -48.5 16.5t-14.5 55.5t14.5 55.5t48.5 16.5h858q34 0 48.5 -16.5t14.5 -55.5z" />
    <glyph glyph-name="U" unicode="U" 
d="M1053 1132v-719q0 -140 -55 -237.5t-154 -147.5t-230 -50t-230 50t-154 147.5t-55 237.5v719q0 35 16.5 50t57.5 15h2q41 0 57.5 -15t16.5 -50v-699q0 -153 75 -230t214 -77t214 77t75 230v699q0 35 16.5 50t57.5 15h2q41 0 57.5 -15t16.5 -50z" />
    <glyph glyph-name="V" unicode="V" 
d="M1125 1138q0 -14 -7 -35l-399 -1060q-24 -65 -107 -65t-107 65l-399 1060q-7 21 -7 35q0 31 58 51q26 8 43 8q36 0 51 -46l361 -969l361 969q15 46 54 46q14 0 40 -8q58 -20 58 -51z" />
    <glyph glyph-name="W" unicode="W" 
d="M1065 1197q88 0 88 -57q0 -12 -1 -18l-149 -1079q-5 -36 -25.5 -50.5t-60.5 -14.5q-77 0 -100 65l-207 586l-207 -586q-23 -65 -100 -65q-40 0 -60.5 14.5t-25.5 50.5l-149 1079q-1 6 -1 18q0 57 88 57q30 0 44 -13.5t18 -44.5l112 -881l207 587q14 40 74 40t74 -40
l207 -587l112 881q4 31 18 44.5t44 13.5z" />
    <glyph glyph-name="X" unicode="X" 
d="M984 -16q-25 0 -45 31l-321 472l-317 -472q-21 -31 -46 -31q-24 0 -65 18t-41 42t15 45l362 516l-339 493q-15 21 -15 45t41 42t65 18t46 -31l297 -447l295 447q22 31 46 31t65 -18t41 -42t-15 -45l-340 -494l363 -515q15 -21 15 -45t-41 -42t-66 -18z" />
    <glyph glyph-name="Y" unicode="Y" 
d="M1103 1135q0 -16 -15 -39l-399 -609v-432q0 -35 -16.5 -50t-57.5 -15h-2q-41 0 -57.5 15t-16.5 50v432l-399 609q-15 23 -14.5 46.5t40.5 40.5q40 18 64 18t43 -29l341 -526l341 526q19 29 43 29q24 -1 53 -13t40.5 -24.5t11.5 -28.5z" />
    <glyph glyph-name="Z" unicode="Z" 
d="M978 1187q63 0 63 -62q0 -31 -10 -45l-643 -936h608q34 0 48.5 -16.5t14.5 -55.5t-14.5 -55.5t-48.5 -16.5h-766q-63 0 -63 60q0 30 14 51l641 932h-566q-34 0 -48.5 16.5t-14.5 55.5t14.5 55.5t48.5 16.5h722z" />
    <glyph glyph-name="bracketleft" unicode="[" 
d="M870 -261q0 -39 -14.5 -55.5t-48.5 -16.5h-414q-34 0 -48.5 15.5t-14.5 52.5v1569q0 37 14.5 52.5t48.5 15.5h414q34 0 48.5 -16.5t14.5 -55.5t-14.5 -55.5t-48.5 -16.5h-327v-1417h327q34 0 48.5 -16.5t14.5 -55.5z" />
    <glyph glyph-name="backslash" unicode="\" 
d="M1030 -310q0 -16 -26 -30.5t-71 -14.5t-60 36l-672 1643q-3 8 -3 24t26 31t71 15t60 -36l672 -1643q3 -9 3 -25z" />
    <glyph glyph-name="bracketright" unicode="]" 
d="M898 1304v-1569q0 -37 -14.5 -52.5t-48.5 -15.5h-414q-34 0 -48.5 16.5t-14.5 55.5t14.5 55.5t48.5 16.5h327v1417h-327q-34 0 -48.5 16.5t-14.5 55.5t14.5 55.5t48.5 16.5h414q34 0 48.5 -15.5t14.5 -52.5z" />
    <glyph glyph-name="asciicircum" unicode="^" 
d="M995 558q0 -31 -46 -48q-22 -8 -53 -8t-45 25l-237 480l-237 -480q-15 -25 -43 -25t-50 7q-52 16 -52 51q0 11 6 21l308 591q19 37 57.5 37t53.5 -9t25 -28l308 -591q5 -9 5 -23z" />
    <glyph glyph-name="underscore" unicode="_" 
d="M-5 -393q-23 0 -23 72t23 72h1238q23 0 23 -72t-23 -72h-1238z" />
    <glyph glyph-name="grave" unicode="`" 
d="M811 1112q0 -22 -23 -48t-42 -26t-37 10l-374 219q-22 13 -22 41q-1 28 31 67q32 40 58 40t45 -13l348 -256q16 -12 16 -34z" />
    <glyph glyph-name="a" unicode="a" 
d="M313 273q0 -73 50.5 -113.5t141.5 -40.5q199 0 359 165v109q-139 45 -303 45q-248 0 -248 -165zM864 613q0 188 -207 188q-177 0 -333 -79q-16 -9 -31 -9q-32 0 -55 48q-11 23 -11 49t37 45q174 91 374 91q376 0 376 -333v-558q0 -35 -15 -50t-54 -15h-2q-39 0 -54 15
t-15 50v68q-170 -145 -377 -145t-272.5 100.5t-65.5 191.5q0 159 111.5 234t279.5 75t314 -51v85z" />
    <glyph glyph-name="b" unicode="b" 
d="M342 462q0 -104 39.5 -180t109 -116t158.5 -40t153.5 42.5t98.5 119t34 174.5t-34 174.5t-98.5 119t-153.5 42.5t-158.5 -40t-109 -116t-39.5 -180zM659 -22q-196 0 -327 170v-93q0 -35 -15 -50t-54 -15h-2q-39 0 -54 15t-15 50v1202q0 35 16.5 50t57.5 15h2
q41 0 57.5 -15t16.5 -50v-476q129 165 317 165q124 0 221.5 -58.5t153 -168t55.5 -257.5t-55.5 -257.5t-153 -168t-221.5 -58.5z" />
    <glyph glyph-name="c" unicode="c" 
d="M1052 785q0 -29 -15 -56q-19 -41 -45 -41t-44 13q-141 97 -319 97q-96 0 -169.5 -43t-114 -119.5t-40.5 -173.5t40.5 -173.5t114 -119.5t167.5 -43q192 0 338 111q21 15 45 15t44 -34t19 -61q0 -28 -32 -51q-175 -128 -412 -128q-143 0 -252.5 63t-169.5 173t-60 248
t60 248t169.5 173t234.5 63q235 0 406 -110q35 -22 35 -51z" />
    <glyph glyph-name="d" unicode="d" 
d="M293 462q0 -98 34 -174.5t98.5 -119t153.5 -42.5t158.5 40t109 116t39.5 180t-39.5 180t-109 116t-158.5 40t-153.5 -42.5t-98.5 -119t-34 -174.5zM139 462q0 148 55.5 257.5t153 168t221.5 58.5q188 0 317 -165v476q0 35 16.5 50t57.5 15h2q41 0 57.5 -15t16.5 -50
v-1202q0 -35 -15 -50t-54 -15h-2q-39 0 -54 15t-15 50v93q-131 -170 -327 -170q-124 0 -221.5 58.5t-153 168t-55.5 257.5z" />
    <glyph glyph-name="e" unicode="e" 
d="M626 801q-127 0 -208 -62.5t-106 -173.5h615q-21 114 -97.5 175t-203.5 61zM1026 425h-724q7 -149 84 -225.5t197 -76.5q232 0 380 86q17 9 33 9q38 0 57 -56q7 -18 7 -36q0 -40 -44 -61q-181 -87 -413 -87q-293 0 -374 167t-81 313t60.5 256.5t168 171t249.5 60.5
t294 -87.5t169 -371.5q2 -33 -13.5 -47.5t-49.5 -14.5z" />
    <glyph glyph-name="f" unicode="f" 
d="M1115 1201q0 -8 -4 -28q-14 -56 -52 -56q-9 0 -22 5q-127 49 -237 49q-202 0 -202 -217v-110h346q34 0 48.5 -16.5t14.5 -55.5t-14.5 -55.5t-48.5 -16.5h-346v-645q0 -35 -16.5 -50t-57.5 -15h-2q-41 0 -57.5 15t-16.5 50v645h-198q-34 0 -48.5 16.5t-14.5 55.5
t14.5 55.5t48.5 16.5h198v123q0 165 93 257.5t243 92.5t282 -51q49 -19 49 -65z" />
    <glyph glyph-name="g" unicode="g" 
d="M293 487q0 -91 34 -161.5t98.5 -110t153.5 -39.5t158.5 37t109 107.5t39.5 166.5t-39.5 166.5t-109 107.5t-158.5 37t-153.5 -39.5t-98.5 -110t-34 -161.5zM569 946q196 0 327 -170v93q0 35 15 50t54 15h2q39 0 54 -15t15 -50v-899q0 -243 -146 -311.5t-262 -68.5
q-221 0 -397 64q-39 14 -39 53q0 16 8 40q18 55 57 55q11 0 55 -16t130.5 -32t165.5 -16q138 0 208 65.5t70 179.5v201q-124 -156 -317 -156q-124 0 -221.5 55.5t-153 159.5t-55.5 244t55.5 244t153 159.5t221.5 55.5z" />
    <glyph glyph-name="h" unicode="h" 
d="M894 605q0 193 -182 193q-86 0 -169.5 -54.5t-137 -148t-53.5 -203.5v-337q0 -35 -16.5 -50t-57.5 -15h-2q-41 0 -57.5 15t-16.5 50v1202q0 35 16.5 50t57.5 15h2q41 0 57.5 -15t16.5 -50v-537q69 102 171.5 164t203.5 62q151 0 234 -87t83 -239v-565q0 -35 -16.5 -50
t-57.5 -15h-2q-41 0 -57.5 15t-16.5 50v550z" />
    <glyph glyph-name="i" unicode="i" 
d="M713 856v-712h321q34 0 48.5 -16.5t14.5 -55.5t-14.5 -55.5t-48.5 -16.5h-784q-34 0 -48.5 16.5t-14.5 55.5t14.5 55.5t48.5 16.5h313v636h-253q-34 0 -48.5 16.5t-14.5 55.5t14.5 55.5t48.5 16.5h340q34 0 48.5 -15.5t14.5 -52.5zM713 1298v-130q0 -36 -20 -50.5
t-75 -14.5t-75 14.5t-20 50.5v130q0 36 20 50.5t75 14.5t75 -14.5t20 -50.5z" />
    <glyph glyph-name="j" unicode="j" 
d="M903 856v-913q0 -176 -78.5 -264.5t-248.5 -88.5q-83 0 -179 31.5t-174 80.5q-33 20 -33 46t18 61q18 36 44 36t40 -10q152 -99 267 -99t154.5 53t39.5 167v824h-423q-34 0 -48.5 16.5t-14.5 55.5t14.5 55.5t48.5 16.5h510q34 0 48.5 -15.5t14.5 -52.5zM903 1298v-130
q0 -36 -20 -50.5t-75 -14.5t-75 14.5t-20 50.5v130q0 36 20 50.5t75 14.5t75 -14.5t20 -50.5z" />
    <glyph glyph-name="k" unicode="k" 
d="M1080 50q0 -22 -39 -44t-62 -22t-41 19l-376 414l-180 -158v-204q0 -35 -16.5 -50t-57.5 -15h-2q-41 0 -57.5 15t-16.5 50v1202q0 35 16.5 50t57.5 15h2q41 0 57.5 -15t16.5 -50v-804l529 471q21 18 47 18t62 -22t36 -45q0 -24 -21 -42l-360 -317l385 -421q20 -23 20 -45
z" />
    <glyph glyph-name="l" unicode="l" 
d="M1087 72q0 -39 -14.5 -55.5t-48.5 -16.5h-784q-34 0 -48.5 16.5t-14.5 55.5t14.5 55.5t48.5 16.5h313v1024h-273q-34 0 -48.5 16.5t-14.5 55.5t14.5 55.5t48.5 16.5h360q34 0 48.5 -15.5t14.5 -52.5v-1100h321q34 0 48.5 -16.5t14.5 -55.5z" />
    <glyph glyph-name="m" unicode="m" 
d="M672 765q89 181 222 181t174 -90t41 -178v-623q0 -35 -16.5 -50t-57.5 -15h-2q-41 0 -57.5 15t-16.5 50v605q0 138 -95 138q-47 0 -110.5 -69t-63.5 -272v-402q0 -35 -16.5 -50t-57.5 -15h-2q-41 0 -57.5 15t-16.5 50v605q0 138 -95 138q-47 0 -110.5 -69t-63.5 -272
v-402q0 -35 -16.5 -50t-57.5 -15h-2q-41 0 -57.5 15t-16.5 50v814q0 35 13.5 50t50.5 15h2q37 0 50.5 -15t13.5 -50v-112q86 189 233 189q68 0 119 -46t69 -135z" />
    <glyph glyph-name="n" unicode="n" 
d="M894 605q0 193 -182 193q-86 0 -169.5 -54.5t-137 -148t-53.5 -203.5v-337q0 -35 -16.5 -50t-57.5 -15h-2q-41 0 -57.5 15t-16.5 50v814q0 35 15 50t54 15h2q39 0 54 -15t15 -50v-163q68 105 173 172.5t212 67.5q151 0 234 -87t83 -239v-565q0 -35 -16.5 -50t-57.5 -15
h-2q-41 0 -57.5 15t-16.5 50v550z" />
    <glyph glyph-name="o" unicode="o" 
d="M288 462q0 -98 40.5 -174.5t114.5 -119t171 -42.5t171 42.5t114.5 119t40.5 174.5t-40.5 174.5t-114.5 119t-171 42.5t-171 -42.5t-114.5 -119t-40.5 -174.5zM1094 462q0 -139 -62.5 -249.5t-172 -172.5t-245.5 -62t-245.5 62t-172 172.5t-62.5 249.5t62.5 249.5
t172 172.5t245.5 62t245.5 -62t172 -172.5t62.5 -249.5z" />
    <glyph glyph-name="p" unicode="p" 
d="M342 462q0 -104 39.5 -180t109 -116t158.5 -40t153.5 42.5t98.5 119t34 174.5t-34 174.5t-98.5 119t-153.5 42.5t-158.5 -40t-109 -116t-39.5 -180zM659 946q124 0 221.5 -58.5t153 -168t55.5 -257.5t-55.5 -257.5t-153 -168t-221.5 -58.5q-188 0 -317 165v-476
q0 -35 -16.5 -50t-57.5 -15h-2q-41 0 -57.5 15t-16.5 50v1202q0 35 15 50t54 15h2q39 0 54 -15t15 -50v-93q131 170 327 170z" />
    <glyph glyph-name="q" unicode="q" 
d="M293 462q0 -98 34 -174.5t98.5 -119t153.5 -42.5t158.5 40t109 116t39.5 180t-39.5 180t-109 116t-158.5 40t-153.5 -42.5t-98.5 -119t-34 -174.5zM569 946q196 0 327 -170v93q0 35 15 50t54 15h2q39 0 54 -15t15 -50v-1202q0 -35 -16.5 -50t-57.5 -15h-2q-41 0 -57.5 15
t-16.5 50v476q-129 -165 -317 -165q-124 0 -221.5 58.5t-153 168t-55.5 257.5t55.5 257.5t153 168t221.5 58.5z" />
    <glyph glyph-name="r" unicode="r" 
d="M1032 764q-14 0 -48 11t-88 11q-115 0 -216 -70t-162 -188.5t-61 -257.5v-215q0 -35 -16.5 -50t-57.5 -15h-2q-41 0 -57.5 15t-16.5 50v814q0 35 15 50t54 15h2q39 0 54 -15t15 -50v-235q87 147 206 229.5t252 82.5q65 0 131 -21q49 -16 49 -63t-19 -72.5t-34 -25.5z" />
    <glyph glyph-name="s" unicode="s" 
d="M178 127q0 27 18 63t40 36t39 -9q168 -94 369 -94q123 0 186.5 41.5t63.5 108.5t-81 94q-52 17 -174 28q-122 12 -184 22.5t-124 34.5q-141 56 -141 208q0 92 73 189t301 97q229 0 402 -87q40 -21 40 -49t-10 -51q-23 -50 -54 -50q-10 0 -30 9q-163 83 -342 83
q-106 0 -166 -36t-60 -105q0 -78 96 -91t229 -25t213 -41q166 -62 166 -226q0 -187 -133.5 -243t-260.5 -56q-254 0 -437 100q-39 22 -39 49z" />
    <glyph glyph-name="t" unicode="t" 
d="M1034 233q26 0 44 -36q18 -35 18 -61t-33 -46q-78 -49 -174 -80.5t-179 -31.5q-170 0 -248.5 88.5t-78.5 264.5v369h-203q-34 0 -48.5 16.5t-14.5 55.5t14.5 55.5t48.5 16.5h203v300q0 35 17 50t58 15t58 -15t17 -50v-300h411q34 0 48.5 -16.5t14.5 -55.5t-14.5 -55.5
t-48.5 -16.5h-411v-356q0 -114 40 -167t122 -53q147 0 299 99q14 10 40 10z" />
    <glyph glyph-name="u" unicode="u" 
d="M334 319q0 -193 182 -193q86 0 169.5 54.5t137 148t53.5 203.5v337q0 35 16.5 50t57.5 15h2q41 0 57.5 -15t16.5 -50v-814q0 -35 -15 -50t-54 -15h-2q-39 0 -54 15t-15 50v163q-68 -105 -173 -172.5t-212 -67.5q-151 0 -234 87t-83 239v565q0 35 16.5 50t57.5 15h2
q41 0 57.5 -15t16.5 -50v-550z" />
    <glyph glyph-name="v" unicode="v" 
d="M1104 870q0 -16 -9 -37l-363 -793q-28 -62 -118 -62t-118 62l-363 793q-9 19 -9 36q0 33 53 55q27 12 52 12t45 -42l340 -751l340 751q19 42 45 42q25 0 52 -12q53 -21 53 -54z" />
    <glyph glyph-name="w" unicode="w" 
d="M1170 882q0 -18 -4 -33l-199 -806q-9 -36 -27 -50.5t-58 -14.5q-78 0 -99 65l-169 512l-169 -512q-21 -65 -102 -65q-38 0 -55.5 14.5t-26.5 50.5l-199 806q-4 15 -4 33q0 37 60 48q16 4 36 4q39 0 51 -51l159 -673l175 533q16 47 75 47t75 -47l175 -533l159 673
q11 51 54 51q16 0 33 -4q60 -11 60 -48z" />
    <glyph glyph-name="x" unicode="x" 
d="M1073 44q-1 -24 -39 -42t-64 -17q-26 0 -51 30l-299 352l-299 -352q-25 -30 -51 -30q-26 -1 -64 17t-39 42q0 24 17 45l328 382l-315 364q-18 21 -18 45t39 42q38 18 64 17q26 0 52 -30l286 -332l286 332q26 30 52 30q26 1 64 -17q39 -18 39 -42t-18 -45l-315 -364
l328 -382q17 -21 17 -45z" />
    <glyph glyph-name="y" unicode="y" 
d="M1104 869q0 -17 -10 -36l-597 -1191q-21 -42 -45 -42t-51 12q-52 22 -52 55q0 16 10 36l171 340l-397 790q-10 19 -10 35q0 34 54 56q27 12 51 12t46 -42l341 -683l339 683q22 42 46 42t51 -12q53 -22 53 -55z" />
    <glyph glyph-name="z" unicode="z" 
d="M1050 72q0 -39 -14.5 -55.5t-48.5 -16.5h-746q-34 0 -48.5 15t-14.5 49t14 49l604 667h-535q-34 0 -48.5 16.5t-14.5 55.5t14.5 55.5t48.5 16.5h716q34 0 48.5 -15.5t14.5 -48.5t-15 -50l-603 -666h565q34 0 48.5 -16.5t14.5 -55.5z" />
    <glyph glyph-name="braceleft" unicode="{" 
d="M240 613q271 0 271 242q0 20 -1 30l-5 74q-2 30 -2 43q0 185 110.5 277.5t313.5 92.5q34 0 48.5 -16.5t14.5 -55.5t-14.5 -55.5t-48.5 -16.5q-195 0 -234 -81t-39 -171l1 -29l3 -72q5 -120 -50.5 -198.5t-182.5 -130.5v-10q126 -37 182.5 -108.5t56.5 -181.5
q0 -22 -1 -33l-8 -121q-1 -13 -1 -38q0 -127 65.5 -185t207.5 -58q34 0 48.5 -16.5t14.5 -55.5t-14.5 -55.5t-48.5 -16.5q-201 0 -312.5 90t-111.5 270q0 35 2 53l11 123q2 28 2 40q0 113 -67 169.5t-211 56.5q-34 0 -48.5 16.5t-14.5 55.5t14.5 55.5t48.5 16.5z" />
    <glyph glyph-name="bar" unicode="|" 
d="M689 1329v-1619q0 -35 -17 -50t-58 -15t-58 15t-17 50v1619q0 35 17 50t58 15t58 -15t17 -50z" />
    <glyph glyph-name="braceright" unicode="}" 
d="M717 855q0 -242 271 -242q34 0 48.5 -16.5t14.5 -55.5t-14.5 -55.5t-48.5 -16.5q-144 0 -211 -56.5t-67 -169.5q0 -12 2 -40l11 -123q2 -18 2 -53q0 -180 -111.5 -270t-312.5 -90q-34 0 -48.5 16.5t-14.5 55.5t14.5 55.5t48.5 16.5q142 0 207.5 58t65.5 185q0 25 -1 38
l-8 121q-1 11 -1 33q0 110 56.5 181.5t182.5 108.5v10q-127 52 -182.5 130.5t-50.5 198.5l3 72q8 198 -79 239.5t-193 41.5q-34 0 -48.5 16.5t-14.5 55.5t14.5 55.5t48.5 16.5q203 0 313.5 -92.5t110.5 -277.5q0 -13 -2 -43l-5 -74q-1 -10 -1 -30z" />
    <glyph glyph-name="asciitilde" unicode="~" 
d="M810 587q85 0 155 84q16 19 38.5 19t48.5 -20t26 -42q0 -21 -7 -32q-47 -76 -115 -121.5t-136 -45.5t-118 21.5t-111 57.5t-98 52.5t-75 16.5q-85 0 -155 -84q-16 -19 -38.5 -19t-48.5 20t-26 42q0 21 7 32q47 76 115 121.5t136 45.5t118.5 -21t111.5 -58t97 -53t75 -16z
" />
    <glyph glyph-name="uni00A0" unicode="&#xa0;" 
 />
    <glyph glyph-name="exclamdown" unicode="&#xa1;" 
d="M549 -345q-45 0 -41 50l49 707q4 48 58.5 48t56.5 -48l48 -707q4 -50 -41 -50h-130zM489 717v154q0 34 29.5 48.5t95.5 14.5t95.5 -14.5t29.5 -48.5v-154q0 -34 -29.5 -48.5t-95.5 -14.5t-95.5 14.5t-29.5 48.5z" />
    <glyph glyph-name="cent" unicode="&#xa2;" 
d="M305 602q0 -87 51 -197t218 -135v664q-167 -25 -218 -135t-51 -197zM644 1312q70 0 70 -65v-166q168 -17 303 -105q35 -22 35 -51t-15 -56q-19 -41 -45 -41t-44 13q-107 74 -234 91v-660q143 22 251 105q21 15 45 15t44 -34t19 -61q0 -28 -32 -51q-144 -103 -327 -123
v-183q0 -65 -70 -65t-70 65v181q-128 12 -225 77t-149.5 170t-52.5 234t52.5 234t149.5 170t225 77v164q0 65 70 65z" />
    <glyph glyph-name="sterling" unicode="&#xa3;" 
d="M978 72q0 -39 -14.5 -55.5t-48.5 -16.5h-607q-22 0 -38 30.5t-16 59.5t19 48q156 154 156 282q0 56 -6 84h-140q-34 0 -48.5 16.5t-14.5 55.5t14.5 55.5t48.5 16.5h82q-39 77 -57 126.5t-18 125.5t42 150t119 116.5t177 42.5q158 0 297 -87q34 -20 34 -46t-20 -62
t-42 -36t-41 12q-107 71 -225 71t-152.5 -63.5t-34.5 -109.5t15 -85.5t45 -96.5l29 -58h282q34 0 48.5 -16.5t14.5 -55.5t-14.5 -55.5t-48.5 -16.5h-238q4 -24 4 -58q0 -160 -125 -302h459q34 0 48.5 -16.5t14.5 -55.5z" />
    <glyph glyph-name="currency" unicode="&#xa4;" 
d="M614 340q77 0 136.5 33.5t92.5 93.5t33 135t-33 135t-92.5 93.5t-136.5 33.5t-136.5 -33.5t-92.5 -93.5t-33 -135t33 -135t92.5 -93.5t136.5 -33.5zM1117 179q0 -22 -29 -51t-51 -29t-45 23l-143 143q-103 -67 -235 -67t-235 67l-143 -143q-23 -23 -45 -23t-51 29t-29 51
t23 45l142 142q-72 102 -72 236t72 236l-142 142q-23 23 -23 45t29 51t51 29t45 -23l143 -143q103 67 235 67t235 -67l143 143q23 23 45 23t51 -29t29 -51t-23 -45l-142 -142q72 -102 72 -236t-72 -236l142 -142q23 -23 23 -45z" />
    <glyph glyph-name="yen" unicode="&#xa5;" 
d="M1103 1135q0 -16 -15 -39l-231 -352h158q34 0 48.5 -16.5t14.5 -55.5t-14.5 -55.5t-48.5 -16.5h-252l-74 -113v-53h306q34 0 48.5 -16.5t14.5 -55.5t-14.5 -55.5t-48.5 -16.5h-306v-235q0 -35 -16.5 -50t-57.5 -15h-2q-41 0 -57.5 15t-16.5 50v235h-306q-34 0 -48.5 16.5
t-14.5 55.5t14.5 55.5t48.5 16.5h306v53l-74 113h-252q-34 0 -48.5 16.5t-14.5 55.5t14.5 55.5t48.5 16.5h158l-231 352q-15 23 -14.5 46.5t40.5 40.5q40 18 64 18t43 -29l341 -526l341 526q19 29 43 29q24 -1 53 -13t40.5 -24.5t11.5 -28.5z" />
    <glyph glyph-name="brokenbar" unicode="&#xa6;" 
d="M689 309v-599q0 -35 -17 -50t-58 -15t-58 15t-17 50v599q0 35 17 50t58 15t58 -15t17 -50zM689 1329v-599q0 -35 -17 -50t-58 -15t-58 15t-17 50v599q0 35 17 50t58 15t58 -15t17 -50z" />
    <glyph glyph-name="section" unicode="&#xa7;" 
d="M881 325q0 53 -24.5 89t-75.5 68l-333 206q-18 11 -50 35q-51 -39 -51 -91q0 -53 24.5 -89t75.5 -68l333 -206q18 -11 50 -35q51 38 51 91zM1035 333q0 -120 -121 -211q20 -49 20 -116t-49.5 -151.5t-225.5 -84.5h-326q-34 0 -48.5 16.5t-14.5 55.5t14.5 55.5t48.5 16.5
h306q141 0 141 100q0 43 -21.5 73t-69.5 60l-333 206q-163 101 -163 271q0 120 121 211q-20 49 -20 116t49.5 151.5t225.5 84.5h326q34 0 48.5 -16.5t14.5 -55.5t-14.5 -55.5t-48.5 -16.5h-306q-141 0 -141 -100q0 -43 21.5 -73t69.5 -60l333 -206q163 -101 163 -271z" />
    <glyph glyph-name="dieresis" unicode="&#xa8;" 
d="M919 1298v-130q0 -36 -20 -50.5t-75 -14.5t-75 14.5t-20 50.5v130q0 36 20 50.5t75 14.5t75 -14.5t20 -50.5zM499 1298v-130q0 -36 -20 -50.5t-75 -14.5t-75 14.5t-20 50.5v130q0 36 20 50.5t75 14.5t75 -14.5t20 -50.5z" />
    <glyph glyph-name="copyright" unicode="&#xa9;" 
d="M850 845q0 -17 -7 -34q-16 -40 -44 -40q-12 0 -56 20q-45 20 -119 20t-125 -56.5t-51 -161.5t51 -161.5t126 -56.5t144 32q18 8 30 8q28 0 44 -40q7 -17 7 -34q0 -52 -88 -72t-156 -20t-139.5 41.5t-111.5 119t-40 183.5t40 183.5t111.5 119t139.5 41.5t156 -20t88 -72z
M158 594q0 -142 57.5 -255t161.5 -177t237 -64t237 64t161.5 177t57.5 255t-57.5 254.5t-161.5 176.5t-237 64t-237 -64t-161.5 -176.5t-57.5 -254.5zM1192 594q0 -170 -74 -311t-206 -223t-298 -82t-298 82t-206 223t-74 311t74 311t205.5 222.5t298.5 81.5t298.5 -81.5
t205.5 -222.5t74 -311z" />
    <glyph glyph-name="ordfeminine" unicode="&#xaa;" 
d="M393 690q0 -48 35.5 -74t97.5 -26q147 0 266 117v69q-109 25 -223 25q-176 0 -176 -111zM866 474q-59 0 -59 50v54q-133 -113 -291 -113t-211 75.5t-53 146.5q0 122 85 181t219 59t236 -28v51q0 130 -148 130q-120 0 -232 -65q-14 -8 -34 -8q-20 -1 -38 31t-18 54t23 36
q130 81 284 81q298 0 298 -255v-430q0 -50 -59 -50h-2z" />
    <glyph glyph-name="guillemotleft" unicode="&#xab;" 
d="M984 946q24 0 56 -28t31 -47q0 -20 -14 -36l-246 -271l246 -271q14 -16 14 -36q1 -19 -31 -47t-56 -28t-36 15l-306 343q-9 11 -9 25t9 23l306 343q12 15 36 15zM504 946q24 0 56 -28t31 -47q0 -20 -14 -36l-246 -271l246 -271q14 -16 14 -36q1 -19 -31 -47t-56 -28
t-36 15l-306 343q-9 11 -9 25t9 23l306 343q12 15 36 15z" />
    <glyph glyph-name="logicalnot" unicode="&#xac;" 
d="M1078 781v-398q0 -35 -17 -50t-58 -15t-58 15t-17 50v322h-725q-34 0 -48.5 16.5t-14.5 55.5t14.5 55.5t48.5 16.5h812q34 0 48.5 -15.5t14.5 -52.5z" />
    <glyph glyph-name="uni00AD" unicode="&#xad;" horiz-adv-x="0" 
 />
    <glyph glyph-name="registered" unicode="&#xae;" 
d="M615 816q112 0 112 88t-105 89h-95v-177h88zM423 1038q0 53 54 53h156q126 0 164 -65.5t38 -119.5q0 -126 -121 -168l89 -96q22 -24 22 -43q1 -19 -17 -35t-38 -17q-20 0 -38 20l-131 151h-74v-112q0 -29 -12.5 -41.5t-40.5 -12.5t-39.5 12.5t-11.5 41.5v432zM234 822
q0 -118 48 -212.5t134.5 -148t197.5 -53.5t197.5 53.5t134.5 148t48 212.5t-48 212t-134.5 147t-197.5 53t-197.5 -53t-134.5 -147t-48 -212zM1096 822q0 -142 -61.5 -259.5t-171.5 -186t-249 -68.5t-249 68.5t-171.5 186t-61.5 259.5t61.5 259t171.5 185t249 68t249 -68
t171.5 -185t61.5 -259z" />
    <glyph glyph-name="macron" unicode="&#xaf;" 
d="M938 1178q0 -39 -14.5 -55.5t-48.5 -16.5h-522q-34 0 -48.5 16.5t-14.5 55.5t14.5 55.5t48.5 16.5h522q34 0 48.5 -16.5t14.5 -55.5z" />
    <glyph glyph-name="degree" unicode="&#xb0;" 
d="M526 784q39 0 72.5 19.5t53 53t19.5 72.5t-19.5 72.5t-53 53t-72.5 19.5t-72.5 -19.5t-53 -53t-19.5 -72.5t19.5 -72.5t53 -53t72.5 -19.5zM526 1209q76 0 140.5 -37.5t102 -102t37.5 -140.5t-37.5 -140.5t-102 -102t-140.5 -37.5t-140.5 37.5t-102 102t-37.5 140.5
t37.5 140.5t102 102t140.5 37.5z" />
    <glyph glyph-name="plusminus" unicode="&#xb1;" 
d="M1058 182q0 -39 -14.5 -55.5t-48.5 -16.5h-762q-34 0 -48.5 16.5t-14.5 55.5t14.5 55.5t48.5 16.5h762q34 0 48.5 -16.5t14.5 -55.5zM170 742q0 39 14.5 55.5t48.5 16.5h309v249q0 34 16.5 48.5t55.5 14.5t55.5 -14.5t16.5 -48.5v-249h309q34 0 48.5 -16.5t14.5 -55.5
t-14.5 -55.5t-48.5 -16.5h-309v-249q0 -34 -16.5 -48.5t-55.5 -14.5t-55.5 14.5t-16.5 48.5v249h-309q-34 0 -48.5 16.5t-14.5 55.5z" />
    <glyph glyph-name="uni00B2" unicode="&#xb2;" 
d="M886 608q49 0 49 -62.5t-49 -62.5h-551q-47 0 -47 72q0 39 31 65l332 280q57 49 83.5 88.5t26.5 93.5t-40.5 88.5t-102.5 34.5q-113 0 -232 -61q-12 -5 -23 -5q-25 0 -39 35q-14 34 -14 56t22 34q129 70 297 70q167 0 219.5 -89.5t52.5 -166.5t-39.5 -139.5
t-123.5 -132.5l-239 -198h387z" />
    <glyph glyph-name="uni00B3" unicode="&#xb3;" 
d="M589 965q170 0 170 120t-176 120q-88 0 -196 -55q-10 -5 -19 -5q-30 0 -49 47q-8 21 -8 44t22 34q120 64 288 64t223 -84t55 -154q0 -121 -112 -181q139 -46 139 -196q0 -119 -81.5 -186.5t-241.5 -67.5t-279 65q-22 12 -22 34t8 44q18 47 49 47q9 1 39 -15t88 -31
t130 -15t121 32t49 96t-47.5 91t-136.5 27h-52q-44 0 -44 62t44 63h39z" />
    <glyph glyph-name="acute" unicode="&#xb4;" 
d="M826 1415q26 0 58 -40q32 -39 31 -67q0 -28 -22 -41l-374 -219q-18 -10 -37 -10t-42 26t-23 48t16 34l348 256q19 13 45 13z" />
    <glyph glyph-name="paragraph" unicode="&#xb6;" 
d="M1117 1115q0 -39 -14.5 -55.5t-48.5 -16.5h-68v-1388q0 -35 -17 -50t-58 -15t-58 15t-17 50v1388h-160v-1388q0 -35 -17 -50t-58 -15t-58 15t-17 50v847q-245 8 -320 124t-75 220t80.5 222.5t336.5 118.5h506q34 0 48.5 -16.5t14.5 -55.5z" />
    <glyph glyph-name="periodcentered" unicode="&#xb7;" 
d="M749 672v-184q0 -34 -31.5 -48.5t-103.5 -14.5t-103.5 14.5t-31.5 48.5v184q0 34 31.5 48.5t103.5 14.5t103.5 -14.5t31.5 -48.5z" />
    <glyph glyph-name="cedilla" unicode="&#xb8;" 
d="M531 -177v205h132v-141q101 1 152 -46t51 -128t-62 -133t-195 -52t-235 48q-23 10 -23 30t8 40q17 45 46 45q8 0 32 -9q83 -31 183 -31q100 1 100 65t-116 64l-39 -1q-34 0 -34 44z" />
    <glyph glyph-name="uni00B9" unicode="&#xb9;" 
d="M898 608q49 0 49 -62.5t-49 -62.5h-533q-50 1 -50 63t50 62h204v551l-169 -88q-18 -9 -37 -9t-37 30t-18 51q0 20 27 33l301 152q16 7 30 7t26 -11.5t12 -31.5v-684h194z" />
    <glyph glyph-name="ordmasculine" unicode="&#xba;" 
d="M375 837q0 -69 46.5 -154.5t192.5 -85.5t192.5 84.5t46.5 154.5t-47 155.5t-192 85.5q-70 0 -124.5 -31t-84.5 -85.5t-30 -123.5zM993 836q0 -106 -49.5 -190.5t-136 -132.5t-193.5 -48t-193.5 48t-136 132.5t-49.5 190.5t49.5 191.5t136 133.5t193.5 48t193.5 -48
t136 -133.5t49.5 -191.5z" />
    <glyph glyph-name="guillemotright" unicode="&#xbb;" 
d="M637 871q-1 19 31 47t56 28t36 -15l306 -343q9 -9 9 -23t-9 -25l-306 -343q-12 -15 -36 -15t-56 28t-31 47q0 20 14 36l246 271l-246 271q-14 16 -14 36zM157 871q-1 19 31 47t56 28t36 -15l306 -343q9 -9 9 -23t-9 -25l-306 -343q-12 -15 -36 -15t-56 28t-31 47
q0 20 14 36l246 271l-246 271q-14 16 -14 36z" />
    <glyph glyph-name="onequarter" unicode="&#xbc;" 
d="M989 76l5 266l-221 -266h216zM1193 76q40 0 40 -52.5t-40 -52.5h-91v-153q0 -40 -56.5 -40t-56.5 40v153h-314q-45 0 -45 65q0 26 14 45l317 377q29 37 63 37q33 0 55.5 -13.5t22.5 -33.5v-372h91zM1066 844q16 0 34 -23t17 -43q0 -20 -14 -27l-918 -561q-7 -4 -23 -4
t-34 24t-17.5 42t14.5 27l918 561q7 4 23 4zM529 736q0 -52 -41 -52h-445q-42 0 -42 52t42 52h170v459l-141 -73q-14 -7 -32 -7q-18 1 -31 25q-14 24 -14 42t23 28l251 127q12 5 22 5q35 0 35 -35v-571h162q41 0 41 -52z" />
    <glyph glyph-name="onehalf" unicode="&#xbd;" 
d="M1169 -112q41 0 41 -52t-41 -52h-460q-40 0 -40 60q0 33 26 54l278 234q47 40 69 74t22 78t-33 73t-108 29t-172 -51q-7 -4 -15 -4q-24 0 -36 28t-12 47t18 29q110 59 229 59t182.5 -58t63.5 -139t-33 -133.5t-103 -110.5l-199 -165h323zM1066 894q16 0 34 -23t17 -43
q0 -20 -14 -27l-918 -561q-7 -4 -23 -4t-34 24t-17.5 42t14.5 27l918 561q7 4 23 4zM529 736q0 -52 -41 -52h-445q-42 0 -42 52t42 52h170v459l-141 -73q-14 -7 -32 -7q-18 1 -31 25q-14 24 -14 42t23 28l251 127q12 5 22 5q35 0 35 -35v-571h162q41 0 41 -52z" />
    <glyph glyph-name="threequarters" unicode="&#xbe;" 
d="M989 76l5 266l-221 -266h216zM1193 76q40 0 40 -52.5t-40 -52.5h-91v-153q0 -40 -56.5 -40t-56.5 40v153h-314q-45 0 -45 65q0 26 14 45l317 377q29 37 63 37q33 0 55.5 -13.5t22.5 -33.5v-372h91zM1066 854q16 0 34 -23t17 -43q0 -20 -14 -27l-918 -561q-7 -4 -23 -4
t-34 24t-17.5 42t14.5 27l918 561q7 4 23 4zM542 881q0 -99 -68 -155.5t-202 -56.5t-232 54q-19 10 -19 28t7 37q15 39 41 39q7 -1 33 -13q79 -38 160 -38q163 0 163 105q0 55 -39.5 78t-113.5 23h-44q-36 0 -36 52t36 52h33q142 0 142 100t-139 100q-83 0 -172 -46
q-7 -4 -16 -4q-25 0 -36 28t-11 47t18 29q100 54 201 54t186.5 -38.5t85.5 -149.5t-94 -162q116 -38 116 -163z" />
    <glyph glyph-name="questiondown" unicode="&#xbf;" 
d="M262 -36q0 90 34.5 151.5t102 107t176.5 90.5l13 144q5 48 67 48t65 -48l13 -198q4 -37 -30 -51l-69 -28q-156 -65 -187 -114t-31 -111t51 -107t163 -45t240 67q15 9 31 9q33 0 53 -46q12 -27 12 -53t-38 -47q-144 -78 -318 -78q-218 0 -283 109.5t-65 199.5zM539 757
v114q0 34 27 48.5t88 14.5t88 -14.5t27 -48.5v-114q0 -34 -27 -48.5t-88 -14.5t-88 14.5t-27 48.5z" />
    <glyph glyph-name="Agrave" unicode="&#xc0;" 
d="M412 474h399l-197 569h-4zM1124 50q0 -33 -57 -52q-26 -8 -43 -8q-36 0 -51 46l-109 294h-504l-109 -294q-15 -46 -54 -46q-14 0 -42 9q-55 18 -55 54q0 13 6 31l394 1060q24 65 112 65t112 -65l394 -1060q6 -18 6 -34zM285 1578q-1 28 31 67q32 40 58 40t45 -13
l348 -256q16 -12 16 -34t-23 -48t-42 -26t-37 10l-374 219q-22 13 -22 41z" />
    <glyph glyph-name="Aacute" unicode="&#xc1;" 
d="M412 474h399l-197 569h-4zM1124 50q0 -33 -57 -52q-26 -8 -43 -8q-36 0 -51 46l-109 294h-504l-109 -294q-15 -46 -54 -46q-14 0 -42 9q-55 18 -55 54q0 13 6 31l394 1060q24 65 112 65t112 -65l394 -1060q6 -18 6 -34zM510 1308q-19 0 -42 26t-23 48t16 34l348 256
q19 13 45 13t58 -40q32 -39 31 -67q0 -28 -22 -41l-374 -219q-18 -10 -37 -10z" />
    <glyph glyph-name="Acircumflex" unicode="&#xc2;" 
d="M412 474h399l-197 569h-4zM1124 50q0 -33 -57 -52q-26 -8 -43 -8q-36 0 -51 46l-109 294h-504l-109 -294q-15 -46 -54 -46q-14 0 -42 9q-55 18 -55 54q0 13 6 31l394 1060q24 65 112 65t112 -65l394 -1060q6 -18 6 -34zM358 1309q-20 0 -41 25q-22 24 -22 44t16 35
l245 233q22 20 58 20t58 -20l245 -233q16 -15 16 -35t-22 -44q-21 -25 -41 -25t-35 12l-221 173l-221 -173q-15 -12 -35 -12z" />
    <glyph glyph-name="Atilde" unicode="&#xc3;" 
d="M412 474h399l-197 569h-4zM1124 50q0 -33 -57 -52q-26 -8 -43 -8q-36 0 -51 46l-109 294h-504l-109 -294q-15 -46 -54 -46q-14 0 -42 9q-55 18 -55 54q0 13 6 31l394 1060q24 65 112 65t112 -65l394 -1060q6 -18 6 -34zM334 1356q-20 0 -42 24t-22 44q0 21 14 38
q95 123 210 123q50 0 126 -35t111 -35q64 0 130 68q12 12 33 12q20 1 42 -23t22 -45t-14 -38q-95 -123 -210 -123q-50 0 -126 35t-125 35t-105 -57q-22 -23 -44 -23z" />
    <glyph glyph-name="Adieresis" unicode="&#xc4;" 
d="M412 474h399l-197 569h-4zM1124 50q0 -33 -57 -52q-26 -8 -43 -8q-36 0 -51 46l-109 294h-504l-109 -294q-15 -46 -54 -46q-14 0 -42 9q-55 18 -55 54q0 13 6 31l394 1060q24 65 112 65t112 -65l394 -1060q6 -18 6 -34zM727 1438v130q0 36 20 50.5t75 14.5t75 -14.5
t20 -50.5v-130q0 -36 -20 -50.5t-75 -14.5t-75 14.5t-20 50.5zM307 1438v130q0 36 20 50.5t75 14.5t75 -14.5t20 -50.5v-130q0 -36 -20 -50.5t-75 -14.5t-75 14.5t-20 50.5z" />
    <glyph glyph-name="Aring" unicode="&#xc5;" 
d="M412 474h399l-197 569h-4zM1124 50q0 -33 -57 -52q-26 -8 -43 -8q-36 0 -51 46l-109 294h-504l-109 -294q-15 -46 -54 -46q-14 0 -42 9q-55 18 -55 54q0 13 6 31l394 1060q24 65 112 65t112 -65l394 -1060q6 -18 6 -34zM500 1551q0 -52 31 -83t83 -31t83 31t31 83t-31 83
t-83 31t-83 -31t-31 -83zM368 1551q0 69 32 125.5t88.5 88.5t125.5 32t125.5 -32t88.5 -88.5t32 -125.5t-32 -125.5t-88.5 -88.5t-125.5 -32t-125.5 32t-88.5 88.5t-32 125.5z" />
    <glyph glyph-name="AE" unicode="&#xc6;" 
d="M575 514v529h-25l-195 -529h220zM1170 72q0 -39 -14.5 -55.5t-48.5 -16.5h-469q-34 0 -48.5 15.5t-14.5 52.5v302h-274l-130 -334q-17 -46 -55 -46q-14 0 -42 8q-54 17 -54 54q0 15 7 32l403 1035q26 68 89 68h568q34 0 48.5 -16.5t14.5 -55.5t-14.5 -55.5t-48.5 -16.5
h-362v-359h317q34 0 48.5 -16.5t14.5 -55.5t-14.5 -55.5t-48.5 -16.5h-317v-396h382q34 0 48.5 -16.5t14.5 -55.5z" />
    <glyph glyph-name="Ccedilla" unicode="&#xc7;" 
d="M596 -177v159q-135 17 -235.5 97.5t-155.5 213t-55 308.5t64 315.5t180.5 216t291.5 76.5t351 -101q37 -22 37 -48t-17 -64q-17 -36 -40 -36t-43 11q-151 90 -310 90q-108 0 -189.5 -57t-126 -162.5t-44.5 -247.5t44.5 -248t126 -163t189.5 -57q159 0 310 90q20 11 43 11
q23 -1 40 -37t17 -62t-37 -49q-150 -86 -309 -98v-94q101 1 152 -46t51 -128t-62 -133t-195 -52t-235 48q-23 10 -23 30t8 40q17 45 46 45q8 0 32 -9q83 -31 183 -31q100 1 100 65t-116 64l-39 -1q-34 0 -34 44z" />
    <glyph glyph-name="Egrave" unicode="&#xc8;" 
d="M1040 72q0 -39 -14.5 -55.5t-48.5 -16.5h-689q-34 0 -48.5 15.5t-14.5 52.5v1051q0 37 14.5 52.5t48.5 15.5h669q34 0 48.5 -16.5t14.5 -55.5t-14.5 -55.5t-48.5 -16.5h-582v-359h457q34 0 48.5 -16.5t14.5 -55.5t-14.5 -55.5t-48.5 -16.5h-457v-396h602q34 0 48.5 -16.5
t14.5 -55.5zM345 1578q-1 28 31 67q32 40 58 40t45 -13l348 -256q16 -12 16 -34t-23 -48t-42 -26t-37 10l-374 219q-22 13 -22 41z" />
    <glyph glyph-name="Eacute" unicode="&#xc9;" 
d="M1040 72q0 -39 -14.5 -55.5t-48.5 -16.5h-689q-34 0 -48.5 15.5t-14.5 52.5v1051q0 37 14.5 52.5t48.5 15.5h669q34 0 48.5 -16.5t14.5 -55.5t-14.5 -55.5t-48.5 -16.5h-582v-359h457q34 0 48.5 -16.5t14.5 -55.5t-14.5 -55.5t-48.5 -16.5h-457v-396h602q34 0 48.5 -16.5
t14.5 -55.5zM450 1308q-19 0 -42 26t-23 48t16 34l348 256q19 13 45 13t58 -40q32 -39 31 -67q0 -28 -22 -41l-374 -219q-18 -10 -37 -10z" />
    <glyph glyph-name="Ecircumflex" unicode="&#xca;" 
d="M1040 72q0 -39 -14.5 -55.5t-48.5 -16.5h-689q-34 0 -48.5 15.5t-14.5 52.5v1051q0 37 14.5 52.5t48.5 15.5h669q34 0 48.5 -16.5t14.5 -55.5t-14.5 -55.5t-48.5 -16.5h-582v-359h457q34 0 48.5 -16.5t14.5 -55.5t-14.5 -55.5t-48.5 -16.5h-457v-396h602q34 0 48.5 -16.5
t14.5 -55.5zM388 1309q-20 0 -41 25q-22 24 -22 44t16 35l245 233q22 20 58 20t58 -20l245 -233q16 -15 16 -35t-22 -44q-21 -25 -41 -25t-35 12l-221 173l-221 -173q-15 -12 -35 -12z" />
    <glyph glyph-name="Edieresis" unicode="&#xcb;" 
d="M1040 72q0 -39 -14.5 -55.5t-48.5 -16.5h-689q-34 0 -48.5 15.5t-14.5 52.5v1051q0 37 14.5 52.5t48.5 15.5h669q34 0 48.5 -16.5t14.5 -55.5t-14.5 -55.5t-48.5 -16.5h-582v-359h457q34 0 48.5 -16.5t14.5 -55.5t-14.5 -55.5t-48.5 -16.5h-457v-396h602q34 0 48.5 -16.5
t14.5 -55.5zM749 1438v130q0 36 20 50.5t75 14.5t75 -14.5t20 -50.5v-130q0 -36 -20 -50.5t-75 -14.5t-75 14.5t-20 50.5zM329 1438v130q0 36 20 50.5t75 14.5t75 -14.5t20 -50.5v-130q0 -36 -20 -50.5t-75 -14.5t-75 14.5t-20 50.5z" />
    <glyph glyph-name="Igrave" unicode="&#xcc;" 
d="M1028 72q0 -39 -14.5 -55.5t-48.5 -16.5h-702q-34 0 -48.5 16.5t-14.5 55.5t14.5 55.5t48.5 16.5h276v899h-256q-34 0 -48.5 16.5t-14.5 55.5t14.5 55.5t48.5 16.5h662q34 0 48.5 -16.5t14.5 -55.5t-14.5 -55.5t-48.5 -16.5h-256v-899h276q34 0 48.5 -16.5t14.5 -55.5z
M313 1578q-1 28 31 67q32 40 58 40t45 -13l348 -256q16 -12 16 -34t-23 -48t-42 -26t-37 10l-374 219q-22 13 -22 41z" />
    <glyph glyph-name="Iacute" unicode="&#xcd;" 
d="M1028 72q0 -39 -14.5 -55.5t-48.5 -16.5h-702q-34 0 -48.5 16.5t-14.5 55.5t14.5 55.5t48.5 16.5h276v899h-256q-34 0 -48.5 16.5t-14.5 55.5t14.5 55.5t48.5 16.5h662q34 0 48.5 -16.5t14.5 -55.5t-14.5 -55.5t-48.5 -16.5h-256v-899h276q34 0 48.5 -16.5t14.5 -55.5z
M482 1308q-19 0 -42 26t-23 48t16 34l348 256q19 13 45 13t58 -40q32 -39 31 -67q0 -28 -22 -41l-374 -219q-18 -10 -37 -10z" />
    <glyph glyph-name="Icircumflex" unicode="&#xce;" 
d="M1028 72q0 -39 -14.5 -55.5t-48.5 -16.5h-702q-34 0 -48.5 16.5t-14.5 55.5t14.5 55.5t48.5 16.5h276v899h-256q-34 0 -48.5 16.5t-14.5 55.5t14.5 55.5t48.5 16.5h662q34 0 48.5 -16.5t14.5 -55.5t-14.5 -55.5t-48.5 -16.5h-256v-899h276q34 0 48.5 -16.5t14.5 -55.5z
M358 1309q-20 0 -41 25q-22 24 -22 44t16 35l245 233q22 20 58 20t58 -20l245 -233q16 -15 16 -35t-22 -44q-21 -25 -41 -25t-35 12l-221 173l-221 -173q-15 -12 -35 -12z" />
    <glyph glyph-name="Idieresis" unicode="&#xcf;" 
d="M1028 72q0 -39 -14.5 -55.5t-48.5 -16.5h-702q-34 0 -48.5 16.5t-14.5 55.5t14.5 55.5t48.5 16.5h276v899h-256q-34 0 -48.5 16.5t-14.5 55.5t14.5 55.5t48.5 16.5h662q34 0 48.5 -16.5t14.5 -55.5t-14.5 -55.5t-48.5 -16.5h-256v-899h276q34 0 48.5 -16.5t14.5 -55.5z
M729 1438v130q0 36 20 50.5t75 14.5t75 -14.5t20 -50.5v-130q0 -36 -20 -50.5t-75 -14.5t-75 14.5t-20 50.5zM309 1438v130q0 36 20 50.5t75 14.5t75 -14.5t20 -50.5v-130q0 -36 -20 -50.5t-75 -14.5t-75 14.5t-20 50.5z" />
    <glyph glyph-name="Eth" unicode="&#xd0;" 
d="M966 593q0 146 -72 298t-319 152h-200v-359h220q34 0 48.5 -16.5t14.5 -55.5t-14.5 -55.5t-48.5 -16.5h-220v-396h200q247 0 319 151.5t72 297.5zM1120 593q0 -182 -65.5 -316t-184.5 -205.5t-276 -71.5h-306q-34 0 -48.5 15.5t-14.5 52.5v472h-112q-34 0 -48.5 16.5
t-14.5 55.5t14.5 55.5t48.5 16.5h112v435q0 37 14.5 52.5t48.5 15.5h306q157 0 276 -71.5t184.5 -206t65.5 -316.5z" />
    <glyph glyph-name="Ntilde" unicode="&#xd1;" 
d="M1053 37q0 -59 -75 -59q-47 0 -84 55l-569 888h-4v-866q0 -35 -16 -50t-56 -15h-2q-40 0 -56 15t-16 50v1077q0 35 17 50t58 15h27q43 0 62 -28l564 -882h4v845q0 35 16 50t56 15h2q40 0 56 -15t16 -50v-1095zM493 1585q52 0 127 -35q74 -35 110 -35q65 0 131 68
q12 12 33 12q20 1 42 -23t22 -45t-14 -38q-95 -123 -210 -123q-50 0 -126 35t-111 35q-64 0 -130 -68q-12 -12 -33 -12q-20 0 -42 24t-22 44q0 21 14 38q95 123 209 123z" />
    <glyph glyph-name="Ograve" unicode="&#xd2;" 
d="M244 593q0 -143 45.5 -248.5t129 -162t195.5 -56.5t195.5 56.5t129 162t45.5 248.5t-45.5 249t-129.5 162.5t-195 56.5t-195 -56.5t-129.5 -162.5t-45.5 -249zM1138 593q0 -183 -65 -322.5t-184 -216t-275 -76.5t-275 76.5t-184 216t-65 322.5t65 323t184 216.5t275 76.5
t275 -76.5t184 -216.5t65 -323zM833 1382q0 -22 -23 -48t-42 -26t-37 10l-374 219q-22 13 -22 41q-1 28 31 67q32 40 58 40t45 -13l348 -256q16 -12 16 -34z" />
    <glyph glyph-name="Oacute" unicode="&#xd3;" 
d="M244 593q0 -143 45.5 -248.5t129 -162t195.5 -56.5t195.5 56.5t129 162t45.5 248.5t-45.5 249t-129.5 162.5t-195 56.5t-195 -56.5t-129.5 -162.5t-45.5 -249zM1138 593q0 -183 -65 -322.5t-184 -216t-275 -76.5t-275 76.5t-184 216t-65 322.5t65 323t184 216.5t275 76.5
t275 -76.5t184 -216.5t65 -323zM804 1685q26 0 58 -40q32 -39 31 -67q0 -28 -22 -41l-374 -219q-18 -10 -37 -10t-42 26t-23 48t16 34l348 256q19 13 45 13z" />
    <glyph glyph-name="Ocircumflex" unicode="&#xd4;" 
d="M244 593q0 -143 45.5 -248.5t129 -162t195.5 -56.5t195.5 56.5t129 162t45.5 248.5t-45.5 249t-129.5 162.5t-195 56.5t-195 -56.5t-129.5 -162.5t-45.5 -249zM1138 593q0 -183 -65 -322.5t-184 -216t-275 -76.5t-275 76.5t-184 216t-65 322.5t65 323t184 216.5t275 76.5
t275 -76.5t184 -216.5t65 -323zM933 1378q0 -20 -22 -44q-21 -25 -41 -25t-35 12l-221 173l-221 -173q-15 -12 -35 -12t-41 25q-22 24 -22 44t16 35l245 233q22 20 58 20t58 -20l245 -233q16 -15 16 -35z" />
    <glyph glyph-name="Otilde" unicode="&#xd5;" 
d="M244 593q0 -143 45.5 -248.5t129 -162t195.5 -56.5t195.5 56.5t129 162t45.5 248.5t-45.5 249t-129.5 162.5t-195 56.5t-195 -56.5t-129.5 -162.5t-45.5 -249zM1138 593q0 -183 -65 -322.5t-184 -216t-275 -76.5t-275 76.5t-184 216t-65 322.5t65 323t184 216.5t275 76.5
t275 -76.5t184 -216.5t65 -323zM493 1585q52 0 127 -35q74 -35 110 -35q65 0 131 68q12 12 33 12q20 1 42 -23t22 -45t-14 -38q-95 -123 -210 -123q-50 0 -126 35t-111 35q-64 0 -130 -68q-12 -12 -33 -12q-20 0 -42 24t-22 44q0 21 14 38q95 123 209 123z" />
    <glyph glyph-name="Odieresis" unicode="&#xd6;" 
d="M244 593q0 -143 45.5 -248.5t129 -162t195.5 -56.5t195.5 56.5t129 162t45.5 248.5t-45.5 249t-129.5 162.5t-195 56.5t-195 -56.5t-129.5 -162.5t-45.5 -249zM1138 593q0 -183 -65 -322.5t-184 -216t-275 -76.5t-275 76.5t-184 216t-65 322.5t65 323t184 216.5t275 76.5
t275 -76.5t184 -216.5t65 -323zM919 1568v-130q0 -36 -20 -50.5t-75 -14.5t-75 14.5t-20 50.5v130q0 36 20 50.5t75 14.5t75 -14.5t20 -50.5zM499 1568v-130q0 -36 -20 -50.5t-75 -14.5t-75 14.5t-20 50.5v130q0 36 20 50.5t75 14.5t75 -14.5t20 -50.5z" />
    <glyph glyph-name="multiply" unicode="&#xd7;" 
d="M997 279q0 -22 -29 -51t-51 -29t-45 23l-258 258l-258 -258q-23 -23 -45 -23t-51 29t-29 51t23 45l258 258l-258 258q-23 23 -23 45t29 51t51 29t45 -23l258 -258l258 258q23 23 45 23t51 -29t29 -51t-23 -45l-258 -258l258 -258q23 -23 23 -45z" />
    <glyph glyph-name="Oslash" unicode="&#xd8;" 
d="M984 612q0 162 -74 286l-495 -713q87 -59 199 -59t195.5 56.5t129 162t45.5 267.5zM616 1061q-113 0 -197 -56.5t-129.5 -162.5t-45.5 -268t73 -284l495 712q-83 59 -196 59zM1138 593q0 -183 -65 -322.5t-184 -216t-278 -76.5t-282 83l-77 -111q-23 -32 -44 -32t-54 22
t-33 44t16 46l88 127q-135 168 -135 436q0 183 65 323t184 216.5t279 76.5t280 -83l78 113q23 32 45 32q21 0 53 -22q32 -23 32 -45t-15 -45l-89 -129q136 -167 136 -437z" />
    <glyph glyph-name="Ugrave" unicode="&#xd9;" 
d="M1053 1132v-719q0 -140 -55 -237.5t-154 -147.5t-230 -50t-230 50t-154 147.5t-55 237.5v719q0 35 16.5 50t57.5 15h2q41 0 57.5 -15t16.5 -50v-699q0 -153 75 -230t214 -77t214 77t75 230v699q0 35 16.5 50t57.5 15h2q41 0 57.5 -15t16.5 -50zM783 1382q0 -22 -23 -48
t-42 -26t-37 10l-374 219q-22 13 -22 41q-1 28 31 67q32 40 58 40t45 -13l348 -256q16 -12 16 -34z" />
    <glyph glyph-name="Uacute" unicode="&#xda;" 
d="M1053 1132v-719q0 -140 -55 -237.5t-154 -147.5t-230 -50t-230 50t-154 147.5t-55 237.5v719q0 35 16.5 50t57.5 15h2q41 0 57.5 -15t16.5 -50v-699q0 -153 75 -230t214 -77t214 77t75 230v699q0 35 16.5 50t57.5 15h2q41 0 57.5 -15t16.5 -50zM854 1685q26 0 58 -40
q32 -39 31 -67q0 -28 -22 -41l-374 -219q-18 -10 -37 -10t-42 26t-23 48t16 34l348 256q19 13 45 13z" />
    <glyph glyph-name="Ucircumflex" unicode="&#xdb;" 
d="M1053 1132v-719q0 -140 -55 -237.5t-154 -147.5t-230 -50t-230 50t-154 147.5t-55 237.5v719q0 35 16.5 50t57.5 15h2q41 0 57.5 -15t16.5 -50v-699q0 -153 75 -230t214 -77t214 77t75 230v699q0 35 16.5 50t57.5 15h2q41 0 57.5 -15t16.5 -50zM933 1378q0 -20 -22 -44
q-21 -25 -41 -25t-35 12l-221 173l-221 -173q-15 -12 -35 -12t-41 25q-22 24 -22 44t16 35l245 233q22 20 58 20t58 -20l245 -233q16 -15 16 -35z" />
    <glyph glyph-name="Udieresis" unicode="&#xdc;" 
d="M1053 1132v-719q0 -140 -55 -237.5t-154 -147.5t-230 -50t-230 50t-154 147.5t-55 237.5v719q0 35 16.5 50t57.5 15h2q41 0 57.5 -15t16.5 -50v-699q0 -153 75 -230t214 -77t214 77t75 230v699q0 35 16.5 50t57.5 15h2q41 0 57.5 -15t16.5 -50zM919 1568v-130
q0 -36 -20 -50.5t-75 -14.5t-75 14.5t-20 50.5v130q0 36 20 50.5t75 14.5t75 -14.5t20 -50.5zM499 1568v-130q0 -36 -20 -50.5t-75 -14.5t-75 14.5t-20 50.5v130q0 36 20 50.5t75 14.5t75 -14.5t20 -50.5z" />
    <glyph glyph-name="Yacute" unicode="&#xdd;" 
d="M1103 1135q0 -16 -15 -39l-399 -609v-432q0 -35 -16.5 -50t-57.5 -15h-2q-41 0 -57.5 15t-16.5 50v432l-399 609q-15 23 -14.5 46.5t40.5 40.5q40 18 64 18t43 -29l341 -526l341 526q19 29 43 29q24 -1 53 -13t40.5 -24.5t11.5 -28.5zM510 1308q-19 0 -42 26t-23 48
t16 34l348 256q19 13 45 13t58 -40q32 -39 31 -67q0 -28 -22 -41l-374 -219q-18 -10 -37 -10z" />
    <glyph glyph-name="Thorn" unicode="&#xde;" 
d="M904 596q0 96 -62 151t-183 55h-274v-404h274q118 0 181.5 51t63.5 147zM1062 598q0 -100 -44 -177.5t-130 -122t-208 -44.5h-295v-199q0 -35 -16.5 -50t-57.5 -15h-2q-41 0 -57.5 15t-16.5 50v1077q0 35 16.5 50t57.5 15h2q41 0 57.5 -15t16.5 -50v-186h295
q121 0 207.5 -45.5t130.5 -124t44 -178.5z" />
    <glyph glyph-name="germandbls" unicode="&#xdf;" 
d="M551 55q0 71 64 71q126 0 197 61t71 179t-69 185.5t-187 67.5q-34 0 -48.5 16.5t-14.5 52.5t14.5 52t48.5 19q98 10 149.5 65.5t51.5 147.5t-58.5 144.5t-164.5 52.5t-163 -63.5t-57 -173.5v-877q0 -35 -16.5 -50t-57.5 -15h-2q-41 0 -57.5 15t-16.5 50v888
q0 229 128.5 301.5t246.5 72.5t245 -68.5t127 -277.5q0 -179 -172 -269q107 -41 167 -130.5t60 -209.5t-76.5 -252t-326.5 -132q-50 0 -66.5 16.5t-16.5 60.5z" />
    <glyph glyph-name="agrave" unicode="&#xe0;" 
d="M313 273q0 -73 50.5 -113.5t141.5 -40.5q199 0 359 165v109q-139 45 -303 45q-248 0 -248 -165zM864 613q0 188 -207 188q-177 0 -333 -79q-16 -9 -31 -9q-32 0 -55 48q-11 23 -11 49t37 45q174 91 374 91q376 0 376 -333v-558q0 -35 -15 -50t-54 -15h-2q-39 0 -54 15
t-15 50v68q-170 -145 -377 -145t-272.5 100.5t-65.5 191.5q0 159 111.5 234t279.5 75t314 -51v85zM363 1308q-1 28 31 67q32 40 58 40t45 -13l348 -256q16 -12 16 -34t-23 -48t-42 -26t-37 10l-374 219q-22 13 -22 41z" />
    <glyph glyph-name="aacute" unicode="&#xe1;" 
d="M313 273q0 -73 50.5 -113.5t141.5 -40.5q199 0 359 165v109q-139 45 -303 45q-248 0 -248 -165zM864 613q0 188 -207 188q-177 0 -333 -79q-16 -9 -31 -9q-32 0 -55 48q-11 23 -11 49t37 45q174 91 374 91q376 0 376 -333v-558q0 -35 -15 -50t-54 -15h-2q-39 0 -54 15
t-15 50v68q-170 -145 -377 -145t-272.5 100.5t-65.5 191.5q0 159 111.5 234t279.5 75t314 -51v85zM482 1038q-19 0 -42 26t-23 48t16 34l348 256q19 13 45 13t58 -40q32 -39 31 -67q0 -28 -22 -41l-374 -219q-18 -10 -37 -10z" />
    <glyph glyph-name="acircumflex" unicode="&#xe2;" 
d="M313 273q0 -73 50.5 -113.5t141.5 -40.5q199 0 359 165v109q-139 45 -303 45q-248 0 -248 -165zM864 613q0 188 -207 188q-177 0 -333 -79q-16 -9 -31 -9q-32 0 -55 48q-11 23 -11 49t37 45q174 91 374 91q376 0 376 -333v-558q0 -35 -15 -50t-54 -15h-2q-39 0 -54 15
t-15 50v68q-170 -145 -377 -145t-272.5 100.5t-65.5 191.5q0 159 111.5 234t279.5 75t314 -51v85zM368 1039q-20 0 -41 25q-22 24 -22 44t16 35l245 233q22 20 58 20t58 -20l245 -233q16 -15 16 -35t-22 -44q-21 -25 -41 -25t-35 12l-221 173l-221 -173q-15 -12 -35 -12z
" />
    <glyph glyph-name="atilde" unicode="&#xe3;" 
d="M313 273q0 -73 50.5 -113.5t141.5 -40.5q199 0 359 165v109q-139 45 -303 45q-248 0 -248 -165zM864 613q0 188 -207 188q-177 0 -333 -79q-16 -9 -31 -9q-32 0 -55 48q-11 23 -11 49t37 45q174 91 374 91q376 0 376 -333v-558q0 -35 -15 -50t-54 -15h-2q-39 0 -54 15
t-15 50v68q-170 -145 -377 -145t-272.5 100.5t-65.5 191.5q0 159 111.5 234t279.5 75t314 -51v85zM344 1086q-20 0 -42 24t-22 44q0 21 14 38q95 123 210 123q50 0 126 -35t111 -35q64 0 130 68q12 12 33 12q20 1 42 -23t22 -45t-14 -38q-95 -123 -210 -123q-50 0 -126 35
t-125 35t-105 -57q-22 -23 -44 -23z" />
    <glyph glyph-name="adieresis" unicode="&#xe4;" 
d="M313 273q0 -73 50.5 -113.5t141.5 -40.5q199 0 359 165v109q-139 45 -303 45q-248 0 -248 -165zM864 613q0 188 -207 188q-177 0 -333 -79q-16 -9 -31 -9q-32 0 -55 48q-11 23 -11 49t37 45q174 91 374 91q376 0 376 -333v-558q0 -35 -15 -50t-54 -15h-2q-39 0 -54 15
t-15 50v68q-170 -145 -377 -145t-272.5 100.5t-65.5 191.5q0 159 111.5 234t279.5 75t314 -51v85zM739 1168v130q0 36 20 50.5t75 14.5t75 -14.5t20 -50.5v-130q0 -36 -20 -50.5t-75 -14.5t-75 14.5t-20 50.5zM319 1168v130q0 36 20 50.5t75 14.5t75 -14.5t20 -50.5v-130
q0 -36 -20 -50.5t-75 -14.5t-75 14.5t-20 50.5z" />
    <glyph glyph-name="aring" unicode="&#xe5;" 
d="M313 273q0 -73 50.5 -113.5t141.5 -40.5q199 0 359 165v109q-139 45 -303 45q-248 0 -248 -165zM864 613q0 188 -207 188q-177 0 -333 -79q-16 -9 -31 -9q-32 0 -55 48q-11 23 -11 49t37 45q174 91 374 91q376 0 376 -333v-558q0 -35 -15 -50t-54 -15h-2q-39 0 -54 15
t-15 50v68q-170 -145 -377 -145t-272.5 100.5t-65.5 191.5q0 159 111.5 234t279.5 75t314 -51v85zM510 1311q0 -52 31 -83t83 -31t83 31t31 83t-31 83t-83 31t-83 -31t-31 -83zM378 1311q0 69 32 125.5t88.5 88.5t125.5 32t125.5 -32t88.5 -88.5t32 -125.5t-32 -125.5
t-88.5 -88.5t-125.5 -32t-125.5 32t-88.5 88.5t-32 125.5z" />
    <glyph glyph-name="ae" unicode="&#xe6;" 
d="M539 440q-311 0 -311 -200q0 -57 30 -89t84 -32t125.5 45t71.5 176v100zM994 580q-14 221 -139 221q-71 0 -110 -52t-51 -169h300zM858 946q281 0 293 -444q1 -33 -14 -47.5t-49 -14.5h-399q5 -317 164 -317q90 0 170 78q17 17 43 17t50 -28q23 -28 23 -54t-41 -66
q-41 -38 -107 -65t-138 -27q-163 0 -244 144q-48 -67 -120.5 -105.5t-152.5 -38.5t-170.5 49.5t-90.5 214.5t124.5 251.5t339.5 86.5v22q0 101 -28 150t-109 49t-171 -69q-19 -15 -45 -15q-26 1 -48 25t-22 51t23 47q123 106 273 106t217 -116q82 116 229 116z" />
    <glyph glyph-name="ccedilla" unicode="&#xe7;" 
d="M561 -177v159q-125 15 -218.5 80.5t-144.5 169.5t-51 236t60 242t169.5 173t234.5 63q235 0 406 -110q35 -22 35 -51t-15 -56q-19 -41 -45 -41t-44 13q-141 97 -319 97q-96 0 -169.5 -43t-114 -119.5t-40.5 -173.5t40.5 -173.5t114 -119.5t167.5 -43q192 0 338 111
q21 15 45 15t44 -34t19 -61q0 -28 -32 -51q-149 -109 -348 -125v-94q101 1 152 -46t51 -128t-62 -133t-195 -52t-235 48q-23 10 -23 30t8 40q17 45 46 45q8 0 32 -9q83 -31 183 -31q100 1 100 65t-116 64l-39 -1q-34 0 -34 44z" />
    <glyph glyph-name="egrave" unicode="&#xe8;" 
d="M626 801q-127 0 -208 -62.5t-106 -173.5h615q-21 114 -97.5 175t-203.5 61zM1026 425h-724q7 -149 84 -225.5t197 -76.5q232 0 380 86q17 9 33 9q38 0 57 -56q7 -18 7 -36q0 -40 -44 -61q-181 -87 -413 -87q-293 0 -374 167t-81 313t60.5 256.5t168 171t249.5 60.5
t294 -87.5t169 -371.5q2 -33 -13.5 -47.5t-49.5 -14.5zM851 1112q0 -22 -23 -48t-42 -26t-37 10l-374 219q-22 13 -22 41q-1 28 31 67q32 40 58 40t45 -13l348 -256q16 -12 16 -34z" />
    <glyph glyph-name="eacute" unicode="&#xe9;" 
d="M626 801q-127 0 -208 -62.5t-106 -173.5h615q-21 114 -97.5 175t-203.5 61zM1026 425h-724q7 -149 84 -225.5t197 -76.5q232 0 380 86q17 9 33 9q38 0 57 -56q7 -18 7 -36q0 -40 -44 -61q-181 -87 -413 -87q-293 0 -374 167t-81 313t60.5 256.5t168 171t249.5 60.5
t294 -87.5t169 -371.5q2 -33 -13.5 -47.5t-49.5 -14.5zM826 1415q26 0 58 -40q32 -39 31 -67q0 -28 -22 -41l-374 -219q-18 -10 -37 -10t-42 26t-23 48t16 34l348 256q19 13 45 13z" />
    <glyph glyph-name="ecircumflex" unicode="&#xea;" 
d="M626 801q-127 0 -208 -62.5t-106 -173.5h615q-21 114 -97.5 175t-203.5 61zM1026 425h-724q7 -149 84 -225.5t197 -76.5q232 0 380 86q17 9 33 9q38 0 57 -56q7 -18 7 -36q0 -40 -44 -61q-181 -87 -413 -87q-293 0 -374 167t-81 313t60.5 256.5t168 171t249.5 60.5
t294 -87.5t169 -371.5q2 -33 -13.5 -47.5t-49.5 -14.5zM953 1108q0 -20 -22 -44q-21 -25 -41 -25t-35 12l-221 173l-221 -173q-15 -12 -35 -12t-41 25q-22 24 -22 44t16 35l245 233q22 20 58 20t58 -20l245 -233q16 -15 16 -35z" />
    <glyph glyph-name="edieresis" unicode="&#xeb;" 
d="M626 801q-127 0 -208 -62.5t-106 -173.5h615q-21 114 -97.5 175t-203.5 61zM1026 425h-724q7 -149 84 -225.5t197 -76.5q232 0 380 86q17 9 33 9q38 0 57 -56q7 -18 7 -36q0 -40 -44 -61q-181 -87 -413 -87q-293 0 -374 167t-81 313t60.5 256.5t168 171t249.5 60.5
t294 -87.5t169 -371.5q2 -33 -13.5 -47.5t-49.5 -14.5zM929 1298v-130q0 -36 -20 -50.5t-75 -14.5t-75 14.5t-20 50.5v130q0 36 20 50.5t75 14.5t75 -14.5t20 -50.5zM509 1298v-130q0 -36 -20 -50.5t-75 -14.5t-75 14.5t-20 50.5v130q0 36 20 50.5t75 14.5t75 -14.5
t20 -50.5z" />
    <glyph glyph-name="igrave" unicode="&#xec;" 
d="M713 856v-712h321q34 0 48.5 -16.5t14.5 -55.5t-14.5 -55.5t-48.5 -16.5h-784q-34 0 -48.5 16.5t-14.5 55.5t14.5 55.5t48.5 16.5h313v636h-253q-34 0 -48.5 16.5t-14.5 55.5t14.5 55.5t48.5 16.5h340q34 0 48.5 -15.5t14.5 -52.5zM773 1112q0 -22 -23 -48t-42 -26
t-37 10l-374 219q-22 13 -22 41q-1 28 31 67q32 40 58 40t45 -13l348 -256q16 -12 16 -34z" />
    <glyph glyph-name="iacute" unicode="&#xed;" 
d="M713 856v-712h321q34 0 48.5 -16.5t14.5 -55.5t-14.5 -55.5t-48.5 -16.5h-784q-34 0 -48.5 16.5t-14.5 55.5t14.5 55.5t48.5 16.5h313v636h-253q-34 0 -48.5 16.5t-14.5 55.5t14.5 55.5t48.5 16.5h340q34 0 48.5 -15.5t14.5 -52.5zM826 1415q26 0 58 -40q32 -39 31 -67
q0 -28 -22 -41l-374 -219q-18 -10 -37 -10t-42 26t-23 48t16 34l348 256q19 13 45 13z" />
    <glyph glyph-name="icircumflex" unicode="&#xee;" 
d="M713 856v-712h321q34 0 48.5 -16.5t14.5 -55.5t-14.5 -55.5t-48.5 -16.5h-784q-34 0 -48.5 16.5t-14.5 55.5t14.5 55.5t48.5 16.5h313v636h-253q-34 0 -48.5 16.5t-14.5 55.5t14.5 55.5t48.5 16.5h340q34 0 48.5 -15.5t14.5 -52.5zM933 1108q0 -20 -22 -44
q-21 -25 -41 -25t-35 12l-221 173l-221 -173q-15 -12 -35 -12t-41 25q-22 24 -22 44t16 35l245 233q22 20 58 20t58 -20l245 -233q16 -15 16 -35z" />
    <glyph glyph-name="idieresis" unicode="&#xef;" 
d="M713 856v-712h321q34 0 48.5 -16.5t14.5 -55.5t-14.5 -55.5t-48.5 -16.5h-784q-34 0 -48.5 16.5t-14.5 55.5t14.5 55.5t48.5 16.5h313v636h-253q-34 0 -48.5 16.5t-14.5 55.5t14.5 55.5t48.5 16.5h340q34 0 48.5 -15.5t14.5 -52.5zM919 1298v-130q0 -36 -20 -50.5
t-75 -14.5t-75 14.5t-20 50.5v130q0 36 20 50.5t75 14.5t75 -14.5t20 -50.5zM499 1298v-130q0 -36 -20 -50.5t-75 -14.5t-75 14.5t-20 50.5v130q0 36 20 50.5t75 14.5t75 -14.5t20 -50.5z" />
    <glyph glyph-name="eth" unicode="&#xf0;" 
d="M930 432q0 92 -39.5 161t-111 107t-165.5 38t-165.5 -38t-111 -107t-39.5 -161t39.5 -161t111 -107t165.5 -38t165.5 38t111 107t39.5 161zM1088 432q0 -134 -61.5 -237t-169.5 -160t-243 -57t-243 57t-169.5 160t-61.5 237t61.5 237t169.5 160t236 57t246 -77
q-73 120 -209 227l-240 -90q-17 -7 -33 -7q-31 0 -50 49q-8 19 -8 37q0 33 43 49l149 56q-45 26 -122 65q-37 18 -37 42q0 23 19 59t45 36t43 -9q125 -61 221 -130l237 89q17 7 33 7q31 0 50 -49q8 -19 8 -37q0 -33 -43 -49l-161 -60q290 -267 290 -662z" />
    <glyph glyph-name="ntilde" unicode="&#xf1;" 
d="M894 605q0 193 -182 193q-86 0 -169.5 -54.5t-137 -148t-53.5 -203.5v-337q0 -35 -16.5 -50t-57.5 -15h-2q-41 0 -57.5 15t-16.5 50v814q0 35 15 50t54 15h2q39 0 54 -15t15 -50v-163q68 105 173 172.5t212 67.5q151 0 234 -87t83 -239v-565q0 -35 -16.5 -50t-57.5 -15
h-2q-41 0 -57.5 15t-16.5 50v550zM503 1315q52 0 127 -35q74 -35 110 -35q65 0 131 68q12 12 33 12q20 1 42 -23t22 -45t-14 -38q-95 -123 -210 -123q-50 0 -126 35t-111 35q-64 0 -130 -68q-12 -12 -33 -12q-20 0 -42 24t-22 44q0 21 14 38q95 123 209 123z" />
    <glyph glyph-name="ograve" unicode="&#xf2;" 
d="M288 462q0 -98 40.5 -174.5t114.5 -119t171 -42.5t171 42.5t114.5 119t40.5 174.5t-40.5 174.5t-114.5 119t-171 42.5t-171 -42.5t-114.5 -119t-40.5 -174.5zM1094 462q0 -139 -62.5 -249.5t-172 -172.5t-245.5 -62t-245.5 62t-172 172.5t-62.5 249.5t62.5 249.5
t172 172.5t245.5 62t245.5 -62t172 -172.5t62.5 -249.5zM833 1112q0 -22 -23 -48t-42 -26t-37 10l-374 219q-22 13 -22 41q-1 28 31 67q32 40 58 40t45 -13l348 -256q16 -12 16 -34z" />
    <glyph glyph-name="oacute" unicode="&#xf3;" 
d="M288 462q0 -98 40.5 -174.5t114.5 -119t171 -42.5t171 42.5t114.5 119t40.5 174.5t-40.5 174.5t-114.5 119t-171 42.5t-171 -42.5t-114.5 -119t-40.5 -174.5zM1094 462q0 -139 -62.5 -249.5t-172 -172.5t-245.5 -62t-245.5 62t-172 172.5t-62.5 249.5t62.5 249.5
t172 172.5t245.5 62t245.5 -62t172 -172.5t62.5 -249.5zM804 1415q26 0 58 -40q32 -39 31 -67q0 -28 -22 -41l-374 -219q-18 -10 -37 -10t-42 26t-23 48t16 34l348 256q19 13 45 13z" />
    <glyph glyph-name="ocircumflex" unicode="&#xf4;" 
d="M288 462q0 -98 40.5 -174.5t114.5 -119t171 -42.5t171 42.5t114.5 119t40.5 174.5t-40.5 174.5t-114.5 119t-171 42.5t-171 -42.5t-114.5 -119t-40.5 -174.5zM1094 462q0 -139 -62.5 -249.5t-172 -172.5t-245.5 -62t-245.5 62t-172 172.5t-62.5 249.5t62.5 249.5
t172 172.5t245.5 62t245.5 -62t172 -172.5t62.5 -249.5zM933 1108q0 -20 -22 -44q-21 -25 -41 -25t-35 12l-221 173l-221 -173q-15 -12 -35 -12t-41 25q-22 24 -22 44t16 35l245 233q22 20 58 20t58 -20l245 -233q16 -15 16 -35z" />
    <glyph glyph-name="otilde" unicode="&#xf5;" 
d="M288 462q0 -98 40.5 -174.5t114.5 -119t171 -42.5t171 42.5t114.5 119t40.5 174.5t-40.5 174.5t-114.5 119t-171 42.5t-171 -42.5t-114.5 -119t-40.5 -174.5zM1094 462q0 -139 -62.5 -249.5t-172 -172.5t-245.5 -62t-245.5 62t-172 172.5t-62.5 249.5t62.5 249.5
t172 172.5t245.5 62t245.5 -62t172 -172.5t62.5 -249.5zM493 1315q52 0 127 -35q74 -35 110 -35q65 0 131 68q12 12 33 12q20 1 42 -23t22 -45t-14 -38q-95 -123 -210 -123q-50 0 -126 35t-111 35q-64 0 -130 -68q-12 -12 -33 -12q-20 0 -42 24t-22 44q0 21 14 38
q95 123 209 123z" />
    <glyph glyph-name="odieresis" unicode="&#xf6;" 
d="M288 462q0 -98 40.5 -174.5t114.5 -119t171 -42.5t171 42.5t114.5 119t40.5 174.5t-40.5 174.5t-114.5 119t-171 42.5t-171 -42.5t-114.5 -119t-40.5 -174.5zM1094 462q0 -139 -62.5 -249.5t-172 -172.5t-245.5 -62t-245.5 62t-172 172.5t-62.5 249.5t62.5 249.5
t172 172.5t245.5 62t245.5 -62t172 -172.5t62.5 -249.5zM919 1298v-130q0 -36 -20 -50.5t-75 -14.5t-75 14.5t-20 50.5v130q0 36 20 50.5t75 14.5t75 -14.5t20 -50.5zM499 1298v-130q0 -36 -20 -50.5t-75 -14.5t-75 14.5t-20 50.5v130q0 36 20 50.5t75 14.5t75 -14.5
t20 -50.5z" />
    <glyph glyph-name="divide" unicode="&#xf7;" 
d="M719 277v-104q0 -34 -24.5 -48.5t-80.5 -14.5t-80.5 14.5t-24.5 48.5v104q0 34 24.5 48.5t80.5 14.5t80.5 -14.5t24.5 -48.5zM1058 582q0 -39 -14.5 -55.5t-48.5 -16.5h-762q-34 0 -48.5 16.5t-14.5 55.5t14.5 55.5t48.5 16.5h762q34 0 48.5 -16.5t14.5 -55.5zM719 992
v-104q0 -34 -24.5 -48.5t-80.5 -14.5t-80.5 14.5t-24.5 48.5v104q0 34 24.5 48.5t80.5 14.5t80.5 -14.5t24.5 -48.5z" />
    <glyph glyph-name="oslash" unicode="&#xf8;" 
d="M608 126q103 0 177 42.5t114.5 119t40.5 174.5t-42 177l-475 -458q82 -55 185 -55zM620 798q-104 0 -177.5 -42.5t-114 -119t-40.5 -174.5t42 -177l474 458q-80 55 -184 55zM631 946q153 0 283 -98l108 105q24 23 46 23t49 -28t27 -50t-25 -46l-109 -105q84 -126 84 -275
t-62.5 -259.5t-172 -172.5t-262.5 -62t-283 98l-109 -105q-25 -23 -46 -23t-49 28q-26 28 -26 50t24 45l110 106q-84 126 -84 275t62.5 259.5t172 172.5t262.5 62z" />
    <glyph glyph-name="ugrave" unicode="&#xf9;" 
d="M334 319q0 -193 182 -193q86 0 169.5 54.5t137 148t53.5 203.5v337q0 35 16.5 50t57.5 15h2q41 0 57.5 -15t16.5 -50v-814q0 -35 -15 -50t-54 -15h-2q-39 0 -54 15t-15 50v163q-68 -105 -173 -172.5t-212 -67.5q-151 0 -234 87t-83 239v565q0 35 16.5 50t57.5 15h2
q41 0 57.5 -15t16.5 -50v-550zM803 1112q0 -22 -23 -48t-42 -26t-37 10l-374 219q-22 13 -22 41q-1 28 31 67q32 40 58 40t45 -13l348 -256q16 -12 16 -34z" />
    <glyph glyph-name="uacute" unicode="&#xfa;" 
d="M334 319q0 -193 182 -193q86 0 169.5 54.5t137 148t53.5 203.5v337q0 35 16.5 50t57.5 15h2q41 0 57.5 -15t16.5 -50v-814q0 -35 -15 -50t-54 -15h-2q-39 0 -54 15t-15 50v163q-68 -105 -173 -172.5t-212 -67.5q-151 0 -234 87t-83 239v565q0 35 16.5 50t57.5 15h2
q41 0 57.5 -15t16.5 -50v-550zM824 1415q26 0 58 -40q32 -39 31 -67q0 -28 -22 -41l-374 -219q-18 -10 -37 -10t-42 26t-23 48t16 34l348 256q19 13 45 13z" />
    <glyph glyph-name="ucircumflex" unicode="&#xfb;" 
d="M334 319q0 -193 182 -193q86 0 169.5 54.5t137 148t53.5 203.5v337q0 35 16.5 50t57.5 15h2q41 0 57.5 -15t16.5 -50v-814q0 -35 -15 -50t-54 -15h-2q-39 0 -54 15t-15 50v163q-68 -105 -173 -172.5t-212 -67.5q-151 0 -234 87t-83 239v565q0 35 16.5 50t57.5 15h2
q41 0 57.5 -15t16.5 -50v-550zM933 1108q0 -20 -22 -44q-21 -25 -41 -25t-35 12l-221 173l-221 -173q-15 -12 -35 -12t-41 25q-22 24 -22 44t16 35l245 233q22 20 58 20t58 -20l245 -233q16 -15 16 -35z" />
    <glyph glyph-name="udieresis" unicode="&#xfc;" 
d="M334 319q0 -193 182 -193q86 0 169.5 54.5t137 148t53.5 203.5v337q0 35 16.5 50t57.5 15h2q41 0 57.5 -15t16.5 -50v-814q0 -35 -15 -50t-54 -15h-2q-39 0 -54 15t-15 50v163q-68 -105 -173 -172.5t-212 -67.5q-151 0 -234 87t-83 239v565q0 35 16.5 50t57.5 15h2
q41 0 57.5 -15t16.5 -50v-550zM919 1298v-130q0 -36 -20 -50.5t-75 -14.5t-75 14.5t-20 50.5v130q0 36 20 50.5t75 14.5t75 -14.5t20 -50.5zM499 1298v-130q0 -36 -20 -50.5t-75 -14.5t-75 14.5t-20 50.5v130q0 36 20 50.5t75 14.5t75 -14.5t20 -50.5z" />
    <glyph glyph-name="yacute" unicode="&#xfd;" 
d="M1104 869q0 -17 -10 -36l-597 -1191q-21 -42 -45 -42t-51 12q-52 22 -52 55q0 16 10 36l171 340l-397 790q-10 19 -10 35q0 34 54 56q27 12 51 12t46 -42l341 -683l339 683q22 42 46 42t51 -12q53 -22 53 -55zM482 1038q-19 0 -42 26t-23 48t16 34l348 256q19 13 45 13
t58 -40q32 -39 31 -67q0 -28 -22 -41l-374 -219q-18 -10 -37 -10z" />
    <glyph glyph-name="thorn" unicode="&#xfe;" 
d="M342 462q0 -104 39.5 -180t109 -116t158.5 -40t153.5 42.5t98.5 119t34 174.5t-34 174.5t-98.5 119t-153.5 42.5t-158.5 -40t-109 -116t-39.5 -180zM659 946q124 0 221.5 -58.5t153 -168t55.5 -257.5t-55.5 -257.5t-153 -168t-221.5 -58.5q-188 0 -317 165v-476
q0 -35 -16.5 -50t-57.5 -15h-2q-41 0 -57.5 15t-16.5 50v1590q0 35 16.5 50t57.5 15h2q41 0 57.5 -15t16.5 -50v-470q130 159 317 159z" />
    <glyph glyph-name="ydieresis" unicode="&#xff;" 
d="M1104 869q0 -17 -10 -36l-597 -1191q-21 -42 -45 -42t-51 12q-52 22 -52 55q0 16 10 36l171 340l-397 790q-10 19 -10 35q0 34 54 56q27 12 51 12t46 -42l341 -683l339 683q22 42 46 42t51 -12q53 -22 53 -55zM731 1168v130q0 36 20 50.5t75 14.5t75 -14.5t20 -50.5v-130
q0 -36 -20 -50.5t-75 -14.5t-75 14.5t-20 50.5zM311 1168v130q0 36 20 50.5t75 14.5t75 -14.5t20 -50.5v-130q0 -36 -20 -50.5t-75 -14.5t-75 14.5t-20 50.5z" />
    <glyph glyph-name="Amacron" unicode="&#x100;" 
d="M412 474h399l-197 569h-4zM1124 50q0 -33 -57 -52q-26 -8 -43 -8q-36 0 -51 46l-109 294h-504l-109 -294q-15 -46 -54 -46q-14 0 -42 9q-55 18 -55 54q0 13 6 31l394 1060q24 65 112 65t112 -65l394 -1060q6 -18 6 -34zM290 1448q0 39 14.5 55.5t48.5 16.5h522
q34 0 48.5 -16.5t14.5 -55.5t-14.5 -55.5t-48.5 -16.5h-522q-34 0 -48.5 16.5t-14.5 55.5z" />
    <glyph glyph-name="amacron" unicode="&#x101;" 
d="M313 273q0 -73 50.5 -113.5t141.5 -40.5q199 0 359 165v109q-139 45 -303 45q-248 0 -248 -165zM864 613q0 188 -207 188q-177 0 -333 -79q-16 -9 -31 -9q-32 0 -55 48q-11 23 -11 49t37 45q174 91 374 91q376 0 376 -333v-558q0 -35 -15 -50t-54 -15h-2q-39 0 -54 15
t-15 50v68q-170 -145 -377 -145t-272.5 100.5t-65.5 191.5q0 159 111.5 234t279.5 75t314 -51v85zM310 1178q0 39 14.5 55.5t48.5 16.5h522q34 0 48.5 -16.5t14.5 -55.5t-14.5 -55.5t-48.5 -16.5h-522q-34 0 -48.5 16.5t-14.5 55.5z" />
    <glyph glyph-name="Abreve" unicode="&#x102;" 
d="M412 474h399l-197 569h-4zM1124 50q0 -33 -57 -52q-26 -8 -43 -8q-36 0 -51 46l-109 294h-504l-109 -294q-15 -46 -54 -46q-14 0 -42 9q-55 18 -55 54q0 13 6 31l394 1060q24 65 112 65t112 -65l394 -1060q6 -18 6 -34zM850 1642q92 0 92 -51q0 -8 -1 -13
q-23 -113 -106.5 -175t-220.5 -62t-220.5 62t-106.5 175q-1 4 -1 18q0 46 92 46q24 0 33 -24q45 -139 204 -139t202 139q9 24 33 24z" />
    <glyph glyph-name="abreve" unicode="&#x103;" 
d="M313 273q0 -73 50.5 -113.5t141.5 -40.5q199 0 359 165v109q-139 45 -303 45q-248 0 -248 -165zM864 613q0 188 -207 188q-177 0 -333 -79q-16 -9 -31 -9q-32 0 -55 48q-11 23 -11 49t37 45q174 91 374 91q376 0 376 -333v-558q0 -35 -15 -50t-54 -15h-2q-39 0 -54 15
t-15 50v68q-170 -145 -377 -145t-272.5 100.5t-65.5 191.5q0 159 111.5 234t279.5 75t314 -51v85zM862 1372q92 0 93 -51q0 -8 -1 -13q-23 -113 -106.5 -175t-220.5 -62t-220.5 62t-106.5 175q-1 4 -1 18q1 46 93 46q24 0 32 -24q45 -139 204 -139t202 139q8 24 32 24z" />
    <glyph glyph-name="Aogonek" unicode="&#x104;" 
d="M610 1043l-198 -569h399l-197 569h-4zM1123 -314q41 0 41 -86q0 -34 -34 -46q-75 -26 -166 -26t-144.5 52t-53.5 139q0 155 205 323l-107 288h-504l-109 -294q-15 -46 -54 -46q-14 0 -42 9q-55 18 -55 54q0 13 6 31l394 1060q24 65 112 65t112 -65l394 -1060q6 -18 6 -34
t-14 -30q-188 -169 -188 -261t77 -92q53 -1 87 9t37 10z" />
    <glyph glyph-name="aogonek" unicode="&#x105;" 
d="M313 273q0 -73 50.5 -113.5t141.5 -40.5q199 0 359 165v109q-139 45 -303 45q-248 0 -248 -165zM864 613q0 188 -207 188q-177 0 -333 -79q-16 -9 -31 -9q-32 0 -55 48q-11 23 -11 49t37 45q174 91 374 91q376 0 376 -333v-558q0 -36 -17 -52q-170 -155 -170 -263
q-1 -73 85 -73q44 -1 78 9t38 10q41 0 41 -86q0 -34 -34 -46q-75 -26 -166 -26t-144.5 52t-53.5 139q0 157 203 320v84q-170 -145 -377 -145t-272.5 100.5t-65.5 191.5q0 159 111.5 234t279.5 75t314 -51v85z" />
    <glyph glyph-name="Cacute" unicode="&#x106;" 
d="M1074 1060q0 -26 -17 -64q-17 -36 -40 -36t-43 11q-151 90 -310 90q-108 0 -189.5 -57t-126 -162.5t-44.5 -247.5t44.5 -248t126 -163t189.5 -57q159 0 310 90q20 11 43 11q23 -1 40 -37t17 -62t-37 -49q-177 -101 -351 -101q-175 0 -291.5 76.5t-180.5 216.5t-64 323
t64 322.5t180.5 216t291.5 76.5t351 -101q37 -22 37 -48zM876 1685q26 0 58 -40q32 -39 31 -67q0 -28 -22 -41l-374 -219q-18 -10 -37 -10t-42 26t-23 48t16 34l348 256q19 13 45 13z" />
    <glyph glyph-name="cacute" unicode="&#x107;" 
d="M1052 785q0 -29 -15 -56q-19 -41 -45 -41t-44 13q-141 97 -319 97q-96 0 -169.5 -43t-114 -119.5t-40.5 -173.5t40.5 -173.5t114 -119.5t167.5 -43q192 0 338 111q21 15 45 15t44 -34t19 -61q0 -28 -32 -51q-175 -128 -412 -128q-143 0 -252.5 63t-169.5 173t-60 248
t60 248t169.5 173t234.5 63q235 0 406 -110q35 -22 35 -51zM822 1415q26 0 58 -40q32 -39 32 -67t-22 -41l-374 -219q-18 -10 -37 -10t-42 26t-23 48t16 34l348 256q18 13 44 13z" />
    <glyph glyph-name="Ccircumflex" unicode="&#x108;" 
d="M1074 1060q0 -26 -17 -64q-17 -36 -40 -36t-43 11q-151 90 -310 90q-108 0 -189.5 -57t-126 -162.5t-44.5 -247.5t44.5 -248t126 -163t189.5 -57q159 0 310 90q20 11 43 11q23 -1 40 -37t17 -62t-37 -49q-177 -101 -351 -101q-175 0 -291.5 76.5t-180.5 216.5t-64 323
t64 322.5t180.5 216t291.5 76.5t351 -101q37 -22 37 -48zM983 1378q0 -20 -22 -44q-21 -25 -41 -25t-35 12l-221 173l-221 -173q-15 -12 -35 -12t-41 25q-22 24 -22 44t16 35l245 233q22 20 58 20t58 -20l245 -233q16 -15 16 -35z" />
    <glyph glyph-name="ccircumflex" unicode="&#x109;" 
d="M1052 785q0 -29 -15 -56q-19 -41 -45 -41t-44 13q-141 97 -319 97q-96 0 -169.5 -43t-114 -119.5t-40.5 -173.5t40.5 -173.5t114 -119.5t167.5 -43q192 0 338 111q21 15 45 15t44 -34t19 -61q0 -28 -32 -51q-175 -128 -412 -128q-143 0 -252.5 63t-169.5 173t-60 248
t60 248t169.5 173t234.5 63q235 0 406 -110q35 -22 35 -51zM963 1108q0 -20 -22 -44q-21 -25 -41 -25t-35 12l-221 173l-221 -173q-15 -12 -35 -12t-41 25q-22 24 -22 44t16 35l245 233q22 20 58 20t58 -20l245 -233q16 -15 16 -35z" />
    <glyph glyph-name="Cdotaccent" unicode="&#x10a;" 
d="M1074 1060q0 -26 -17 -64q-17 -36 -40 -36t-43 11q-151 90 -310 90q-108 0 -189.5 -57t-126 -162.5t-44.5 -247.5t44.5 -248t126 -163t189.5 -57q159 0 310 90q20 11 43 11q23 -1 40 -37t17 -62t-37 -49q-177 -101 -351 -101q-175 0 -291.5 76.5t-180.5 216.5t-64 323
t64 322.5t180.5 216t291.5 76.5t351 -101q37 -22 37 -48zM759 1568v-130q0 -36 -20 -50.5t-75 -14.5t-75 14.5t-20 50.5v130q0 36 20 50.5t75 14.5t75 -14.5t20 -50.5z" />
    <glyph glyph-name="cdotaccent" unicode="&#x10b;" 
d="M1052 785q0 -29 -15 -56q-19 -41 -45 -41t-44 13q-141 97 -319 97q-96 0 -169.5 -43t-114 -119.5t-40.5 -173.5t40.5 -173.5t114 -119.5t167.5 -43q192 0 338 111q21 15 45 15t44 -34t19 -61q0 -28 -32 -51q-175 -128 -412 -128q-143 0 -252.5 63t-169.5 173t-60 248
t60 248t169.5 173t234.5 63q235 0 406 -110q35 -22 35 -51zM739 1298v-130q0 -36 -20 -50.5t-75 -14.5t-75 14.5t-20 50.5v130q0 36 20 50.5t75 14.5t75 -14.5t20 -50.5z" />
    <glyph glyph-name="Ccaron" unicode="&#x10c;" 
d="M1074 1060q0 -26 -17 -64q-17 -36 -40 -36t-43 11q-151 90 -310 90q-108 0 -189.5 -57t-126 -162.5t-44.5 -247.5t44.5 -248t126 -163t189.5 -57q159 0 310 90q20 11 43 11q23 -1 40 -37t17 -62t-37 -49q-177 -101 -351 -101q-175 0 -291.5 76.5t-180.5 216.5t-64 323
t64 322.5t180.5 216t291.5 76.5t351 -101q37 -22 37 -48zM345 1598q0 20 22 45q21 25 41 25t35 -12l221 -173l221 173q15 12 35 12t41 -25q22 -25 22 -45t-16 -34l-245 -233q-22 -20 -58 -20t-58 20l-245 233q-16 14 -16 34z" />
    <glyph glyph-name="ccaron" unicode="&#x10d;" 
d="M1052 785q0 -29 -15 -56q-19 -41 -45 -41t-44 13q-141 97 -319 97q-96 0 -169.5 -43t-114 -119.5t-40.5 -173.5t40.5 -173.5t114 -119.5t167.5 -43q192 0 338 111q21 15 45 15t44 -34t19 -61q0 -28 -32 -51q-175 -128 -412 -128q-143 0 -252.5 63t-169.5 173t-60 248
t60 248t169.5 173t234.5 63q235 0 406 -110q35 -22 35 -51zM325 1328q0 20 22 45q21 25 41 25t35 -12l221 -173l221 173q15 12 35 12t41 -25q22 -25 22 -45t-16 -34l-245 -233q-22 -20 -58 -20t-58 20l-245 233q-16 14 -16 34z" />
    <glyph glyph-name="Dcaron" unicode="&#x10e;" 
d="M325 1043v-899h230q247 0 319 151.5t72 297.5t-72 298t-319 152h-230zM1100 593q0 -182 -65.5 -316t-184.5 -205.5t-276 -71.5h-336q-34 0 -48.5 15.5t-14.5 52.5v1051q0 37 14.5 52.5t48.5 15.5h336q157 0 276 -71.5t184.5 -206t65.5 -316.5zM265 1598q0 20 22 45
q21 25 41 25t35 -12l221 -173l221 173q15 12 35 12t41 -25q22 -25 22 -45t-16 -34l-245 -233q-22 -20 -58 -20t-58 20l-245 233q-16 14 -16 34z" />
    <glyph glyph-name="dcaron" unicode="&#x10f;" 
d="M291 462q0 -153 59.5 -244.5t176.5 -91.5q161 0 209 115.5t48 220.5t-48 220.5t-209 115.5q-117 0 -176.5 -91.5t-59.5 -244.5zM1294 1312q27 0 27 -27q0 -9 -5 -24l-134 -363q-12 -36 -72 -36t-60 42q0 4 2 14l82 362q8 32 42 32h118zM517 -22q-113 0 -199 58.5
t-133.5 167.5t-47.5 258t47.5 258t133.5 167.5t186 58.5t163 -38.5t117 -116.5v466q0 35 16.5 50t57.5 15h2q41 0 57.5 -15t16.5 -50v-1202q0 -35 -15 -50t-54 -15h-2q-39 0 -54 15t-15 50v83q-110 -160 -277 -160z" />
    <glyph glyph-name="Dcroat" unicode="&#x110;" 
d="M325 1043v-899h230q247 0 319 151.5t72 297.5t-72 298t-319 152h-230zM1100 593q0 -182 -65.5 -316t-184.5 -205.5t-276 -71.5h-336q-34 0 -48.5 15.5t-14.5 52.5v1051q0 37 14.5 52.5t48.5 15.5h336q157 0 276 -71.5t184.5 -206t65.5 -316.5zM908 1448
q0 -39 -14.5 -55.5t-48.5 -16.5h-522q-34 0 -48.5 16.5t-14.5 55.5t14.5 55.5t48.5 16.5h522q34 0 48.5 -16.5t14.5 -55.5z" />
    <glyph glyph-name="dcroat" unicode="&#x111;" 
d="M866 432q0 95 -37 164t-102 105.5t-148 36.5t-143 -39t-91.5 -108.5t-31.5 -158.5t31.5 -158.5t91.5 -108.5t143 -39t148 36.5t102 105.5t37 164zM159 432q0 139 53 242t146 157.5t211 54.5q176 0 297 -147v267h-253q-34 0 -48.5 16.5t-14.5 55.5t14.5 55.5t48.5 16.5
h253v107q0 35 16.5 50t57.5 15h2q41 0 57.5 -15t16.5 -50v-107h139q34 0 48.5 -16.5t14.5 -55.5t-14.5 -55.5t-48.5 -16.5h-139v-951q0 -35 -15 -50t-54 -15h-2q-39 0 -54 15t-15 50v83q-125 -160 -307 -160q-118 0 -211 54.5t-146 157.5t-53 242z" />
    <glyph glyph-name="Emacron" unicode="&#x112;" 
d="M1040 72q0 -39 -14.5 -55.5t-48.5 -16.5h-689q-34 0 -48.5 15.5t-14.5 52.5v1051q0 37 14.5 52.5t48.5 15.5h669q34 0 48.5 -16.5t14.5 -55.5t-14.5 -55.5t-48.5 -16.5h-582v-359h457q34 0 48.5 -16.5t14.5 -55.5t-14.5 -55.5t-48.5 -16.5h-457v-396h602q34 0 48.5 -16.5
t14.5 -55.5zM300 1448q0 39 14.5 55.5t48.5 16.5h522q34 0 48.5 -16.5t14.5 -55.5t-14.5 -55.5t-48.5 -16.5h-522q-34 0 -48.5 16.5t-14.5 55.5z" />
    <glyph glyph-name="emacron" unicode="&#x113;" 
d="M626 801q-127 0 -208 -62.5t-106 -173.5h615q-21 114 -97.5 175t-203.5 61zM1026 425h-724q7 -149 84 -225.5t197 -76.5q232 0 380 86q17 9 33 9q38 0 57 -56q7 -18 7 -36q0 -40 -44 -61q-181 -87 -413 -87q-293 0 -374 167t-81 313t60.5 256.5t168 171t249.5 60.5
t294 -87.5t169 -371.5q2 -33 -13.5 -47.5t-49.5 -14.5zM948 1178q0 -39 -14.5 -55.5t-48.5 -16.5h-522q-34 0 -48.5 16.5t-14.5 55.5t14.5 55.5t48.5 16.5h522q34 0 48.5 -16.5t14.5 -55.5z" />
    <glyph glyph-name="Ebreve" unicode="&#x114;" 
d="M1040 72q0 -39 -14.5 -55.5t-48.5 -16.5h-689q-34 0 -48.5 15.5t-14.5 52.5v1051q0 37 14.5 52.5t48.5 15.5h669q34 0 48.5 -16.5t14.5 -55.5t-14.5 -55.5t-48.5 -16.5h-582v-359h457q34 0 48.5 -16.5t14.5 -55.5t-14.5 -55.5t-48.5 -16.5h-457v-396h602q34 0 48.5 -16.5
t14.5 -55.5zM860 1642q92 0 92 -51q0 -8 -1 -13q-23 -113 -106.5 -175t-220.5 -62t-220.5 62t-106.5 175q-1 4 -1 18q0 46 92 46q24 0 33 -24q45 -139 204 -139t202 139q9 24 33 24z" />
    <glyph glyph-name="ebreve" unicode="&#x115;" 
d="M626 801q-127 0 -208 -62.5t-106 -173.5h615q-21 114 -97.5 175t-203.5 61zM1026 425h-724q7 -149 84 -225.5t197 -76.5q232 0 380 86q17 9 33 9q38 0 57 -56q7 -18 7 -36q0 -40 -44 -61q-181 -87 -413 -87q-293 0 -374 167t-81 313t60.5 256.5t168 171t249.5 60.5
t294 -87.5t169 -371.5q2 -33 -13.5 -47.5t-49.5 -14.5zM306 1326q0 46 92 46q24 0 33 -24q45 -139 204 -139t202 139q9 24 33 24q92 0 92 -46q0 -14 -1 -18q-23 -113 -106.5 -175t-220.5 -62t-220.5 62t-106.5 175q-1 4 -1 18z" />
    <glyph glyph-name="Edotaccent" unicode="&#x116;" 
d="M1040 72q0 -39 -14.5 -55.5t-48.5 -16.5h-689q-34 0 -48.5 15.5t-14.5 52.5v1051q0 37 14.5 52.5t48.5 15.5h669q34 0 48.5 -16.5t14.5 -55.5t-14.5 -55.5t-48.5 -16.5h-582v-359h457q34 0 48.5 -16.5t14.5 -55.5t-14.5 -55.5t-48.5 -16.5h-457v-396h602q34 0 48.5 -16.5
t14.5 -55.5zM539 1438v130q0 36 20 50.5t75 14.5t75 -14.5t20 -50.5v-130q0 -36 -20 -50.5t-75 -14.5t-75 14.5t-20 50.5z" />
    <glyph glyph-name="edotaccent" unicode="&#x117;" 
d="M626 801q-127 0 -208 -62.5t-106 -173.5h615q-21 114 -97.5 175t-203.5 61zM1026 425h-724q7 -149 84 -225.5t197 -76.5q232 0 380 86q17 9 33 9q38 0 57 -56q7 -18 7 -36q0 -40 -44 -61q-181 -87 -413 -87q-293 0 -374 167t-81 313t60.5 256.5t168 171t249.5 60.5
t294 -87.5t169 -371.5q2 -33 -13.5 -47.5t-49.5 -14.5zM729 1298v-130q0 -36 -20 -50.5t-75 -14.5t-75 14.5t-20 50.5v130q0 36 20 50.5t75 14.5t75 -14.5t20 -50.5z" />
    <glyph glyph-name="Eogonek" unicode="&#x118;" 
d="M1008 -314q41 0 41 -86q0 -34 -34 -46q-75 -26 -166 -26t-144.5 52t-53.5 139q0 137 156 281h-519q-34 0 -48.5 15.5t-14.5 52.5v1051q0 37 14.5 52.5t48.5 15.5h669q34 0 48.5 -16.5t14.5 -55.5t-14.5 -55.5t-48.5 -16.5h-582v-359h457q34 0 48.5 -16.5t14.5 -55.5
t-14.5 -55.5t-48.5 -16.5h-457v-396h602q34 0 48.5 -16.5t14.5 -55.5t-14.5 -55.5t-48.5 -16.5h-4q-166 -155 -166 -260q-1 -73 85 -73q44 -1 78 9t38 10z" />
    <glyph glyph-name="eogonek" unicode="&#x119;" 
d="M626 801q-127 0 -208 -62.5t-106 -173.5h615q-21 114 -97.5 175t-203.5 61zM968 -314q41 0 41 -86q0 -34 -34 -46q-75 -26 -166 -26t-144.5 52t-53.5 131q0 141 145 278q-79 -11 -153 -11q-293 0 -374 167t-81 313t60.5 256.5t168 171t249.5 60.5t294 -87.5t169 -371.5
q2 -33 -13.5 -47.5t-49.5 -14.5h-724q7 -149 84 -225.5t197 -76.5q232 0 380 86q17 9 33 9q38 0 57 -56q7 -18 7 -36q0 -40 -44 -61q-23 -10 -52 -37q-197 -175 -197 -268t77 -93q52 -1 86 9t38 10z" />
    <glyph glyph-name="Ecaron" unicode="&#x11a;" 
d="M1040 72q0 -39 -14.5 -55.5t-48.5 -16.5h-689q-34 0 -48.5 15.5t-14.5 52.5v1051q0 37 14.5 52.5t48.5 15.5h669q34 0 48.5 -16.5t14.5 -55.5t-14.5 -55.5t-48.5 -16.5h-582v-359h457q34 0 48.5 -16.5t14.5 -55.5t-14.5 -55.5t-48.5 -16.5h-457v-396h602q34 0 48.5 -16.5
t14.5 -55.5zM305 1598q0 20 22 45q21 25 41 25t35 -12l221 -173l221 173q15 12 35 12t41 -25q22 -25 22 -45t-16 -34l-245 -233q-22 -20 -58 -20t-58 20l-245 233q-16 14 -16 34z" />
    <glyph glyph-name="ecaron" unicode="&#x11b;" 
d="M626 801q-127 0 -208 -62.5t-106 -173.5h615q-21 114 -97.5 175t-203.5 61zM1026 425h-724q7 -149 84 -225.5t197 -76.5q232 0 380 86q17 9 33 9q38 0 57 -56q7 -18 7 -36q0 -40 -44 -61q-181 -87 -413 -87q-293 0 -374 167t-81 313t60.5 256.5t168 171t249.5 60.5
t294 -87.5t169 -371.5q2 -33 -13.5 -47.5t-49.5 -14.5zM311 1328q0 20 22 45q21 25 41 25t35 -12l221 -173l221 173q15 12 35 12t41 -25q22 -25 22 -45t-16 -34l-245 -233q-22 -20 -58 -20t-58 20l-245 233q-16 14 -16 34z" />
    <glyph glyph-name="Gcircumflex" unicode="&#x11c;" 
d="M1083 526v-383q0 -49 -36 -69q-167 -96 -413 -96q-156 0 -275 76.5t-184 217t-65 322.5t68.5 321.5t190 216.5t299.5 77t347 -91q38 -20 38 -48q1 -28 -15 -64t-40 -36t-43 10q-142 81 -311 81q-109 0 -195 -57t-135.5 -162.5t-49.5 -247.5t46 -248t130 -163t194 -57
q175 0 299 57v267h-267q-34 0 -48.5 16.5t-14.5 55.5t14.5 55.5t48.5 16.5h354q34 0 48.5 -15.5t14.5 -52.5zM398 1309q-20 0 -41 25q-22 24 -22 44t16 35l245 233q22 20 58 20t58 -20l245 -233q16 -15 16 -35t-22 -44q-21 -25 -41 -25t-35 12l-221 173l-221 -173
q-15 -12 -35 -12z" />
    <glyph glyph-name="gcircumflex" unicode="&#x11d;" 
d="M293 487q0 -91 34 -161.5t98.5 -110t153.5 -39.5t158.5 37t109 107.5t39.5 166.5t-39.5 166.5t-109 107.5t-158.5 37t-153.5 -39.5t-98.5 -110t-34 -161.5zM569 946q196 0 327 -170v93q0 35 15 50t54 15h2q39 0 54 -15t15 -50v-899q0 -243 -146 -311.5t-262 -68.5
q-221 0 -397 64q-39 14 -39 53q0 16 8 40q18 55 57 55q11 0 55 -16t130.5 -32t165.5 -16q138 0 208 65.5t70 179.5v201q-124 -156 -317 -156q-124 0 -221.5 55.5t-153 159.5t-55.5 244t55.5 244t153 159.5t221.5 55.5zM943 1108q0 -20 -22 -44q-21 -25 -41 -25t-35 12
l-221 173l-221 -173q-15 -12 -35 -12t-41 25q-22 24 -22 44t16 35l245 233q22 20 58 20t58 -20l245 -233q16 -15 16 -35z" />
    <glyph glyph-name="Gbreve" unicode="&#x11e;" 
d="M1083 526v-383q0 -49 -36 -69q-167 -96 -413 -96q-156 0 -275 76.5t-184 217t-65 322.5t68.5 321.5t190 216.5t299.5 77t347 -91q38 -20 38 -48q1 -28 -15 -64t-40 -36t-43 10q-142 81 -311 81q-109 0 -195 -57t-135.5 -162.5t-49.5 -247.5t46 -248t130 -163t194 -57
q175 0 299 57v267h-267q-34 0 -48.5 16.5t-14.5 55.5t14.5 55.5t48.5 16.5h354q34 0 48.5 -15.5t14.5 -52.5zM880 1642q92 0 92 -51q0 -8 -1 -13q-23 -113 -106.5 -175t-220.5 -62t-220.5 62t-106.5 175q-1 4 -1 18q0 46 92 46q24 0 33 -24q45 -139 204 -139t202 139
q9 24 33 24z" />
    <glyph glyph-name="gbreve" unicode="&#x11f;" 
d="M293 487q0 -91 34 -161.5t98.5 -110t153.5 -39.5t158.5 37t109 107.5t39.5 166.5t-39.5 166.5t-109 107.5t-158.5 37t-153.5 -39.5t-98.5 -110t-34 -161.5zM569 946q196 0 327 -170v93q0 35 15 50t54 15h2q39 0 54 -15t15 -50v-899q0 -243 -146 -311.5t-262 -68.5
q-221 0 -397 64q-39 14 -39 53q0 16 8 40q18 55 57 55q11 0 55 -16t130.5 -32t165.5 -16q138 0 208 65.5t70 179.5v201q-124 -156 -317 -156q-124 0 -221.5 55.5t-153 159.5t-55.5 244t55.5 244t153 159.5t221.5 55.5zM296 1326q0 46 92 46q24 0 33 -24q45 -139 204 -139
t202 139q9 24 33 24q92 0 92 -46q0 -14 -1 -18q-23 -113 -106.5 -175t-220.5 -62t-220.5 62t-106.5 175q-1 4 -1 18z" />
    <glyph glyph-name="Gdotaccent" unicode="&#x120;" 
d="M1083 526v-383q0 -49 -36 -69q-167 -96 -413 -96q-156 0 -275 76.5t-184 217t-65 322.5t68.5 321.5t190 216.5t299.5 77t347 -91q38 -20 38 -48q1 -28 -15 -64t-40 -36t-43 10q-142 81 -311 81q-109 0 -195 -57t-135.5 -162.5t-49.5 -247.5t46 -248t130 -163t194 -57
q175 0 299 57v267h-267q-34 0 -48.5 16.5t-14.5 55.5t14.5 55.5t48.5 16.5h354q34 0 48.5 -15.5t14.5 -52.5zM549 1438v130q0 36 20 50.5t75 14.5t75 -14.5t20 -50.5v-130q0 -36 -20 -50.5t-75 -14.5t-75 14.5t-20 50.5z" />
    <glyph glyph-name="gdotaccent" unicode="&#x121;" 
d="M293 487q0 -91 34 -161.5t98.5 -110t153.5 -39.5t158.5 37t109 107.5t39.5 166.5t-39.5 166.5t-109 107.5t-158.5 37t-153.5 -39.5t-98.5 -110t-34 -161.5zM569 946q196 0 327 -170v93q0 35 15 50t54 15h2q39 0 54 -15t15 -50v-899q0 -243 -146 -311.5t-262 -68.5
q-221 0 -397 64q-39 14 -39 53q0 16 8 40q18 55 57 55q11 0 55 -16t130.5 -32t165.5 -16q138 0 208 65.5t70 179.5v201q-124 -156 -317 -156q-124 0 -221.5 55.5t-153 159.5t-55.5 244t55.5 244t153 159.5t221.5 55.5zM719 1298v-130q0 -36 -20 -50.5t-75 -14.5t-75 14.5
t-20 50.5v130q0 36 20 50.5t75 14.5t75 -14.5t20 -50.5z" />
    <glyph glyph-name="Gcommaaccent" unicode="&#x122;" 
d="M554 -526q-69 0 -69 45q0 4 2 16l63 287q8 32 42 32h116q28 0 28 -26q0 -12 -6 -25l-117 -291q-15 -38 -59 -38zM1083 526v-383q0 -49 -36 -69q-167 -96 -413 -96q-156 0 -275 76.5t-184 217t-65 322.5t68.5 321.5t190 216.5t299.5 77t347 -91q38 -20 38 -48
q1 -28 -15 -64t-40 -36t-43 10q-142 81 -311 81q-109 0 -195 -57t-135.5 -162.5t-49.5 -247.5t46 -248t130 -163t194 -57q175 0 299 57v267h-267q-34 0 -48.5 16.5t-14.5 55.5t14.5 55.5t48.5 16.5h354q34 0 48.5 -15.5t14.5 -52.5z" />
    <glyph glyph-name="gcommaaccent" unicode="&#x123;" 
d="M293 487q0 -91 34 -161.5t98.5 -110t153.5 -39.5t158.5 37t109 107.5t39.5 166.5t-39.5 166.5t-109 107.5t-158.5 37t-153.5 -39.5t-98.5 -110t-34 -161.5zM569 946q196 0 327 -170v93q0 35 15 50t54 15h2q39 0 54 -15t15 -50v-899q0 -243 -146 -311.5t-262 -68.5
q-221 0 -397 64q-39 14 -39 53q0 16 8 40q18 55 57 55q11 0 55 -16t130.5 -32t165.5 -16q138 0 208 65.5t70 179.5v201q-124 -156 -317 -156q-124 0 -221.5 55.5t-153 159.5t-55.5 244t55.5 244t153 159.5t221.5 55.5zM709 1444q69 0 69 -45q0 -4 -2 -16l-63 -287
q-8 -32 -42 -32h-116q-28 0 -28 26q0 12 6 25l117 291q15 38 59 38z" />
    <glyph glyph-name="Hcircumflex" unicode="&#x124;" 
d="M1053 1132v-1077q0 -35 -16.5 -50t-57.5 -15h-2q-41 0 -57.5 15t-16.5 50v485h-578v-485q0 -35 -16.5 -50t-57.5 -15h-2q-41 0 -57.5 15t-16.5 50v1077q0 35 16.5 50t57.5 15h2q41 0 57.5 -15t16.5 -50v-448h578v448q0 35 16.5 50t57.5 15h2q41 0 57.5 -15t16.5 -50z
M358 1309q-20 0 -41 25q-22 24 -22 44t16 35l245 233q22 20 58 20t58 -20l245 -233q16 -15 16 -35t-22 -44q-21 -25 -41 -25t-35 12l-221 173l-221 -173q-15 -12 -35 -12z" />
    <glyph glyph-name="hcircumflex" unicode="&#x125;" 
d="M894 605q0 193 -182 193q-86 0 -169.5 -54.5t-137 -148t-53.5 -203.5v-337q0 -35 -16.5 -50t-57.5 -15h-2q-41 0 -57.5 15t-16.5 50v1202q0 35 16.5 50t57.5 15h2q41 0 57.5 -15t16.5 -50v-537q69 102 171.5 164t203.5 62q151 0 234 -87t83 -239v-565q0 -35 -16.5 -50
t-57.5 -15h-2q-41 0 -57.5 15t-16.5 50v550zM923 1478q0 -20 -22 -44q-21 -25 -41 -25t-35 12l-221 173l-221 -173q-15 -12 -35 -12t-41 25q-22 24 -22 44t16 35l245 233q22 20 58 20t58 -20l245 -233q16 -15 16 -35z" />
    <glyph glyph-name="Hbar" unicode="&#x126;" 
d="M903 830h-578v-146h578v146zM1198 902q0 -39 -14.5 -55.5t-48.5 -16.5h-82v-775q0 -35 -16.5 -50t-57.5 -15h-2q-41 0 -57.5 15t-16.5 50v485h-578v-485q0 -35 -16.5 -50t-57.5 -15h-2q-41 0 -57.5 15t-16.5 50v775h-82q-34 0 -48.5 16.5t-14.5 55.5t14.5 55.5t48.5 16.5
h82v158q0 35 16.5 50t57.5 15h2q41 0 57.5 -15t16.5 -50v-158h578v158q0 35 16.5 50t57.5 15h2q41 0 57.5 -15t16.5 -50v-158h82q34 0 48.5 -16.5t14.5 -55.5z" />
    <glyph glyph-name="hbar" unicode="&#x127;" 
d="M874 545q0 193 -172 193q-78 0 -155 -52t-126 -141t-49 -193v-297q0 -35 -16.5 -50t-57.5 -15h-2q-41 0 -57.5 15t-16.5 50v951h-139q-34 0 -48.5 16.5t-14.5 55.5t14.5 55.5t48.5 16.5h139v107q0 35 16.5 50t57.5 15h2q41 0 57.5 -15t16.5 -50v-107h253q34 0 48.5 -16.5
t14.5 -55.5t-14.5 -55.5t-48.5 -16.5h-253v-326q66 94 158.5 150t186.5 56q147 0 227 -87t80 -239v-505q0 -35 -16.5 -50t-57.5 -15h-2q-41 0 -57.5 15t-16.5 50v490z" />
    <glyph glyph-name="Itilde" unicode="&#x128;" 
d="M1028 72q0 -39 -14.5 -55.5t-48.5 -16.5h-702q-34 0 -48.5 16.5t-14.5 55.5t14.5 55.5t48.5 16.5h276v899h-256q-34 0 -48.5 16.5t-14.5 55.5t14.5 55.5t48.5 16.5h662q34 0 48.5 -16.5t14.5 -55.5t-14.5 -55.5t-48.5 -16.5h-256v-899h276q34 0 48.5 -16.5t14.5 -55.5z
M334 1356q-20 0 -42 24t-22 44q0 21 14 38q95 123 210 123q50 0 126 -35t111 -35q64 0 130 68q12 12 33 12q20 1 42 -23t22 -45t-14 -38q-95 -123 -210 -123q-50 0 -126 35t-125 35t-105 -57q-22 -23 -44 -23z" />
    <glyph glyph-name="itilde" unicode="&#x129;" 
d="M713 856v-712h321q34 0 48.5 -16.5t14.5 -55.5t-14.5 -55.5t-48.5 -16.5h-784q-34 0 -48.5 16.5t-14.5 55.5t14.5 55.5t48.5 16.5h313v636h-253q-34 0 -48.5 16.5t-14.5 55.5t14.5 55.5t48.5 16.5h340q34 0 48.5 -15.5t14.5 -52.5zM473 1315q52 0 127 -35q74 -35 110 -35
q65 0 131 68q12 12 33 12q20 1 42 -23t22 -45t-14 -38q-95 -123 -210 -123q-50 0 -126 35t-111 35q-64 0 -130 -68q-12 -12 -33 -12q-20 0 -42 24t-22 44q0 21 14 38q95 123 209 123z" />
    <glyph glyph-name="Imacron" unicode="&#x12a;" 
d="M1028 72q0 -39 -14.5 -55.5t-48.5 -16.5h-702q-34 0 -48.5 16.5t-14.5 55.5t14.5 55.5t48.5 16.5h276v899h-256q-34 0 -48.5 16.5t-14.5 55.5t14.5 55.5t48.5 16.5h662q34 0 48.5 -16.5t14.5 -55.5t-14.5 -55.5t-48.5 -16.5h-256v-899h276q34 0 48.5 -16.5t14.5 -55.5z
M290 1448q0 39 14.5 55.5t48.5 16.5h522q34 0 48.5 -16.5t14.5 -55.5t-14.5 -55.5t-48.5 -16.5h-522q-34 0 -48.5 16.5t-14.5 55.5z" />
    <glyph glyph-name="imacron" unicode="&#x12b;" 
d="M713 856v-712h321q34 0 48.5 -16.5t14.5 -55.5t-14.5 -55.5t-48.5 -16.5h-784q-34 0 -48.5 16.5t-14.5 55.5t14.5 55.5t48.5 16.5h313v636h-253q-34 0 -48.5 16.5t-14.5 55.5t14.5 55.5t48.5 16.5h340q34 0 48.5 -15.5t14.5 -52.5zM928 1178q0 -39 -14.5 -55.5
t-48.5 -16.5h-522q-34 0 -48.5 16.5t-14.5 55.5t14.5 55.5t48.5 16.5h522q34 0 48.5 -16.5t14.5 -55.5z" />
    <glyph glyph-name="Ibreve" unicode="&#x12c;" 
d="M1028 72q0 -39 -14.5 -55.5t-48.5 -16.5h-702q-34 0 -48.5 16.5t-14.5 55.5t14.5 55.5t48.5 16.5h276v899h-256q-34 0 -48.5 16.5t-14.5 55.5t14.5 55.5t48.5 16.5h662q34 0 48.5 -16.5t14.5 -55.5t-14.5 -55.5t-48.5 -16.5h-256v-899h276q34 0 48.5 -16.5t14.5 -55.5z
M850 1642q92 0 92 -51q0 -8 -1 -13q-23 -113 -106.5 -175t-220.5 -62t-220.5 62t-106.5 175q-1 4 -1 18q0 46 92 46q24 0 33 -24q45 -139 204 -139t202 139q9 24 33 24z" />
    <glyph glyph-name="ibreve" unicode="&#x12d;" 
d="M713 856v-712h321q34 0 48.5 -16.5t14.5 -55.5t-14.5 -55.5t-48.5 -16.5h-784q-34 0 -48.5 16.5t-14.5 55.5t14.5 55.5t48.5 16.5h313v636h-253q-34 0 -48.5 16.5t-14.5 55.5t14.5 55.5t48.5 16.5h340q34 0 48.5 -15.5t14.5 -52.5zM276 1326q0 46 92 46q24 0 33 -24
q45 -139 204 -139t202 139q9 24 33 24q92 0 92 -46q0 -14 -1 -18q-23 -113 -106.5 -175t-220.5 -62t-220.5 62t-106.5 175q-1 4 -1 18z" />
    <glyph glyph-name="Iogonek" unicode="&#x12e;" 
d="M728 -314q41 0 41 -86q0 -34 -34 -46q-75 -26 -166 -26t-144.5 52t-53.5 139q0 137 156 281h-264q-34 0 -48.5 16.5t-14.5 55.5t14.5 55.5t48.5 16.5h276v899h-256q-34 0 -48.5 16.5t-14.5 55.5t14.5 55.5t48.5 16.5h662q34 0 48.5 -16.5t14.5 -55.5t-14.5 -55.5
t-48.5 -16.5h-256v-899h276q34 0 48.5 -16.5t14.5 -55.5t-14.5 -55.5t-48.5 -16.5h-272q-166 -155 -166 -260q-1 -73 85 -73q44 -1 78 9t38 10z" />
    <glyph glyph-name="iogonek" unicode="&#x12f;" 
d="M748 -314q41 0 41 -86q0 -34 -34 -46q-75 -26 -166 -26t-144.5 52t-53.5 139q0 137 156 281h-297q-34 0 -48.5 16.5t-14.5 55.5t14.5 55.5t48.5 16.5h313v636h-253q-34 0 -48.5 16.5t-14.5 55.5t14.5 55.5t48.5 16.5h340q34 0 48.5 -15.5t14.5 -52.5v-712h321
q34 0 48.5 -16.5t14.5 -55.5t-14.5 -55.5t-48.5 -16.5h-321q-166 -155 -166 -260q-1 -73 85 -73q44 -1 78 9t38 10zM523 1168v130q0 36 20 50.5t75 14.5t75 -14.5t20 -50.5v-130q0 -36 -20 -50.5t-75 -14.5t-75 14.5t-20 50.5z" />
    <glyph glyph-name="Idotaccent" unicode="&#x130;" 
d="M1028 72q0 -39 -14.5 -55.5t-48.5 -16.5h-702q-34 0 -48.5 16.5t-14.5 55.5t14.5 55.5t48.5 16.5h276v899h-256q-34 0 -48.5 16.5t-14.5 55.5t14.5 55.5t48.5 16.5h662q34 0 48.5 -16.5t14.5 -55.5t-14.5 -55.5t-48.5 -16.5h-256v-899h276q34 0 48.5 -16.5t14.5 -55.5z
M519 1438v130q0 36 20 50.5t75 14.5t75 -14.5t20 -50.5v-130q0 -36 -20 -50.5t-75 -14.5t-75 14.5t-20 50.5z" />
    <glyph glyph-name="dotlessi" unicode="&#x131;" 
d="M713 856v-712h321q34 0 48.5 -16.5t14.5 -55.5t-14.5 -55.5t-48.5 -16.5h-784q-34 0 -48.5 16.5t-14.5 55.5t14.5 55.5t48.5 16.5h313v636h-253q-34 0 -48.5 16.5t-14.5 55.5t14.5 55.5t48.5 16.5h340q34 0 48.5 -15.5t14.5 -52.5z" />
    <glyph glyph-name="IJ" unicode="&#x132;" 
d="M1054 1132v-879q0 -134 -70 -204.5t-202 -70.5t-232 50q-39 20 -39 45t11 52q21 49 57 49q12 0 63 -24t127 -24t105.5 37t29.5 120v849q0 35 16.5 50t57.5 15h2q41 0 57.5 -15t16.5 -50zM329 1132v-1077q0 -35 -16.5 -50t-57.5 -15h-2q-41 0 -57.5 15t-16.5 50v1077
q0 35 16.5 50t57.5 15h2q41 0 57.5 -15t16.5 -50z" />
    <glyph glyph-name="ij" unicode="&#x133;" 
d="M986 869v-1004q0 -134 -70 -204.5t-202 -70.5t-232 50q-39 20 -39 45t11 52q21 49 57 49q12 0 63 -24t127 -24t105.5 37t29.5 120v974q0 35 16.5 50t57.5 15h2q41 0 57.5 -15t16.5 -50zM392 869v-814q0 -35 -16.5 -50t-57.5 -15h-2q-41 0 -57.5 15t-16.5 50v814
q0 35 16.5 50t57.5 15h2q41 0 57.5 -15t16.5 -50zM1006 1298v-130q0 -36 -20 -50.5t-75 -14.5t-75 14.5t-20 50.5v130q0 36 20 50.5t75 14.5t75 -14.5t20 -50.5zM412 1298v-130q0 -36 -20 -50.5t-75 -14.5t-75 14.5t-20 50.5v130q0 36 20 50.5t75 14.5t75 -14.5t20 -50.5z
" />
    <glyph glyph-name="Jcircumflex" unicode="&#x134;" 
d="M891 1187q63 0 63 -68v-786q0 -171 -97.5 -263t-292.5 -92t-350 114q-30 23 -30 49q0 27 22 61t46 34t42 -14q127 -96 288 -96q222 0 222 237v680h-361q-34 0 -48.5 16.5t-14.5 55.5t14.5 55.5t48.5 16.5h448zM1093 1378q0 -20 -22 -44q-21 -25 -41 -25t-35 12l-221 173
l-221 -173q-15 -12 -35 -12t-41 25q-22 24 -22 44t16 35l245 233q22 20 58 20t58 -20l245 -233q16 -15 16 -35z" />
    <glyph glyph-name="jcircumflex" unicode="&#x135;" 
d="M903 856v-913q0 -176 -78.5 -264.5t-248.5 -88.5q-83 0 -179 31.5t-174 80.5q-33 20 -33 46t18 61q18 36 44 36t40 -10q152 -99 267 -99t154.5 53t39.5 167v824h-423q-34 0 -48.5 16.5t-14.5 55.5t14.5 55.5t48.5 16.5h510q34 0 48.5 -15.5t14.5 -52.5zM1043 1108
q0 -20 -22 -44q-21 -25 -41 -25t-35 12l-221 173l-221 -173q-15 -12 -35 -12t-41 25q-22 24 -22 44t16 35l245 233q22 20 58 20t58 -20l245 -233q16 -15 16 -35z" />
    <glyph glyph-name="Kcommaaccent" unicode="&#x136;" 
d="M534 -526q-69 0 -69 45q0 4 2 16l63 287q8 32 42 32h116q28 0 28 -26q0 -12 -6 -25l-117 -291q-15 -38 -59 -38zM1095 46q0 -22 -38 -44q-37 -22 -61 -21q-24 0 -43 25l-414 544l-174 -184v-311q0 -35 -16.5 -50t-57.5 -15h-2q-41 0 -57.5 15t-16.5 50v1077q0 35 16.5 50
t57.5 15h2q41 0 57.5 -15t16.5 -50v-548l571 607q16 17 42 17t62 -23t35 -46q0 -23 -22 -45l-409 -433l434 -569q17 -24 17 -46z" />
    <glyph glyph-name="kcommaaccent" unicode="&#x137;" 
d="M544 -526q-69 0 -69 45q0 4 2 16l63 287q8 32 42 32h116q28 0 28 -26q0 -12 -6 -25l-117 -291q-15 -38 -59 -38zM1080 50q0 -22 -39 -44t-62 -22t-41 19l-376 414l-180 -158v-204q0 -35 -16.5 -50t-57.5 -15h-2q-41 0 -57.5 15t-16.5 50v1202q0 35 16.5 50t57.5 15h2
q41 0 57.5 -15t16.5 -50v-804l529 471q21 18 47 18t62 -22t36 -45q0 -24 -21 -42l-360 -317l385 -421q20 -23 20 -45z" />
    <glyph glyph-name="Lacute" unicode="&#x139;" 
d="M1040 72q0 -39 -14.5 -55.5t-48.5 -16.5h-669q-35 0 -49 15.5t-14 52.5v1064q0 35 16.5 50t57.5 15h2q41 0 57.5 -15t16.5 -50v-988h582q34 0 48.5 -16.5t14.5 -55.5zM290 1308q-19 0 -42 26t-23 48t16 34l348 256q19 13 45 13t58 -40q32 -39 31 -67q0 -28 -22 -41
l-374 -219q-18 -10 -37 -10z" />
    <glyph glyph-name="lacute" unicode="&#x13a;" 
d="M1087 72q0 -39 -14.5 -55.5t-48.5 -16.5h-784q-34 0 -48.5 16.5t-14.5 55.5t14.5 55.5t48.5 16.5h313v1024h-273q-34 0 -48.5 16.5t-14.5 55.5t14.5 55.5t48.5 16.5h360q34 0 48.5 -15.5t14.5 -52.5v-1100h321q34 0 48.5 -16.5t14.5 -55.5zM450 1408q-19 0 -42 26t-23 48
t16 34l348 256q19 13 45 13t58 -40q32 -39 31 -67q0 -28 -22 -41l-374 -219q-18 -10 -37 -10z" />
    <glyph glyph-name="Lcommaaccent" unicode="&#x13b;" 
d="M534 -526q-69 0 -69 45q0 4 2 16l63 287q8 32 42 32h116q28 0 28 -26q0 -12 -6 -25l-117 -291q-15 -38 -59 -38zM1040 72q0 -39 -14.5 -55.5t-48.5 -16.5h-669q-35 0 -49 15.5t-14 52.5v1064q0 35 16.5 50t57.5 15h2q41 0 57.5 -15t16.5 -50v-988h582q34 0 48.5 -16.5
t14.5 -55.5z" />
    <glyph glyph-name="lcommaaccent" unicode="&#x13c;" 
d="M538 -526q-69 0 -69 45q0 4 2 16l63 287q8 32 42 32h116q28 0 28 -26q0 -12 -6 -25l-117 -291q-15 -38 -59 -38zM1087 72q0 -39 -14.5 -55.5t-48.5 -16.5h-784q-34 0 -48.5 16.5t-14.5 55.5t14.5 55.5t48.5 16.5h313v1024h-273q-34 0 -48.5 16.5t-14.5 55.5t14.5 55.5
t48.5 16.5h360q34 0 48.5 -15.5t14.5 -52.5v-1100h321q34 0 48.5 -16.5t14.5 -55.5z" />
    <glyph glyph-name="Lcaron" unicode="&#x13d;" 
d="M770 737q-60 0 -60 42q0 4 2 14l82 362q8 32 42 32h118q27 0 27 -27q0 -9 -5 -24l-134 -363q-12 -36 -72 -36zM1040 72q0 -39 -14.5 -55.5t-48.5 -16.5h-669q-35 0 -49 15.5t-14 52.5v1064q0 35 16.5 50t57.5 15h2q41 0 57.5 -15t16.5 -50v-988h582q34 0 48.5 -16.5
t14.5 -55.5z" />
    <glyph glyph-name="lcaron" unicode="&#x13e;" 
d="M1101 1312q27 0 27 -27q0 -9 -5 -24l-134 -363q-13 -36 -73 -36t-59 42q0 4 2 14l82 362q8 32 42 32h118zM1057 72q0 -39 -14.5 -55.5t-48.5 -16.5h-784q-34 0 -48.5 16.5t-14.5 55.5t14.5 55.5t48.5 16.5h313v1024h-273q-34 0 -48.5 16.5t-14.5 55.5t14.5 55.5
t48.5 16.5h360q34 0 48.5 -15.5t14.5 -52.5v-1100h321q34 0 48.5 -16.5t14.5 -55.5z" />
    <glyph glyph-name="Ldot" unicode="&#x13f;" 
d="M649 658v130q0 36 20 50.5t75 14.5t75 -14.5t20 -50.5v-130q0 -36 -20 -50.5t-75 -14.5t-75 14.5t-20 50.5zM1040 72q0 -39 -14.5 -55.5t-48.5 -16.5h-669q-35 0 -49 15.5t-14 52.5v1064q0 35 16.5 50t57.5 15h2q41 0 57.5 -15t16.5 -50v-988h582q34 0 48.5 -16.5
t14.5 -55.5z" />
    <glyph glyph-name="ldot" unicode="&#x140;" 
d="M1069 798v-130q0 -36 -20 -50.5t-75 -14.5t-75 14.5t-20 50.5v130q0 36 20 50.5t75 14.5t75 -14.5t20 -50.5zM1057 72q0 -39 -14.5 -55.5t-48.5 -16.5h-784q-34 0 -48.5 16.5t-14.5 55.5t14.5 55.5t48.5 16.5h313v1024h-273q-34 0 -48.5 16.5t-14.5 55.5t14.5 55.5
t48.5 16.5h360q34 0 48.5 -15.5t14.5 -52.5v-1100h321q34 0 48.5 -16.5t14.5 -55.5z" />
    <glyph glyph-name="Lslash" unicode="&#x141;" 
d="M1040 72q0 -39 -14.5 -55.5t-48.5 -16.5h-609q-35 0 -49 15.5t-14 52.5v380l-136 -92q-24 -16 -45 -16q-20 0 -42 32t-22 54t32 42l213 145v519q0 35 16.5 50t57.5 15h2q41 0 57.5 -15t16.5 -50v-417l206 140q24 16 45 16q20 0 42 -32q22 -31 22 -53t-32 -43l-283 -192
v-407h522q34 0 48.5 -16.5t14.5 -55.5z" />
    <glyph glyph-name="lslash" unicode="&#x142;" 
d="M1087 72q0 -39 -14.5 -55.5t-48.5 -16.5h-784q-34 0 -48.5 16.5t-14.5 55.5t14.5 55.5t48.5 16.5h313v413l-175 -119q-24 -16 -45 -16t-43 32t-21 54q0 22 32 42l252 171v447h-273q-34 0 -48.5 16.5t-14.5 55.5t14.5 55.5t48.5 16.5h360q34 0 48.5 -15.5t14.5 -52.5v-421
l167 114q24 16 45 16t43 -32q22 -31 21 -53q0 -22 -32 -43l-244 -166v-515h321q34 0 48.5 -16.5t14.5 -55.5z" />
    <glyph glyph-name="Nacute" unicode="&#x143;" 
d="M1053 37q0 -59 -75 -59q-47 0 -84 55l-569 888h-4v-866q0 -35 -16 -50t-56 -15h-2q-40 0 -56 15t-16 50v1077q0 35 17 50t58 15h27q43 0 62 -28l564 -882h4v845q0 35 16 50t56 15h2q40 0 56 -15t16 -50v-1095zM824 1685q26 0 58 -40q32 -39 31 -67q0 -28 -22 -41
l-374 -219q-18 -10 -37 -10t-42 26t-23 48t16 34l348 256q19 13 45 13z" />
    <glyph glyph-name="nacute" unicode="&#x144;" 
d="M894 605q0 193 -182 193q-86 0 -169.5 -54.5t-137 -148t-53.5 -203.5v-337q0 -35 -16.5 -50t-57.5 -15h-2q-41 0 -57.5 15t-16.5 50v814q0 35 15 50t54 15h2q39 0 54 -15t15 -50v-163q68 105 173 172.5t212 67.5q151 0 234 -87t83 -239v-565q0 -35 -16.5 -50t-57.5 -15
h-2q-41 0 -57.5 15t-16.5 50v550zM824 1415q26 0 58 -40q32 -39 31 -67q0 -28 -22 -41l-374 -219q-18 -10 -37 -10t-42 26t-23 48t16 34l348 256q19 13 45 13z" />
    <glyph glyph-name="Ncommaaccent" unicode="&#x145;" 
d="M544 -526q-69 0 -69 45q0 4 2 16l63 287q8 32 42 32h116q28 0 28 -26q0 -12 -6 -25l-117 -291q-15 -38 -59 -38zM1053 37q0 -59 -75 -59q-47 0 -84 55l-569 888h-4v-866q0 -35 -16 -50t-56 -15h-2q-40 0 -56 15t-16 50v1077q0 35 17 50t58 15h27q43 0 62 -28l564 -882h4
v845q0 35 16 50t56 15h2q40 0 56 -15t16 -50v-1095z" />
    <glyph glyph-name="ncommaaccent" unicode="&#x146;" 
d="M534 -526q-69 0 -69 45q0 4 2 16l63 287q8 32 42 32h116q28 0 28 -26q0 -12 -6 -25l-117 -291q-15 -38 -59 -38zM894 605q0 193 -182 193q-86 0 -169.5 -54.5t-137 -148t-53.5 -203.5v-337q0 -35 -16.5 -50t-57.5 -15h-2q-41 0 -57.5 15t-16.5 50v814q0 35 15 50t54 15h2
q39 0 54 -15t15 -50v-163q68 105 173 172.5t212 67.5q151 0 234 -87t83 -239v-565q0 -35 -16.5 -50t-57.5 -15h-2q-41 0 -57.5 15t-16.5 50v550z" />
    <glyph glyph-name="Ncaron" unicode="&#x147;" 
d="M1053 37q0 -59 -75 -59q-47 0 -84 55l-569 888h-4v-866q0 -35 -16 -50t-56 -15h-2q-40 0 -56 15t-16 50v1077q0 35 17 50t58 15h27q43 0 62 -28l564 -882h4v845q0 35 16 50t56 15h2q40 0 56 -15t16 -50v-1095zM305 1598q0 20 22 45q21 25 41 25t35 -12l221 -173l221 173
q15 12 35 12t41 -25q22 -25 22 -45t-16 -34l-245 -233q-22 -20 -58 -20t-58 20l-245 233q-16 14 -16 34z" />
    <glyph glyph-name="ncaron" unicode="&#x148;" 
d="M894 605q0 193 -182 193q-86 0 -169.5 -54.5t-137 -148t-53.5 -203.5v-337q0 -35 -16.5 -50t-57.5 -15h-2q-41 0 -57.5 15t-16.5 50v814q0 35 15 50t54 15h2q39 0 54 -15t15 -50v-163q68 105 173 172.5t212 67.5q151 0 234 -87t83 -239v-565q0 -35 -16.5 -50t-57.5 -15
h-2q-41 0 -57.5 15t-16.5 50v550zM305 1328q0 20 22 45q21 25 41 25t35 -12l221 -173l221 173q15 12 35 12t41 -25q22 -25 22 -45t-16 -34l-245 -233q-22 -20 -58 -20t-58 20l-245 233q-16 14 -16 34z" />
    <glyph glyph-name="Eng" unicode="&#x14a;" 
d="M1053 1132v-1267q0 -134 -70.5 -204.5t-194.5 -70.5t-239 50q-39 17 -39 52q0 16 16 53t50 37q15 0 28 -6q96 -40 168 -40t101.5 37t29.5 120v126l-578 902h-4v-866q0 -35 -16 -50t-56 -15h-2q-40 0 -56 15t-16 50v1077q0 35 17 50t58 15h27q43 0 62 -28l564 -882h4v845
q0 35 16 50t56 15h2q40 0 56 -15t16 -50z" />
    <glyph glyph-name="eng" unicode="&#x14b;" 
d="M894 605q0 193 -182 193q-86 0 -169.5 -54.5t-137 -148t-53.5 -203.5v-337q0 -35 -16.5 -50t-57.5 -15h-2q-41 0 -57.5 15t-16.5 50v814q0 35 15 50t54 15h2q39 0 54 -15t15 -50v-163q68 105 173 172.5t212 67.5q151 0 234 -87t83 -239v-755q0 -134 -70.5 -204.5
t-194.5 -70.5t-239 50q-39 17 -39 52q0 16 16 53t50 37q15 0 28 -6q96 -40 168 -40t101.5 37t29.5 120v712z" />
    <glyph glyph-name="Omacron" unicode="&#x14c;" 
d="M244 593q0 -143 45.5 -248.5t129 -162t195.5 -56.5t195.5 56.5t129 162t45.5 248.5t-45.5 249t-129.5 162.5t-195 56.5t-195 -56.5t-129.5 -162.5t-45.5 -249zM1138 593q0 -183 -65 -322.5t-184 -216t-275 -76.5t-275 76.5t-184 216t-65 322.5t65 323t184 216.5t275 76.5
t275 -76.5t184 -216.5t65 -323zM938 1448q0 -39 -14.5 -55.5t-48.5 -16.5h-522q-34 0 -48.5 16.5t-14.5 55.5t14.5 55.5t48.5 16.5h522q34 0 48.5 -16.5t14.5 -55.5z" />
    <glyph glyph-name="omacron" unicode="&#x14d;" 
d="M288 462q0 -98 40.5 -174.5t114.5 -119t171 -42.5t171 42.5t114.5 119t40.5 174.5t-40.5 174.5t-114.5 119t-171 42.5t-171 -42.5t-114.5 -119t-40.5 -174.5zM1094 462q0 -139 -62.5 -249.5t-172 -172.5t-245.5 -62t-245.5 62t-172 172.5t-62.5 249.5t62.5 249.5
t172 172.5t245.5 62t245.5 -62t172 -172.5t62.5 -249.5zM938 1178q0 -39 -14.5 -55.5t-48.5 -16.5h-522q-34 0 -48.5 16.5t-14.5 55.5t14.5 55.5t48.5 16.5h522q34 0 48.5 -16.5t14.5 -55.5z" />
    <glyph glyph-name="Obreve" unicode="&#x14e;" 
d="M244 593q0 -143 45.5 -248.5t129 -162t195.5 -56.5t195.5 56.5t129 162t45.5 248.5t-45.5 249t-129.5 162.5t-195 56.5t-195 -56.5t-129.5 -162.5t-45.5 -249zM1138 593q0 -183 -65 -322.5t-184 -216t-275 -76.5t-275 76.5t-184 216t-65 322.5t65 323t184 216.5t275 76.5
t275 -76.5t184 -216.5t65 -323zM286 1596q0 46 92 46q24 0 33 -24q45 -139 204 -139t202 139q9 24 33 24q92 0 92 -46q0 -14 -1 -18q-23 -113 -106.5 -175t-220.5 -62t-220.5 62t-106.5 175q-1 4 -1 18z" />
    <glyph glyph-name="obreve" unicode="&#x14f;" 
d="M288 462q0 -98 40.5 -174.5t114.5 -119t171 -42.5t171 42.5t114.5 119t40.5 174.5t-40.5 174.5t-114.5 119t-171 42.5t-171 -42.5t-114.5 -119t-40.5 -174.5zM1094 462q0 -139 -62.5 -249.5t-172 -172.5t-245.5 -62t-245.5 62t-172 172.5t-62.5 249.5t62.5 249.5
t172 172.5t245.5 62t245.5 -62t172 -172.5t62.5 -249.5zM286 1326q0 46 92 46q24 0 33 -24q45 -139 204 -139t202 139q9 24 33 24q92 0 92 -46q0 -14 -1 -18q-23 -113 -106.5 -175t-220.5 -62t-220.5 62t-106.5 175q-1 4 -1 18z" />
    <glyph glyph-name="Ohungarumlaut" unicode="&#x150;" 
d="M244 593q0 -143 45.5 -248.5t129 -162t195.5 -56.5t195.5 56.5t129 162t45.5 248.5t-45.5 249t-129.5 162.5t-195 56.5t-195 -56.5t-129.5 -162.5t-45.5 -249zM1138 593q0 -183 -65 -322.5t-184 -216t-275 -76.5t-275 76.5t-184 216t-65 322.5t65 323t184 216.5t275 76.5
t275 -76.5t184 -216.5t65 -323zM997 1668q30 0 68 -24t38 -47q0 -24 -19 -41l-270 -233q-17 -14 -38 -14t-50 18q-29 17 -29 35t10 28l237 253q23 25 53 25zM617 1668q30 0 68 -24t38 -47q0 -24 -19 -41l-270 -233q-17 -14 -38 -14t-50 18q-29 17 -29 35t10 28l237 253
q23 25 53 25z" />
    <glyph glyph-name="ohungarumlaut" unicode="&#x151;" 
d="M288 462q0 -98 40.5 -174.5t114.5 -119t171 -42.5t171 42.5t114.5 119t40.5 174.5t-40.5 174.5t-114.5 119t-171 42.5t-171 -42.5t-114.5 -119t-40.5 -174.5zM1094 462q0 -139 -62.5 -249.5t-172 -172.5t-245.5 -62t-245.5 62t-172 172.5t-62.5 249.5t62.5 249.5
t172 172.5t245.5 62t245.5 -62t172 -172.5t62.5 -249.5zM997 1398q30 0 68 -24t38 -47q0 -24 -19 -41l-270 -233q-17 -14 -38 -14t-50 18q-29 17 -29 35t10 28l237 253q23 25 53 25zM617 1398q30 0 68 -24t38 -47q0 -24 -19 -41l-270 -233q-17 -14 -38 -14t-50 18
q-29 17 -29 35t10 28l237 253q23 25 53 25z" />
    <glyph glyph-name="OE" unicode="&#x152;" 
d="M238 593q0 -143 65 -296t283 -161v914q-219 -8 -283.5 -161t-64.5 -296zM1141 72q0 -39 -14.5 -55.5t-48.5 -16.5h-467q-159 -4 -278 66t-184 205.5t-65 321.5t65 321.5t184 206t278 66.5h447q34 0 48.5 -16.5t14.5 -55.5t-14.5 -55.5t-48.5 -16.5h-322v-359h247
q34 0 48.5 -16.5t14.5 -55.5t-14.5 -55.5t-48.5 -16.5h-247v-396h342q34 0 48.5 -16.5t14.5 -55.5z" />
    <glyph glyph-name="oe" unicode="&#x153;" 
d="M228 462q0 -175 37.5 -255.5t116.5 -80.5t116.5 80.5t37.5 255.5t-37.5 255.5t-116.5 80.5t-116.5 -80.5t-37.5 -255.5zM994 580q-14 221 -139 221q-71 0 -110 -52t-51 -169h300zM849 946q156 0 226 -116t76 -328q1 -33 -14 -47.5t-49 -14.5h-399q5 -317 164 -317
q90 0 170 78q17 17 43 17t50 -28q23 -28 23 -54t-41 -66q-41 -38 -107 -65t-138 -27q-160 0 -240 138q-75 -138 -230 -138t-234 125.5t-79 358.5t79 358.5t234 125.5t230 -140q80 140 236 140z" />
    <glyph glyph-name="Racute" unicode="&#x154;" 
d="M599 617q279 0 279 213t-279 213h-214v-426h214zM1049 50q0 -29 -41 -47t-63 -18t-40 28l-298 460h-222v-418q0 -35 -16.5 -50t-57.5 -15h-2q-41 0 -57.5 15t-16.5 50v1064q0 37 14.5 52.5t48.5 15.5h322q266 0 339 -124.5t73 -244.5t-66.5 -207.5t-194.5 -120.5
l264 -402q14 -22 14 -38zM472 1308q-19 0 -42 26t-23 48t16 34l348 256q19 13 45 13t58 -40q32 -39 31 -67q0 -28 -22 -41l-374 -219q-18 -10 -37 -10z" />
    <glyph glyph-name="racute" unicode="&#x155;" 
d="M1032 764q-14 0 -48 11t-88 11q-115 0 -216 -70t-162 -188.5t-61 -257.5v-215q0 -35 -16.5 -50t-57.5 -15h-2q-41 0 -57.5 15t-16.5 50v814q0 35 15 50t54 15h2q39 0 54 -15t15 -50v-235q87 147 206 229.5t252 82.5q65 0 131 -21q49 -16 49 -63t-19 -72.5t-34 -25.5z
M906 1415q26 0 58 -40q32 -39 31 -67q0 -28 -22 -41l-374 -219q-18 -10 -37 -10t-42 26t-23 48t16 34l348 256q19 13 45 13z" />
    <glyph glyph-name="Rcommaaccent" unicode="&#x156;" 
d="M544 -526q-69 0 -69 45q0 4 2 16l63 287q8 32 42 32h116q28 0 28 -26q0 -12 -6 -25l-117 -291q-15 -38 -59 -38zM599 617q279 0 279 213t-279 213h-214v-426h214zM1049 50q0 -29 -41 -47t-63 -18t-40 28l-298 460h-222v-418q0 -35 -16.5 -50t-57.5 -15h-2q-41 0 -57.5 15
t-16.5 50v1064q0 37 14.5 52.5t48.5 15.5h322q266 0 339 -124.5t73 -244.5t-66.5 -207.5t-194.5 -120.5l264 -402q14 -22 14 -38z" />
    <glyph glyph-name="rcommaaccent" unicode="&#x157;" 
d="M434 -526q-69 0 -69 45q0 4 2 16l63 287q8 32 42 32h116q28 0 28 -26q0 -12 -6 -25l-117 -291q-15 -38 -59 -38zM1032 764q-14 0 -48 11t-88 11q-115 0 -216 -70t-162 -188.5t-61 -257.5v-215q0 -35 -16.5 -50t-57.5 -15h-2q-41 0 -57.5 15t-16.5 50v814q0 35 15 50
t54 15h2q39 0 54 -15t15 -50v-235q87 147 206 229.5t252 82.5q65 0 131 -21q49 -16 49 -63t-19 -72.5t-34 -25.5z" />
    <glyph glyph-name="Rcaron" unicode="&#x158;" 
d="M599 617q279 0 279 213t-279 213h-214v-426h214zM1049 50q0 -29 -41 -47t-63 -18t-40 28l-298 460h-222v-418q0 -35 -16.5 -50t-57.5 -15h-2q-41 0 -57.5 15t-16.5 50v1064q0 37 14.5 52.5t48.5 15.5h322q266 0 339 -124.5t73 -244.5t-66.5 -207.5t-194.5 -120.5
l264 -402q14 -22 14 -38zM285 1598q0 20 22 45q21 25 41 25t35 -12l221 -173l221 173q15 12 35 12t41 -25q22 -25 22 -45t-16 -34l-245 -233q-22 -20 -58 -20t-58 20l-245 233q-16 14 -16 34z" />
    <glyph glyph-name="rcaron" unicode="&#x159;" 
d="M1032 764q-14 0 -48 11t-88 11q-115 0 -216 -70t-162 -188.5t-61 -257.5v-215q0 -35 -16.5 -50t-57.5 -15h-2q-41 0 -57.5 15t-16.5 50v814q0 35 15 50t54 15h2q39 0 54 -15t15 -50v-235q87 147 206 229.5t252 82.5q65 0 131 -21q49 -16 49 -63t-19 -72.5t-34 -25.5z
M365 1328q0 20 22 45q21 25 41 25t35 -12l221 -173l221 173q15 12 35 12t41 -25q22 -25 22 -45t-16 -34l-245 -233q-22 -20 -58 -20t-58 20l-245 233q-16 14 -16 34z" />
    <glyph glyph-name="Sacute" unicode="&#x15a;" 
d="M1024 1060q0 -28 -13 -56q-20 -45 -55 -45q-15 0 -33 10q-154 92 -345 92q-119 0 -185.5 -53t-66.5 -145q0 -106 101.5 -130.5t226.5 -46.5t212 -56q196 -78 196 -300q0 -221 -148 -286.5t-277 -65.5q-248 0 -436 116q-34 22 -34 50q1 28 19 64t42 35q24 0 42 -11
q166 -106 352 -106q141 0 213.5 54.5t72.5 146.5q0 145 -125 174t-250 51t-200 57q-161 73 -161 254q0 107 78 226.5t321 119.5q242 0 417 -100q36 -21 36 -49zM804 1685q26 0 58 -40q32 -39 31 -67q0 -28 -22 -41l-374 -219q-18 -10 -37 -10t-42 26t-23 48t16 34l348 256
q19 13 45 13z" />
    <glyph glyph-name="sacute" unicode="&#x15b;" 
d="M178 127q0 27 18 63t40 36t39 -9q168 -94 369 -94q123 0 186.5 41.5t63.5 108.5t-81 94q-52 17 -174 28q-122 12 -184 22.5t-124 34.5q-141 56 -141 208q0 92 73 189t301 97q229 0 402 -87q40 -21 40 -49t-10 -51q-23 -50 -54 -50q-10 0 -30 9q-163 83 -342 83
q-106 0 -166 -36t-60 -105q0 -78 96 -91t229 -25t213 -41q166 -62 166 -226q0 -187 -133.5 -243t-260.5 -56q-254 0 -437 100q-39 22 -39 49zM804 1415q26 0 58 -40q32 -39 31 -67q0 -28 -22 -41l-374 -219q-18 -10 -37 -10t-42 26t-23 48t16 34l348 256q19 13 45 13z" />
    <glyph glyph-name="Scircumflex" unicode="&#x15c;" 
d="M1024 1060q0 -28 -13 -56q-20 -45 -55 -45q-15 0 -33 10q-154 92 -345 92q-119 0 -185.5 -53t-66.5 -145q0 -106 101.5 -130.5t226.5 -46.5t212 -56q196 -78 196 -300q0 -221 -148 -286.5t-277 -65.5q-248 0 -436 116q-34 22 -34 50q1 28 19 64t42 35q24 0 42 -11
q166 -106 352 -106q141 0 213.5 54.5t72.5 146.5q0 145 -125 174t-250 51t-200 57q-161 73 -161 254q0 107 78 226.5t321 119.5q242 0 417 -100q36 -21 36 -49zM939 1378q0 -20 -22 -44q-21 -25 -41 -25t-35 12l-221 173l-221 -173q-15 -12 -35 -12t-41 25q-22 24 -22 44
t16 35l245 233q22 20 58 20t58 -20l245 -233q16 -15 16 -35z" />
    <glyph glyph-name="scircumflex" unicode="&#x15d;" 
d="M178 127q0 27 18 63t40 36t39 -9q168 -94 369 -94q123 0 186.5 41.5t63.5 108.5t-81 94q-52 17 -174 28q-122 12 -184 22.5t-124 34.5q-141 56 -141 208q0 92 73 189t301 97q229 0 402 -87q40 -21 40 -49t-10 -51q-23 -50 -54 -50q-10 0 -30 9q-163 83 -342 83
q-106 0 -166 -36t-60 -105q0 -78 96 -91t229 -25t213 -41q166 -62 166 -226q0 -187 -133.5 -243t-260.5 -56q-254 0 -437 100q-39 22 -39 49zM933 1108q0 -20 -22 -44q-21 -25 -41 -25t-35 12l-221 173l-221 -173q-15 -12 -35 -12t-41 25q-22 24 -22 44t16 35l245 233
q22 20 58 20t58 -20l245 -233q16 -15 16 -35z" />
    <glyph glyph-name="Scedilla" unicode="&#x15e;" 
d="M541 -177v159q-188 18 -340 112q-34 22 -34 50q1 28 19 64t42 35q24 0 42 -11q166 -106 352 -106q141 0 213.5 54.5t72.5 146.5q0 145 -125 174t-250 51t-200 57q-161 73 -161 254q0 107 78 226.5t321 119.5q242 0 417 -100q36 -21 36 -49t-13 -56q-20 -45 -55 -45
q-15 0 -33 10q-154 92 -345 92q-119 0 -185.5 -53t-66.5 -145q0 -106 101.5 -130.5t226.5 -46.5t212 -56q196 -78 196 -293q0 -214 -131 -282t-258 -75v-93q101 1 152 -46t51 -128t-62 -133t-195 -52t-235 48q-23 10 -23 30t8 40q17 45 46 45q8 0 32 -9q83 -31 183 -31
q100 1 100 65t-116 64l-39 -1q-34 0 -34 44z" />
    <glyph glyph-name="scedilla" unicode="&#x15f;" 
d="M551 -177v159q-191 17 -334 96q-39 22 -39 49t18 63t40 36t39 -9q168 -94 369 -94q123 0 186.5 41.5t63.5 108.5t-81 94q-52 17 -174 28q-122 12 -184 22.5t-124 34.5q-141 56 -141 208q0 92 73 189t301 97q229 0 402 -87q40 -21 40 -49t-10 -51q-23 -50 -54 -50
q-10 0 -30 9q-163 83 -342 83q-106 0 -166 -36t-60 -105q0 -78 96 -91t229 -25t213 -41q166 -62 166 -234t-123.5 -229t-241.5 -61v-92q101 1 152 -46t51 -128t-62 -133t-195 -52t-235 48q-23 10 -23 30t8 40q17 45 46 45q8 0 32 -9q83 -31 183 -31q100 1 100 65t-116 64
l-39 -1q-34 0 -34 44z" />
    <glyph glyph-name="Scaron" unicode="&#x160;" 
d="M1024 1060q0 -28 -13 -56q-20 -45 -55 -45q-15 0 -33 10q-154 92 -345 92q-119 0 -185.5 -53t-66.5 -145q0 -106 101.5 -130.5t226.5 -46.5t212 -56q196 -78 196 -300q0 -221 -148 -286.5t-277 -65.5q-248 0 -436 116q-34 22 -34 50q1 28 19 64t42 35q24 0 42 -11
q166 -106 352 -106q141 0 213.5 54.5t72.5 146.5q0 145 -125 174t-250 51t-200 57q-161 73 -161 254q0 107 78 226.5t321 119.5q242 0 417 -100q36 -21 36 -49zM290 1598q0 20 22 45t42 25t34 -12l221 -173l221 173q14 12 34 12t42 -25t22 -45t-16 -34l-245 -233
q-22 -20 -58 -20t-58 20l-245 233q-16 14 -16 34z" />
    <glyph glyph-name="scaron" unicode="&#x161;" 
d="M178 127q0 27 18 63t40 36t39 -9q168 -94 369 -94q123 0 186.5 41.5t63.5 108.5t-81 94q-52 17 -174 28q-122 12 -184 22.5t-124 34.5q-141 56 -141 208q0 92 73 189t301 97q229 0 402 -87q40 -21 40 -49t-10 -51q-23 -50 -54 -50q-10 0 -30 9q-163 83 -342 83
q-106 0 -166 -36t-60 -105q0 -78 96 -91t229 -25t213 -41q166 -62 166 -226q0 -187 -133.5 -243t-260.5 -56q-254 0 -437 100q-39 22 -39 49zM295 1328q0 20 22 45q21 25 41 25t35 -12l221 -173l221 173q15 12 35 12t41 -25q22 -25 22 -45t-16 -34l-245 -233
q-22 -20 -58 -20t-58 20l-245 233q-16 14 -16 34z" />
    <glyph glyph-name="uni0162" unicode="&#x162;" 
d="M548 -177v191q-9 15 -9 41v988h-354q-34 0 -48.5 16.5t-14.5 55.5t14.5 55.5t48.5 16.5h858q34 0 48.5 -16.5t14.5 -55.5t-14.5 -55.5t-48.5 -16.5h-354v-988q0 -26 -9 -41v-127q101 1 152 -46t51 -128t-62 -133t-195 -52t-235 48q-23 10 -23 30t8 40q17 45 46 45
q8 0 32 -9q83 -31 183 -31q100 1 100 65t-116 64l-39 -1q-34 0 -34 44z" />
    <glyph glyph-name="uni0163" unicode="&#x163;" 
d="M383 331v369h-203q-34 0 -48.5 16.5t-14.5 55.5t14.5 55.5t48.5 16.5h203v300q0 35 17 50t58 15t58 -15t17 -50v-300h411q34 0 48.5 -16.5t14.5 -55.5t-14.5 -55.5t-48.5 -16.5h-411v-356q0 -114 40 -167t122 -53q147 0 299 99q14 10 40 10t44 -36q18 -35 18 -61t-33 -46
q-78 -49 -174 -80.5t-179 -31.5h-7v-91q101 1 152 -46t51 -128t-62 -133t-195 -52t-235 48q-23 10 -23 30t8 40q17 45 46 45q8 0 32 -9q83 -31 183 -31q100 1 100 65t-116 64l-39 -1q-34 0 -34 44v174q-188 62 -188 334z" />
    <glyph glyph-name="Tcaron" unicode="&#x164;" 
d="M1106 1115q0 -39 -14.5 -55.5t-48.5 -16.5h-354v-988q0 -35 -16.5 -50t-57.5 -15h-2q-41 0 -57.5 15t-16.5 50v988h-354q-34 0 -48.5 16.5t-14.5 55.5t14.5 55.5t48.5 16.5h858q34 0 48.5 -16.5t14.5 -55.5zM295 1598q0 20 22 45q21 25 41 25t35 -12l221 -173l221 173
q15 12 35 12t41 -25q22 -25 22 -45t-16 -34l-245 -233q-22 -20 -58 -20t-58 20l-245 233q-16 14 -16 34z" />
    <glyph glyph-name="tcaron" unicode="&#x165;" 
d="M1034 233q26 0 44 -36q18 -35 18 -61t-33 -46q-78 -49 -174 -80.5t-179 -31.5q-170 0 -248.5 88.5t-78.5 264.5v369h-203q-34 0 -48.5 16.5t-14.5 55.5t14.5 55.5t48.5 16.5h203v300q0 35 17 50t58 15t58 -15t17 -50v-300h411q34 0 48.5 -16.5t14.5 -55.5t-14.5 -55.5
t-48.5 -16.5h-411v-356q0 -114 40 -167t122 -53q147 0 299 99q14 10 40 10zM818 1020q-69 0 -69 45q0 4 2 16l63 287q8 32 42 32h116q28 0 28 -26q0 -11 -6 -25l-117 -291q-15 -38 -59 -38z" />
    <glyph glyph-name="Tbar" unicode="&#x166;" 
d="M1106 1115q0 -39 -14.5 -55.5t-48.5 -16.5h-354v-453h206q34 0 48.5 -16.5t14.5 -55.5t-14.5 -55.5t-48.5 -16.5h-206v-391q0 -35 -16.5 -50t-57.5 -15h-2q-41 0 -57.5 15t-16.5 50v391h-206q-34 0 -48.5 16.5t-14.5 55.5t14.5 55.5t48.5 16.5h206v453h-354
q-34 0 -48.5 16.5t-14.5 55.5t14.5 55.5t48.5 16.5h858q34 0 48.5 -16.5t14.5 -55.5z" />
    <glyph glyph-name="tbar" unicode="&#x167;" 
d="M1034 233q26 0 44 -36q18 -35 18 -61t-33 -46q-78 -49 -174 -80.5t-179 -31.5q-170 0 -248.5 88.5t-78.5 264.5v75h-120q-34 0 -48.5 16.5t-14.5 55.5t14.5 55.5t48.5 16.5h120v150h-203q-34 0 -48.5 16.5t-14.5 55.5t14.5 55.5t48.5 16.5h203v300q0 35 17 50t58 15
t58 -15t17 -50v-300h411q34 0 48.5 -16.5t14.5 -55.5t-14.5 -55.5t-48.5 -16.5h-411v-150h252q34 0 48.5 -16.5t14.5 -55.5t-14.5 -55.5t-48.5 -16.5h-252v-62q0 -114 40 -167t122 -53q147 0 299 99q14 10 40 10z" />
    <glyph glyph-name="Utilde" unicode="&#x168;" 
d="M1053 1132v-719q0 -140 -55 -237.5t-154 -147.5t-230 -50t-230 50t-154 147.5t-55 237.5v719q0 35 16.5 50t57.5 15h2q41 0 57.5 -15t16.5 -50v-699q0 -153 75 -230t214 -77t214 77t75 230v699q0 35 16.5 50t57.5 15h2q41 0 57.5 -15t16.5 -50zM493 1585q52 0 127 -35
q74 -35 110 -35q65 0 131 68q12 12 33 12q20 1 42 -23t22 -45t-14 -38q-95 -123 -210 -123q-50 0 -126 35t-111 35q-64 0 -130 -68q-12 -12 -33 -12q-20 0 -42 24t-22 44q0 21 14 38q95 123 209 123z" />
    <glyph glyph-name="utilde" unicode="&#x169;" 
d="M334 319q0 -193 182 -193q86 0 169.5 54.5t137 148t53.5 203.5v337q0 35 16.5 50t57.5 15h2q41 0 57.5 -15t16.5 -50v-814q0 -35 -15 -50t-54 -15h-2q-39 0 -54 15t-15 50v163q-68 -105 -173 -172.5t-212 -67.5q-151 0 -234 87t-83 239v565q0 35 16.5 50t57.5 15h2
q41 0 57.5 -15t16.5 -50v-550zM493 1315q52 0 127 -35q74 -35 110 -35q65 0 131 68q12 12 33 12q20 1 42 -23t22 -45t-14 -38q-95 -123 -210 -123q-50 0 -126 35t-111 35q-64 0 -130 -68q-12 -12 -33 -12q-20 0 -42 24t-22 44q0 21 14 38q95 123 209 123z" />
    <glyph glyph-name="Umacron" unicode="&#x16a;" 
d="M1053 1132v-719q0 -140 -55 -237.5t-154 -147.5t-230 -50t-230 50t-154 147.5t-55 237.5v719q0 35 16.5 50t57.5 15h2q41 0 57.5 -15t16.5 -50v-699q0 -153 75 -230t214 -77t214 77t75 230v699q0 35 16.5 50t57.5 15h2q41 0 57.5 -15t16.5 -50zM938 1448
q0 -39 -14.5 -55.5t-48.5 -16.5h-522q-34 0 -48.5 16.5t-14.5 55.5t14.5 55.5t48.5 16.5h522q34 0 48.5 -16.5t14.5 -55.5z" />
    <glyph glyph-name="umacron" unicode="&#x16b;" 
d="M337 319q0 -193 182 -193q86 0 169.5 54.5t137 148t53.5 203.5v337q0 35 16.5 50t57.5 15h2q41 0 57.5 -15t16.5 -50v-814q0 -35 -15 -50t-54 -15h-2q-39 0 -54 15t-15 50v163q-68 -105 -173 -172.5t-212 -67.5q-151 0 -234 87t-83 239v565q0 35 16.5 50t57.5 15h2
q41 0 57.5 -15t16.5 -50v-550zM938 1178q0 -39 -14.5 -55.5t-48.5 -16.5h-522q-34 0 -48.5 16.5t-14.5 55.5t14.5 55.5t48.5 16.5h522q34 0 48.5 -16.5t14.5 -55.5z" />
    <glyph glyph-name="Ubreve" unicode="&#x16c;" 
d="M1053 1132v-719q0 -140 -55 -237.5t-154 -147.5t-230 -50t-230 50t-154 147.5t-55 237.5v719q0 35 16.5 50t57.5 15h2q41 0 57.5 -15t16.5 -50v-699q0 -153 75 -230t214 -77t214 77t75 230v699q0 35 16.5 50t57.5 15h2q41 0 57.5 -15t16.5 -50zM286 1596q0 46 92 46
q24 0 33 -24q45 -139 204 -139t202 139q9 24 33 24q92 0 92 -46q0 -14 -1 -18q-23 -113 -106.5 -175t-220.5 -62t-220.5 62t-106.5 175q-1 4 -1 18z" />
    <glyph glyph-name="ubreve" unicode="&#x16d;" 
d="M334 319q0 -193 182 -193q86 0 169.5 54.5t137 148t53.5 203.5v337q0 35 16.5 50t57.5 15h2q41 0 57.5 -15t16.5 -50v-814q0 -35 -15 -50t-54 -15h-2q-39 0 -54 15t-15 50v163q-68 -105 -173 -172.5t-212 -67.5q-151 0 -234 87t-83 239v565q0 35 16.5 50t57.5 15h2
q41 0 57.5 -15t16.5 -50v-550zM285 1326q1 46 93 46q24 0 32 -24q45 -139 204 -139t202 139q8 24 32 24q92 0 93 -46q0 -14 -1 -18q-23 -113 -106.5 -175t-220.5 -62t-220.5 62t-106.5 175q-1 4 -1 18z" />
    <glyph glyph-name="Uring" unicode="&#x16e;" 
d="M1053 1132v-719q0 -140 -55 -237.5t-154 -147.5t-230 -50t-230 50t-154 147.5t-55 237.5v719q0 35 16.5 50t57.5 15h2q41 0 57.5 -15t16.5 -50v-699q0 -153 75 -230t214 -77t214 77t75 230v699q0 35 16.5 50t57.5 15h2q41 0 57.5 -15t16.5 -50zM500 1551q0 -52 31 -83
t83 -31t83 31t31 83t-31 83t-83 31t-83 -31t-31 -83zM860 1551q0 -69 -32 -125.5t-88.5 -88.5t-125.5 -32t-125.5 32t-88.5 88.5t-32 125.5t32 125.5t88.5 88.5t125.5 32t125.5 -32t88.5 -88.5t32 -125.5z" />
    <glyph glyph-name="uring" unicode="&#x16f;" 
d="M334 319q0 -193 182 -193q86 0 169.5 54.5t137 148t53.5 203.5v337q0 35 16.5 50t57.5 15h2q41 0 57.5 -15t16.5 -50v-814q0 -35 -15 -50t-54 -15h-2q-39 0 -54 15t-15 50v163q-68 -105 -173 -172.5t-212 -67.5q-151 0 -234 87t-83 239v565q0 35 16.5 50t57.5 15h2
q41 0 57.5 -15t16.5 -50v-550zM497 1311q0 -52 31 -83t83 -31t83 31t31 83t-31 83t-83 31t-83 -31t-31 -83zM857 1311q0 -69 -32 -125.5t-88.5 -88.5t-125.5 -32t-125.5 32t-88.5 88.5t-32 125.5t32 125.5t88.5 88.5t125.5 32t125.5 -32t88.5 -88.5t32 -125.5z" />
    <glyph glyph-name="Uhungarumlaut" unicode="&#x170;" 
d="M1053 1132v-719q0 -140 -55 -237.5t-154 -147.5t-230 -50t-230 50t-154 147.5t-55 237.5v719q0 35 16.5 50t57.5 15h2q41 0 57.5 -15t16.5 -50v-699q0 -153 75 -230t214 -77t214 77t75 230v699q0 35 16.5 50t57.5 15h2q41 0 57.5 -15t16.5 -50zM997 1668q30 0 68 -24
t38 -47q0 -24 -19 -41l-270 -233q-17 -14 -38 -14t-50 18q-29 17 -29 35t10 28l237 253q23 25 53 25zM617 1668q30 0 68 -24t38 -47q0 -24 -19 -41l-270 -233q-17 -14 -38 -14t-50 18q-29 17 -29 35t10 28l237 253q23 25 53 25z" />
    <glyph glyph-name="uhungarumlaut" unicode="&#x171;" 
d="M334 319q0 -193 182 -193q86 0 169.5 54.5t137 148t53.5 203.5v337q0 35 16.5 50t57.5 15h2q41 0 57.5 -15t16.5 -50v-814q0 -35 -15 -50t-54 -15h-2q-39 0 -54 15t-15 50v163q-68 -105 -173 -172.5t-212 -67.5q-151 0 -234 87t-83 239v565q0 35 16.5 50t57.5 15h2
q41 0 57.5 -15t16.5 -50v-550zM977 1398q30 0 68 -24t38 -47q0 -24 -19 -41l-270 -233q-17 -14 -38 -14t-50 18q-29 17 -29 35t10 28l237 253q23 25 53 25zM597 1398q30 0 68 -24t38 -47q0 -24 -19 -41l-270 -233q-17 -14 -38 -14t-50 18q-29 17 -29 35t10 28l237 253
q23 25 53 25z" />
    <glyph glyph-name="Uogonek" unicode="&#x172;" 
d="M848 -314q41 0 41 -86q0 -34 -34 -46q-75 -26 -166 -26t-144.5 52t-53.5 139q0 128 133 259h-10q-273 0 -356 147.5t-83 287.5v719q0 35 16.5 50t57.5 15h2q41 0 57.5 -15t16.5 -50v-699q0 -153 75 -230t214 -77t214 77t75 230v699q0 35 16.5 50t57.5 15h2q41 0 57.5 -15
t16.5 -50v-719q0 -139 -55 -237t-155 -149q-196 -174 -196 -267t77 -93q52 -1 86 9t38 10z" />
    <glyph glyph-name="uogonek" unicode="&#x173;" 
d="M1040 -314q41 0 41 -86q0 -34 -34 -46q-75 -26 -166 -26t-144.5 52t-53.5 139q0 157 203 320v179q-68 -105 -173 -172.5t-212 -67.5q-151 0 -234 87t-83 239v565q0 35 16.5 50t57.5 15h2q41 0 57.5 -15t16.5 -50v-550q0 -193 182 -193q86 0 169.5 54.5t137 148
t53.5 203.5v337q0 35 16.5 50t57.5 15h2q41 0 57.5 -15t16.5 -50v-814q0 -36 -17 -52q-170 -155 -170 -263q-1 -73 85 -73q44 -1 78 9t38 10z" />
    <glyph glyph-name="Wcircumflex" unicode="&#x174;" 
d="M1065 1197q88 0 88 -57q0 -12 -1 -18l-149 -1079q-5 -36 -25.5 -50.5t-60.5 -14.5q-77 0 -100 65l-207 586l-207 -586q-23 -65 -100 -65q-40 0 -60.5 14.5t-25.5 50.5l-149 1079q-1 6 -1 18q0 57 88 57q30 0 44 -13.5t18 -44.5l112 -881l207 587q14 40 74 40t74 -40
l207 -587l112 881q4 31 18 44.5t44 13.5zM933 1378q0 -20 -22 -44q-21 -25 -41 -25t-35 12l-221 173l-221 -173q-15 -12 -35 -12t-41 25q-22 24 -22 44t16 35l245 233q22 20 58 20t58 -20l245 -233q16 -15 16 -35z" />
    <glyph glyph-name="wcircumflex" unicode="&#x175;" 
d="M1170 882q0 -18 -4 -33l-199 -806q-9 -36 -27 -50.5t-58 -14.5q-78 0 -99 65l-169 512l-169 -512q-21 -65 -102 -65q-38 0 -55.5 14.5t-26.5 50.5l-199 806q-4 15 -4 33q0 37 60 48q16 4 36 4q39 0 51 -51l159 -673l175 533q16 47 75 47t75 -47l175 -533l159 673
q11 51 54 51q16 0 33 -4q60 -11 60 -48zM933 1108q0 -20 -22 -44q-21 -25 -41 -25t-35 12l-221 173l-221 -173q-15 -12 -35 -12t-41 25q-22 24 -22 44t16 35l245 233q22 20 58 20t58 -20l245 -233q16 -15 16 -35z" />
    <glyph glyph-name="Ycircumflex" unicode="&#x176;" 
d="M1103 1135q0 -16 -15 -39l-399 -609v-432q0 -35 -16.5 -50t-57.5 -15h-2q-41 0 -57.5 15t-16.5 50v432l-399 609q-15 23 -14.5 46.5t40.5 40.5q40 18 64 18t43 -29l341 -526l341 526q19 29 43 29q24 -1 53 -13t40.5 -24.5t11.5 -28.5zM360 1309q-20 0 -42 25
q-22 24 -22 44t16 35l245 233q22 20 58 20t58 -20l245 -233q16 -15 16 -35t-22 -44q-22 -25 -42 -25t-34 12l-221 173l-221 -173q-14 -12 -34 -12z" />
    <glyph glyph-name="ycircumflex" unicode="&#x177;" 
d="M1104 869q0 -17 -10 -36l-597 -1191q-21 -42 -45 -42t-51 12q-52 22 -52 55q0 16 10 36l171 340l-397 790q-10 19 -10 35q0 34 54 56q27 12 51 12t46 -42l341 -683l339 683q22 42 46 42t51 -12q53 -22 53 -55zM374 1039q-20 0 -41 25q-22 24 -22 44t16 35l245 233
q22 20 58 20t58 -20l245 -233q16 -15 16 -35t-22 -44q-21 -25 -41 -25t-35 12l-221 173l-221 -173q-15 -12 -35 -12z" />
    <glyph glyph-name="Ydieresis" unicode="&#x178;" 
d="M1103 1135q0 -16 -15 -39l-399 -609v-432q0 -35 -16.5 -50t-57.5 -15h-2q-41 0 -57.5 15t-16.5 50v432l-399 609q-15 23 -14.5 46.5t40.5 40.5q40 18 64 18t43 -29l341 -526l341 526q19 29 43 29q24 -1 53 -13t40.5 -24.5t11.5 -28.5zM729 1438v130q0 36 20 50.5t75 14.5
t75 -14.5t20 -50.5v-130q0 -36 -20 -50.5t-75 -14.5t-75 14.5t-20 50.5zM309 1438v130q0 36 20 50.5t75 14.5t75 -14.5t20 -50.5v-130q0 -36 -20 -50.5t-75 -14.5t-75 14.5t-20 50.5z" />
    <glyph glyph-name="Zacute" unicode="&#x179;" 
d="M978 1187q63 0 63 -62q0 -31 -10 -45l-643 -936h608q34 0 48.5 -16.5t14.5 -55.5t-14.5 -55.5t-48.5 -16.5h-766q-63 0 -63 60q0 30 14 51l641 932h-566q-34 0 -48.5 16.5t-14.5 55.5t14.5 55.5t48.5 16.5h722zM480 1308q-19 0 -42 26t-23 48t16 34l348 256q19 13 45 13
t58 -40q32 -39 31 -67q0 -28 -22 -41l-374 -219q-18 -10 -37 -10z" />
    <glyph glyph-name="zacute" unicode="&#x17a;" 
d="M1050 72q0 -39 -14.5 -55.5t-48.5 -16.5h-746q-34 0 -48.5 15t-14.5 49t14 49l604 667h-535q-34 0 -48.5 16.5t-14.5 55.5t14.5 55.5t48.5 16.5h716q34 0 48.5 -15.5t14.5 -48.5t-15 -50l-603 -666h565q34 0 48.5 -16.5t14.5 -55.5zM470 1038q-19 0 -42 26t-23 48t16 34
l348 256q19 13 45 13t58 -40q32 -39 31 -67q0 -28 -22 -41l-374 -219q-18 -10 -37 -10z" />
    <glyph glyph-name="Zdotaccent" unicode="&#x17b;" 
d="M978 1187q63 0 63 -62q0 -31 -10 -45l-643 -936h608q34 0 48.5 -16.5t14.5 -55.5t-14.5 -55.5t-48.5 -16.5h-766q-63 0 -63 60q0 30 14 51l641 932h-566q-34 0 -48.5 16.5t-14.5 55.5t14.5 55.5t48.5 16.5h722zM529 1438v130q0 36 20 50.5t75 14.5t75 -14.5t20 -50.5
v-130q0 -36 -20 -50.5t-75 -14.5t-75 14.5t-20 50.5z" />
    <glyph glyph-name="zdotaccent" unicode="&#x17c;" 
d="M1050 72q0 -39 -14.5 -55.5t-48.5 -16.5h-746q-34 0 -48.5 15t-14.5 49t14 49l604 667h-535q-34 0 -48.5 16.5t-14.5 55.5t14.5 55.5t48.5 16.5h716q34 0 48.5 -15.5t14.5 -48.5t-15 -50l-603 -666h565q34 0 48.5 -16.5t14.5 -55.5zM529 1168v130q0 36 20 50.5t75 14.5
t75 -14.5t20 -50.5v-130q0 -36 -20 -50.5t-75 -14.5t-75 14.5t-20 50.5z" />
    <glyph glyph-name="Zcaron" unicode="&#x17d;" 
d="M978 1187q63 0 63 -62q0 -31 -10 -45l-643 -936h608q34 0 48.5 -16.5t14.5 -55.5t-14.5 -55.5t-48.5 -16.5h-766q-63 0 -63 60q0 30 14 51l641 932h-566q-34 0 -48.5 16.5t-14.5 55.5t14.5 55.5t48.5 16.5h722zM303 1598q0 20 22 45q21 25 41 25t35 -12l221 -173l221 173
q15 12 35 12t41 -25q22 -25 22 -45t-16 -34l-245 -233q-22 -20 -58 -20t-58 20l-245 233q-16 14 -16 34z" />
    <glyph glyph-name="zcaron" unicode="&#x17e;" 
d="M1050 72q0 -39 -14.5 -55.5t-48.5 -16.5h-746q-34 0 -48.5 15t-14.5 49t14 49l604 667h-535q-34 0 -48.5 16.5t-14.5 55.5t14.5 55.5t48.5 16.5h716q34 0 48.5 -15.5t14.5 -48.5t-15 -50l-603 -666h565q34 0 48.5 -16.5t14.5 -55.5zM305 1328q0 20 22 45q21 25 41 25
t35 -12l221 -173l221 173q15 12 35 12t41 -25q22 -25 22 -45t-16 -34l-245 -233q-22 -20 -58 -20t-58 20l-245 233q-16 14 -16 34z" />
    <glyph glyph-name="florin" unicode="&#x192;" 
d="M1152 1235q0 -17 -6 -38q-16 -59 -57 -59q-11 0 -62 16t-130 17q-163 0 -183 -187l-14 -136h234q34 0 48.5 -16.5t14.5 -55.5t-14.5 -55.5t-48.5 -16.5h-248l-67 -663q-16 -153 -104 -236.5t-216 -83.5t-225 31q-41 13 -41 51q0 17 6 38q16 59 57 59q11 0 62 -16t130 -17
q163 0 183 187l65 650h-196q-34 0 -48.5 16.5t-14.5 55.5t14.5 55.5t48.5 16.5h211l15 149q16 153 104 236.5t216 83.5t225 -31q41 -13 41 -51z" />
    <glyph glyph-name="Scommaaccent" unicode="&#x218;" 
d="M528 -526q-69 0 -69 45q0 4 2 16l63 287q8 32 42 32h116q28 0 28 -26q0 -12 -6 -25l-117 -291q-15 -38 -59 -38zM1024 1060q0 -28 -13 -56q-20 -45 -55 -45q-15 0 -33 10q-154 92 -345 92q-119 0 -185.5 -53t-66.5 -145q0 -106 101.5 -130.5t226.5 -46.5t212 -56
q196 -78 196 -300q0 -221 -148 -286.5t-277 -65.5q-248 0 -436 116q-34 22 -34 50q1 28 19 64t42 35q24 0 42 -11q166 -106 352 -106q141 0 213.5 54.5t72.5 146.5q0 145 -125 174t-250 51t-200 57q-161 73 -161 254q0 107 78 226.5t321 119.5q242 0 417 -100q36 -21 36 -49
z" />
    <glyph glyph-name="scommaaccent" unicode="&#x219;" 
d="M524 -526q-69 0 -69 45q0 4 2 16l63 287q8 32 42 32h116q28 0 28 -26q0 -12 -6 -25l-117 -291q-15 -38 -59 -38zM178 127q0 27 18 63t40 36t39 -9q168 -94 369 -94q123 0 186.5 41.5t63.5 108.5t-81 94q-52 17 -174 28q-122 12 -184 22.5t-124 34.5q-141 56 -141 208
q0 92 73 189t301 97q229 0 402 -87q40 -21 40 -49t-10 -51q-23 -50 -54 -50q-10 0 -30 9q-163 83 -342 83q-106 0 -166 -36t-60 -105q0 -78 96 -91t229 -25t213 -41q166 -62 166 -226q0 -187 -133.5 -243t-260.5 -56q-254 0 -437 100q-39 22 -39 49z" />
    <glyph glyph-name="uni021A" unicode="&#x21a;" 
d="M534 -526q-69 0 -69 45q0 4 2 16l63 287q8 32 42 32h116q28 0 28 -26q0 -12 -6 -25l-117 -291q-15 -38 -59 -38zM1106 1115q0 -39 -14.5 -55.5t-48.5 -16.5h-354v-988q0 -35 -16.5 -50t-57.5 -15h-2q-41 0 -57.5 15t-16.5 50v988h-354q-34 0 -48.5 16.5t-14.5 55.5
t14.5 55.5t48.5 16.5h858q34 0 48.5 -16.5t14.5 -55.5z" />
    <glyph glyph-name="uni021B" unicode="&#x21b;" 
d="M588 -526q-69 0 -69 45q0 4 2 16l63 287q8 32 42 32h116q28 0 28 -26q0 -12 -6 -25l-117 -291q-15 -38 -59 -38zM1034 233q26 0 44 -36q18 -35 18 -61t-33 -46q-78 -49 -174 -80.5t-179 -31.5q-170 0 -248.5 88.5t-78.5 264.5v369h-203q-34 0 -48.5 16.5t-14.5 55.5
t14.5 55.5t48.5 16.5h203v300q0 35 17 50t58 15t58 -15t17 -50v-300h411q34 0 48.5 -16.5t14.5 -55.5t-14.5 -55.5t-48.5 -16.5h-411v-356q0 -114 40 -167t122 -53q147 0 299 99q14 10 40 10z" />
    <glyph glyph-name="uni0237" unicode="&#x237;" 
d="M903 856v-913q0 -176 -78.5 -264.5t-248.5 -88.5q-83 0 -179 31.5t-174 80.5q-33 20 -33 46t18 61q18 36 44 36t40 -10q152 -99 267 -99t154.5 53t39.5 167v824h-423q-34 0 -48.5 16.5t-14.5 55.5t14.5 55.5t48.5 16.5h510q34 0 48.5 -15.5t14.5 -52.5z" />
    <glyph glyph-name="circumflex" unicode="&#x2c6;" 
d="M933 1108q0 -20 -22 -44q-21 -25 -41 -25t-35 12l-221 173l-221 -173q-15 -12 -35 -12t-41 25q-22 24 -22 44t16 35l245 233q22 20 58 20t58 -20l245 -233q16 -15 16 -35z" />
    <glyph glyph-name="caron" unicode="&#x2c7;" 
d="M295 1328q0 20 22 45q21 25 41 25t35 -12l221 -173l221 173q15 12 35 12t41 -25q22 -25 22 -45t-16 -34l-245 -233q-22 -20 -58 -20t-58 20l-245 233q-16 14 -16 34z" />
    <glyph glyph-name="breve" unicode="&#x2d8;" 
d="M286 1326q0 46 92 46q24 0 33 -24q45 -139 204 -139t202 139q9 24 33 24q92 0 92 -46q0 -14 -1 -18q-23 -113 -106.5 -175t-220.5 -62t-220.5 62t-106.5 175q-1 4 -1 18z" />
    <glyph glyph-name="dotaccent" unicode="&#x2d9;" 
d="M709 1298v-130q0 -36 -20 -50.5t-75 -14.5t-75 14.5t-20 50.5v130q0 36 20 50.5t75 14.5t75 -14.5t20 -50.5z" />
    <glyph glyph-name="ring" unicode="&#x2da;" 
d="M500 1311q0 -52 31 -83t83 -31t83 31t31 83t-31 83t-83 31t-83 -31t-31 -83zM860 1311q0 -69 -32 -125.5t-88.5 -88.5t-125.5 -32t-125.5 32t-88.5 88.5t-32 125.5t32 125.5t88.5 88.5t125.5 32t125.5 -32t88.5 -88.5t32 -125.5z" />
    <glyph glyph-name="ogonek" unicode="&#x2db;" 
d="M768 -314q41 0 41 -86q0 -34 -34 -46q-75 -26 -166 -26t-144.5 52t-53.5 139q0 148 188 309h165q-197 -175 -197 -268t77 -93q52 -1 86 9t38 10z" />
    <glyph glyph-name="tilde" unicode="&#x2dc;" 
d="M493 1315q52 0 127 -35q74 -35 110 -35q65 0 131 68q12 12 33 12q20 1 42 -23t22 -45t-14 -38q-95 -123 -210 -123q-50 0 -126 35t-111 35q-64 0 -130 -68q-12 -12 -33 -12q-20 0 -42 24t-22 44q0 21 14 38q95 123 209 123z" />
    <glyph glyph-name="hungarumlaut" unicode="&#x2dd;" 
d="M997 1398q30 0 68 -24t38 -47q0 -24 -19 -41l-270 -233q-17 -14 -38 -14t-50 18q-29 17 -29 35t10 28l237 253q23 25 53 25zM617 1398q30 0 68 -24t38 -47q0 -24 -19 -41l-270 -233q-17 -14 -38 -14t-50 18q-29 17 -29 35t10 28l237 253q23 25 53 25z" />
    <glyph glyph-name="uni0326" unicode="&#x326;" horiz-adv-x="0" 
d="M-690 -526q-69 0 -69 45q0 4 2 16l63 287q8 32 42 32h116q28 0 28 -26q0 -12 -6 -25l-117 -291q-15 -38 -59 -38z" />
    <glyph glyph-name="Delta" unicode="&#x394;" 
d="M615 1022l-294 -886h586l-290 886h-2zM210 0q-63 0 -63 60q0 28 6 46l361 1038q23 65 102 65t102 -65l357 -1038q5 -15 5 -45q0 -61 -63 -61h-807z" />
    <glyph glyph-name="Omega" unicode="&#x3a9;" 
d="M1140 636q0 -161 -65 -286.5t-168 -205.5h177q34 0 48.5 -16.5t14.5 -55.5t-14.5 -55.5t-48.5 -16.5h-334q-34 0 -48.5 18t-14.5 65t17 59q278 177 278 481q0 133 -45.5 232t-129 152.5t-193.5 53.5t-193.5 -53.5t-129 -152.5t-45.5 -243t71.5 -264t206.5 -206
q17 -12 17 -59t-14.5 -65t-48.5 -18h-334q-34 0 -48.5 16.5t-14.5 55.5t14.5 55.5t48.5 16.5h177q-103 80 -168 205.5t-65 286.5t65.5 294t185 206t275.5 73t275.5 -73t185 -206t65.5 -294z" />
    <glyph glyph-name="mu" unicode="&#x3bc;" 
d="M368 319q0 -193 182 -193q76 0 150.5 51t122 137.5t47.5 187.5v367q0 35 16.5 50t57.5 15h2q41 0 57.5 -15t16.5 -50v-814q0 -35 -15 -50t-54 -15h-2q-39 0 -54 15t-15 50v143q-63 -98 -153.5 -159t-190.5 -61t-168 47v-358q0 -35 -16.5 -50t-57.5 -15h-2q-41 0 -57.5 15
t-16.5 50v1202q0 35 16.5 50t57.5 15h2q41 0 57.5 -15t16.5 -50v-550z" />
    <glyph glyph-name="pi" unicode="&#x3c0;" 
d="M1130 852q0 -39 -14.5 -55.5t-48.5 -16.5h-87v-725q0 -35 -16.5 -50t-57.5 -15h-2q-41 0 -57.5 15t-16.5 50v725h-432v-725q0 -35 -16.5 -50t-57.5 -15h-2q-41 0 -57.5 15t-16.5 50v725h-87q-34 0 -48.5 16.5t-14.5 55.5t14.5 55.5t48.5 16.5h906q34 0 48.5 -16.5
t14.5 -55.5z" />
    <glyph glyph-name="Wgrave" unicode="&#x1e80;" 
d="M1065 1197q88 0 88 -57q0 -12 -1 -18l-149 -1079q-5 -36 -25.5 -50.5t-60.5 -14.5q-77 0 -100 65l-207 586l-207 -586q-23 -65 -100 -65q-40 0 -60.5 14.5t-25.5 50.5l-149 1079q-1 6 -1 18q0 57 88 57q30 0 44 -13.5t18 -44.5l112 -881l207 587q14 40 74 40t74 -40
l207 -587l112 881q4 31 18 44.5t44 13.5zM781 1382q0 -22 -23 -48t-42 -26t-37 10l-374 219q-22 13 -22 41q-1 28 31 67q32 40 58 40t45 -13l348 -256q16 -12 16 -34z" />
    <glyph glyph-name="wgrave" unicode="&#x1e81;" 
d="M1170 882q0 -18 -4 -33l-199 -806q-9 -36 -27 -50.5t-58 -14.5q-78 0 -99 65l-169 512l-169 -512q-21 -65 -102 -65q-38 0 -55.5 14.5t-26.5 50.5l-199 806q-4 15 -4 33q0 37 60 48q16 4 36 4q39 0 51 -51l159 -673l175 533q16 47 75 47t75 -47l175 -533l159 673
q11 51 54 51q16 0 33 -4q60 -11 60 -48zM791 1112q0 -22 -23 -48t-42 -26t-37 10l-374 219q-22 13 -22 41q-1 28 31 67q32 40 58 40t45 -13l348 -256q16 -12 16 -34z" />
    <glyph glyph-name="Wacute" unicode="&#x1e82;" 
d="M1065 1197q88 0 88 -57q0 -12 -1 -18l-149 -1079q-5 -36 -25.5 -50.5t-60.5 -14.5q-77 0 -100 65l-207 586l-207 -586q-23 -65 -100 -65q-40 0 -60.5 14.5t-25.5 50.5l-149 1079q-1 6 -1 18q0 57 88 57q30 0 44 -13.5t18 -44.5l112 -881l207 587q14 40 74 40t74 -40
l207 -587l112 881q4 31 18 44.5t44 13.5zM856 1685q26 0 58 -40q32 -39 31 -67q0 -28 -22 -41l-374 -219q-18 -10 -37 -10t-42 26t-23 48t16 34l348 256q19 13 45 13z" />
    <glyph glyph-name="wacute" unicode="&#x1e83;" 
d="M1170 882q0 -18 -4 -33l-199 -806q-9 -36 -27 -50.5t-58 -14.5q-78 0 -99 65l-169 512l-169 -512q-21 -65 -102 -65q-38 0 -55.5 14.5t-26.5 50.5l-199 806q-4 15 -4 33q0 37 60 48q16 4 36 4q39 0 51 -51l159 -673l175 533q16 47 75 47t75 -47l175 -533l159 673
q11 51 54 51q16 0 33 -4q60 -11 60 -48zM846 1415q26 0 58 -40q32 -39 31 -67q0 -28 -22 -41l-374 -219q-18 -10 -37 -10t-42 26t-23 48t16 34l348 256q19 13 45 13z" />
    <glyph glyph-name="Wdieresis" unicode="&#x1e84;" 
d="M1065 1197q88 0 88 -57q0 -12 -1 -18l-149 -1079q-5 -36 -25.5 -50.5t-60.5 -14.5q-77 0 -100 65l-207 586l-207 -586q-23 -65 -100 -65q-40 0 -60.5 14.5t-25.5 50.5l-149 1079q-1 6 -1 18q0 57 88 57q30 0 44 -13.5t18 -44.5l112 -881l207 587q14 40 74 40t74 -40
l207 -587l112 881q4 31 18 44.5t44 13.5zM919 1568v-130q0 -36 -20 -50.5t-75 -14.5t-75 14.5t-20 50.5v130q0 36 20 50.5t75 14.5t75 -14.5t20 -50.5zM499 1568v-130q0 -36 -20 -50.5t-75 -14.5t-75 14.5t-20 50.5v130q0 36 20 50.5t75 14.5t75 -14.5t20 -50.5z" />
    <glyph glyph-name="wdieresis" unicode="&#x1e85;" 
d="M1170 882q0 -18 -4 -33l-199 -806q-9 -36 -27 -50.5t-58 -14.5q-78 0 -99 65l-169 512l-169 -512q-21 -65 -102 -65q-38 0 -55.5 14.5t-26.5 50.5l-199 806q-4 15 -4 33q0 37 60 48q16 4 36 4q39 0 51 -51l159 -673l175 533q16 47 75 47t75 -47l175 -533l159 673
q11 51 54 51q16 0 33 -4q60 -11 60 -48zM919 1298v-130q0 -36 -20 -50.5t-75 -14.5t-75 14.5t-20 50.5v130q0 36 20 50.5t75 14.5t75 -14.5t20 -50.5zM499 1298v-130q0 -36 -20 -50.5t-75 -14.5t-75 14.5t-20 50.5v130q0 36 20 50.5t75 14.5t75 -14.5t20 -50.5z" />
    <glyph glyph-name="Ygrave" unicode="&#x1ef2;" 
d="M1103 1135q0 -16 -15 -39l-399 -609v-432q0 -35 -16.5 -50t-57.5 -15h-2q-41 0 -57.5 15t-16.5 50v432l-399 609q-15 23 -14.5 46.5t40.5 40.5q40 18 64 18t43 -29l341 -526l341 526q19 29 43 29q24 -1 53 -13t40.5 -24.5t11.5 -28.5zM285 1578q-1 28 31 67q32 40 58 40
t45 -13l348 -256q16 -12 16 -34t-23 -48t-42 -26t-37 10l-374 219q-22 13 -22 41z" />
    <glyph glyph-name="ygrave" unicode="&#x1ef3;" 
d="M1104 869q0 -17 -10 -36l-597 -1191q-21 -42 -45 -42t-51 12q-52 22 -52 55q0 16 10 36l171 340l-397 790q-10 19 -10 35q0 34 54 56q27 12 51 12t46 -42l341 -683l339 683q22 42 46 42t51 -12q53 -22 53 -55zM313 1308q-1 28 31 67q32 40 58 40t45 -13l348 -256
q16 -12 16 -34t-23 -48t-42 -26t-37 10l-374 219q-22 13 -22 41z" />
    <glyph glyph-name="uni2011" unicode="&#x2011;" 
d="M1058 582q0 -39 -14.5 -55.5t-48.5 -16.5h-762q-34 0 -48.5 16.5t-14.5 55.5t14.5 55.5t48.5 16.5h762q34 0 48.5 -16.5t14.5 -55.5z" />
    <glyph glyph-name="endash" unicode="&#x2013;" 
d="M1058 582q0 -39 -14.5 -55.5t-48.5 -16.5h-762q-34 0 -48.5 16.5t-14.5 55.5t14.5 55.5t48.5 16.5h762q34 0 48.5 -16.5t14.5 -55.5z" />
    <glyph glyph-name="emdash" unicode="&#x2014;" 
d="M1258 582q0 -39 -14.5 -55.5t-48.5 -16.5h-1162q-34 0 -48.5 16.5t-14.5 55.5t14.5 55.5t48.5 16.5h1162q34 0 48.5 -16.5t14.5 -55.5z" />
    <glyph glyph-name="quoteleft" unicode="&#x2018;" 
d="M457 752q-33 0 -33 22.5t7 36.5l208 457q17 39 83 39t66 -47q0 -4 -2 -16l-97 -454q-8 -38 -49 -38h-183z" />
    <glyph glyph-name="quoteright" unicode="&#x2019;" 
d="M768 1269q33 0 33 -22.5t-7 -36.5l-208 -457q-18 -39 -84 -39t-65 47q0 4 2 16l97 454q8 38 49 38h183z" />
    <glyph glyph-name="quotesinglbase" unicode="&#x201a;" 
d="M768 294q33 0 33 -22.5t-7 -36.5l-208 -457q-18 -39 -84 -39t-65 47q0 4 2 16l97 454q8 38 49 38h183z" />
    <glyph glyph-name="quotedblleft" unicode="&#x201c;" 
d="M702 752q-33 0 -33 22.5t7 36.5l208 457q18 39 84 39t65 -47q0 -4 -2 -16l-97 -454q-8 -38 -49 -38h-183zM212 752q-33 0 -33 22.5t7 36.5l208 457q18 39 84 39t65 -47q0 -4 -2 -16l-97 -454q-8 -38 -49 -38h-183z" />
    <glyph glyph-name="quotedblright" unicode="&#x201d;" 
d="M1013 1269q33 0 33 -22.5t-7 -36.5l-208 -457q-17 -39 -83 -39t-66 47q0 4 2 16l97 454q8 38 49 38h183zM523 1269q33 0 33 -22.5t-7 -36.5l-208 -457q-17 -39 -83 -39t-66 47q0 4 2 16l97 454q8 38 49 38h183z" />
    <glyph glyph-name="quotedblbase" unicode="&#x201e;" 
d="M1013 294q33 0 33 -22.5t-7 -36.5l-208 -457q-17 -39 -83 -39t-66 47q0 4 2 16l97 454q8 38 49 38h183zM523 294q33 0 33 -22.5t-7 -36.5l-208 -457q-17 -39 -83 -39t-66 47q0 4 2 16l97 454q8 38 49 38h183z" />
    <glyph glyph-name="dagger" unicode="&#x2020;" 
d="M938 852q0 -39 -14.5 -55.5t-48.5 -16.5h-189v-436q0 -34 -16.5 -48.5t-55.5 -14.5t-55.5 14.5t-16.5 48.5v436h-189q-34 0 -48.5 16.5t-14.5 55.5t14.5 55.5t48.5 16.5h189v222q0 34 16.5 48.5t55.5 14.5t55.5 -14.5t16.5 -48.5v-222h189q34 0 48.5 -16.5t14.5 -55.5z
" />
    <glyph glyph-name="daggerdbl" unicode="&#x2021;" 
d="M938 528q0 -39 -14.5 -55.5t-48.5 -16.5h-189v-172q0 -34 -16.5 -48.5t-55.5 -14.5t-55.5 14.5t-16.5 48.5v172h-189q-34 0 -48.5 16.5t-14.5 55.5t14.5 55.5t48.5 16.5h189v230h-189q-34 0 -48.5 16.5t-14.5 55.5t14.5 55.5t48.5 16.5h189v172q0 34 16.5 48.5t55.5 14.5
t55.5 -14.5t16.5 -48.5v-172h189q34 0 48.5 -16.5t14.5 -55.5t-14.5 -55.5t-48.5 -16.5h-189v-230h189q34 0 48.5 -16.5t14.5 -55.5z" />
    <glyph glyph-name="bullet" unicode="&#x2022;" 
d="M846 755v-302q0 -52 -54.5 -75t-177.5 -23t-177.5 23t-54.5 75v302q0 52 54.5 75t177.5 23t177.5 -23t54.5 -75z" />
    <glyph glyph-name="ellipsis" unicode="&#x2026;" 
d="M1014 230q105 0 105 -53v-134q0 -53 -105 -53t-105 53v134q0 53 105 53zM614 230q105 0 105 -53v-134q0 -53 -105 -53t-105 53v134q0 53 105 53zM214 230q105 0 105 -53v-134q0 -53 -105 -53t-105 53v134q0 53 105 53z" />
    <glyph glyph-name="perthousand" unicode="&#x2030;" 
d="M1178 252q0 -39 19.5 -72t52.5 -52.5t72 -19.5t72 19.5t52.5 52.5t19.5 72t-19.5 72t-52.5 52.5t-72 19.5t-72 -19.5t-52.5 -52.5t-19.5 -72zM760 252q0 -39 19.5 -72t52.5 -52.5t72 -19.5t72 19.5t52.5 52.5t19.5 72t-19.5 72t-52.5 52.5t-72 19.5t-72 -19.5
t-52.5 -52.5t-19.5 -72zM1322 526q74 0 137 -37t100 -100t37 -137t-37 -137t-100 -100t-137 -37q-131 0 -209 104q-79 -104 -209 -104q-74 0 -137 37t-100 100t-37 137t37 137t100 100t137 37q130 0 209 -105q77 105 209 105zM180 935q0 -39 19.5 -72t52.5 -52.5t72 -19.5
t72 19.5t52.5 52.5t19.5 72t-19.5 72t-52.5 52.5t-72 19.5t-72 -19.5t-52.5 -52.5t-19.5 -72zM1050 1081q24 0 48 -27q24 -28 25 -50q0 -22 -24 -45l-874 -830q-23 -22 -47 -22t-48 27t-25 50q0 23 24 45l874 830q23 22 47 22zM598 935q0 -74 -37 -137t-100 -100t-137 -37
t-137 37t-100 100t-37 137t37 137t100 100t137 37t137 -37t100 -100t37 -137z" />
    <glyph glyph-name="minute" unicode="&#x2032;" horiz-adv-x="600" 
 />
    <glyph glyph-name="second" unicode="&#x2033;" horiz-adv-x="600" 
 />
    <glyph glyph-name="guilsinglleft" unicode="&#x2039;" 
d="M744 946q24 0 56 -28t31 -47q0 -20 -14 -36l-246 -271l246 -271q14 -16 14 -36q1 -19 -31 -47t-56 -28t-36 15l-306 343q-9 11 -9 25t9 23l306 343q12 15 36 15z" />
    <glyph glyph-name="guilsinglright" unicode="&#x203a;" 
d="M397 871q-1 19 31 47t56 28t36 -15l306 -343q9 -9 9 -23t-9 -25l-306 -343q-12 -15 -36 -15t-56 28t-31 47q0 20 14 36l246 271l-246 271q-14 16 -14 36z" />
    <glyph glyph-name="fraction" unicode="&#x2044;" 
d="M1066 854q16 0 34 -23t17 -43q0 -20 -14 -27l-918 -561q-7 -4 -23 -4t-34 24t-17.5 42t14.5 27l918 561q7 4 23 4z" />
    <glyph glyph-name="uni2074" unicode="&#x2074;" 
d="M672 832l6 319l-265 -319h259zM916 832q48 0 48 -62.5t-48 -62.5h-109v-184q0 -48 -67.5 -48t-67.5 48v184h-376q-54 0 -54 78q0 30 17 53l379 452q36 44 76 44q39 0 66 -16t27 -40v-446h109z" />
    <glyph glyph-name="franc" unicode="&#x20a3;" 
d="M245 1119q0 68 63 68h669q34 0 48.5 -16.5t14.5 -55.5t-14.5 -55.5t-48.5 -16.5h-582v-339h467q34 0 48.5 -16.5t14.5 -55.5t-14.5 -55.5t-48.5 -16.5h-467v-186h290q34 0 48.5 -16.5t14.5 -55.5t-14.5 -55.5t-48.5 -16.5h-290v-175q0 -35 -16.5 -50t-57.5 -15h-2
q-41 0 -57.5 15t-16.5 50v175h-132q-34 0 -48.5 16.5t-14.5 55.5t14.5 55.5t48.5 16.5h132v745z" />
    <glyph glyph-name="uni20A9" unicode="&#x20a9;" 
d="M936 610h-169l124 -352zM453 610h-169l45 -352zM1065 1197q88 0 88 -57q0 -12 -1 -18l-51 -368h94q34 0 48.5 -16.5t14.5 -55.5t-14.5 -55.5t-48.5 -16.5h-114l-78 -567q-5 -36 -25.5 -50.5t-60.5 -14.5q-77 0 -100 65l-207 586l-207 -586q-23 -65 -100 -65
q-40 0 -60.5 14.5t-25.5 50.5l-78 567h-106q-34 0 -48.5 16.5t-14.5 55.5t14.5 55.5t48.5 16.5h86l-51 368q-1 6 -1 18q0 57 88 57q30 0 44 -13.5t18 -44.5l49 -385h238l32 91q14 40 74 40t74 -40l32 -91h238l49 385q4 31 18 44.5t44 13.5z" />
    <glyph glyph-name="Euro" unicode="&#x20ac;" 
d="M1114 122q0 -26 -37 -48q-169 -96 -355 -96t-304.5 103.5t-162.5 288.5h-102q-34 0 -48.5 16.5t-14.5 55.5t14.5 55.5t48.5 16.5h80q-3 40 -3 82t3 84h-80q-34 0 -48.5 16.5t-14.5 55.5t14.5 55.5t48.5 16.5h103q46 182 164 283.5t303 101.5t354 -96q37 -23 37 -49
t-17 -62t-40 -37q-23 0 -43 11q-141 85 -277 85q-135 0 -210.5 -61.5t-111.5 -175.5h350q34 0 48.5 -16.5t14.5 -55.5t-14.5 -55.5t-48.5 -16.5h-377q-4 -36 -4 -82t3 -84h378q34 0 48.5 -16.5t14.5 -55.5t-14.5 -55.5t-48.5 -16.5h-352q35 -117 111.5 -180.5t174.5 -63.5
q174 0 315 85q20 11 43 11t40 -36q17 -38 17 -64z" />
    <glyph glyph-name="trademark" unicode="&#x2122;" 
d="M568 1252q0 -33 -14.5 -46t-48.5 -13h-129v-380q0 -35 -14 -50t-48 -15t-48 15t-14 50v380h-129q-34 0 -48.5 13t-14.5 46t14.5 46.5t48.5 13.5h382q34 0 48.5 -13.5t14.5 -46.5zM1214 748q-34 0 -47.5 14.5t-15.5 50.5l-18 259l-93 -192q-25 -48 -73 -48t-71 48l-94 192
l-17 -259q-2 -36 -15.5 -50.5t-47.5 -14.5t-46.5 15t-10.5 50l30 444q2 35 18.5 50t58.5 15t54 -26l142 -299l142 299q12 26 54 26t58.5 -15t18.5 -50l30 -444q2 -35 -10.5 -50t-46.5 -15z" />
    <glyph glyph-name="partialdiff" unicode="&#x2202;" 
d="M321 324q0 -84 56.5 -141t156.5 -57q204 1 300 227q-19 101 -87.5 165.5t-158.5 64.5t-147.5 -31t-88.5 -87.5t-31 -140.5zM1049 764q0 -281 -114 -515q-132 -272 -409 -272q-107 0 -188.5 46t-126 127.5t-44.5 191.5t51.5 200t141.5 139.5t202 49.5t196.5 -53.5
t126.5 -151.5q23 110 23 198q0 156 -68 243t-199 87q-64 0 -108 -12t-57 -13q-29 0 -51 55q-9 24 -9 48t31 38q91 39 199 39t200 -50.5t147.5 -155.5t55.5 -239z" />
    <glyph glyph-name="product" unicode="&#x220f;" 
d="M1033 1119v-1064q0 -35 -16.5 -50t-57.5 -15h-2q-41 0 -57.5 15t-16.5 50v988h-538v-988q0 -35 -16.5 -50t-57.5 -15h-2q-41 0 -57.5 15t-16.5 50v1064q0 37 14.5 52.5t48.5 15.5h712q34 0 48.5 -15.5t14.5 -52.5z" />
    <glyph glyph-name="summation" unicode="&#x2211;" 
d="M614 -838h-1v1h1v-1zM230 0q-65 0 -65 66q0 34 16 55l389 486l-373 463q-12 14 -12 50t15.5 51.5t49.5 15.5h707q34 0 48.5 -16.5t14.5 -55.5t-14.5 -55.5t-48.5 -16.5h-555l328 -405q11 -14 11 -30t-11 -31l-348 -433h595q34 0 48.5 -16.5t14.5 -55.5t-14.5 -55.5
t-48.5 -16.5h-747zM614 1796h-1v1h1v-1z" />
    <glyph glyph-name="minus" unicode="&#x2212;" 
d="M1058 582q0 -39 -14.5 -55.5t-48.5 -16.5h-762q-34 0 -48.5 16.5t-14.5 55.5t14.5 55.5t48.5 16.5h762q34 0 48.5 -16.5t14.5 -55.5z" />
    <glyph glyph-name="radical" unicode="&#x221a;" 
d="M1104 1137q0 -16 -6 -34l-379 -1060q-24 -65 -105.5 -65t-108.5 65l-193 467h-133q-34 0 -48.5 16.5t-14.5 55.5t14.5 55.5t48.5 16.5h192q44 0 57 -32l181 -440l344 969q15 46 54 46q14 0 40 -8q57 -19 57 -52z" />
    <glyph glyph-name="infinity" unicode="&#x221e;" 
d="M914 427q70 0 109 44t39 111t-39 111t-109 44t-123.5 -40.5t-106.5 -114.5q53 -75 106.5 -115t123.5 -40zM166 582q0 -67 39 -111t109 -44t123 40t107 115q-55 75 -107.5 115t-122.5 40t-109 -44t-39 -111zM1200 582q0 -81 -36.5 -147t-100.5 -104t-155 -38t-160 49.5
t-134 138.5q-65 -89 -134 -138.5t-160 -49.5t-155 38t-100.5 104t-36.5 147t36.5 147t100.5 104t155 38t160.5 -49.5t133.5 -139.5q64 90 133.5 139.5t160.5 49.5t155 -38t100.5 -104t36.5 -147z" />
    <glyph glyph-name="integral" unicode="&#x222b;" 
d="M1223 1419q0 -25 -6 -45q-18 -58 -52 -58q-4 0 -18 4q-132 51 -238 51t-163 -71.5t-57 -202.5v-1099q0 -254 -127 -331t-220 -77q-164 0 -299 58q-38 15 -38 50q0 15 6 35q18 58 52 58q4 0 18 -4q132 -51 238 -51t163 71.5t57 202.5v1099q0 254 127 331t220 77
q164 0 299 -58q38 -15 38 -40z" />
    <glyph glyph-name="approxequal" unicode="&#x2248;" 
d="M810 387q85 0 155 84q16 19 38.5 19t48.5 -20t26 -42q0 -21 -7 -32q-47 -76 -115 -121.5t-136 -45.5t-118 21.5t-111 57.5t-98 52.5t-75 16.5q-85 0 -155 -84q-16 -19 -38.5 -19t-48.5 20t-26 42q0 21 7 32q47 76 115 121.5t136 45.5t118.5 -21t111.5 -58t97 -53t75 -16z
M810 787q85 0 155 84q16 19 38.5 19t48.5 -20t26 -42q0 -21 -7 -32q-47 -76 -115 -121.5t-136 -45.5t-118 21.5t-111 57.5t-98 52.5t-75 16.5q-85 0 -155 -84q-16 -19 -38.5 -19t-48.5 20t-26 42q0 21 7 32q47 76 115 121.5t136 45.5t118.5 -21t111.5 -58t97 -53t75 -16z
" />
    <glyph glyph-name="notequal" unicode="&#x2260;" 
d="M1058 382q0 -39 -14.5 -55.5t-48.5 -16.5h-453l-122 -207q-21 -35 -44 -35q-22 0 -54 18t-32 42q0 22 14 45l81 137h-152q-34 0 -48.5 16.5t-14.5 55.5t14.5 55.5t48.5 16.5h226l152 256h-378q-34 0 -48.5 16.5t-14.5 55.5t14.5 55.5t48.5 16.5h452l123 207q21 35 44 35
q22 0 54 -18t32 -42q0 -22 -14 -45l-81 -137h152q34 0 48.5 -16.5t14.5 -55.5t-14.5 -55.5t-48.5 -16.5h-227l-151 -256h378q34 0 48.5 -16.5t14.5 -55.5z" />
    <glyph glyph-name="lessequal" unicode="&#x2264;" 
d="M1058 182q0 -39 -14.5 -55.5t-48.5 -16.5h-762q-34 0 -48.5 16.5t-14.5 55.5t14.5 55.5t48.5 16.5h762q34 0 48.5 -16.5t14.5 -55.5zM991 1131q38 0 58 -52q8 -19 8 -37q0 -38 -48 -55l-613 -232l613 -232q48 -17 48 -55q0 -18 -8 -37q-20 -52 -58 -52q-14 0 -31 6
l-738 290q-52 20 -52 80t52 80l738 290q17 6 31 6z" />
    <glyph glyph-name="greaterequal" unicode="&#x2265;" 
d="M1058 182q0 -39 -14.5 -55.5t-48.5 -16.5h-762q-34 0 -48.5 16.5t-14.5 55.5t14.5 55.5t48.5 16.5h762q34 0 48.5 -16.5t14.5 -55.5zM1058 755q0 -60 -52 -80l-738 -290q-17 -6 -31 -6q-38 0 -58 52q-8 19 -8 37q0 38 48 55l613 232l-613 232q-48 17 -48 55q0 18 8 37
q20 52 58 52q15 0 31 -6l738 -290q52 -20 52 -80z" />
    <glyph glyph-name="lozenge" unicode="&#x25ca;" 
d="M368 593l246 -435l246 435l-246 436zM1022 593q0 -17 -8 -30l-294 -520q-20 -35 -42.5 -50t-63.5 -15t-63.5 15t-42.5 50l-295 520q-8 16 -8 30t8 30l295 521q20 35 42.5 50t63.5 15t63.5 -15t42.5 -50l294 -521q8 -13 8 -30z" />
    <glyph glyph-name="uniFB01" unicode="&#xfb01;" horiz-adv-x="2456" 
d="M2325 72q0 -39 -14.5 -55.5t-48.5 -16.5h-784q-34 0 -48.5 16.5t-14.5 55.5t14.5 55.5t48.5 16.5h313v636h-253q-34 0 -48.5 16.5t-14.5 55.5t14.5 55.5t48.5 16.5h340q34 0 48.5 -15.5t14.5 -52.5v-712h321q34 0 48.5 -16.5t14.5 -55.5zM1115 1201q0 -8 -4 -28
q-14 -56 -52 -56q-9 0 -22 5q-127 49 -237 49q-202 0 -202 -217v-110h346q34 0 48.5 -16.5t14.5 -55.5t-14.5 -55.5t-48.5 -16.5h-346v-645q0 -35 -16.5 -50t-57.5 -15h-2q-41 0 -57.5 15t-16.5 50v645h-198q-34 0 -48.5 16.5t-14.5 55.5t14.5 55.5t48.5 16.5h198v123
q0 165 93 257.5t243 92.5t282 -51q49 -19 49 -65zM1751 1168v130q0 36 20 50.5t75 14.5t75 -14.5t20 -50.5v-130q0 -36 -20 -50.5t-75 -14.5t-75 14.5t-20 50.5z" />
    <glyph glyph-name="uniFB02" unicode="&#xfb02;" horiz-adv-x="2456" 
d="M2315 72q0 -39 -14.5 -55.5t-48.5 -16.5h-784q-34 0 -48.5 16.5t-14.5 55.5t14.5 55.5t48.5 16.5h313v1024h-273q-34 0 -48.5 16.5t-14.5 55.5t14.5 55.5t48.5 16.5h360q34 0 48.5 -15.5t14.5 -52.5v-1100h321q34 0 48.5 -16.5t14.5 -55.5zM1115 1201q0 -8 -4 -28
q-14 -56 -52 -56q-9 0 -22 5q-127 49 -237 49q-202 0 -202 -217v-110h346q34 0 48.5 -16.5t14.5 -55.5t-14.5 -55.5t-48.5 -16.5h-346v-645q0 -35 -16.5 -50t-57.5 -15h-2q-41 0 -57.5 15t-16.5 50v645h-198q-34 0 -48.5 16.5t-14.5 55.5t14.5 55.5t48.5 16.5h198v123
q0 165 93 257.5t243 92.5t282 -51q49 -19 49 -65z" />
    <glyph glyph-name="i.loclTRK" 
d="M713 856v-712h321q34 0 48.5 -16.5t14.5 -55.5t-14.5 -55.5t-48.5 -16.5h-784q-34 0 -48.5 16.5t-14.5 55.5t14.5 55.5t48.5 16.5h313v636h-253q-34 0 -48.5 16.5t-14.5 55.5t14.5 55.5t48.5 16.5h340q34 0 48.5 -15.5t14.5 -52.5zM713 1298v-130q0 -36 -20 -50.5
t-75 -14.5t-75 14.5t-20 50.5v130q0 36 20 50.5t75 14.5t75 -14.5t20 -50.5z" />
    <glyph glyph-name="colon.alt" 
d="M1049 237v-184q0 -34 -31.5 -48.5t-103.5 -14.5t-103.5 14.5t-31.5 48.5v184q0 34 31.5 48.5t103.5 14.5t103.5 -14.5t31.5 -48.5zM1049 871v-184q0 -34 -31.5 -48.5t-103.5 -14.5t-103.5 14.5t-31.5 48.5v184q0 34 31.5 48.5t103.5 14.5t103.5 -14.5t31.5 -48.5z" />
    <glyph glyph-name="comma.alt" 
d="M1014 294q35 0 35 -34q0 -14 -7 -29l-212 -484q-18 -41 -88 -41t-70 50q0 4 2 16l94 482q8 40 52 40h194z" />
    <glyph glyph-name="period.alt" 
d="M1049 237v-184q0 -34 -31.5 -48.5t-103.5 -14.5t-103.5 14.5t-31.5 48.5v184q0 34 31.5 48.5t103.5 14.5t103.5 -14.5t31.5 -48.5z" />
    <glyph glyph-name="semicolon.alt" 
d="M1034 294q35 0 35 -34q0 -14 -7 -29l-212 -484q-18 -41 -88 -41t-70 50q0 4 2 16l94 482q8 40 52 40h194zM1049 871v-184q0 -34 -31.5 -48.5t-103.5 -14.5t-103.5 14.5t-31.5 48.5v184q0 34 31.5 48.5t103.5 14.5t103.5 -14.5t31.5 -48.5z" />
    <glyph glyph-name="ellipsis.alt1" 
d="M1514 316q46 0 84.5 -23t61.5 -61.5t23 -84.5t-23 -84.5t-61.5 -61.5t-84.5 -23t-84.5 23t-61.5 61.5t-23 84.5t23 84.5t61.5 61.5t84.5 23zM614 316q46 0 84.5 -23t61.5 -61.5t23 -84.5t-23 -84.5t-61.5 -61.5t-84.5 -23t-84.5 23t-61.5 61.5t-23 84.5t23 84.5
t61.5 61.5t84.5 23zM-286 316q46 0 84.5 -23t61.5 -61.5t23 -84.5t-23 -84.5t-61.5 -61.5t-84.5 -23t-84.5 23t-61.5 61.5t-23 84.5t23 84.5t61.5 61.5t84.5 23z" />
    <glyph glyph-name="ellipsis.alt2" horiz-adv-x="3684" 
d="M2742 316q46 0 84.5 -23t61.5 -61.5t23 -84.5t-23 -84.5t-61.5 -61.5t-84.5 -23t-84.5 23t-61.5 61.5t-23 84.5t23 84.5t61.5 61.5t84.5 23zM1842 316q46 0 84.5 -23t61.5 -61.5t23 -84.5t-23 -84.5t-61.5 -61.5t-84.5 -23t-84.5 23t-61.5 61.5t-23 84.5t23 84.5
t61.5 61.5t84.5 23zM942 316q46 0 84.5 -23t61.5 -61.5t23 -84.5t-23 -84.5t-61.5 -61.5t-84.5 -23t-84.5 23t-61.5 61.5t-23 84.5t23 84.5t61.5 61.5t84.5 23z" />
    <glyph glyph-name="ellipsis.alt3" 
d="M1628 111q0 -36 -18 -66.5t-48.5 -48.5t-66.5 -18t-66.5 18t-48.5 48.5t-18 66.5t18 66.5t48.5 48.5t66.5 18t66.5 -18t48.5 -48.5t18 -66.5zM1087 111q0 -36 -18 -66.5t-48.5 -48.5t-66.5 -18t-66.5 18t-48.5 48.5t-18 66.5t18 66.5t48.5 48.5t66.5 18t66.5 -18
t48.5 -48.5t18 -66.5zM546 111q0 -36 -18 -66.5t-48.5 -48.5t-66.5 -18t-66.5 18t-48.5 48.5t-18 66.5t18 66.5t48.5 48.5t66.5 18t66.5 -18t48.5 -48.5t18 -66.5z" />
    <glyph glyph-name="ellipsis.alt4" 
d="M1148 111q0 -36 -18 -66.5t-48.5 -48.5t-66.5 -18t-66.5 18t-48.5 48.5t-18 66.5t18 66.5t48.5 48.5t66.5 18t66.5 -18t48.5 -48.5t18 -66.5zM467 111q0 -36 -18 -66.5t-48.5 -48.5t-66.5 -18t-66.5 18t-48.5 48.5t-18 66.5t18 66.5t48.5 48.5t66.5 18t66.5 -18
t48.5 -48.5t18 -66.5zM-214 111q0 -36 -18 -66.5t-48.5 -48.5t-66.5 -18t-66.5 18t-48.5 48.5t-18 66.5t18 66.5t48.5 48.5t66.5 18t66.5 -18t48.5 -48.5t18 -66.5z" />
    <glyph glyph-name="ellipsis.alt5" horiz-adv-x="3684" 
d="M3042 316q46 0 84.5 -23t61.5 -61.5t23 -84.5t-23 -84.5t-61.5 -61.5t-84.5 -23t-84.5 23t-61.5 61.5t-23 84.5t23 84.5t61.5 61.5t84.5 23zM1992 316q46 0 84.5 -23t61.5 -61.5t23 -84.5t-23 -84.5t-61.5 -61.5t-84.5 -23t-84.5 23t-61.5 61.5t-23 84.5t23 84.5
t61.5 61.5t84.5 23zM942 316q46 0 84.5 -23t61.5 -61.5t23 -84.5t-23 -84.5t-61.5 -61.5t-84.5 -23t-84.5 23t-61.5 61.5t-23 84.5t23 84.5t61.5 61.5t84.5 23z" />
    <glyph glyph-name="hyphen.alt" 
d="M958 582q0 -44 -14.5 -61t-48.5 -17h-562q-34 0 -48.5 17t-14.5 61t14.5 61t48.5 17h562q34 0 48.5 -17t14.5 -61z" />
    <glyph glyph-name="emdash.alt1" 
d="M1658 582q0 -39 -14.5 -55.5t-48.5 -16.5h-1962q-34 0 -48.5 16.5t-14.5 55.5t14.5 55.5t48.5 16.5h1962q34 0 48.5 -16.5t14.5 -55.5z" />
    <glyph glyph-name="emdash.alt2" horiz-adv-x="2456" 
d="M2472 582q0 -39 -14.5 -55.5t-48.5 -16.5h-2362q-34 0 -48.5 16.5t-14.5 55.5t14.5 55.5t48.5 16.5h2362q34 0 48.5 -16.5t14.5 -55.5z" />
    <glyph glyph-name="emdash.alt3" horiz-adv-x="2456" 
d="M2172 582q0 -39 -14.5 -55.5t-48.5 -16.5h-1762q-34 0 -48.5 16.5t-14.5 55.5t14.5 55.5t48.5 16.5h1762q34 0 48.5 -16.5t14.5 -55.5z" />
    <glyph glyph-name="emdash.alt4" 
d="M1458 582q0 -39 -14.5 -55.5t-48.5 -16.5h-1562q-34 0 -48.5 16.5t-14.5 55.5t14.5 55.5t48.5 16.5h1562q34 0 48.5 -16.5t14.5 -55.5z" />
    <glyph glyph-name="caron.alt" 
d="M494 1312q27 0 27 -27q0 -9 -5 -24l-134 -363q-12 -36 -72 -36t-60 42q0 4 2 14l82 362q8 32 42 32h118z" />
    <glyph glyph-name="acute.case" 
d="M826 1685q26 0 58 -40q32 -39 31 -67q0 -28 -22 -41l-374 -219q-18 -10 -37 -10t-42 26t-23 48t16 34l348 256q19 13 45 13z" />
    <glyph glyph-name="breve.case" 
d="M286 1596q0 46 92 46q24 0 33 -24q45 -139 204 -139t202 139q9 24 33 24q92 0 92 -46q0 -14 -1 -18q-23 -113 -106.5 -175t-220.5 -62t-220.5 62t-106.5 175q-1 4 -1 18z" />
    <glyph glyph-name="caron.case" 
d="M295 1598q0 20 22 45q21 25 41 25t35 -12l221 -173l221 173q15 12 35 12t41 -25q22 -25 22 -45t-16 -34l-245 -233q-22 -20 -58 -20t-58 20l-245 233q-16 14 -16 34z" />
    <glyph glyph-name="cedilla.case" 
d="M531 -177v205h132v-141q101 1 152 -46t51 -128t-62 -133t-195 -52t-235 48q-23 10 -23 30t8 40q17 45 46 45q8 0 32 -9q83 -31 183 -31q100 1 100 65t-116 64l-39 -1q-34 0 -34 44z" />
    <glyph glyph-name="circumflex.case" 
d="M933 1378q0 -20 -22 -44q-21 -25 -41 -25t-35 12l-221 173l-221 -173q-15 -12 -35 -12t-41 25q-22 24 -22 44t16 35l245 233q22 20 58 20t58 -20l245 -233q16 -15 16 -35z" />
    <glyph glyph-name="dieresis.case" 
d="M919 1568v-130q0 -36 -20 -50.5t-75 -14.5t-75 14.5t-20 50.5v130q0 36 20 50.5t75 14.5t75 -14.5t20 -50.5zM499 1568v-130q0 -36 -20 -50.5t-75 -14.5t-75 14.5t-20 50.5v130q0 36 20 50.5t75 14.5t75 -14.5t20 -50.5z" />
    <glyph glyph-name="dotaccent.case" 
d="M709 1568v-130q0 -36 -20 -50.5t-75 -14.5t-75 14.5t-20 50.5v130q0 36 20 50.5t75 14.5t75 -14.5t20 -50.5z" />
    <glyph glyph-name="grave.case" 
d="M811 1382q0 -22 -23 -48t-42 -26t-37 10l-374 219q-22 13 -22 41q-1 28 31 67q32 40 58 40t45 -13l348 -256q16 -12 16 -34z" />
    <glyph glyph-name="hungarumlaut.case" 
d="M997 1668q30 0 68 -24t38 -47q0 -24 -19 -41l-270 -233q-17 -14 -38 -14t-50 18q-29 17 -29 35t10 28l237 253q23 25 53 25zM617 1668q30 0 68 -24t38 -47q0 -24 -19 -41l-270 -233q-17 -14 -38 -14t-50 18q-29 17 -29 35t10 28l237 253q23 25 53 25z" />
    <glyph glyph-name="macron.case" 
d="M938 1448q0 -39 -14.5 -55.5t-48.5 -16.5h-522q-34 0 -48.5 16.5t-14.5 55.5t14.5 55.5t48.5 16.5h522q34 0 48.5 -16.5t14.5 -55.5z" />
    <glyph glyph-name="ogonek.case" 
d="M768 -314q41 0 41 -86q0 -34 -34 -46q-75 -26 -166 -26t-144.5 52t-53.5 139q0 148 188 309h165q-197 -175 -197 -268t77 -93q52 -1 86 9t38 10z" />
    <glyph glyph-name="ring.case" 
d="M500 1581q0 -52 31 -83t83 -31t83 31t31 83t-31 83t-83 31t-83 -31t-31 -83zM860 1581q0 -69 -32 -125.5t-88.5 -88.5t-125.5 -32t-125.5 32t-88.5 88.5t-32 125.5t32 125.5t88.5 88.5t125.5 32t125.5 -32t88.5 -88.5t32 -125.5z" />
    <glyph glyph-name="tilde.case" 
d="M493 1585q52 0 127 -35q74 -35 110 -35q65 0 131 68q12 12 33 12q20 1 42 -23t22 -45t-14 -38q-95 -123 -210 -123q-50 0 -126 35t-111 35q-64 0 -130 -68q-12 -12 -33 -12q-20 0 -42 24t-22 44q0 21 14 38q95 123 209 123z" />
    <glyph glyph-name="uni0326.case" horiz-adv-x="0" 
d="M-690 -526q-69 0 -69 45q0 4 2 16l63 287q8 32 42 32h116q28 0 28 -26q0 -12 -6 -25l-117 -291q-15 -38 -59 -38z" />
  </font>
</defs>
</svg>
